<svg width="274" height="283" viewBox="0 0 274 283" fill="none" xmlns="http://www.w3.org/2000/svg">
<g clip-path="url(#clip0_380_11247)">
<rect width="273.354" height="282.638" fill="#FFA96C"/>
<path fill-rule="evenodd" clip-rule="evenodd" d="M17.5019 74.9296C17.6648 75.5205 17.831 76.1288 18.0002 76.7557C18.2616 76.9326 18.5238 77.098 18.7867 77.2523C18.3425 76.5179 17.914 75.7422 17.5019 74.9296ZM41.0286 16.0106C47.3827 24.086 48.6086 29.7485 43.2906 41.9385C37.2254 55.8414 26.4935 73.2082 17.4417 74.7114C16.9756 73.025 16.5365 71.481 16.1292 70.0489C12.1171 55.9407 11.194 52.6948 18.0002 31.2087C25.4596 18.1613 31.7725 11.8836 41.0286 16.0106Z" fill="#FB964D"/>
<path fill-rule="evenodd" clip-rule="evenodd" d="M16.8867 74.3666C17.7815 76.1859 18.8209 77.7529 20.0108 79.0007C40.6991 74.8574 47.0131 63.107 55.4418 46.5338C62.2129 33.2197 60.4449 31.65 49.5438 21.9717C48.525 21.0671 47.4264 20.0918 46.2476 19.0294C43.3661 17.1964 40.8971 15.6877 38.6829 14.5752C46.8704 23.9139 48.9811 29.2722 43.1066 42.3897C36.9583 56.1186 26.0147 73.3149 16.8867 74.3666Z" fill="#E3823C"/>
<ellipse cx="55.9141" cy="11.9492" rx="8.6734" ry="15.1784" transform="rotate(-120.493 55.9141 11.9492)" fill="#86DA53"/>
<ellipse cx="44.8353" cy="9.20538" rx="5.63699" ry="11.0298" transform="rotate(-7.02822 44.8353 9.20538)" fill="#86DA53"/>
<path fill-rule="evenodd" clip-rule="evenodd" d="M20.5019 212.93C20.6648 213.52 20.831 214.129 21.0002 214.756C21.2616 214.933 21.5238 215.098 21.7867 215.252C21.3425 214.518 20.914 213.742 20.5019 212.93ZM44.0286 154.011C50.3827 162.086 51.6086 167.749 46.2906 179.939C40.2254 193.841 29.4935 211.208 20.4417 212.711C19.9756 211.025 19.5365 209.481 19.1292 208.049C15.1171 193.941 14.194 190.695 21.0002 169.209C28.4596 156.161 34.7725 149.884 44.0286 154.011Z" fill="#FB964D"/>
<path fill-rule="evenodd" clip-rule="evenodd" d="M19.8867 212.367C20.7815 214.186 21.8209 215.753 23.0108 217.001C43.6991 212.857 50.0131 201.107 58.4418 184.534C65.2129 171.22 63.4449 169.65 52.5438 159.972C51.525 159.067 50.4264 158.092 49.2476 157.029C46.3661 155.196 43.8971 153.688 41.6829 152.575C49.8704 161.914 51.9811 167.272 46.1066 180.39C39.9583 194.119 29.0147 211.315 19.8867 212.367Z" fill="#E3823C"/>
<ellipse cx="58.9141" cy="149.949" rx="8.6734" ry="15.1784" transform="rotate(-120.493 58.9141 149.949)" fill="#86DA53"/>
<ellipse cx="47.8353" cy="147.205" rx="5.63699" ry="11.0298" transform="rotate(-7.02822 47.8353 147.205)" fill="#86DA53"/>
<path fill-rule="evenodd" clip-rule="evenodd" d="M231.502 303.93C231.665 304.52 231.831 305.129 232 305.756C232.262 305.933 232.524 306.098 232.787 306.252C232.342 305.518 231.914 304.742 231.502 303.93ZM255.029 245.011C261.383 253.086 262.609 258.749 257.291 270.939C251.225 284.841 240.493 302.208 231.442 303.711C230.976 302.025 230.537 300.481 230.129 299.049C226.117 284.941 225.194 281.695 232 260.209C239.46 247.161 245.772 240.884 255.029 245.011Z" fill="#FB964D"/>
<path fill-rule="evenodd" clip-rule="evenodd" d="M230.887 303.367C231.782 305.186 232.821 306.753 234.011 308.001C254.699 303.857 261.013 292.107 269.442 275.534C276.213 262.22 274.445 260.65 263.544 250.972C262.525 250.067 261.426 249.092 260.248 248.029C257.366 246.196 254.897 244.688 252.683 243.575C260.87 252.914 262.981 258.272 257.107 271.39C250.958 285.119 240.015 302.315 230.887 303.367Z" fill="#E3823C"/>
<ellipse cx="269.914" cy="240.949" rx="8.6734" ry="15.1784" transform="rotate(-120.493 269.914 240.949)" fill="#86DA53"/>
<ellipse cx="258.835" cy="238.205" rx="5.63699" ry="11.0298" transform="rotate(-7.02822 258.835 238.205)" fill="#86DA53"/>
<path fill-rule="evenodd" clip-rule="evenodd" d="M115.502 117.93C115.665 118.52 115.831 119.129 116 119.756C116.262 119.933 116.524 120.098 116.787 120.252C116.342 119.518 115.914 118.742 115.502 117.93ZM139.029 59.0106C145.383 67.086 146.609 72.7485 141.291 84.9385C135.225 98.8414 124.493 116.208 115.442 117.711C114.976 116.025 114.537 114.481 114.129 113.049C110.117 98.9407 109.194 95.6948 116 74.2087C123.46 61.1614 129.772 54.8836 139.029 59.0106Z" fill="#FB964D"/>
<path fill-rule="evenodd" clip-rule="evenodd" d="M114.887 117.367C115.782 119.186 116.821 120.753 118.011 122.001C138.699 117.857 145.013 106.107 153.442 89.5338C160.213 76.2197 158.445 74.65 147.544 64.9717C146.525 64.0671 145.426 63.0918 144.248 62.0294C141.366 60.1964 138.897 58.6877 136.683 57.5752C144.87 66.9139 146.981 72.2722 141.107 85.3897C134.958 99.1186 124.015 116.315 114.887 117.367Z" fill="#E3823C"/>
<ellipse cx="153.914" cy="54.9492" rx="8.6734" ry="15.1784" transform="rotate(-120.493 153.914 54.9492)" fill="#86DA53"/>
<ellipse cx="142.835" cy="52.2054" rx="5.63699" ry="11.0298" transform="rotate(-7.02822 142.835 52.2054)" fill="#86DA53"/>
<path fill-rule="evenodd" clip-rule="evenodd" d="M217.116 134.567C217.374 135.5 217.636 136.461 217.904 137.451C218.316 137.73 218.731 137.992 219.146 138.235C218.444 137.075 217.767 135.85 217.116 134.567ZM254.302 41.4346C264.346 54.1995 266.284 63.1499 257.878 82.4184C248.291 104.394 231.328 131.844 217.021 134.22C216.284 131.555 215.59 129.114 214.946 126.85C208.604 104.55 207.145 99.4195 217.904 65.4578C229.694 44.8354 239.672 34.9125 254.302 41.4346Z" fill="#FB964D"/>
<path fill-rule="evenodd" clip-rule="evenodd" d="M216.143 133.676C217.557 136.552 219.2 139.028 221.081 141C253.781 134.452 263.762 115.878 277.084 89.6822C287.787 68.6375 284.992 66.1564 267.762 50.8584C266.151 49.4287 264.415 47.8871 262.552 46.2078C257.997 43.3103 254.094 40.9255 250.594 39.167C263.536 53.9286 266.873 62.3981 257.587 83.1325C247.869 104.833 230.571 132.014 216.143 133.676Z" fill="#E3823C"/>
<ellipse cx="277.831" cy="35.0175" rx="13.7095" ry="23.9916" transform="rotate(-120.493 277.831 35.0175)" fill="#86DA53"/>
<ellipse cx="260.32" cy="30.6806" rx="8.91002" ry="17.434" transform="rotate(-7.02822 260.32 30.6806)" fill="#86DA53"/>
<path fill-rule="evenodd" clip-rule="evenodd" d="M117.809 292.747C118.019 293.509 118.234 294.293 118.452 295.102C118.789 295.33 119.127 295.543 119.466 295.742C118.893 294.795 118.341 293.795 117.809 292.747ZM148.165 216.721C156.364 227.141 157.946 234.448 151.084 250.177C143.258 268.116 129.411 290.524 117.731 292.464C117.13 290.288 116.563 288.296 116.038 286.448C110.861 268.244 109.67 264.055 118.452 236.332C128.077 219.497 136.222 211.397 148.165 216.721Z" fill="#FB964D"/>
<path fill-rule="evenodd" clip-rule="evenodd" d="M117.015 292.02C118.169 294.368 119.511 296.389 121.046 297.999C147.74 292.653 155.887 277.492 166.763 256.107C175.5 238.928 173.218 236.902 159.152 224.414C157.838 223.247 156.42 221.988 154.899 220.618C151.181 218.252 147.995 216.306 145.138 214.87C155.703 226.92 158.427 233.834 150.847 250.76C142.913 268.475 128.793 290.663 117.015 292.02Z" fill="#E3823C"/>
<ellipse cx="167.372" cy="211.483" rx="11.1914" ry="19.5849" transform="rotate(-120.493 167.372 211.483)" fill="#86DA53"/>
<ellipse cx="153.077" cy="207.943" rx="7.27347" ry="14.2318" transform="rotate(-7.02822 153.077 207.943)" fill="#86DA53"/>
</g>
<defs>
<clipPath id="clip0_380_11247">
<rect width="273.354" height="282.638" fill="white"/>
</clipPath>
</defs>
</svg>
