<svg width="274" height="283" viewBox="0 0 274 283" fill="none" xmlns="http://www.w3.org/2000/svg">
<g clip-path="url(#clip0_372_9921)">
<rect width="273.354" height="282.638" fill="#FF8888"/>
<ellipse cx="6.77657" cy="20.3627" rx="6.77657" ry="20.3627" transform="matrix(0.976324 0.216313 -0.215577 0.976487 78.5876 41.1953)" fill="white" fill-opacity="0.75"/>
<ellipse cx="6.77657" cy="20.3627" rx="6.77657" ry="20.3627" transform="matrix(0.934261 0.356589 -0.355885 0.93453 31.9192 -13)" fill="white" fill-opacity="0.75"/>
<ellipse cx="6.77626" cy="20.3636" rx="6.77626" ry="20.3636" transform="matrix(0.989677 0.143314 -0.142814 0.98975 18.8164 85.1602)" fill="white" fill-opacity="0.75"/>
<ellipse cx="6.7798" cy="20.353" rx="6.7798" ry="20.353" transform="matrix(0.8285 0.559988 -0.558616 0.829427 162.979 80.5059)" fill="white" fill-opacity="0.75"/>
<ellipse cx="6.7798" cy="20.353" rx="6.7798" ry="20.353" transform="matrix(0.8285 0.559988 -0.558616 0.829427 153.209 7)" fill="white" fill-opacity="0.75"/>
<ellipse cx="6.7798" cy="20.353" rx="6.7798" ry="20.353" transform="matrix(0.924669 0.380773 -0.379241 0.925298 237.297 10.2305)" fill="white" fill-opacity="0.75"/>
<ellipse cx="6.77682" cy="20.3619" rx="6.77682" ry="20.3619" transform="matrix(0.965552 0.26021 -0.259345 0.965785 91.9524 139.355)" fill="white" fill-opacity="0.75"/>
<ellipse cx="6.77682" cy="20.3619" rx="6.77682" ry="20.3619" transform="matrix(0.998117 0.0613428 -0.0604484 0.998171 18.8313 168.894)" fill="white" fill-opacity="0.75"/>
<ellipse cx="6.77682" cy="20.3619" rx="6.77682" ry="20.3619" transform="matrix(0.907091 0.420934 -0.420121 0.907468 118.269 202.631)" fill="white" fill-opacity="0.75"/>
<ellipse cx="6.78206" cy="20.3462" rx="6.78206" ry="20.3462" transform="matrix(0.706865 0.707349 -0.706085 0.708127 203.628 163.321)" fill="white" fill-opacity="0.75"/>
<ellipse cx="6.78316" cy="20.3429" rx="6.78316" ry="20.3429" transform="matrix(0.781398 0.624033 -0.62266 0.782493 255.952 67.6875)" fill="white" fill-opacity="0.75"/>
<ellipse cx="6.7798" cy="20.353" rx="6.7798" ry="20.353" transform="matrix(0.635869 0.771797 -0.770743 0.637147 256.763 205.342)" fill="white" fill-opacity="0.75"/>
<ellipse cx="6.77682" cy="20.3619" rx="6.77682" ry="20.3619" transform="matrix(0.637296 0.77062 -0.770048 0.637986 166.485 261.481)" fill="white" fill-opacity="0.75"/>
<ellipse cx="6.77682" cy="20.3619" rx="6.77682" ry="20.3619" transform="matrix(0.996653 -0.0817455 0.0826385 0.99658 56.9653 242.589)" fill="white" fill-opacity="0.75"/>
<ellipse cx="6.7798" cy="20.353" rx="6.7798" ry="20.353" transform="matrix(0.956769 0.290849 -0.289264 0.957249 269.027 129.126)" fill="white" fill-opacity="0.75"/>
</g>
<defs>
<clipPath id="clip0_372_9921">
<rect width="273.354" height="282.638" fill="white"/>
</clipPath>
</defs>
</svg>
