<svg width="274" height="283" viewBox="0 0 274 283" fill="none" xmlns="http://www.w3.org/2000/svg">
<g clip-path="url(#clip0_226_13931)">
<rect width="273.354" height="282.638" fill="#C88B68"/>
<ellipse cx="7.93075" cy="20.1881" rx="7.93075" ry="20.1881" transform="matrix(-0.989922 0.141613 0.631696 0.775217 176.024 15)" fill="#ECAC4C"/>
<ellipse cx="7.93075" cy="20.1881" rx="7.93075" ry="20.1881" transform="matrix(-0.989922 0.141613 0.631696 0.775217 204.024 171)" fill="#ECAC4C"/>
<ellipse cx="7.24809" cy="20.0661" rx="7.24809" ry="20.0661" transform="matrix(-0.934292 0.356509 -0.155218 0.98788 195.028 98.9941)" fill="#ECAC4C"/>
<ellipse cx="7.24809" cy="20.0661" rx="7.24809" ry="20.0661" transform="matrix(-0.934292 0.356509 -0.155218 0.98788 223.028 254.994)" fill="#ECAC4C"/>
<ellipse cx="6.69034" cy="20.7715" rx="6.69034" ry="20.7715" transform="matrix(-0.734223 -0.678908 -0.254261 0.967136 113.514 31.5508)" fill="#A87C27"/>
<ellipse cx="6.69034" cy="20.7715" rx="6.69034" ry="20.7715" transform="matrix(-0.734223 -0.678908 -0.254261 0.967136 141.514 187.551)" fill="#A87C27"/>
<ellipse cx="6.09953" cy="17.4223" rx="6.09953" ry="17.4223" transform="matrix(-0.959554 -0.281526 -0.285311 0.958435 110.689 105.255)" fill="#ECAC4C"/>
<ellipse cx="6.09953" cy="17.4223" rx="6.09953" ry="17.4223" transform="matrix(-0.959554 -0.281526 -0.285311 0.958435 138.689 261.255)" fill="#ECAC4C"/>
<ellipse cx="6.50789" cy="21.1106" rx="6.50789" ry="21.1106" transform="matrix(-0.995537 -0.0943738 0.364012 0.931394 23.9578 59.7715)" fill="#ECAC4C"/>
<ellipse cx="6.50789" cy="21.1106" rx="6.50789" ry="21.1106" transform="matrix(-0.995537 -0.0943738 0.364012 0.931394 51.9578 215.771)" fill="#ECAC4C"/>
<ellipse cx="5.56455" cy="22.6457" rx="5.56455" ry="22.6457" transform="matrix(-0.527568 0.849513 0.706248 0.707964 22.01 138.481)" fill="#A87C27"/>
<ellipse cx="6.87355" cy="20.4157" rx="6.87355" ry="20.4157" transform="matrix(-0.980565 -0.196195 0.304691 0.952451 233.532 30.7637)" fill="#A87C27"/>
<ellipse cx="6.87355" cy="20.4157" rx="6.87355" ry="20.4157" transform="matrix(-0.980565 -0.196195 0.304691 0.952451 261.532 186.764)" fill="#A87C27"/>
</g>
<defs>
<clipPath id="clip0_226_13931">
<rect width="273.354" height="282.638" fill="white"/>
</clipPath>
</defs>
</svg>
