<svg width="54" height="75" viewBox="0 0 54 75" fill="none" xmlns="http://www.w3.org/2000/svg">
<mask id="path-1-outside-1_147_9965" maskUnits="userSpaceOnUse" x="0" y="5.3418" width="51" height="70" fill="black">
<rect fill="white" y="5.3418" width="51" height="70"/>
<path fill-rule="evenodd" clip-rule="evenodd" d="M25.2877 22.7187C24.7049 22.3879 24.1458 22.0861 23.6065 21.8152C23.7868 22.0208 23.9632 22.2239 24.1357 22.4247C17.7434 20.3611 13.1665 25.1576 7.8173 34.5139C2.62116 50.9173 3.32589 53.3954 6.38893 64.1661C6.67456 65.1705 6.9807 66.247 7.30448 67.4136C7.19131 67.4329 7.07848 67.4491 6.96602 67.4621C7.19115 67.9198 7.42827 68.3566 7.67754 68.7707C7.72382 68.9407 7.77041 69.1126 7.8173 69.2864C7.92664 69.3603 8.03614 69.4317 8.14583 69.5004C8.52251 70.0506 8.9241 70.5522 9.35106 70.9999C25.1454 67.8368 29.9657 58.8661 36.4005 46.2134C41.4443 36.2959 40.2818 34.9141 32.492 27.9895C34.8174 27.8744 37.5211 27.0478 40.1224 25.516C45.6371 22.2685 48.6032 17.0814 46.7476 13.9302C44.8919 10.7789 38.9171 10.8569 33.4024 14.1044C32.9619 14.3638 32.5377 14.6355 32.1308 14.9177C31.19 11.4789 29.2272 9.11771 27.2744 9.35846C24.9155 9.64927 23.4645 13.6267 24.0336 18.2423C24.2411 19.9254 24.6885 21.461 25.2877 22.7187ZM28.6843 38.6272C28.2874 39.88 27.769 41.231 27.1249 42.7074C26.9038 43.2143 26.6746 43.7272 26.4377 44.2446C26.6246 43.843 26.8067 43.4444 26.9835 43.0496C27.7071 41.4338 28.272 39.9722 28.6843 38.6272Z"/>
</mask>
<path fill-rule="evenodd" clip-rule="evenodd" d="M25.2877 22.7187C24.7049 22.3879 24.1458 22.0861 23.6065 21.8152C23.7868 22.0208 23.9632 22.2239 24.1357 22.4247C17.7434 20.3611 13.1665 25.1576 7.8173 34.5139C2.62116 50.9173 3.32589 53.3954 6.38893 64.1661C6.67456 65.1705 6.9807 66.247 7.30448 67.4136C7.19131 67.4329 7.07848 67.4491 6.96602 67.4621C7.19115 67.9198 7.42827 68.3566 7.67754 68.7707C7.72382 68.9407 7.77041 69.1126 7.8173 69.2864C7.92664 69.3603 8.03614 69.4317 8.14583 69.5004C8.52251 70.0506 8.9241 70.5522 9.35106 70.9999C25.1454 67.8368 29.9657 58.8661 36.4005 46.2134C41.4443 36.2959 40.2818 34.9141 32.492 27.9895C34.8174 27.8744 37.5211 27.0478 40.1224 25.516C45.6371 22.2685 48.6032 17.0814 46.7476 13.9302C44.8919 10.7789 38.9171 10.8569 33.4024 14.1044C32.9619 14.3638 32.5377 14.6355 32.1308 14.9177C31.19 11.4789 29.2272 9.11771 27.2744 9.35846C24.9155 9.64927 23.4645 13.6267 24.0336 18.2423C24.2411 19.9254 24.6885 21.461 25.2877 22.7187ZM28.6843 38.6272C28.2874 39.88 27.769 41.231 27.1249 42.7074C26.9038 43.2143 26.6746 43.7272 26.4377 44.2446C26.6246 43.843 26.8067 43.4444 26.9835 43.0496C27.7071 41.4338 28.272 39.9722 28.6843 38.6272Z" fill="#86DA53"/>
<path d="M25.2877 22.7187L23.5593 25.7641L33.2333 31.2544L28.449 21.2125L25.2877 22.7187ZM23.6065 21.8152L25.1787 18.6862L20.9734 24.1237L23.6065 21.8152ZM24.1357 22.4247L23.06 25.7571L34.9002 29.5793L26.7917 20.1425L24.1357 22.4247ZM7.8173 34.5139L4.7773 32.7759L4.59185 33.1003L4.47902 33.4565L7.8173 34.5139ZM6.38893 64.1661L3.02071 65.124H3.02071L6.38893 64.1661ZM7.30448 67.4136L7.89359 70.8655L11.7156 70.2132L10.6787 66.4772L7.30448 67.4136ZM6.96602 67.4621L6.56531 63.9833L1.63209 64.5515L3.82375 69.0076L6.96602 67.4621ZM7.67754 68.7707L11.0564 67.8511L10.9286 67.3815L10.6776 66.9646L7.67754 68.7707ZM7.8173 69.2864L4.43649 70.1988L4.77598 71.4567L5.85512 72.1867L7.8173 69.2864ZM8.14583 69.5004L11.0352 67.5221L10.6234 66.9207L10.0059 66.5336L8.14583 69.5004ZM9.35106 70.9999L6.8168 73.4165L8.1477 74.8122L10.0387 74.4335L9.35106 70.9999ZM36.4005 46.2134L33.2792 44.626L36.4005 46.2134ZM32.492 27.9895L32.3189 24.492L23.7632 24.9156L30.1655 30.6067L32.492 27.9895ZM40.1224 25.516L41.8993 28.5334L40.1224 25.516ZM46.7476 13.9302L49.765 12.1533V12.1533L46.7476 13.9302ZM33.4024 14.1044L35.1793 17.1218L35.1793 17.1218L33.4024 14.1044ZM32.1308 14.9177L28.7532 15.8418L30.0593 20.6157L34.1264 17.7952L32.1308 14.9177ZM27.2744 9.35846L27.7029 12.8339L27.2744 9.35846ZM24.0336 18.2423L20.5581 18.6708V18.6708L24.0336 18.2423ZM27.1249 42.7074L23.9153 41.3072L23.9153 41.3072L27.1249 42.7074ZM28.6843 38.6272L32.0323 39.6536L25.3461 37.5696L28.6843 38.6272ZM26.4377 44.2446L23.2538 42.7869L29.6123 45.7225L26.4377 44.2446ZM26.9835 43.0496L30.1794 44.4808L30.1794 44.4808L26.9835 43.0496ZM27.0161 19.6732C26.3934 19.3197 25.7813 18.989 25.1787 18.6862L22.0343 24.9441C22.5103 25.1833 23.0165 25.4561 23.5593 25.7641L27.0161 19.6732ZM20.9734 24.1237C21.1468 24.3214 21.3155 24.5157 21.4798 24.7068L26.7917 20.1425C26.6109 19.9321 26.4268 19.7202 26.2396 19.5067L20.9734 24.1237ZM25.2115 19.0922C20.7452 17.6504 16.7905 18.7108 13.3844 21.4632C10.2267 24.015 7.47654 28.0546 4.7773 32.7759L10.8573 36.252C13.5073 31.6169 15.7202 28.5802 17.7863 26.9105C19.6041 25.4415 21.134 25.1354 23.06 25.7571L25.2115 19.0922ZM4.47902 33.4565C1.88259 41.6529 0.607972 46.8032 0.50504 51.3734C0.40059 56.0111 1.51864 59.8422 3.02071 65.124L9.75715 63.2082C8.19617 57.7193 7.43034 54.926 7.5068 51.5311C7.58478 48.0688 8.55587 43.7783 11.1556 35.5714L4.47902 33.4565ZM3.02071 65.124C3.30662 66.1293 3.60986 67.1957 3.93025 68.3501L10.6787 66.4772C10.3515 65.2983 10.0425 64.2117 9.75715 63.2082L3.02071 65.124ZM6.71536 63.9618C6.66332 63.9707 6.61332 63.9778 6.56531 63.9833L7.36673 70.9408C7.54365 70.9205 7.71931 70.8952 7.89359 70.8655L6.71536 63.9618ZM3.82375 69.0076C4.0891 69.5471 4.37323 70.0714 4.67746 70.5767L10.6776 66.9646C10.4833 66.6418 10.2932 66.2925 10.1083 65.9166L3.82375 69.0076ZM4.29865 69.6902C4.34431 69.8579 4.39025 70.0275 4.43649 70.1988L11.1981 68.3739C11.1506 68.1977 11.1033 68.0235 11.0564 67.8511L4.29865 69.6902ZM5.85512 72.1867C5.99768 72.2832 6.14121 72.3767 6.28572 72.4673L10.0059 66.5336C9.93108 66.4866 9.85559 66.4375 9.77948 66.386L5.85512 72.1867ZM5.25646 71.4788C5.72741 72.1666 6.24587 72.8178 6.8168 73.4165L11.8853 68.5833C11.6023 68.2866 11.3176 67.9345 11.0352 67.5221L5.25646 71.4788ZM10.0387 74.4335C18.5746 72.724 24.4018 69.3676 28.9319 64.5692C33.3211 59.92 36.3471 54.0432 39.5218 47.8008L33.2792 44.626C30.0191 51.0364 27.4176 55.9712 23.8393 59.7613C20.402 63.4022 15.9218 66.1127 8.66342 67.5663L10.0387 74.4335ZM39.5218 47.8008C40.7985 45.2904 41.7982 43.1028 42.3734 41.1409C42.9653 39.1222 43.1733 37.129 42.649 35.1022C42.1347 33.1138 41.0159 31.4908 39.7082 30.0289C38.424 28.5933 36.7312 27.0725 34.8185 25.3723L30.1655 30.6067C32.1477 32.3688 33.5214 33.6174 34.4884 34.6984C35.4319 35.7531 35.7491 36.3937 35.8686 36.856C35.9783 37.2799 36.0181 37.9245 35.6527 39.1706C35.2708 40.4734 34.5243 42.1777 33.2792 44.626L39.5218 47.8008ZM32.6651 31.487C35.6406 31.3397 38.8887 30.3063 41.8993 28.5334L38.3455 22.4985C36.1536 23.7893 33.9942 24.4091 32.3189 24.492L32.6651 31.487ZM41.8993 28.5334C45.0845 26.6578 47.6858 24.141 49.2387 21.4253C50.735 18.8086 51.6057 15.279 49.765 12.1533L43.7301 15.7071C43.7451 15.7325 44.0605 16.3721 43.159 17.9487C42.3141 19.4262 40.675 21.1267 38.3455 22.4985L41.8993 28.5334ZM49.765 12.1533C47.9243 9.0275 44.4154 8.07695 41.4014 8.11629C38.2733 8.15712 34.8107 9.21125 31.6255 11.0869L35.1793 17.1218C37.5088 15.75 39.7909 15.1415 41.4928 15.1192C43.3088 15.0955 43.7151 15.6816 43.7301 15.7071L49.765 12.1533ZM31.6255 11.0869C31.1106 11.3901 30.6134 11.7085 30.1353 12.0401L34.1264 17.7952C34.4619 17.5626 34.8132 17.3374 35.1793 17.1218L31.6255 11.0869ZM27.7029 12.8339C27.0304 12.9168 26.9515 12.4892 27.4284 13.043C27.8551 13.5386 28.3802 14.4785 28.7532 15.8418L35.5085 13.9936C34.9406 11.9181 34.0139 9.958 32.7358 8.47349C31.5079 7.04724 29.4712 5.55934 26.8459 5.883L27.7029 12.8339ZM27.509 17.8138C27.2779 15.9393 27.4857 14.3656 27.8457 13.3787C28.2782 12.1931 28.5091 12.7345 27.7029 12.8339L26.8459 5.883C23.6808 6.2732 22.0068 8.94872 21.2663 10.9785C20.4534 13.2069 20.2202 15.9297 20.5581 18.6708L27.509 17.8138ZM28.449 21.2125C28.0273 20.3274 27.6751 19.1607 27.509 17.8138L20.5581 18.6708C20.8071 20.6901 21.3497 22.5946 22.1264 24.2248L28.449 21.2125ZM30.3346 44.1077C31.015 42.5479 31.5804 41.0804 32.0225 39.6849L25.3461 37.5696C24.9944 38.6797 24.523 39.9141 23.9153 41.3072L30.3346 44.1077ZM29.6216 45.7023C29.8671 45.1661 30.105 44.634 30.3346 44.1077L23.9153 41.3072C23.7027 41.7946 23.482 42.2884 23.2538 42.7869L29.6216 45.7023ZM23.7876 41.6183C23.6178 41.9974 23.4429 42.3804 23.2631 42.7666L29.6123 45.7225C29.8064 45.3056 29.9955 44.8914 30.1794 44.4808L23.7876 41.6183ZM25.3363 37.6009C24.9769 38.7732 24.4691 40.0964 23.7876 41.6183L30.1794 44.4808C30.945 42.7712 31.567 41.1712 32.0323 39.6536L25.3363 37.6009Z" fill="white" mask="url(#path-1-outside-1_147_9965)"/>
<path fill-rule="evenodd" clip-rule="evenodd" d="M7.43815 67.8968C7.56215 68.3466 7.68861 68.8095 7.81736 69.2866C8.01634 69.4212 8.21592 69.5471 8.41604 69.6646C8.07798 69.1056 7.75184 68.5152 7.43815 67.8968ZM25.3958 22.9103C30.2487 29.0769 31.1856 33.3998 27.125 42.7076C22.4947 53.3213 14.3019 66.5794 7.39145 67.7276C7.03545 66.4395 6.70006 65.2601 6.38899 64.1663C3.32595 53.3955 2.62122 50.9175 7.81736 34.5141C13.5115 24.5544 18.3306 19.7617 25.3958 22.9103Z" fill="#FB964D"/>
<path fill-rule="evenodd" clip-rule="evenodd" d="M6.96606 67.4623C7.64921 68.8513 8.44273 70.0476 9.35111 71.0002C25.1454 67.8371 29.9658 58.8663 36.4005 46.2137C41.5699 36.0492 40.2201 34.8508 31.8978 27.462C31.12 26.7714 30.2813 26.0268 29.3814 25.2158C27.1817 23.8164 25.2969 22.6647 23.6066 21.8154C29.857 28.9448 31.4683 33.0355 26.9835 43.0498C22.2896 53.5311 13.9347 66.6596 6.96606 67.4623Z" fill="#E3823C"/>
<ellipse cx="36.7624" cy="19.8102" rx="6.62161" ry="11.5878" transform="rotate(-120.493 36.7624 19.8102)" fill="#86DA53"/>
<ellipse cx="28.3047" cy="17.716" rx="4.3035" ry="8.42055" transform="rotate(-7.02822 28.3047 17.716)" fill="#86DA53"/>
</svg>
