<svg width="43" height="61" viewBox="0 0 43 61" fill="none" xmlns="http://www.w3.org/2000/svg">
<path fill-rule="evenodd" clip-rule="evenodd" d="M2.93806 58.0315C3.04426 58.4167 3.15256 58.8132 3.26285 59.2218C3.43324 59.3371 3.60415 59.4449 3.77552 59.5455C3.48598 59.0668 3.20668 58.5612 2.93806 58.0315ZM18.2888 19.5826C22.436 24.8528 23.2363 28.5478 19.7658 36.5029C15.8081 45.575 8.80522 56.9074 2.89859 57.8886C2.59438 56.7878 2.30778 55.78 2.04196 54.8453C-0.576138 45.6391 -1.1785 43.521 3.26285 29.5005C8.13016 20.987 12.2494 16.8905 18.2888 19.5826Z" fill="#FB964D"/>
<path fill-rule="evenodd" clip-rule="evenodd" d="M2.53613 57.6628C3.11998 58.8498 3.79813 59.8721 4.57443 60.6862C18.0744 57.9825 22.1946 50.3149 27.6946 39.5002C32.1131 30.8122 30.9594 29.7879 23.846 23.4724C23.1812 22.8821 22.4643 22.2457 21.6951 21.5524C19.8145 20.3561 18.2031 19.3715 16.7581 18.6455C22.1014 24.7399 23.479 28.2364 19.6455 36.7965C15.6335 45.7551 8.49245 56.9763 2.53613 57.6628Z" fill="#E3823C"/>
<ellipse cx="28.0031" cy="16.9336" rx="5.65975" ry="9.90456" transform="rotate(-120.493 28.0031 16.9336)" fill="#86DA53"/>
<ellipse cx="20.7738" cy="15.1429" rx="3.67837" ry="7.19737" transform="rotate(-7.02822 20.7738 15.1429)" fill="#86DA53"/>
</svg>
