<svg width="90" height="90" viewBox="0 0 90 90" fill="none" xmlns="http://www.w3.org/2000/svg">
<mask id="path-1-outside-1_397_11690" maskUnits="userSpaceOnUse" x="13" y="8" width="63" height="73" fill="black">
<rect fill="white" x="13" y="8" width="63" height="73"/>
<path fill-rule="evenodd" clip-rule="evenodd" d="M54.4975 22.8132C54.4976 22.7985 54.4976 22.7838 54.4976 22.769C54.4976 17.3737 50.1238 13 44.7286 13C39.3333 13 34.9595 17.3737 34.9595 22.769C34.9595 22.7838 34.9596 22.7985 34.9596 22.8132H26.48C21.7966 22.8132 18 26.6098 18 31.2932V67.3332C18 72.0166 21.7966 75.8132 26.48 75.8132H62.52C67.2034 75.8132 71 72.0166 71 67.3332V31.2932C71 26.6098 67.2034 22.8132 62.52 22.8132H54.4975Z"/>
</mask>
<path fill-rule="evenodd" clip-rule="evenodd" d="M54.4975 22.8132C54.4976 22.7985 54.4976 22.7838 54.4976 22.769C54.4976 17.3737 50.1238 13 44.7286 13C39.3333 13 34.9595 17.3737 34.9595 22.769C34.9595 22.7838 34.9596 22.7985 34.9596 22.8132H26.48C21.7966 22.8132 18 26.6098 18 31.2932V67.3332C18 72.0166 21.7966 75.8132 26.48 75.8132H62.52C67.2034 75.8132 71 72.0166 71 67.3332V31.2932C71 26.6098 67.2034 22.8132 62.52 22.8132H54.4975Z" fill="#FF9191"/>
<path d="M54.4975 22.8132L49.6448 22.7918L49.6234 27.6659H54.4975V22.8132ZM34.9596 22.8132V27.6659H39.8338L39.8123 22.7918L34.9596 22.8132ZM49.6449 22.769C49.6449 22.7762 49.6449 22.7838 49.6448 22.7918L59.3501 22.8346C59.3502 22.8132 59.3503 22.7913 59.3503 22.769H49.6449ZM44.7286 17.8527C47.4438 17.8527 49.6449 20.0538 49.6449 22.769H59.3503C59.3503 14.6937 52.8039 8.14731 44.7286 8.14731V17.8527ZM39.8122 22.769C39.8122 20.0538 42.0133 17.8527 44.7286 17.8527V8.14731C36.6532 8.14731 30.1068 14.6937 30.1068 22.769H39.8122ZM39.8123 22.7918C39.8122 22.7842 39.8122 22.7766 39.8122 22.769H30.1068C30.1068 22.7909 30.1069 22.8127 30.107 22.8346L39.8123 22.7918ZM34.9596 17.9605H26.48V27.6659H34.9596V17.9605ZM26.48 17.9605C19.1166 17.9605 13.1473 23.9297 13.1473 31.2932H22.8527C22.8527 29.2899 24.4767 27.6659 26.48 27.6659V17.9605ZM13.1473 31.2932V67.3332H22.8527V31.2932H13.1473ZM13.1473 67.3332C13.1473 74.6966 19.1166 80.6659 26.48 80.6659V70.9605C24.4767 70.9605 22.8527 69.3365 22.8527 67.3332H13.1473ZM26.48 80.6659H62.52V70.9605H26.48V80.6659ZM62.52 80.6659C69.8834 80.6659 75.8527 74.6966 75.8527 67.3332H66.1473C66.1473 69.3365 64.5233 70.9605 62.52 70.9605V80.6659ZM75.8527 67.3332V31.2932H66.1473V67.3332H75.8527ZM75.8527 31.2932C75.8527 23.9297 69.8834 17.9605 62.52 17.9605V27.6659C64.5233 27.6659 66.1473 29.2899 66.1473 31.2932H75.8527ZM62.52 17.9605H54.4975V27.6659H62.52V17.9605Z" fill="#FF8888" mask="url(#path-1-outside-1_397_11690)"/>
<rect x="18" y="22.8135" width="53" height="53" rx="8.48" fill="white"/>
<rect x="25.9502" y="39.2559" width="7.16216" height="15.7568" rx="3.58108" fill="#413434"/>
<rect x="56.0322" y="39.2559" width="7.16216" height="15.7568" rx="3.58108" fill="#413434"/>
<path d="M46.4943 64.8721C45.5208 66.3175 43.3936 66.3175 42.4201 64.8721L36.9752 56.7886C35.8763 55.1572 37.0453 52.9603 39.0124 52.9603H49.902C51.8691 52.9603 53.0381 55.1572 51.9392 56.7886L46.4943 64.8721Z" fill="#818080"/>
<path d="M46.4943 64.8721C45.5208 66.3175 43.3936 66.3175 42.4201 64.8721L36.9752 56.7886C35.8763 55.1572 37.0453 52.9603 39.0124 52.9603H49.902C51.8691 52.9603 53.0381 55.1572 51.9392 56.7886L46.4943 64.8721Z" fill="#FFB977"/>
<circle cx="44.729" cy="22.769" r="9.76903" fill="#FF9191"/>
</svg>
