<svg width="78" height="97" viewBox="0 0 78 97" fill="none" xmlns="http://www.w3.org/2000/svg">
<rect x="25.0654" width="54.688" height="83.5798" rx="10.3185" transform="rotate(17.4515 25.0654 0)" fill="#68422C"/>
<rect x="28.8054" y="8.74658" width="18.5733" height="20.637" rx="5.15925" transform="rotate(17.4515 28.8054 8.74658)" fill="#422515"/>
<path fill-rule="evenodd" clip-rule="evenodd" d="M38.3898 91.8011L63.4553 12.0684L67.3926 13.3061C72.8291 15.0152 75.8507 20.8077 74.1417 26.2442L55.2652 86.2898C53.5562 91.7262 47.7636 94.7479 42.3272 93.0389L38.3898 91.8011Z" fill="#4D301F"/>
<rect x="52.4297" y="16.1743" width="18.5733" height="20.637" rx="5.15925" transform="rotate(17.4515 52.4297 16.1743)" fill="#422515"/>
<path d="M61.2891 18.959L65.2265 20.1968C67.9447 21.0513 69.4555 23.9476 68.601 26.6658L65.5065 36.5094C64.652 39.2276 61.7557 40.7384 59.0375 39.8839L55.1001 38.6461L61.2891 18.959Z" fill="#351D10"/>
<rect x="21.3787" y="32.3721" width="18.5733" height="20.637" rx="5.15925" transform="rotate(17.4515 21.3787 32.3721)" fill="#422515"/>
<rect x="45.0032" y="39.7983" width="18.5733" height="20.637" rx="5.15925" transform="rotate(17.4515 45.0032 39.7983)" fill="#422515"/>
<path d="M53.8621 42.5835L57.7995 43.8213C60.5177 44.6758 62.0285 47.5721 61.174 50.2903L58.0795 60.1339C57.225 62.8521 54.3287 64.3629 51.6105 63.5084L47.6731 62.2706L53.8621 42.5835Z" fill="#351D10"/>
<rect x="13.6423" y="56.981" width="18.5733" height="20.637" rx="5.15925" transform="rotate(17.4515 13.6423 56.981)" fill="#422515"/>
<rect x="37.2668" y="64.4072" width="18.5733" height="20.637" rx="5.15925" transform="rotate(17.4515 37.2668 64.4072)" fill="#422515"/>
<path d="M46.1262 67.1929L50.0636 68.4307C52.7819 69.2852 54.2927 72.1815 53.4382 74.8997L50.3437 84.7432C49.4891 87.4615 46.5929 88.9723 43.8746 88.1178L39.9372 86.88L46.1262 67.1929Z" fill="#351D10"/>
</svg>
