<svg width="105" height="106" viewBox="0 0 105 106" fill="none" xmlns="http://www.w3.org/2000/svg">
<mask id="path-1-outside-1_263_1185" maskUnits="userSpaceOnUse" x="14.1733" y="6.43617" width="75.9296" height="92.3594" fill="black">
<rect fill="white" x="14.1733" y="6.43617" width="75.9296" height="92.3594"/>
<path fill-rule="evenodd" clip-rule="evenodd" d="M39.3198 19.3702C40.9379 14.7606 45.9865 12.3354 50.5962 13.9535L74.8017 22.4502L74.8021 22.4489L78.1408 23.6209C82.7504 25.239 85.1756 30.2875 83.5575 34.8972L65.6856 85.8109C65.2304 87.1079 64.5035 88.2319 63.5913 89.1416C63.4394 89.2932 63.2823 89.4388 63.1204 89.5783C60.8006 91.5778 57.5053 92.3158 54.4082 91.2287L26.8647 81.5603C22.2551 79.9422 19.8299 74.8936 21.448 70.284L39.3198 19.3702Z"/>
</mask>
<path fill-rule="evenodd" clip-rule="evenodd" d="M39.3198 19.3702C40.9379 14.7606 45.9865 12.3354 50.5962 13.9535L74.8017 22.4502L74.8021 22.4489L78.1408 23.6209C82.7504 25.239 85.1756 30.2875 83.5575 34.8972L65.6856 85.8109C65.2304 87.1079 64.5035 88.2319 63.5913 89.1416C63.4394 89.2932 63.2823 89.4388 63.1204 89.5783C60.8006 91.5778 57.5053 92.3158 54.4082 91.2287L26.8647 81.5603C22.2551 79.9422 19.8299 74.8936 21.448 70.284L39.3198 19.3702Z" fill="#351D10"/>
<path d="M50.5962 13.9535L48.8926 18.8068L50.5962 13.9535ZM39.3198 19.3702L34.4665 17.6666L34.4665 17.6666L39.3198 19.3702ZM74.8017 22.4502L73.098 27.3035L77.9465 29.0054L79.6533 24.1586L74.8017 22.4502ZM74.8021 22.4489L76.5057 17.5956L71.6572 15.8937L69.9505 20.7405L74.8021 22.4489ZM78.1408 23.6209L76.4371 28.4742L78.1408 23.6209ZM83.5575 34.8972L88.4108 36.6008L88.4108 36.6008L83.5575 34.8972ZM65.6856 85.8109L60.8323 84.1073L60.8323 84.1073L65.6856 85.8109ZM63.5913 89.1416L59.9592 85.4995L59.9586 85.5001L63.5913 89.1416ZM63.1204 89.5783L59.7623 85.6821L59.7623 85.6822L63.1204 89.5783ZM54.4082 91.2287L52.7046 96.082L52.7046 96.082L54.4082 91.2287ZM26.8647 81.5603L25.1611 86.4136L26.8647 81.5603ZM21.448 70.284L26.3013 71.9876L26.3013 71.9876L21.448 70.284ZM52.2998 9.10017C45.0097 6.54119 37.0255 10.3765 34.4665 17.6666L44.1732 21.0739C44.8504 19.1446 46.9633 18.1296 48.8926 18.8068L52.2998 9.10017ZM76.5053 17.5968L52.2998 9.10017L48.8926 18.8068L73.098 27.3035L76.5053 17.5968ZM69.9505 20.7405L69.95 20.7417L79.6533 24.1586L79.6537 24.1574L69.9505 20.7405ZM79.8444 18.7675L76.5057 17.5956L73.0985 27.3023L76.4371 28.4742L79.8444 18.7675ZM88.4108 36.6008C90.9698 29.3107 87.1344 21.3265 79.8444 18.7675L76.4371 28.4742C78.3664 29.1514 79.3813 31.2643 78.7041 33.1936L88.4108 36.6008ZM70.539 87.5146L88.4108 36.6008L78.7041 33.1936L60.8323 84.1073L70.539 87.5146ZM67.2234 92.7837C68.6714 91.3397 69.822 89.557 70.539 87.5146L60.8323 84.1073C60.6387 84.6588 60.3357 85.124 59.9592 85.4995L67.2234 92.7837ZM66.4785 93.4745C66.7347 93.2537 66.9834 93.0231 67.224 92.7831L59.9586 85.5001C59.8953 85.5632 59.8298 85.6239 59.7623 85.6821L66.4785 93.4745ZM52.7046 96.082C57.6088 97.8035 62.8215 96.6265 66.4785 93.4745L59.7623 85.6822C58.7797 86.5291 57.4019 86.8282 56.1119 86.3753L52.7046 96.082ZM25.1611 86.4136L52.7046 96.082L56.1119 86.3753L28.5684 76.707L25.1611 86.4136ZM16.5947 68.5803C14.0357 75.8704 17.871 83.8547 25.1611 86.4136L28.5684 76.707C26.6391 76.0298 25.6241 73.9168 26.3013 71.9876L16.5947 68.5803ZM34.4665 17.6666L16.5947 68.5803L26.3013 71.9876L44.1732 21.0738L34.4665 17.6666Z" fill="white" mask="url(#path-1-outside-1_263_1185)"/>
<rect x="42.2483" y="11.0234" width="46.8827" height="71.651" rx="8.8458" transform="rotate(19.3422 42.2483 11.0234)" fill="#68422C"/>
<rect x="45.2046" y="18.6245" width="15.9224" height="17.6916" rx="4.4229" transform="rotate(19.3422 45.2046 18.6245)" fill="#422515"/>
<path fill-rule="evenodd" clip-rule="evenodd" d="M51.0683 90.057L74.7998 22.4502L78.1385 23.6221C82.7481 25.2402 85.1733 30.2888 83.5552 34.8985L65.6833 85.8122C64.0652 90.4219 59.0167 92.847 54.407 91.2289L51.0683 90.057Z" fill="#4D301F"/>
<rect x="65.2361" y="25.6562" width="15.9224" height="17.6916" rx="4.4229" transform="rotate(19.3422 65.2361 25.6562)" fill="#422515"/>
<path d="M72.7488 28.293L76.0874 29.4649C78.3922 30.2739 79.6048 32.7982 78.7957 35.1031L75.8659 43.4496C75.0569 45.7544 72.5326 46.967 70.2278 46.1579L66.8892 44.986L72.7488 28.293Z" fill="#351D10"/>
<rect x="38.1741" y="38.6562" width="15.9224" height="17.6916" rx="4.4229" transform="rotate(19.3422 38.1741 38.6562)" fill="#422515"/>
<rect x="58.2056" y="45.6875" width="15.9224" height="17.6916" rx="4.4229" transform="rotate(19.3422 58.2056 45.6875)" fill="#422515"/>
<path d="M65.7178 48.3237L69.0564 49.4957C71.3612 50.3047 72.5738 52.829 71.7647 55.1338L68.8349 63.4803C68.0259 65.7852 65.5016 66.9977 63.1968 66.1887L59.8582 65.0168L65.7178 48.3237Z" fill="#351D10"/>
<rect x="30.8494" y="59.522" width="15.9224" height="17.6916" rx="4.4229" transform="rotate(19.3422 30.8494 59.522)" fill="#422515"/>
<rect x="50.8809" y="66.5537" width="15.9224" height="17.6916" rx="4.4229" transform="rotate(19.3422 50.8809 66.5537)" fill="#422515"/>
<path d="M58.3931 69.1909L61.7317 70.3628C64.0365 71.1719 65.2491 73.6962 64.44 76.001L61.5102 84.3475C60.7012 86.6523 58.1769 87.8649 55.8721 87.0559L52.5334 85.884L58.3931 69.1909Z" fill="#351D10"/>
</svg>
