<svg width="90" height="90" viewBox="0 0 90 90" fill="none" xmlns="http://www.w3.org/2000/svg">
<mask id="path-1-outside-1_397_11689" maskUnits="userSpaceOnUse" x="1.4375" y="7.42578" width="87" height="69" fill="black">
<rect fill="white" x="1.4375" y="7.42578" width="87" height="69"/>
<path fill-rule="evenodd" clip-rule="evenodd" d="M64.5984 14.2398C64.2448 12.1322 61.3762 11.7544 60.2899 13.6724L57.0407 19.4091H49.4282H38.9393H32.9794L28.6276 14.1967C27.1832 12.4666 24.3688 13.2657 24.4357 15.387L24.5852 20.1319C22.5391 21.0523 20.9357 22.782 20.1827 24.9133C18.6517 25.1611 16.942 25.785 15.2021 26.7959C10.1197 29.7487 6.70376 34.8849 7.57246 38.2678C8.44116 41.6508 13.2655 41.9995 18.3479 39.0467C18.818 38.7735 19.2739 38.4817 19.7134 38.1743V62.7458C19.7134 67.3048 23.4092 71.0006 27.9682 71.0006H63.0501C67.6091 71.0006 71.3049 67.3048 71.3049 62.7458V37.3828C71.593 37.5475 71.8864 37.7057 72.1848 37.8569C77.4938 40.548 82.3306 39.9826 82.9881 36.5941C83.6455 33.2057 79.8746 28.2773 74.5656 25.5863C73.1573 24.8725 71.7822 24.3878 70.5096 24.1241C69.532 22.0678 67.7292 20.4796 65.5292 19.7878L64.5984 14.2398Z"/>
</mask>
<path fill-rule="evenodd" clip-rule="evenodd" d="M64.5984 14.2398C64.2448 12.1322 61.3762 11.7544 60.2899 13.6724L57.0407 19.4091H49.4282H38.9393H32.9794L28.6276 14.1967C27.1832 12.4666 24.3688 13.2657 24.4357 15.387L24.5852 20.1319C22.5391 21.0523 20.9357 22.782 20.1827 24.9133C18.6517 25.1611 16.942 25.785 15.2021 26.7959C10.1197 29.7487 6.70376 34.8849 7.57246 38.2678C8.44116 41.6508 13.2655 41.9995 18.3479 39.0467C18.818 38.7735 19.2739 38.4817 19.7134 38.1743V62.7458C19.7134 67.3048 23.4092 71.0006 27.9682 71.0006H63.0501C67.6091 71.0006 71.3049 67.3048 71.3049 62.7458V37.3828C71.593 37.5475 71.8864 37.7057 72.1848 37.8569C77.4938 40.548 82.3306 39.9826 82.9881 36.5941C83.6455 33.2057 79.8746 28.2773 74.5656 25.5863C73.1573 24.8725 71.7822 24.3878 70.5096 24.1241C69.532 22.0678 67.7292 20.4796 65.5292 19.7878L64.5984 14.2398Z" fill="white"/>
<path d="M60.2899 13.6724L55.9392 11.2082L55.9392 11.2082L60.2899 13.6724ZM64.5984 14.2398L59.6673 15.0671L59.6673 15.0671L64.5984 14.2398ZM57.0407 19.4091V24.4091H59.955L61.3913 21.8732L57.0407 19.4091ZM32.9794 19.4091L29.1413 22.6135L30.6404 24.4091H32.9794V19.4091ZM28.6276 14.1967L32.4658 10.9922L28.6276 14.1967ZM24.4357 15.387L19.4381 15.5445L19.4381 15.5445L24.4357 15.387ZM24.5852 20.1319L26.6364 24.6918L29.6881 23.319L29.5827 19.9744L24.5852 20.1319ZM20.1827 24.9133L20.9814 29.8492L23.9092 29.3754L24.8972 26.5789L20.1827 24.9133ZM15.2021 26.7959L12.6903 22.4726L12.6903 22.4726L15.2021 26.7959ZM7.57246 38.2678L2.72958 39.5114L7.57246 38.2678ZM18.3479 39.0467L15.8361 34.7233L15.8361 34.7234L18.3479 39.0467ZM19.7134 38.1743H24.7134V28.5763L16.8479 34.0769L19.7134 38.1743ZM71.3049 37.3828L73.786 33.0418L66.3049 28.7659V37.3828H71.3049ZM72.1848 37.8569L69.9242 42.3168L69.9242 42.3168L72.1848 37.8569ZM82.9881 36.5941L87.8965 37.5465L87.8966 37.5465L82.9881 36.5941ZM74.5656 25.5863L72.305 30.0461L72.305 30.0461L74.5656 25.5863ZM70.5096 24.1241L65.9938 26.2708L67.0611 28.5159L69.4953 29.0202L70.5096 24.1241ZM65.5292 19.7878L60.5981 20.6152L61.1053 23.6381L64.0293 24.5576L65.5292 19.7878ZM64.6405 16.1365C64.0946 17.1003 63.0124 17.5283 62.066 17.4037C61.0817 17.274 59.9014 16.4624 59.6673 15.0671L69.5294 13.4125C68.9417 9.90962 66.1503 7.85523 63.3718 7.48928C60.6311 7.12833 57.5715 8.32641 55.9392 11.2082L64.6405 16.1365ZM61.3913 21.8732L64.6405 16.1365L55.9392 11.2082L52.69 16.9449L61.3913 21.8732ZM57.0407 14.4091H49.4282V24.4091H57.0407V14.4091ZM49.4282 14.4091H38.9393V24.4091H49.4282V14.4091ZM38.9393 14.4091H32.9794V24.4091H38.9393V14.4091ZM36.8176 16.2046L32.4658 10.9922L24.7895 17.4012L29.1413 22.6135L36.8176 16.2046ZM32.4658 10.9922C30.3938 8.51059 27.2447 7.78653 24.5992 8.53772C21.8806 9.30966 19.3212 11.8334 19.4381 15.5445L29.4332 15.2295C29.4536 15.8758 29.2374 16.5943 28.7633 17.1867C28.3225 17.7376 27.784 18.0287 27.3306 18.1574C26.4367 18.4113 25.4169 18.1527 24.7895 17.4012L32.4658 10.9922ZM19.4381 15.5445L19.5877 20.2894L29.5827 19.9744L29.4332 15.2295L19.4381 15.5445ZM22.5339 15.572C19.25 17.0493 16.6793 19.8201 15.4683 23.2478L24.8972 26.5789C25.1921 25.744 25.8281 25.0554 26.6364 24.6918L22.5339 15.572ZM19.3841 19.9775C17.1524 20.3386 14.8669 21.208 12.6903 22.4726L17.7139 31.1192C19.0171 30.3621 20.1509 29.9835 20.9814 29.8492L19.3841 19.9775ZM12.6903 22.4726C9.5234 24.3125 6.82 26.8535 4.99227 29.6017C3.28529 32.1683 1.77885 35.8091 2.72958 39.5114L12.4153 37.0243C12.4974 37.3437 12.2645 36.7249 13.3189 35.1395C14.2526 33.7356 15.7983 32.2321 17.7139 31.1192L12.6903 22.4726ZM2.72958 39.5114C3.85326 43.8873 7.62081 45.7745 11.0196 46.0202C14.2636 46.2546 17.7424 45.1811 20.8597 43.37L15.8361 34.7234C13.871 35.865 12.3965 36.0936 11.7405 36.0462C11.443 36.0247 11.5354 35.9662 11.7944 36.1493C12.1172 36.3776 12.3403 36.7319 12.4153 37.0243L2.72958 39.5114ZM20.8597 43.37C21.4532 43.0251 22.027 42.6578 22.5789 42.2718L16.8479 34.0769C16.5208 34.3057 16.1829 34.5219 15.8361 34.7233L20.8597 43.37ZM14.7134 38.1743V62.7458H24.7134V38.1743H14.7134ZM14.7134 62.7458C14.7134 70.0662 20.6478 76.0006 27.9682 76.0006V66.0006C26.1706 66.0006 24.7134 64.5434 24.7134 62.7458H14.7134ZM27.9682 76.0006H63.0501V66.0006H27.9682V76.0006ZM63.0501 76.0006C70.3705 76.0006 76.3049 70.0662 76.3049 62.7458H66.3049C66.3049 64.5434 64.8477 66.0006 63.0501 66.0006V76.0006ZM76.3049 62.7458V37.3828H66.3049V62.7458H76.3049ZM68.8237 41.7238C69.1834 41.9293 69.5504 42.1273 69.9242 42.3168L74.4453 33.3971C74.2225 33.2842 74.0026 33.1656 73.786 33.0418L68.8237 41.7238ZM69.9242 42.3168C73.1548 43.9542 76.6919 44.8478 79.9113 44.4715C83.2614 44.0799 87.0227 42.0505 87.8965 37.5465L78.0796 35.6418C78.1456 35.3019 78.3736 34.9053 78.7061 34.6476C78.9691 34.4437 79.0672 34.5021 78.7503 34.5392C78.0597 34.6199 76.5238 34.4507 74.4453 33.3971L69.9242 42.3168ZM87.8966 37.5465C88.6281 33.7759 86.8488 30.226 84.9852 27.7903C82.9773 25.1661 80.1086 22.7903 76.8261 21.1265L72.305 30.0461C74.3316 31.0733 76.0029 32.5072 77.0433 33.867C78.2281 35.4154 78.0055 36.0239 78.0796 35.6418L87.8966 37.5465ZM76.8261 21.1265C75.0697 20.2362 73.2773 19.5913 71.5239 19.2281L69.4953 29.0202C70.2871 29.1842 71.2448 29.5087 72.305 30.0461L76.8261 21.1265ZM75.0253 21.9775C73.4573 18.6791 70.5696 16.1314 67.0291 15.0181L64.0293 24.5576C64.8888 24.8278 65.6067 25.4564 65.9938 26.2708L75.0253 21.9775ZM59.6673 15.0671L60.5981 20.6152L70.4603 18.9605L69.5294 13.4125L59.6673 15.0671Z" fill="#FF8888" mask="url(#path-1-outside-1_397_11689)"/>
<path d="M81.5958 35.8883C81.4176 36.8064 80.6065 37.6246 78.8898 37.8252C77.2132 38.0212 74.9363 37.5678 72.4826 36.3241C70.029 35.0805 67.9996 33.3511 66.6925 31.6427C65.3542 29.8936 64.9774 28.4733 65.1555 27.5552C65.3337 26.637 66.1448 25.8189 67.8614 25.6182C69.538 25.4222 71.815 25.8756 74.2686 27.1193C76.7223 28.363 78.7516 30.0923 80.0587 31.8007C81.3971 33.5499 81.7739 34.9701 81.5958 35.8883Z" fill="#FFBDBD" stroke="#413434" stroke-width="3.12299"/>
<path d="M24.6278 28.3592C24.8703 29.3034 24.5751 30.7626 23.3713 32.5726C22.1915 34.3465 20.3009 36.1743 17.96 37.5343C15.6192 38.8943 13.4025 39.4528 11.7363 39.3324C10.0362 39.2095 9.16555 38.4277 8.92309 37.4835C8.68063 36.5393 8.97588 35.0802 10.1796 33.2702C11.3594 31.4963 13.25 29.6684 15.5909 28.3084C17.9318 26.9484 20.1484 26.39 21.8146 26.5104C23.5147 26.6333 24.3854 27.415 24.6278 28.3592Z" fill="#FFBDBD" stroke="#413434" stroke-width="3.12299"/>
<rect x="19.7139" y="19.4092" width="51.5915" height="51.5915" rx="8.25476" fill="white"/>
<rect x="27.4531" y="35.417" width="6.97182" height="15.338" rx="3.48591" fill="#413434"/>
<rect x="56.7354" y="35.417" width="6.97182" height="15.338" rx="3.48591" fill="#413434"/>
<rect x="31.7139" y="51.001" width="26.8573" height="14.2858" rx="7.1429" fill="#FFBDBD"/>
<rect x="38.5713" y="54.4297" width="3.03785" height="7.59463" rx="1.51893" fill="#E37373"/>
<rect x="49.2031" y="54.4297" width="3.03785" height="7.59463" rx="1.51893" fill="#E37373"/>
<path fill-rule="evenodd" clip-rule="evenodd" d="M49.4287 19.4092C49.4966 25.8851 54.0753 31.1106 59.7137 31.1106C60.8127 31.1106 61.8714 30.9121 62.8643 30.5445C63.761 34.1092 66.6164 36.7152 70.0003 36.7152C70.4454 36.7152 70.8813 36.6701 71.3049 36.5837V27.6639C71.3049 23.105 67.6091 19.4092 63.0501 19.4092H49.4287Z" fill="#413434"/>
<path fill-rule="evenodd" clip-rule="evenodd" d="M39.1427 21.3097C39.1427 26.3347 34.9838 30.4154 29.8299 30.4757C28.9949 34.7076 25.1667 37.905 20.5705 37.905C20.2817 37.905 19.996 37.8924 19.7139 37.8677V27.664C19.7139 23.105 23.4097 19.4092 27.9686 19.4092H38.9398C39.0727 20.0223 39.1427 20.6581 39.1427 21.3097Z" fill="#413434"/>
<path d="M28.0215 14.629L33.8463 21.6057C34.5437 22.4409 34.2107 23.6132 33.194 23.9019L27.6388 25.4793C26.6221 25.768 25.5281 25.0009 25.4958 23.9768L25.2263 15.4227C25.1817 14.0082 27.0583 13.4754 28.0215 14.629Z" fill="white" stroke="#413434" stroke-width="1.53644"/>
<path d="M63.8351 14.3982L65.2603 22.8931C65.4333 23.9241 64.5093 24.8611 63.4564 24.7225L57.6527 23.9581C56.5999 23.8194 56.0522 22.6885 56.5836 21.7503L60.9621 14.0198C61.6865 12.7409 63.5993 12.9928 63.8351 14.3982Z" fill="white" stroke="#413434" stroke-width="1.53644"/>
</svg>
