<svg width="88" height="91" viewBox="0 0 88 91" fill="none" xmlns="http://www.w3.org/2000/svg">
<g clip-path="url(#clip0_161_11822)">
<rect x="-5.69385" y="-24.2129" width="96.5996" height="134.057" rx="23.8974" fill="#D9D9D9"/>
<rect x="-5.69385" y="-24.2129" width="96.5996" height="134.057" rx="23.8974" fill="#D9D9D9"/>
<path fill-rule="evenodd" clip-rule="evenodd" d="M34.1519 -21.0876C37.4643 -23.2853 41.4205 -24.2114 45.3956 -24.2114H71.8105C82.6984 -24.2114 91.5247 -15.3851 91.5247 -4.49721V47.2557C91.5247 49.7632 91.1476 52.2613 90.3008 54.6215C86.053 66.4601 79.8781 78.0637 71.9448 88.3575C66.5608 95.3435 60.7971 101.168 54.8989 105.781C51.2907 108.602 46.7498 109.846 42.1692 109.846H13.8155C2.92769 109.846 -5.89868 101.02 -5.89868 90.1322V37.2591C-5.89868 34.473 -5.43257 31.7001 -4.39323 29.1151C-0.258038 18.8302 5.33428 8.82812 12.2709 -0.172533C19.1186 -9.0577 26.5803 -16.0641 34.1519 -21.0876Z" fill="#B3B3B3"/>
<ellipse cx="80.483" cy="44.3682" rx="80.483" ry="44.3682" transform="matrix(0.610432 -0.792068 0.558933 0.829213 -29.3506 69.769)" fill="#EDEDED"/>
<ellipse cx="69.4208" cy="46.1199" rx="69.4208" ry="46.1199" transform="matrix(0.494849 -0.868979 0.445825 0.89512 -15.9089 92.6968)" fill="#D9D9D9"/>
<ellipse cx="56.4871" cy="37.5273" rx="56.4871" ry="37.5273" transform="matrix(0.494849 -0.868979 0.445825 0.89512 -5.19214 85.8765)" fill="#EDEDED"/>
<ellipse cx="45.1171" cy="31.0338" rx="45.1171" ry="31.0338" transform="matrix(0.494849 -0.868979 0.445825 0.89512 5.22974 78.7188)" fill="#D9D9D9"/>
<ellipse cx="38.4148" cy="18.5561" rx="38.4148" ry="18.5561" transform="matrix(0.42718 -0.904167 0.51275 0.858538 15.3191 84.249)" fill="#EDEDED"/>
</g>
<rect x="2.5" y="2.5" width="83" height="85.649" rx="26.5" stroke="white" stroke-width="5"/>
<defs>
<clipPath id="clip0_161_11822">
<rect x="5" y="5" width="78" height="80.649" rx="24" fill="white"/>
</clipPath>
</defs>
</svg>
