<svg width="77" height="81" viewBox="0 0 77 81" fill="none" xmlns="http://www.w3.org/2000/svg">
<rect width="76.4911" height="80.45" rx="10.0562" fill="white"/>
<path fill-rule="evenodd" clip-rule="evenodd" d="M52.2397 80.45C55.3544 70.235 57.0863 58.9142 57.0863 47C57.0863 29.5154 53.3563 13.309 47 0H66.4349C71.9888 0 76.4911 4.50234 76.4911 10.0562V70.3937C76.4911 75.9476 71.9888 80.45 66.4349 80.45H52.2397Z" fill="#DFDFDF"/>
<rect x="60" y="6" width="11" height="11" rx="5.5" fill="#C7C7C7"/>
<rect x="6.14624" y="58.7075" width="18.2927" height="18.2927" rx="9.14634" fill="#E2E2E2"/>
<rect x="68" y="22" width="5" height="5" rx="2.5" fill="#C7C7C7"/>
<rect x="49" y="10" width="7" height="7" rx="3.5" fill="#E2E2E2"/>
<path fill-rule="evenodd" clip-rule="evenodd" d="M53.2082 16.9283C52.5967 14.6538 51.918 12.429 51.1755 10.2593C51.5841 10.0921 52.0312 10 52.4999 10C54.4329 10 55.9999 11.567 55.9999 13.5C55.9999 15.1904 54.8016 16.6008 53.2082 16.9283Z" fill="#C7C7C7"/>
<rect x="8.58545" y="42.8535" width="8.53659" height="8.53659" rx="4.26829" fill="#E2E2E2"/>
<rect x="3.48779" y="31" width="3.65854" height="3.65854" rx="1.82927" fill="#E2E2E2"/>
<rect x="32.9756" y="66.0244" width="8.53659" height="8.53659" rx="4.26829" fill="#E2E2E2"/>
</svg>
