<svg width="91" height="107" viewBox="0 0 91 107" fill="none" xmlns="http://www.w3.org/2000/svg">
<rect y="16.7153" width="90.2846" height="90.2846" rx="14.4455" fill="#F3F3F3"/>
<rect x="13.543" y="44.728" width="12.2006" height="26.8414" rx="6.10031" fill="#483D3D"/>
<rect x="64.7859" y="44.728" width="12.2006" height="26.8414" rx="6.10031" fill="#483D3D"/>
<path d="M48.5395 88.3603C46.8811 90.8224 43.2574 90.8224 41.599 88.3602L32.3239 74.5902C30.4519 71.811 32.4433 68.0687 35.7941 68.0687H54.3444C57.6952 68.0687 59.6866 71.811 57.8146 74.5902L48.5395 88.3603Z" fill="#818080"/>
<path d="M48.5395 88.3603C46.8811 90.8224 43.2574 90.8224 41.599 88.3602L32.3239 74.5902C30.4519 71.811 32.4433 68.0687 35.7941 68.0687H54.3444C57.6952 68.0687 59.6866 71.811 57.8146 74.5902L48.5395 88.3603Z" fill="#FFB977"/>
<circle cx="45.5325" cy="16.6414" r="16.6414" fill="#FF9191"/>
</svg>
