<svg width="170" height="149" viewBox="0 0 170 149" fill="none" xmlns="http://www.w3.org/2000/svg">
<mask id="path-1-outside-1_282_1409" maskUnits="userSpaceOnUse" x="22.8459" y="3" width="125" height="143" fill="black">
<rect fill="white" x="22.8459" y="3" width="125" height="143"/>
<path fill-rule="evenodd" clip-rule="evenodd" d="M103.921 33.5732C103.922 33.5451 103.922 33.517 103.922 33.4888C103.922 23.2777 95.6439 15 85.4328 15C75.2217 15 66.9439 23.2777 66.9439 33.4888C66.9439 33.517 66.944 33.5451 66.9441 33.5732H50.8952C42.0314 33.5732 34.8459 40.7587 34.8459 49.6224V117.832C34.8459 126.695 42.0314 133.881 50.8952 133.881H119.104C127.968 133.881 135.154 126.695 135.154 117.832V49.6224C135.154 40.7587 127.968 33.5732 119.104 33.5732H103.921Z"/>
</mask>
<path fill-rule="evenodd" clip-rule="evenodd" d="M103.921 33.5732C103.922 33.5451 103.922 33.517 103.922 33.4888C103.922 23.2777 95.6439 15 85.4328 15C75.2217 15 66.9439 23.2777 66.9439 33.4888C66.9439 33.517 66.944 33.5451 66.9441 33.5732H50.8952C42.0314 33.5732 34.8459 40.7587 34.8459 49.6224V117.832C34.8459 126.695 42.0314 133.881 50.8952 133.881H119.104C127.968 133.881 135.154 126.695 135.154 117.832V49.6224C135.154 40.7587 127.968 33.5732 119.104 33.5732H103.921Z" fill="#FF9191"/>
<path d="M103.921 33.5732L91.9728 33.5213L91.9206 45.522H103.921V33.5732ZM66.9441 33.5732V45.522H78.9466L78.8928 33.5197L66.9441 33.5732ZM91.9728 33.4888C91.9728 33.4976 91.9728 33.5083 91.9728 33.5213L115.87 33.6251C115.87 33.5819 115.87 33.5363 115.87 33.4888H91.9728ZM85.4328 26.9488C89.0447 26.9488 91.9728 29.8769 91.9728 33.4888H115.87C115.87 16.6786 102.243 3.05121 85.4328 3.05121V26.9488ZM78.8927 33.4888C78.8927 29.8769 81.8208 26.9488 85.4328 26.9488V3.05121C68.6226 3.05121 54.9952 16.6786 54.9952 33.4888H78.8927ZM78.8928 33.5197C78.8928 33.51 78.8927 33.4997 78.8927 33.4888H54.9952C54.9952 33.5343 54.9953 33.5802 54.9955 33.6267L78.8928 33.5197ZM66.9441 21.6244H50.8952V45.522H66.9441V21.6244ZM50.8952 21.6244C35.4323 21.6244 22.8972 34.1596 22.8972 49.6224H46.7947C46.7947 47.3578 48.6306 45.522 50.8952 45.522V21.6244ZM22.8972 49.6224V117.832H46.7947V49.6224H22.8972ZM22.8972 117.832C22.8972 133.295 35.4323 145.83 50.8952 145.83V121.932C48.6306 121.932 46.7947 120.096 46.7947 117.832H22.8972ZM50.8952 145.83H119.104V121.932H50.8952V145.83ZM119.104 145.83C134.567 145.83 147.102 133.295 147.102 117.832H123.205C123.205 120.096 121.369 121.932 119.104 121.932V145.83ZM147.102 117.832V49.6224H123.205V117.832H147.102ZM147.102 49.6224C147.102 34.1595 134.567 21.6244 119.104 21.6244V45.522C121.369 45.522 123.205 47.3578 123.205 49.6224H147.102ZM119.104 21.6244H103.921V45.522H119.104V21.6244Z" fill="#413434" mask="url(#path-1-outside-1_282_1409)"/>
<rect x="34.8467" y="33.5742" width="100.308" height="100.308" rx="16.0492" fill="white"/>
<rect x="49.8923" y="64.6968" width="13.5551" height="29.8212" rx="6.77755" fill="#413434"/>
<rect x="106.825" y="64.6968" width="13.5551" height="29.8212" rx="6.77755" fill="#413434"/>
<path d="M88.7746 113.17C86.9321 115.906 82.9062 115.906 81.0637 113.17L70.7588 97.8714C68.679 94.7837 70.8915 90.6259 74.6143 90.6259H95.224C98.9469 90.6259 101.159 94.7837 99.0795 97.8714L88.7746 113.17Z" fill="#818080"/>
<path d="M88.7746 113.17C86.9321 115.906 82.9062 115.906 81.0637 113.17L70.7588 97.8714C68.679 94.7837 70.8915 90.6259 74.6143 90.6259H95.224C98.9469 90.6259 101.159 94.7837 99.0795 97.8714L88.7746 113.17Z" fill="#FFB977"/>
<circle cx="85.4332" cy="33.4903" r="18.4888" fill="#FF9191"/>
</svg>
