<svg width="140" height="107" viewBox="0 0 140 107" fill="none" xmlns="http://www.w3.org/2000/svg">
<rect x="25" y="16.7153" width="90.2846" height="90.2846" rx="14.4455" fill="#F3F3F3"/>
<rect x="38.543" y="44.728" width="12.2006" height="26.8414" rx="6.10031" fill="#483D3D"/>
<rect x="89.7859" y="44.728" width="12.2006" height="26.8414" rx="6.10031" fill="#483D3D"/>
<path d="M73.5395 88.3603C71.8811 90.8224 68.2574 90.8224 66.599 88.3602L57.3239 74.5902C55.4519 71.811 57.4433 68.0687 60.7941 68.0687H79.3444C82.6952 68.0687 84.6866 71.811 82.8146 74.5902L73.5395 88.3603Z" fill="#818080"/>
<path d="M73.5395 88.3603C71.8811 90.8224 68.2574 90.8224 66.599 88.3602L57.3239 74.5902C55.4519 71.811 57.4433 68.0687 60.7941 68.0687H79.3444C82.6952 68.0687 84.6866 71.811 82.8146 74.5902L73.5395 88.3603Z" fill="#FFB977"/>
<circle cx="70.5325" cy="16.6414" r="16.6414" fill="#FF9191"/>
</svg>
