<svg width="140" height="112" viewBox="0 0 140 112" fill="none" xmlns="http://www.w3.org/2000/svg">
<path d="M134.291 50.555C133.979 52.1618 132.56 53.5936 129.556 53.9447C126.622 54.2877 122.637 53.4943 118.343 51.3179C114.049 49.1414 110.498 46.1151 108.21 43.1255C105.868 40.0644 105.209 37.5789 105.521 35.9722C105.832 34.3655 107.252 32.9337 110.256 32.5825C113.19 32.2395 117.175 33.0329 121.469 35.2094C125.762 37.3858 129.314 40.4122 131.601 43.4018C133.943 46.4628 134.603 48.9483 134.291 50.555Z" fill="#FFBDBD" stroke="#483D3D" stroke-width="5.46512"/>
<path d="M34.5986 37.3792C35.0229 39.0315 34.5062 41.585 32.3996 44.7525C30.335 47.8568 27.0264 51.0555 22.9299 53.4355C18.8334 55.8156 14.9544 56.7928 12.0385 56.5821C9.06335 56.367 7.53965 54.999 7.11534 53.3466C6.69103 51.6942 7.20772 49.1407 9.3143 45.9733C11.3789 42.869 14.6875 39.6703 18.784 37.2902C22.8805 34.9102 26.7595 33.933 29.6754 34.1437C32.6506 34.3587 34.1743 35.7268 34.5986 37.3792Z" fill="#FFBDBD" stroke="#483D3D" stroke-width="5.46512"/>
<rect x="25.9998" y="21.7153" width="90.2846" height="90.2846" rx="14.4455" fill="#F3F3F3"/>
<rect x="39.5425" y="49.728" width="12.2006" height="26.8414" rx="6.10031" fill="#483D3D"/>
<rect x="90.7854" y="49.728" width="12.2006" height="26.8414" rx="6.10031" fill="#483D3D"/>
<rect x="47" y="77" width="47" height="25" rx="12.5" fill="#FFBDBD"/>
<rect x="59" y="83" width="5.31621" height="13.2905" rx="2.65811" fill="#E37373"/>
<rect x="77.6064" y="83" width="5.31621" height="13.2905" rx="2.65811" fill="#E37373"/>
<path fill-rule="evenodd" clip-rule="evenodd" d="M78.0012 21.7153C78.1199 33.0482 86.1327 42.193 95.9999 42.193C97.9227 42.193 99.775 41.8457 101.512 41.2027C103.082 47.4401 108.079 51.9998 114 51.9998C114.779 51.9998 115.543 51.9208 116.284 51.7694V36.1609C116.284 28.1828 109.817 21.7153 101.839 21.7153H78.0012Z" fill="#483D3D"/>
<path fill-rule="evenodd" clip-rule="evenodd" d="M60 25.0417C60 33.835 52.7227 40.9759 43.704 41.0821C42.2426 48.4878 35.5434 54.0833 27.5 54.0833C26.9943 54.0833 26.4939 54.0612 25.9998 54.0179V36.1608C25.9998 28.1828 32.4672 21.7153 40.4453 21.7153H59.6448C59.8776 22.7885 60 23.9012 60 25.0417Z" fill="#483D3D"/>
<path d="M34.2629 14.6765C34.1459 10.9643 39.0709 9.56587 41.5987 12.5935L51.7922 24.8028C53.6223 26.9948 52.7483 30.0713 50.0803 30.8289L40.3585 33.5894C37.6904 34.3469 34.8193 32.3339 34.7346 29.6463L34.2629 14.6765Z" fill="#F0F0F0" stroke="#483D3D" stroke-width="2"/>
<path d="M97.0057 11.6766C98.9067 8.32017 103.927 8.98131 104.545 12.6696L107.04 27.5358C107.494 30.2415 105.069 32.7007 102.306 32.3368L92.1489 30.9991C89.3859 30.6352 87.9487 27.6673 89.3433 25.2051L97.0057 11.6766Z" fill="#F0F0F0" stroke="#483D3D" stroke-width="2"/>
</svg>
