<svg width="137" height="112" viewBox="0 0 137 112" fill="none" xmlns="http://www.w3.org/2000/svg">
<path d="M132.291 50.555C131.979 52.1618 130.56 53.5936 127.556 53.9447C124.622 54.2877 120.637 53.4943 116.343 51.3179C112.049 49.1414 108.498 46.1151 106.21 43.1255C103.868 40.0644 103.209 37.5789 103.521 35.9722C103.832 34.3655 105.252 32.9337 108.256 32.5825C111.19 32.2395 115.175 33.0329 119.469 35.2094C123.762 37.3858 127.314 40.4122 129.601 43.4018C131.943 46.4628 132.603 48.9483 132.291 50.555Z" fill="#FFBDBD" stroke="#483D3D" stroke-width="5.46512"/>
<path d="M32.5986 37.3792C33.0229 39.0315 32.5062 41.585 30.3996 44.7525C28.335 47.8568 25.0264 51.0555 20.9299 53.4355C16.8334 55.8156 12.9544 56.7928 10.0385 56.5821C7.06335 56.367 5.53965 54.999 5.11534 53.3466C4.69103 51.6942 5.20772 49.1407 7.3143 45.9733C9.37887 42.869 12.6875 39.6703 16.784 37.2902C20.8805 34.9102 24.7595 33.933 27.6754 34.1437C30.6506 34.3587 32.1743 35.7268 32.5986 37.3792Z" fill="#FFBDBD" stroke="#483D3D" stroke-width="5.46512"/>
<rect x="23.9998" y="21.7153" width="90.2846" height="90.2846" rx="14.4455" fill="#F3F3F3"/>
<rect x="37.5425" y="49.728" width="12.2006" height="26.8414" rx="6.10031" fill="#483D3D"/>
<rect x="88.7854" y="49.728" width="12.2006" height="26.8414" rx="6.10031" fill="#483D3D"/>
<rect x="45" y="77" width="47" height="25" rx="12.5" fill="#FFBDBD"/>
<rect x="57" y="83" width="5.31621" height="13.2905" rx="2.65811" fill="#E37373"/>
<rect x="75.6064" y="83" width="5.31621" height="13.2905" rx="2.65811" fill="#E37373"/>
<path fill-rule="evenodd" clip-rule="evenodd" d="M76.0012 21.7153C76.1199 33.0482 84.1327 42.193 93.9999 42.193C95.9227 42.193 97.775 41.8457 99.5123 41.2027C101.082 47.4401 106.079 51.9998 112 51.9998C112.779 51.9998 113.543 51.9208 114.284 51.7694V36.1609C114.284 28.1828 107.817 21.7153 99.8387 21.7153H76.0012Z" fill="#483D3D"/>
<path fill-rule="evenodd" clip-rule="evenodd" d="M58 25.0417C58 33.835 50.7227 40.9759 41.704 41.0821C40.2426 48.4878 33.5434 54.0833 25.5 54.0833C24.9943 54.0833 24.4939 54.0612 23.9998 54.0179V36.1608C23.9998 28.1828 30.4672 21.7153 38.4453 21.7153H57.6448C57.8776 22.7885 58 23.9012 58 25.0417Z" fill="#483D3D"/>
<path d="M32.2629 14.6765C32.1459 10.9643 37.0709 9.56587 39.5987 12.5935L49.7922 24.8028C51.6223 26.9948 50.7483 30.0713 48.0803 30.8289L38.3585 33.5894C35.6904 34.3469 32.8193 32.3339 32.7346 29.6463L32.2629 14.6765Z" fill="#F0F0F0" stroke="#483D3D" stroke-width="2"/>
<path d="M95.0057 11.6766C96.9067 8.32017 101.927 8.98131 102.545 12.6696L105.04 27.5358C105.494 30.2415 103.069 32.7007 100.306 32.3368L90.1489 30.9991C87.3859 30.6352 85.9487 27.6673 87.3433 25.2051L95.0057 11.6766Z" fill="#F0F0F0" stroke="#483D3D" stroke-width="2"/>
</svg>
