<svg width="172" height="150" viewBox="0 0 172 150" fill="none" xmlns="http://www.w3.org/2000/svg">
<mask id="path-1-outside-1_282_1410" maskUnits="userSpaceOnUse" x="0.795654" y="11.3843" width="171" height="138" fill="black">
<rect fill="white" x="0.795654" y="11.3843" width="171" height="138"/>
<path fill-rule="evenodd" clip-rule="evenodd" d="M123.93 26.9112C123.242 22.8134 117.665 22.0789 115.553 25.8079L109.236 36.9601H94.438V36.9602H74.0435H62.4558L53.9947 26.8259C51.1863 23.4622 45.7146 25.0159 45.8445 29.1401L46.1352 38.3654C42.1566 40.1551 39.0389 43.5186 37.5751 47.6631C34.5984 48.1448 31.2747 49.3579 27.8921 51.3231C18.0105 57.0642 11.3691 67.0503 13.0581 73.6277C14.747 80.205 24.1269 80.883 34.0084 75.1419C34.9224 74.6109 35.8086 74.0436 36.663 73.4461V121.219C36.663 130.082 43.8485 137.268 52.7123 137.268H120.921C129.785 137.268 136.971 130.082 136.971 121.219V71.908C137.53 72.2279 138.101 72.5354 138.68 72.8291C149.002 78.0612 158.406 76.9619 159.685 70.3739C160.963 63.7858 153.631 54.2037 143.309 48.9717C140.572 47.5844 137.9 46.6422 135.426 46.1295C133.525 42.1294 130.018 39.0403 125.739 37.6955L123.93 26.9112Z"/>
</mask>
<path fill-rule="evenodd" clip-rule="evenodd" d="M123.93 26.9112C123.242 22.8134 117.665 22.0789 115.553 25.8079L109.236 36.9601H94.438V36.9602H74.0435H62.4558L53.9947 26.8259C51.1863 23.4622 45.7146 25.0159 45.8445 29.1401L46.1352 38.3654C42.1566 40.1551 39.0389 43.5186 37.5751 47.6631C34.5984 48.1448 31.2747 49.3579 27.8921 51.3231C18.0105 57.0642 11.3691 67.0503 13.0581 73.6277C14.747 80.205 24.1269 80.883 34.0084 75.1419C34.9224 74.6109 35.8086 74.0436 36.663 73.4461V121.219C36.663 130.082 43.8485 137.268 52.7123 137.268H120.921C129.785 137.268 136.971 130.082 136.971 121.219V71.908C137.53 72.2279 138.101 72.5354 138.68 72.8291C149.002 78.0612 158.406 76.9619 159.685 70.3739C160.963 63.7858 153.631 54.2037 143.309 48.9717C140.572 47.5844 137.9 46.6422 135.426 46.1295C133.525 42.1294 130.018 39.0403 125.739 37.6955L123.93 26.9112Z" fill="white"/>
<path d="M115.553 25.8079L105.156 19.9192L105.156 19.9192L115.553 25.8079ZM123.93 26.9112L112.145 28.8883L112.145 28.8883L123.93 26.9112ZM109.236 36.9601V48.9089H116.201L119.633 42.8489L109.236 36.9601ZM94.438 36.9601V25.0114H82.4892V36.9601H94.438ZM94.438 36.9602V48.909H106.387V36.9602H94.438ZM62.4558 36.9602L53.2836 44.6181L56.866 48.909H62.4558V36.9602ZM53.9947 26.8259L44.8224 34.4838L44.8224 34.4838L53.9947 26.8259ZM45.8445 29.1401L33.9017 29.5165L33.9017 29.5165L45.8445 29.1401ZM46.1352 38.3654L51.037 49.2625L58.33 45.982L58.0781 37.9891L46.1352 38.3654ZM37.5751 47.6631L39.4841 59.4584L46.4812 58.3259L48.8418 51.6424L37.5751 47.6631ZM27.8921 51.3231L33.8946 61.6548L33.8946 61.6548L27.8921 51.3231ZM13.0581 73.6277L1.48475 76.5996L1.48475 76.5996L13.0581 73.6277ZM34.0084 75.1419L40.011 85.4735L40.011 85.4735L34.0084 75.1419ZM36.663 73.4461H48.6118V50.5093L29.8153 63.6541L36.663 73.4461ZM136.971 71.908L142.9 61.534L125.022 51.3163V71.908H136.971ZM138.68 72.8291L144.082 62.1713L144.082 62.1713L138.68 72.8291ZM143.309 48.9717L148.711 38.3138L148.711 38.3138L143.309 48.9717ZM135.426 46.1295L124.634 51.2578L127.184 56.6237L133.001 57.8295L135.426 46.1295ZM125.739 37.6955L113.955 39.6727L115.167 46.8984L122.157 49.0948L125.739 37.6955ZM125.95 31.6967C124.403 34.4272 121.376 35.6215 118.715 35.271C115.963 34.9086 112.784 32.692 112.145 28.8883L135.714 24.9341C134.388 17.0326 128.076 12.3999 121.836 11.578C115.686 10.7681 108.815 13.4597 105.156 19.9192L125.95 31.6967ZM119.633 42.8489L125.95 31.6966L105.156 19.9192L98.8394 31.0714L119.633 42.8489ZM109.236 25.0114H94.438V48.9089H109.236V25.0114ZM82.4892 36.9601V36.9602H106.387V36.9601H82.4892ZM94.438 25.0114H74.0435V48.909H94.438V25.0114ZM74.0435 25.0114H62.4558V48.909H74.0435V25.0114ZM71.6281 29.3023L63.1669 19.168L44.8224 34.4838L53.2836 44.6181L71.6281 29.3023ZM63.1669 19.168C58.5373 13.6228 51.4859 11.9962 45.5539 13.6806C39.4473 15.4146 33.6371 21.1203 33.9017 29.5165L57.7874 28.7638C57.8435 30.5444 57.2541 32.461 55.9979 34.0309C54.821 35.5016 53.36 36.3064 52.0816 36.6694C49.5551 37.3868 46.6437 36.6652 44.8224 34.4838L63.1669 19.168ZM33.9017 29.5165L34.1924 38.7418L58.0781 37.9891L57.7874 28.7638L33.9017 29.5165ZM41.2335 27.4683C34.2963 30.5888 28.8666 36.4408 26.3084 43.6837L48.8418 51.6424C49.2112 50.5965 50.0168 49.7214 51.037 49.2625L41.2335 27.4683ZM35.6661 35.8678C31.0155 36.6204 26.3157 38.42 21.8895 40.9915L33.8946 61.6548C36.2336 60.2958 38.1814 59.6692 39.4841 59.4584L35.6661 35.8678ZM21.8895 40.9915C15.4535 44.7308 9.93949 49.9022 6.18676 55.5448C2.72256 60.7536 -0.59377 68.5053 1.48475 76.5996L24.6314 70.6558C24.8578 71.5377 24.6497 71.8683 24.7902 71.3601C24.9244 70.8748 25.2873 69.9789 26.0854 68.7788C27.7015 66.3488 30.449 63.6566 33.8946 61.6548L21.8895 40.9915ZM1.48475 76.5996C3.97657 86.3034 12.3461 90.3976 19.5997 90.9219C26.4832 91.4194 33.6934 89.144 40.011 85.4735L28.0059 64.8102C24.4419 66.8809 22.0214 67.137 21.3224 67.0865C21.0458 67.0665 21.6424 67.0464 22.5525 67.6898C23.6153 68.4413 24.3552 69.5802 24.6314 70.6558L1.48475 76.5996ZM40.011 85.4735C41.2197 84.7713 42.3877 84.0234 43.5108 83.238L29.8153 63.6541C29.2295 64.0638 28.625 64.4505 28.0059 64.8102L40.011 85.4735ZM24.7142 73.4461V121.219H48.6118V73.4461H24.7142ZM24.7142 121.219C24.7142 136.682 37.2494 149.217 52.7123 149.217V125.319C50.4477 125.319 48.6118 123.483 48.6118 121.219H24.7142ZM52.7123 149.217H120.921V125.319H52.7123V149.217ZM120.921 149.217C136.384 149.217 148.92 136.682 148.92 121.219H125.022C125.022 123.483 123.186 125.319 120.921 125.319V149.217ZM148.92 121.219V71.908H125.022V121.219H148.92ZM131.042 82.282C131.772 82.6997 132.518 83.1019 133.278 83.487L144.082 62.1713C143.683 61.9689 143.288 61.7562 142.9 61.534L131.042 82.282ZM133.278 83.487C139.816 86.8008 147.139 88.6996 153.961 87.902C161.096 87.068 169.473 82.6586 171.415 72.6498L147.955 68.098C148.185 66.9084 148.92 65.6618 149.995 64.8288C150.903 64.1245 151.509 64.1284 151.187 64.1661C150.407 64.2572 147.867 64.0895 144.082 62.1713L133.278 83.487ZM171.415 72.6498C173.017 64.3939 169.111 56.8365 165.337 51.9034C161.217 46.5195 155.373 41.6905 148.711 38.3138L137.907 59.6296C141.567 61.4849 144.55 64.063 146.357 66.4252C147.251 67.5935 147.677 68.4722 147.842 68.9419C148.016 69.4388 147.766 69.0703 147.955 68.098L171.415 72.6498ZM148.711 38.3138C145.143 36.505 141.473 35.1802 137.851 34.4294L133.001 57.8295C134.326 58.1042 136.001 58.6637 137.907 59.6296L148.711 38.3138ZM146.218 41.0011C142.906 34.0314 136.806 28.6483 129.321 26.2963L122.157 49.0948C123.231 49.4323 124.144 50.2274 124.634 51.2578L146.218 41.0011ZM112.145 28.8883L113.955 39.6727L137.523 35.7184L135.714 24.9341L112.145 28.8883Z" fill="#413434" mask="url(#path-1-outside-1_282_1410)"/>
<path d="M156.978 69.0031C156.631 70.7882 155.054 72.379 151.717 72.7691C148.457 73.1501 144.03 72.2687 139.259 69.8506C134.489 67.4325 130.543 64.0702 128.002 60.7487C125.4 57.3478 124.667 54.5864 125.013 52.8013C125.36 51.0162 126.937 49.4255 130.274 49.0353C133.534 48.6543 137.961 49.5358 142.732 51.9538C147.502 54.3719 151.448 57.7342 153.989 61.0557C156.591 64.4566 157.324 67.218 156.978 69.0031Z" fill="#FFBDBD" stroke="#413434" stroke-width="6.07184"/>
<path d="M46.2176 54.3644C46.689 56.2002 46.1149 59.0372 43.7745 62.5563C41.4807 66.0052 37.8048 69.559 33.2535 72.2033C28.7022 74.8475 24.3925 75.9333 21.153 75.6991C17.8475 75.4602 16.1546 73.9403 15.6832 72.1045C15.2118 70.2686 15.7859 67.4317 18.1263 63.9126C20.4201 60.4636 24.096 56.9098 28.6473 54.2656C33.1986 51.6213 37.5083 50.5356 40.7478 50.7697C44.0533 51.0086 45.7461 52.5285 46.2176 54.3644Z" fill="#FFBDBD" stroke="#413434" stroke-width="6.07184"/>
<rect x="36.6638" y="36.9619" width="100.308" height="100.308" rx="16.0492" fill="white"/>
<rect x="51.7102" y="68.0859" width="13.5551" height="29.8212" rx="6.77755" fill="#413434"/>
<rect x="108.641" y="68.0859" width="13.5551" height="29.8212" rx="6.77755" fill="#413434"/>
<rect x="59.9954" y="98.3857" width="52.2178" height="27.7754" rx="13.8877" fill="#FFBDBD"/>
<rect x="73.3276" y="105.051" width="5.9064" height="14.766" rx="2.9532" fill="#E37373"/>
<rect x="93.9995" y="105.051" width="5.9064" height="14.766" rx="2.9532" fill="#E37373"/>
<path fill-rule="evenodd" clip-rule="evenodd" d="M94.438 36.9619C94.57 49.5527 103.472 59.7124 114.435 59.7124C116.571 59.7124 118.629 59.3266 120.559 58.6122C122.303 65.5426 127.854 70.6092 134.433 70.6092C135.299 70.6092 136.147 70.5214 136.971 70.3532V53.0111C136.971 44.1474 129.786 36.9619 120.922 36.9619H94.438Z" fill="#413434"/>
<path fill-rule="evenodd" clip-rule="evenodd" d="M74.4388 40.6581C74.4388 50.4279 66.3533 58.3616 56.3331 58.4793C54.7087 66.7062 47.2662 72.922 38.3305 72.922C37.7687 72.922 37.2128 72.8974 36.6638 72.8493V53.0112C36.6638 44.1474 43.8493 36.9619 52.713 36.9619H74.0441C74.3028 38.1544 74.4388 39.3908 74.4388 40.6581Z" fill="#413434"/>
<path d="M52.8161 27.6682L64.1413 41.2329C65.4971 42.8568 64.8496 45.136 62.873 45.6973L52.0719 48.7642C50.0953 49.3255 47.9683 47.8341 47.9056 45.843L47.3815 29.2113C47.2948 26.4612 50.9434 25.4252 52.8161 27.6682Z" fill="white" stroke="#413434" stroke-width="2.9872"/>
<path d="M122.445 27.2203L125.216 43.7369C125.552 45.7414 123.756 47.5633 121.709 47.2937L110.424 45.8075C108.377 45.5379 107.313 43.3392 108.346 41.5151L116.859 26.4846C118.267 23.9981 121.986 24.4879 122.445 27.2203Z" fill="white" stroke="#413434" stroke-width="2.9872"/>
</svg>
