<svg width="99" height="114" viewBox="0 0 99 114" fill="none" xmlns="http://www.w3.org/2000/svg">
<path d="M7.62098 48.0733L7.6017 48.0912L7.58289 48.1096C5.90019 49.7556 4.97174 51.7689 4.94464 54.0755C4.91727 56.405 5.78946 58.4591 7.44139 60.1528L7.45976 60.1716L7.47862 60.19L41.9807 93.7507C43.6784 95.402 45.7975 96.23 48.2069 96.2583C50.6305 96.2868 52.7709 95.5212 54.4558 93.8793L89.7178 61.1562C91.4741 59.5264 92.4205 57.4758 92.4484 55.1037C92.476 52.7539 91.569 50.7017 89.8602 49.0396L85.9035 45.1908C84.2409 43.4943 82.1296 42.6435 79.7133 42.6151C77.2976 42.5868 75.1674 43.3873 73.4656 45.0434L60.965 56.6044L61.3316 25.4025C61.3592 23.0513 60.4546 21.0354 58.6618 19.5235C56.9472 18.0775 54.8772 17.3677 52.5648 17.3406L45.7044 17.2599C43.3921 17.2328 41.306 17.8937 39.5579 19.299C37.73 20.7684 36.7783 22.7625 36.7507 25.1137L36.3841 56.3156L24.1586 44.4641C22.4963 42.7684 20.3853 41.9181 17.9696 41.8897C15.5695 41.8615 13.439 42.6741 11.6856 44.3013L7.62098 48.0733Z" fill="#FF8888" stroke="white" stroke-width="4"/>
</svg>
