<svg width="99" height="114" viewBox="0 0 99 114" fill="none" xmlns="http://www.w3.org/2000/svg">
<path d="M91.0748 64.0514L91.0936 64.033L91.1119 64.0141C92.7503 62.3239 93.6249 60.2867 93.5907 57.9801C93.5561 55.6508 92.6296 53.6206 90.9333 51.9714L90.9144 51.953L90.8951 51.9352L55.5132 19.3033C53.7723 17.6977 51.6319 16.9263 49.2226 16.962C46.7991 16.998 44.6798 17.8202 43.0391 19.5063L8.65925 53.155C6.94691 54.8309 6.05535 56.9059 6.09053 59.2779C6.12538 61.6276 7.0866 63.655 8.83896 65.2711L12.8966 69.0134C14.6036 70.6651 16.7369 71.4594 19.153 71.4236C21.5686 71.3878 23.6768 70.5309 25.334 68.8302L37.5229 56.941L37.9857 88.1416C38.0205 90.4927 38.9784 92.4838 40.8108 93.9476C42.5632 95.3475 44.6513 96.002 46.9636 95.9677L53.8237 95.866C56.136 95.8317 58.2038 95.1155 59.9139 93.6643C61.7021 92.1468 62.6005 90.1281 62.5656 87.7771L62.1028 56.5765L74.6389 68.0988C76.3458 69.7497 78.4786 70.5437 80.8942 70.5078C83.2941 70.4722 85.4023 69.6032 87.1118 67.9301L91.0748 64.0514Z" fill="#FF8888" stroke="white" stroke-width="4"/>
</svg>
