<svg width="174" height="114" viewBox="0 0 174 114" fill="none" xmlns="http://www.w3.org/2000/svg">
<g clip-path="url(#clip0_297_7804)">
<rect y="21.75" width="76.4911" height="80.45" rx="20" transform="rotate(-16.1585 0 21.75)" fill="#E2A17C"/>
<rect y="21.75" width="76.4911" height="80.45" rx="20" transform="rotate(-16.1585 0 21.75)" fill="#E2A17C"/>
<path fill-rule="evenodd" clip-rule="evenodd" d="M4.34464 35.0674C4.09942 35.1385 3.95241 35.3903 4.02346 35.6355C5.79771 41.7591 12.2002 45.2849 18.3237 43.5107L49.4978 34.4782C52.6806 33.556 54.5132 30.2283 53.591 27.0455C52.6688 23.8627 49.3411 22.0301 46.1583 22.9523L4.34464 35.0674Z" fill="#C48A69"/>
<rect x="53.5195" y="44.7646" width="11" height="11" rx="5.5" transform="rotate(-16.1585 53.5195 44.7646)" fill="#C48A69"/>
<path fill-rule="evenodd" clip-rule="evenodd" d="M35.4012 93.3843C34.8933 94.8508 33.5381 95.7914 32.0474 96.2234C26.7129 97.769 21.1355 94.6975 19.5899 89.363L18.2152 84.6184C17.7158 82.8951 18.3982 80.9692 20.1215 80.4699L22.4747 79.7881C28.0788 78.1644 33.9381 81.3911 35.5619 86.9952C36.1933 89.1743 36.0912 91.392 35.4012 93.3843Z" fill="#C48A69"/>
<rect x="65.7002" y="32.9062" width="16" height="9" rx="4.5" transform="rotate(-16.1585 65.7002 32.9062)" fill="#C48A69"/>
<path fill-rule="evenodd" clip-rule="evenodd" d="M11.8906 18.3044C10.7171 18.6444 9.82105 19.7142 10.1611 20.8878C11.0833 24.0706 14.411 25.9032 17.5938 24.981L30.0803 21.3632C33.2631 20.441 35.0957 17.1132 34.1735 13.9304C33.8334 12.7568 32.5043 12.3318 31.3308 12.6718L11.8906 18.3044Z" fill="#C48A69"/>
<rect x="24.3545" y="69.873" width="5" height="5" rx="2.5" transform="rotate(-16.1585 24.3545 69.873)" fill="#C48A69"/>
<path fill-rule="evenodd" clip-rule="evenodd" d="M63.81 3.26199C62.0704 3.76604 60.4158 4.72668 59.65 6.368C58.6202 8.57487 58.355 11.1501 59.0859 13.673L59.3339 14.5286C60.936 20.0583 66.7175 23.2422 72.2472 21.64C72.4353 21.5855 72.6206 21.5262 72.8032 21.4622C77.124 19.9476 77.5418 14.52 76.2676 10.1224C74.722 4.78786 69.1445 1.71636 63.81 3.26199Z" fill="#C48A69"/>
<path fill-rule="evenodd" clip-rule="evenodd" d="M70.2734 55.5276C80.0307 52.7005 90.2323 58.3185 93.0594 68.0758C94.605 73.4103 91.5336 78.9877 86.199 80.5334L76.3107 83.3984C74.1106 84.0359 71.7316 84.477 69.6452 83.5316C67.2034 82.4251 65.2423 80.2973 64.4377 77.5204C64.0831 76.2965 62.8556 75.376 61.6317 75.7306L47.5368 79.8145C43.0279 81.1209 38.3135 78.5247 37.0071 74.0158C35.7007 69.5068 38.2968 64.7925 42.8058 63.4861L70.2734 55.5276Z" fill="#C48A69"/>
<path fill-rule="evenodd" clip-rule="evenodd" d="M88.9708 62.6033C90.4566 62.1728 91.7189 63.4482 92.1494 64.9341L92.5468 66.3054C93.0125 67.9129 93.059 69.5424 92.7507 71.077C92.644 71.6085 92.2744 72.0574 91.7537 72.2083L79.1841 75.8502C76.5317 76.6187 73.7586 75.0915 72.9901 72.4392C72.2216 69.7869 73.7488 67.0137 76.4011 66.2452L88.9708 62.6033Z" fill="#B87E5E"/>
<path fill-rule="evenodd" clip-rule="evenodd" d="M12.1965 61.9436C11.9091 62.0269 11.6181 61.8491 11.5348 61.5616L8.22368 50.1338C8.14039 49.8464 8.29124 49.5405 8.57869 49.4572L29.6813 43.3429C33.1294 42.3439 36.7344 44.3292 37.7335 47.7772C38.7325 51.2252 36.7472 54.8303 33.2992 55.8293L12.1965 61.9436Z" fill="#B87E5E"/>
</g>
<rect x="-3.09698" y="20.0445" width="81.4911" height="85.45" rx="26.5" transform="rotate(-16.1585 -3.09698 20.0445)" stroke="white" stroke-width="5"/>
<g clip-path="url(#clip1_297_7804)">
<rect x="86.7656" y="-8.73535" width="96.5996" height="134.057" rx="23.8974" transform="rotate(6.64057 86.7656 -8.73535)" fill="#D9D9D9"/>
<rect x="86.7656" y="-8.73535" width="96.5996" height="134.057" rx="23.8974" transform="rotate(6.64057 86.7656 -8.73535)" fill="#D9D9D9"/>
<path fill-rule="evenodd" clip-rule="evenodd" d="M125.983 -1.0235C129.528 -2.82338 133.564 -3.2858 137.513 -2.82612L163.75 0.228512C174.565 1.48759 182.312 11.2754 181.053 22.0902L175.068 73.496C174.778 75.9866 174.114 78.4243 173 80.6707C167.412 91.9387 159.937 102.75 150.866 112.058C144.71 118.374 138.312 123.493 131.92 127.393C128.01 129.778 123.355 130.489 118.805 129.959L90.642 126.68C79.8272 125.421 72.0807 115.633 73.3398 104.819L79.454 52.3003C79.7762 49.5329 80.5599 46.8325 81.8912 44.385C87.188 34.6473 93.8994 25.3591 101.83 17.2209C109.66 9.18725 117.881 3.09077 125.983 -1.0235Z" fill="#B3B3B3"/>
<ellipse cx="80.483" cy="44.3682" rx="80.483" ry="44.3682" transform="matrix(0.697932 -0.716164 0.459293 0.888285 52.4004 81.8799)" fill="#EDEDED"/>
<ellipse cx="69.4208" cy="46.1199" rx="69.4208" ry="46.1199" transform="matrix(0.592018 -0.805925 0.339322 0.94067 63.0996 106.208)" fill="#D9D9D9"/>
<ellipse cx="56.4871" cy="37.5273" rx="56.4871" ry="37.5273" transform="matrix(0.592018 -0.805925 0.339322 0.94067 74.5332 100.673)" fill="#EDEDED"/>
<ellipse cx="45.1171" cy="31.0338" rx="45.1171" ry="31.0338" transform="matrix(0.592018 -0.805925 0.339322 0.94067 85.7129 94.7686)" fill="#D9D9D9"/>
<ellipse cx="38.4148" cy="18.5561" rx="38.4148" ry="18.5561" transform="matrix(0.528872 -0.848702 0.410029 0.912073 95.0957 101.429)" fill="#EDEDED"/>
</g>
<rect x="91.8156" y="18.7452" width="83" height="85.649" rx="26.5" transform="rotate(6.64057 91.8156 18.7452)" stroke="white" stroke-width="5"/>
<defs>
<clipPath id="clip0_297_7804">
<rect y="21.75" width="76.4911" height="80.45" rx="24" transform="rotate(-16.1585 0 21.75)" fill="white"/>
</clipPath>
<clipPath id="clip1_297_7804">
<rect x="94.0098" y="21.5176" width="78" height="80.649" rx="24" transform="rotate(6.64057 94.0098 21.5176)" fill="white"/>
</clipPath>
</defs>
</svg>
