<svg width="313" height="124" viewBox="0 0 313 124" fill="none" xmlns="http://www.w3.org/2000/svg">
<path d="M65.3534 17.4707C65.5962 17.0985 65.8997 16.8071 66.2639 16.5967C66.628 16.3782 67.0326 16.269 67.4777 16.269V18.4661H66.9072C66.3893 18.4661 66.0008 18.5794 65.7419 18.806C65.4829 19.0245 65.3534 19.4129 65.3534 19.9713V23.1152H63.2777V16.3418H65.3534V17.4707ZM68.0572 19.7164C68.0572 19.0204 68.1866 18.4095 68.4456 17.8834C68.7127 17.3574 69.0728 16.9528 69.5259 16.6696C69.9791 16.3863 70.4849 16.2447 71.0433 16.2447C71.5207 16.2447 71.9375 16.3418 72.2936 16.536C72.6577 16.7303 72.9369 16.9852 73.1311 17.3008V16.3418H75.2069V23.1152H73.1311V22.1563C72.9288 22.4719 72.6456 22.7268 72.2814 22.921C71.9254 23.1152 71.5086 23.2123 71.0312 23.2123C70.4809 23.2123 69.9791 23.0707 69.5259 22.7875C69.0728 22.4962 68.7127 22.0875 68.4456 21.5615C68.1866 21.0274 68.0572 20.4123 68.0572 19.7164ZM73.1311 19.7285C73.1311 19.2106 72.9855 18.8019 72.6942 18.5025C72.4109 18.2031 72.0629 18.0534 71.6502 18.0534C71.2375 18.0534 70.8855 18.2031 70.5942 18.5025C70.3109 18.7938 70.1693 19.1985 70.1693 19.7164C70.1693 20.2343 70.3109 20.647 70.5942 20.9545C70.8855 21.254 71.2375 21.4037 71.6502 21.4037C72.0629 21.4037 72.4109 21.254 72.6942 20.9545C72.9855 20.6551 73.1311 20.2464 73.1311 19.7285ZM80.8357 16.269C81.6288 16.269 82.26 16.528 82.7294 17.0459C83.2068 17.5557 83.4456 18.2597 83.4456 19.158V23.1152H81.382V19.4372C81.382 18.984 81.2646 18.632 81.03 18.3811C80.7953 18.1303 80.4797 18.0048 80.0831 18.0048C79.6866 18.0048 79.371 18.1303 79.1363 18.3811C78.9016 18.632 78.7843 18.984 78.7843 19.4372V23.1152H76.7086V16.3418H78.7843V17.2401C78.9947 16.9407 79.2779 16.706 79.634 16.536C79.9901 16.358 80.3906 16.269 80.8357 16.269ZM84.4753 19.7164C84.4753 19.0204 84.6047 18.4095 84.8637 17.8834C85.1308 17.3574 85.4909 16.9528 85.944 16.6696C86.3972 16.3863 86.903 16.2447 87.4614 16.2447C87.9065 16.2447 88.3111 16.3378 88.6753 16.5239C89.0475 16.71 89.3388 16.9609 89.5492 17.2765V14.1326H91.625V23.1152H89.5492V22.1441C89.355 22.4678 89.0758 22.7268 88.7117 22.921C88.3556 23.1152 87.9388 23.2123 87.4614 23.2123C86.903 23.2123 86.3972 23.0707 85.944 22.7875C85.4909 22.4962 85.1308 22.0875 84.8637 21.5615C84.6047 21.0274 84.4753 20.4123 84.4753 19.7164ZM89.5492 19.7285C89.5492 19.2106 89.4036 18.8019 89.1123 18.5025C88.829 18.2031 88.481 18.0534 88.0683 18.0534C87.6556 18.0534 87.3036 18.2031 87.0123 18.5025C86.729 18.7938 86.5874 19.1985 86.5874 19.7164C86.5874 20.2343 86.729 20.647 87.0123 20.9545C87.3036 21.254 87.6556 21.4037 88.0683 21.4037C88.481 21.4037 88.829 21.254 89.1123 20.9545C89.4036 20.6551 89.5492 20.2464 89.5492 19.7285ZM96.2099 23.2123C95.5463 23.2123 94.9475 23.0707 94.4134 22.7875C93.8874 22.5043 93.4706 22.0996 93.1631 21.5736C92.8637 21.0476 92.7139 20.4326 92.7139 19.7285C92.7139 19.0326 92.8677 18.4216 93.1752 17.8956C93.4827 17.3615 93.9035 16.9528 94.4376 16.6696C94.9717 16.3863 95.5706 16.2447 96.2342 16.2447C96.8978 16.2447 97.4966 16.3863 98.0307 16.6696C98.5648 16.9528 98.9856 17.3615 99.2931 17.8956C99.6007 18.4216 99.7544 19.0326 99.7544 19.7285C99.7544 20.4245 99.5966 21.0395 99.281 21.5736C98.9735 22.0996 98.5486 22.5043 98.0064 22.7875C97.4723 23.0707 96.8735 23.2123 96.2099 23.2123ZM96.2099 21.4158C96.6064 21.4158 96.9423 21.2701 97.2174 20.9788C97.5007 20.6875 97.6423 20.2707 97.6423 19.7285C97.6423 19.1863 97.5047 18.7696 97.2296 18.4782C96.9625 18.1869 96.6307 18.0412 96.2342 18.0412C95.8296 18.0412 95.4937 18.1869 95.2267 18.4782C94.9596 18.7615 94.8261 19.1782 94.8261 19.7285C94.8261 20.2707 94.9556 20.6875 95.2145 20.9788C95.4816 21.2701 95.8134 21.4158 96.2099 21.4158ZM109.498 16.269C110.34 16.269 111.008 16.5239 111.501 17.0337C112.003 17.5436 112.254 18.2517 112.254 19.158V23.1152H110.19V19.4372C110.19 19.0002 110.073 18.6644 109.838 18.4297C109.612 18.1869 109.296 18.0655 108.891 18.0655C108.487 18.0655 108.167 18.1869 107.932 18.4297C107.706 18.6644 107.593 19.0002 107.593 19.4372V23.1152H105.529V19.4372C105.529 19.0002 105.412 18.6644 105.177 18.4297C104.95 18.1869 104.635 18.0655 104.23 18.0655C103.826 18.0655 103.506 18.1869 103.271 18.4297C103.045 18.6644 102.931 19.0002 102.931 19.4372V23.1152H100.856V16.3418H102.931V17.1915C103.142 16.9083 103.417 16.6858 103.757 16.5239C104.097 16.354 104.481 16.269 104.91 16.269C105.42 16.269 105.873 16.3782 106.269 16.5967C106.674 16.8152 106.99 17.1268 107.216 17.5314C107.451 17.1592 107.771 16.8557 108.175 16.621C108.58 16.3863 109.021 16.269 109.498 16.269ZM115.781 14.1326V23.1152H113.706V14.1326H115.781ZM124.205 16.3418L119.956 26.332H117.723L119.276 22.8846L116.521 16.3418H118.839L120.405 20.5782L121.959 16.3418H124.205ZM127.115 19.7285C127.115 19.0245 127.257 18.4095 127.54 17.8834C127.831 17.3574 128.232 16.9528 128.741 16.6696C129.259 16.3863 129.85 16.2447 130.514 16.2447C131.363 16.2447 132.072 16.4673 132.638 16.9123C133.213 17.3574 133.589 17.9846 133.767 18.7938H131.558C131.372 18.2759 131.011 18.017 130.477 18.017C130.097 18.017 129.794 18.1667 129.567 18.4661C129.34 18.7574 129.227 19.1782 129.227 19.7285C129.227 20.2788 129.34 20.7037 129.567 21.0031C129.794 21.2944 130.097 21.4401 130.477 21.4401C131.011 21.4401 131.372 21.1811 131.558 20.6632H133.767C133.589 21.4563 133.213 22.0794 132.638 22.5326C132.063 22.9858 131.355 23.2123 130.514 23.2123C129.85 23.2123 129.259 23.0707 128.741 22.7875C128.232 22.5043 127.831 22.0996 127.54 21.5736C127.257 21.0476 127.115 20.4326 127.115 19.7285ZM139.041 16.269C139.818 16.269 140.441 16.528 140.91 17.0459C141.38 17.5557 141.614 18.2597 141.614 19.158V23.1152H139.551V19.4372C139.551 18.984 139.433 18.632 139.199 18.3811C138.964 18.1303 138.648 18.0048 138.252 18.0048C137.855 18.0048 137.54 18.1303 137.305 18.3811C137.07 18.632 136.953 18.984 136.953 19.4372V23.1152H134.877V14.1326H136.953V17.2522C137.163 16.9528 137.451 16.7141 137.815 16.536C138.179 16.358 138.588 16.269 139.041 16.269ZM146.14 23.2123C145.476 23.2123 144.877 23.0707 144.343 22.7875C143.817 22.5043 143.401 22.0996 143.093 21.5736C142.794 21.0476 142.644 20.4326 142.644 19.7285C142.644 19.0326 142.798 18.4216 143.105 17.8956C143.413 17.3615 143.834 16.9528 144.368 16.6696C144.902 16.3863 145.501 16.2447 146.164 16.2447C146.828 16.2447 147.427 16.3863 147.961 16.6696C148.495 16.9528 148.916 17.3615 149.223 17.8956C149.531 18.4216 149.684 19.0326 149.684 19.7285C149.684 20.4245 149.527 21.0395 149.211 21.5736C148.903 22.0996 148.479 22.5043 147.936 22.7875C147.402 23.0707 146.803 23.2123 146.14 23.2123ZM146.14 21.4158C146.536 21.4158 146.872 21.2701 147.147 20.9788C147.431 20.6875 147.572 20.2707 147.572 19.7285C147.572 19.1863 147.435 18.7696 147.16 18.4782C146.893 18.1869 146.561 18.0412 146.164 18.0412C145.76 18.0412 145.424 18.1869 145.157 18.4782C144.89 18.7615 144.756 19.1782 144.756 19.7285C144.756 20.2707 144.886 20.6875 145.145 20.9788C145.412 21.2701 145.743 21.4158 146.14 21.4158ZM153.541 23.2123C152.95 23.2123 152.424 23.1112 151.963 22.9089C151.502 22.7066 151.138 22.4314 150.871 22.0834C150.604 21.7274 150.454 21.3308 150.421 20.8938H152.473C152.497 21.1285 152.606 21.3187 152.801 21.4644C152.995 21.61 153.234 21.6829 153.517 21.6829C153.776 21.6829 153.974 21.6343 154.112 21.5372C154.257 21.432 154.33 21.2985 154.33 21.1366C154.33 20.9424 154.229 20.8008 154.027 20.7118C153.824 20.6147 153.497 20.5095 153.043 20.3962C152.558 20.2829 152.153 20.1655 151.83 20.0441C151.506 19.9147 151.227 19.7164 150.992 19.4493C150.757 19.1742 150.64 18.806 150.64 18.3447C150.64 17.9563 150.745 17.6043 150.956 17.2886C151.174 16.9649 151.49 16.71 151.902 16.5239C152.323 16.3378 152.821 16.2447 153.395 16.2447C154.245 16.2447 154.913 16.4551 155.398 16.8759C155.892 17.2967 156.175 17.8551 156.248 18.5511H154.33C154.298 18.3164 154.193 18.1303 154.015 17.9927C153.845 17.8551 153.618 17.7863 153.335 17.7863C153.092 17.7863 152.906 17.8349 152.776 17.932C152.647 18.021 152.582 18.1464 152.582 18.3083C152.582 18.5025 152.683 18.6482 152.886 18.7453C153.096 18.8424 153.42 18.9395 153.857 19.0366C154.358 19.1661 154.767 19.2956 155.083 19.4251C155.398 19.5464 155.673 19.7488 155.908 20.032C156.151 20.3071 156.276 20.6794 156.284 21.1488C156.284 21.5453 156.171 21.9014 155.945 22.217C155.726 22.5245 155.406 22.7673 154.986 22.9453C154.573 23.1233 154.091 23.2123 153.541 23.2123ZM163.939 19.6193C163.939 19.8135 163.927 20.0158 163.903 20.2262H159.205C159.238 20.647 159.371 20.9707 159.606 21.1973C159.849 21.4158 160.144 21.5251 160.492 21.5251C161.01 21.5251 161.37 21.3066 161.572 20.8696H163.782C163.668 21.3147 163.462 21.7152 163.162 22.0713C162.871 22.4274 162.503 22.7066 162.058 22.9089C161.613 23.1112 161.115 23.2123 160.565 23.2123C159.901 23.2123 159.31 23.0707 158.793 22.7875C158.275 22.5043 157.87 22.0996 157.579 21.5736C157.287 21.0476 157.142 20.4326 157.142 19.7285C157.142 19.0245 157.283 18.4095 157.567 17.8834C157.858 17.3574 158.262 16.9528 158.78 16.6696C159.298 16.3863 159.893 16.2447 160.565 16.2447C161.22 16.2447 161.803 16.3823 162.313 16.6574C162.823 16.9326 163.219 17.3251 163.502 17.8349C163.794 18.3447 163.939 18.9395 163.939 19.6193ZM161.815 19.073C161.815 18.717 161.694 18.4337 161.451 18.2233C161.208 18.0129 160.905 17.9077 160.541 17.9077C160.193 17.9077 159.897 18.0089 159.654 18.2112C159.42 18.4135 159.274 18.7008 159.217 19.073H161.815ZM169.162 16.269C169.955 16.269 170.586 16.528 171.055 17.0459C171.533 17.5557 171.771 18.2597 171.771 19.158V23.1152H169.708V19.4372C169.708 18.984 169.59 18.632 169.356 18.3811C169.121 18.1303 168.805 18.0048 168.409 18.0048C168.012 18.0048 167.697 18.1303 167.462 18.3811C167.227 18.632 167.11 18.984 167.11 19.4372V23.1152H165.034V16.3418H167.11V17.2401C167.321 16.9407 167.604 16.706 167.96 16.536C168.316 16.358 168.716 16.269 169.162 16.269ZM179.185 18.0655H178.068V23.1152H175.993V18.0655H175.24V16.3418H175.993V16.1476C175.993 15.3141 176.231 14.6829 176.709 14.254C177.186 13.817 177.886 13.5985 178.809 13.5985C178.962 13.5985 179.076 13.6025 179.149 13.6106V15.3707C178.752 15.3464 178.473 15.4031 178.311 15.5407C178.149 15.6782 178.068 15.9251 178.068 16.2811V16.3418H179.185V18.0655ZM182.236 17.4707C182.479 17.0985 182.782 16.8071 183.147 16.5967C183.511 16.3782 183.915 16.269 184.36 16.269V18.4661H183.79C183.272 18.4661 182.884 18.5794 182.625 18.806C182.366 19.0245 182.236 19.4129 182.236 19.9713V23.1152H180.16V16.3418H182.236V17.4707ZM188.436 23.2123C187.772 23.2123 187.173 23.0707 186.639 22.7875C186.113 22.5043 185.696 22.0996 185.389 21.5736C185.09 21.0476 184.94 20.4326 184.94 19.7285C184.94 19.0326 185.094 18.4216 185.401 17.8956C185.709 17.3615 186.129 16.9528 186.664 16.6696C187.198 16.3863 187.796 16.2447 188.46 16.2447C189.124 16.2447 189.722 16.3863 190.257 16.6696C190.791 16.9528 191.212 17.3615 191.519 17.8956C191.827 18.4216 191.98 19.0326 191.98 19.7285C191.98 20.4245 191.822 21.0395 191.507 21.5736C191.199 22.0996 190.775 22.5043 190.232 22.7875C189.698 23.0707 189.099 23.2123 188.436 23.2123ZM188.436 21.4158C188.832 21.4158 189.168 21.2701 189.443 20.9788C189.727 20.6875 189.868 20.2707 189.868 19.7285C189.868 19.1863 189.731 18.7696 189.455 18.4782C189.188 18.1869 188.857 18.0412 188.46 18.0412C188.055 18.0412 187.72 18.1869 187.453 18.4782C187.185 18.7615 187.052 19.1782 187.052 19.7285C187.052 20.2707 187.181 20.6875 187.44 20.9788C187.707 21.2701 188.039 21.4158 188.436 21.4158ZM201.724 16.269C202.566 16.269 203.234 16.5239 203.727 17.0337C204.229 17.5436 204.48 18.2517 204.48 19.158V23.1152H202.416V19.4372C202.416 19.0002 202.299 18.6644 202.064 18.4297C201.838 18.1869 201.522 18.0655 201.117 18.0655C200.713 18.0655 200.393 18.1869 200.158 18.4297C199.932 18.6644 199.818 19.0002 199.818 19.4372V23.1152H197.755V19.4372C197.755 19.0002 197.638 18.6644 197.403 18.4297C197.176 18.1869 196.861 18.0655 196.456 18.0655C196.051 18.0655 195.732 18.1869 195.497 18.4297C195.271 18.6644 195.157 19.0002 195.157 19.4372V23.1152H193.081V16.3418H195.157V17.1915C195.368 16.9083 195.643 16.6858 195.983 16.5239C196.323 16.354 196.707 16.269 197.136 16.269C197.646 16.269 198.099 16.3782 198.495 16.5967C198.9 16.8152 199.216 17.1268 199.442 17.5314C199.677 17.1592 199.997 16.8557 200.401 16.621C200.806 16.3863 201.247 16.269 201.724 16.269ZM210.58 17.3008C210.774 16.9852 211.053 16.7303 211.417 16.536C211.781 16.3418 212.198 16.2447 212.667 16.2447C213.226 16.2447 213.732 16.3863 214.185 16.6696C214.638 16.9528 214.994 17.3574 215.253 17.8834C215.52 18.4095 215.654 19.0204 215.654 19.7164C215.654 20.4123 215.52 21.0274 215.253 21.5615C214.994 22.0875 214.638 22.4962 214.185 22.7875C213.732 23.0707 213.226 23.2123 212.667 23.2123C212.19 23.2123 211.773 23.1193 211.417 22.9332C211.061 22.7389 210.782 22.484 210.58 22.1684V23.1152H208.504V14.1326H210.58V17.3008ZM213.541 19.7164C213.541 19.1985 213.396 18.7938 213.104 18.5025C212.821 18.2031 212.469 18.0534 212.048 18.0534C211.636 18.0534 211.284 18.2031 210.992 18.5025C210.709 18.8019 210.567 19.2106 210.567 19.7285C210.567 20.2464 210.709 20.6551 210.992 20.9545C211.284 21.254 211.636 21.4037 212.048 21.4037C212.461 21.4037 212.813 21.254 213.104 20.9545C213.396 20.647 213.541 20.2343 213.541 19.7164ZM223.128 19.6193C223.128 19.8135 223.115 20.0158 223.091 20.2262H218.393C218.426 20.647 218.559 20.9707 218.794 21.1973C219.037 21.4158 219.332 21.5251 219.68 21.5251C220.198 21.5251 220.558 21.3066 220.76 20.8696H222.97C222.856 21.3147 222.65 21.7152 222.351 22.0713C222.059 22.4274 221.691 22.7066 221.246 22.9089C220.801 23.1112 220.303 23.2123 219.753 23.2123C219.089 23.2123 218.499 23.0707 217.981 22.7875C217.463 22.5043 217.058 22.0996 216.767 21.5736C216.475 21.0476 216.33 20.4326 216.33 19.7285C216.33 19.0245 216.471 18.4095 216.755 17.8834C217.046 17.3574 217.451 16.9528 217.969 16.6696C218.486 16.3863 219.081 16.2447 219.753 16.2447C220.408 16.2447 220.991 16.3823 221.501 16.6574C222.011 16.9326 222.407 17.3251 222.691 17.8349C222.982 18.3447 223.128 18.9395 223.128 19.6193ZM221.003 19.073C221.003 18.717 220.882 18.4337 220.639 18.2233C220.396 18.0129 220.093 17.9077 219.729 17.9077C219.381 17.9077 219.085 18.0089 218.843 18.2112C218.608 18.4135 218.462 18.7008 218.406 19.073H221.003ZM226.298 14.1326V23.1152H224.223V14.1326H226.298ZM230.886 23.2123C230.222 23.2123 229.623 23.0707 229.089 22.7875C228.563 22.5043 228.146 22.0996 227.839 21.5736C227.54 21.0476 227.39 20.4326 227.39 19.7285C227.39 19.0326 227.544 18.4216 227.851 17.8956C228.159 17.3615 228.579 16.9528 229.114 16.6696C229.648 16.3863 230.246 16.2447 230.91 16.2447C231.574 16.2447 232.172 16.3863 232.707 16.6696C233.241 16.9528 233.661 17.3615 233.969 17.8956C234.277 18.4216 234.43 19.0326 234.43 19.7285C234.43 20.4245 234.272 21.0395 233.957 21.5736C233.649 22.0996 233.224 22.5043 232.682 22.7875C232.148 23.0707 231.549 23.2123 230.886 23.2123ZM230.886 21.4158C231.282 21.4158 231.618 21.2701 231.893 20.9788C232.177 20.6875 232.318 20.2707 232.318 19.7285C232.318 19.1863 232.181 18.7696 231.905 18.4782C231.638 18.1869 231.307 18.0412 230.91 18.0412C230.505 18.0412 230.17 18.1869 229.903 18.4782C229.635 18.7615 229.502 19.1782 229.502 19.7285C229.502 20.2707 229.631 20.6875 229.89 20.9788C230.157 21.2701 230.489 21.4158 230.886 21.4158ZM245.255 16.3418L243.422 23.1152H241.127L240.059 18.721L238.955 23.1152H236.673L234.827 16.3418H236.903L237.862 21.1852L239.003 16.3418H241.2L242.353 21.1609L243.3 16.3418H245.255ZM248.777 14.2904L248.535 20.1048H246.775L246.532 14.2904H248.777ZM247.685 23.2123C247.321 23.2123 247.021 23.1071 246.787 22.8967C246.56 22.6782 246.447 22.4112 246.447 22.0956C246.447 21.7719 246.56 21.5008 246.787 21.2823C247.021 21.0638 247.321 20.9545 247.685 20.9545C248.041 20.9545 248.332 21.0638 248.559 21.2823C248.794 21.5008 248.911 21.7719 248.911 22.0956C248.911 22.4112 248.794 22.6782 248.559 22.8967C248.332 23.1071 248.041 23.2123 247.685 23.2123Z" fill="#929292" fill-opacity="0.75"/>
<rect x="2.5293" y="42.4854" width="70.8092" height="70.8092" rx="14.9376" fill="#B2ABAB" fill-opacity="0.5"/>
<path d="M54.466 84.4025C54.466 96.0232 47.0643 98.9309 37.9337 98.9309C28.8031 98.9309 21.4014 96.0232 21.4014 84.4025C21.4014 72.7818 28.8031 56.8486 37.9337 56.8486C47.0643 56.8486 54.466 72.7818 54.466 84.4025Z" fill="white"/>
<rect x="81.4307" y="42.4854" width="70.8092" height="70.8092" rx="14.9376" fill="#B2ABAB" fill-opacity="0.5"/>
<rect x="97.0742" y="57.1074" width="39.518" height="41.5633" rx="5.19542" fill="white"/>
<path fill-rule="evenodd" clip-rule="evenodd" d="M124.063 98.6707C125.672 93.3938 126.566 87.5458 126.566 81.3912C126.566 72.3572 124.639 63.9837 121.354 57.1074H131.396C134.265 57.1074 136.591 59.4335 136.591 62.3028V93.4753C136.591 96.3447 134.265 98.6707 131.396 98.6707H124.063Z" fill="#DFDFDF"/>
<rect x="128.072" y="60.21" width="5.68299" height="5.68299" rx="2.8415" fill="#C7C7C7"/>
<rect x="100.25" y="87.4375" width="9.45065" height="9.45065" rx="4.72532" fill="#E2E2E2"/>
<rect x="132.205" y="68.4756" width="2.58318" height="2.58318" rx="1.29159" fill="#C7C7C7"/>
<rect x="122.389" y="62.2744" width="3.61645" height="3.61645" rx="1.80822" fill="#E2E2E2"/>
<path fill-rule="evenodd" clip-rule="evenodd" d="M124.561 65.851C124.245 64.676 123.894 63.5266 123.511 62.4057C123.722 62.3192 123.953 62.2715 124.196 62.2715C125.194 62.2715 126.004 63.0811 126.004 64.0797C126.004 64.9533 125.384 65.6821 124.561 65.851Z" fill="#C7C7C7"/>
<rect x="101.508" y="79.248" width="4.4103" height="4.4103" rx="2.20515" fill="#E2E2E2"/>
<rect x="98.876" y="73.124" width="1.89013" height="1.89013" rx="0.945065" fill="#E2E2E2"/>
<rect x="114.111" y="91.2188" width="4.4103" height="4.4103" rx="2.20515" fill="#E2E2E2"/>
<rect x="160.333" y="42.4854" width="70.8092" height="70.8092" rx="14.9376" fill="#B2ABAB" fill-opacity="0.5"/>
<path d="M206.534 69.3988C206.855 69.0896 207.364 69.0992 207.673 69.4204V69.4204C207.971 69.7293 207.979 70.2182 207.691 70.5362L183.53 97.2133C182.76 98.0633 181.446 98.1075 180.621 97.311V97.311C179.786 96.5042 179.786 95.1588 180.623 94.3534L206.534 69.3988Z" fill="#A97152"/>
<ellipse cx="2.65422" cy="6.52586" rx="2.65422" ry="6.52586" transform="matrix(0.972024 0.234884 -0.241849 0.970314 192.232 72.6367)" fill="#B58832"/>
<ellipse cx="2.29874" cy="4.46046" rx="2.29874" ry="4.46046" transform="matrix(0.468332 0.883552 -0.877398 0.479762 203.956 76.1904)" fill="#B58832"/>
<ellipse cx="1.89426" cy="4.47839" rx="1.89426" ry="4.47839" transform="matrix(0.918326 0.395825 -0.398322 0.917246 201.049 68.4248)" fill="#B58832"/>
<ellipse cx="1.64662" cy="3.29289" rx="1.64662" ry="3.29289" transform="matrix(0.387117 0.922031 -0.916592 0.399823 208.8 70.5254)" fill="#B58832"/>
<ellipse cx="1.18617" cy="2.46401" rx="1.18617" ry="2.46401" transform="matrix(0.937996 0.346646 -0.350549 0.936544 206.642 65.3506)" fill="#B58832"/>
<path d="M195.165 58.215C195.289 57.7323 195.781 57.4417 196.264 57.5654V57.5654C196.727 57.6839 197.018 58.1419 196.928 58.611L188.828 100.973C188.587 102.232 187.358 103.046 186.105 102.776V102.776C184.837 102.503 184.051 101.229 184.375 99.9728L195.165 58.215Z" fill="#C88B68"/>
<ellipse cx="188.471" cy="75.4664" rx="2.96596" ry="7.20304" transform="rotate(-17.8419 188.471 75.4664)" fill="#FFC061"/>
<ellipse cx="196.434" cy="71.6236" rx="2.5604" ry="4.93903" transform="rotate(30.0675 196.434 71.6236)" fill="#FFC061"/>
<ellipse cx="192.175" cy="65.0435" rx="2.11854" ry="4.93903" transform="rotate(-8.23745 192.175 65.0435)" fill="#FFC061"/>
<ellipse cx="197.377" cy="61.9834" rx="1.83184" ry="3.65056" transform="rotate(35.1948 197.377 61.9834)" fill="#FFC061"/>
<ellipse cx="194.723" cy="56.7454" rx="1.32636" ry="2.71793" transform="rotate(-11.231 194.723 56.7454)" fill="#FFC061"/>
<ellipse cx="202.171" cy="53.3504" rx="1.24771" ry="1.96112" transform="rotate(44.5 202.171 53.3504)" fill="#FFC061"/>
<ellipse cx="203.551" cy="64.286" rx="1.24771" ry="1.96112" transform="rotate(48.6499 203.551 64.286)" fill="#FFC061"/>
<ellipse cx="182.664" cy="64.3723" rx="1.24771" ry="1.96112" transform="rotate(-36.6299 182.664 64.3723)" fill="#FFC061"/>
<rect x="239.234" y="42.4854" width="70.8092" height="70.8092" rx="14.9376" fill="#B2ABAB" fill-opacity="0.5"/>
<path d="M269.72 65.4719C267.711 64.8979 266.707 64.6109 266.47 64.2745C266.155 63.8259 266.197 63.2183 266.57 62.8167C266.85 62.5156 267.884 62.3678 269.952 62.0723L281.864 60.3707C281.972 60.3553 282.026 60.3475 282.08 60.3449C282.152 60.3414 282.224 60.3446 282.296 60.3546C282.35 60.362 282.403 60.3745 282.509 60.3995L294.243 63.1605C296.217 63.625 297.204 63.8572 297.456 64.1794C297.791 64.609 297.783 65.2141 297.435 65.6341C297.175 65.9491 296.182 66.1536 294.196 66.5625L282.608 68.9482C282.469 68.9768 282.4 68.9911 282.33 68.9968C282.237 69.0046 282.143 69.001 282.051 68.9864C281.982 68.9754 281.914 68.9559 281.778 68.917L269.72 65.4719Z" fill="#FFD753"/>
<path d="M263.896 65.6022C263.896 63.6803 265.73 62.2887 267.581 62.8059L281.518 66.6999C282.772 67.0504 283.64 68.1936 283.64 69.4962V84.6172C283.64 86.6364 281.63 88.039 279.734 87.3423L265.798 82.2186C264.656 81.7986 263.896 80.7107 263.896 79.4936V65.6022Z" fill="#FFE797"/>
<path d="M283.64 69.2489C283.64 67.9261 284.534 66.7704 285.814 66.4384L295.686 63.8791C297.525 63.4025 299.318 64.7903 299.318 66.6896V80.6945C299.318 81.8919 298.583 82.9665 297.467 83.4005L287.595 87.2395C285.692 87.9796 283.64 86.5756 283.64 84.5335V69.2489Z" fill="#D3AF37"/>
<path d="M248.218 82.3912L263.896 78.0361L282.768 83.5526L268.542 89.3594L248.218 82.3912Z" fill="#FFD753"/>
<path d="M247.347 83.703C247.347 82.9123 248.12 82.3528 248.871 82.5997L267.824 88.8308C268.26 88.9743 268.571 89.3615 268.617 89.8186L268.939 93.0418C269.024 93.8915 268.194 94.5393 267.39 94.25L248.115 87.3109C247.654 87.145 247.347 86.7079 247.347 86.2182V83.703Z" fill="#FFE797"/>
<path d="M268.542 89.8513C268.542 89.3779 268.829 88.9518 269.268 88.7745L282.043 83.6153C282.807 83.3071 283.64 83.8689 283.64 84.6922V87.4666C283.64 87.913 283.384 88.3198 282.982 88.5133L270.207 94.6551C269.436 95.0258 268.542 94.4639 268.542 93.6084V89.8513Z" fill="#D3AF37"/>
</svg>
