<svg width="273" height="207" viewBox="0 0 273 207" fill="none" xmlns="http://www.w3.org/2000/svg">
<circle cx="132.364" cy="39.3641" r="39.3641" fill="#FF8888"/>
<path d="M134.103 19.5519C137.872 19.5519 140.884 20.5382 143.138 22.5108C145.428 24.4834 146.573 27.2661 146.573 30.859C146.573 34.1701 145.481 36.7591 143.297 38.6261C141.148 40.4577 138.295 41.3912 134.737 41.4264L134.473 45.3892H126.547L126.283 35.5615H129.453C132.166 35.5615 134.226 35.2269 135.635 34.5576C137.079 33.8883 137.802 32.6731 137.802 30.9119C137.802 29.679 137.467 28.7103 136.798 28.0058C136.128 27.3013 135.195 26.9491 133.997 26.9491C132.729 26.9491 131.743 27.3189 131.038 28.0587C130.334 28.7632 129.982 29.7318 129.982 30.9647H121.475C121.405 28.816 121.845 26.8786 122.796 25.1526C123.782 23.4266 125.226 22.0705 127.129 21.0842C129.066 20.0627 131.391 19.5519 134.103 19.5519ZM130.616 59.1268C129.031 59.1268 127.727 58.6689 126.706 57.753C125.72 56.802 125.226 55.6396 125.226 54.2658C125.226 52.8568 125.72 51.6768 126.706 50.7257C127.727 49.7747 129.031 49.2991 130.616 49.2991C132.166 49.2991 133.434 49.7747 134.42 50.7257C135.442 51.6768 135.952 52.8568 135.952 54.2658C135.952 55.6396 135.442 56.802 134.42 57.753C133.434 58.6689 132.166 59.1268 130.616 59.1268Z" fill="white"/>
<mask id="path-3-outside-1_298_529" maskUnits="userSpaceOnUse" x="0" y="91" width="69" height="78" fill="black">
<rect fill="white" y="91" width="69" height="78"/>
<path fill-rule="evenodd" clip-rule="evenodd" d="M42.106 105.532C42.1066 105.489 42.1069 105.446 42.1069 105.403C42.1069 101.556 39.6851 96 35.8385 96C31.9919 96 30.6148 101.556 30.6148 105.403C30.6148 105.446 30.6151 105.489 30.6156 105.532H25.3023C25.0902 102.954 23.4855 99.6652 21.0374 99.6652C18.5893 99.6652 17.6031 102.954 17.4773 105.532H14.5723H12.3727C8.30089 105.532 5 108.833 5 112.905V114.33V117.262V142.189C5 143.692 5.90481 144.984 7.19953 145.55V157.141C7.19953 161.213 10.5004 164.514 14.5723 164.514H55.9063C57.8674 164.514 59.6497 163.748 60.9705 162.499C62.6084 161.147 63.6523 159.101 63.6523 156.811V138.89C64.097 138.555 64.3847 138.023 64.3847 137.424V119.933C64.3852 119.898 64.3855 119.863 64.3855 119.827C64.3855 119.792 64.3852 119.757 64.3847 119.721V119.512C64.3852 119.495 64.3855 119.478 64.3855 119.462V112.905C64.3855 108.833 61.0846 105.532 57.0128 105.532H55.3836C55.3851 105.477 55.3858 105.422 55.3858 105.366C55.3858 102.734 53.7288 98.9324 51.0969 98.9324C48.465 98.9324 47.5228 102.734 47.5228 105.366C47.5228 105.422 47.5235 105.478 47.5248 105.532H43.8576H42.106Z"/>
</mask>
<path fill-rule="evenodd" clip-rule="evenodd" d="M42.106 105.532C42.1066 105.489 42.1069 105.446 42.1069 105.403C42.1069 101.556 39.6851 96 35.8385 96C31.9919 96 30.6148 101.556 30.6148 105.403C30.6148 105.446 30.6151 105.489 30.6156 105.532H25.3023C25.0902 102.954 23.4855 99.6652 21.0374 99.6652C18.5893 99.6652 17.6031 102.954 17.4773 105.532H14.5723H12.3727C8.30089 105.532 5 108.833 5 112.905V114.33V117.262V142.189C5 143.692 5.90481 144.984 7.19953 145.55V157.141C7.19953 161.213 10.5004 164.514 14.5723 164.514H55.9063C57.8674 164.514 59.6497 163.748 60.9705 162.499C62.6084 161.147 63.6523 159.101 63.6523 156.811V138.89C64.097 138.555 64.3847 138.023 64.3847 137.424V119.933C64.3852 119.898 64.3855 119.863 64.3855 119.827C64.3855 119.792 64.3852 119.757 64.3847 119.721V119.512C64.3852 119.495 64.3855 119.478 64.3855 119.462V112.905C64.3855 108.833 61.0846 105.532 57.0128 105.532H55.3836C55.3851 105.477 55.3858 105.422 55.3858 105.366C55.3858 102.734 53.7288 98.9324 51.0969 98.9324C48.465 98.9324 47.5228 102.734 47.5228 105.366C47.5228 105.422 47.5235 105.478 47.5248 105.532H43.8576H42.106Z" fill="#CCCCCC"/>
<path d="M42.106 105.532L38.0448 105.473L37.9851 109.594H42.106V105.532ZM30.6156 105.532V109.594H34.729L34.6769 105.48L30.6156 105.532ZM25.3023 105.532L21.2544 105.865L21.5612 109.594H25.3023V105.532ZM17.4773 105.532V109.594H21.3456L21.5341 105.73L17.4773 105.532ZM7.19953 145.55H11.2612V142.892L8.82562 141.828L7.19953 145.55ZM60.9705 162.499L58.3846 159.367L58.2793 159.454L58.1801 159.548L60.9705 162.499ZM63.6523 138.89L61.2112 135.643L59.5906 136.862V138.89H63.6523ZM64.3847 119.933L60.3235 119.873L60.323 119.903V119.933H64.3847ZM64.3847 119.721H60.323V119.752L60.3235 119.782L64.3847 119.721ZM64.3847 119.512L60.3253 119.376L60.323 119.444V119.512H64.3847ZM55.3836 105.532L51.3235 105.419L51.2073 109.594H55.3836V105.532ZM47.5248 105.532V109.594H51.688L51.5852 105.432L47.5248 105.532ZM38.0453 105.403C38.0453 105.427 38.0451 105.45 38.0448 105.473L46.1672 105.591C46.1681 105.528 46.1686 105.465 46.1686 105.403H38.0453ZM35.8385 100.062C35.6184 100.062 36.1085 99.9312 36.9032 101.299C37.6322 102.554 38.0453 104.201 38.0453 105.403H46.1686C46.1686 102.757 45.3708 99.7034 43.9272 97.2185C42.5494 94.8468 39.9053 91.9383 35.8385 91.9383V100.062ZM34.6764 105.403C34.6764 103.857 34.968 102.104 35.5001 100.899C36.0687 99.6101 36.3127 100.062 35.8385 100.062V91.9383C31.5176 91.9383 29.1498 95.1679 28.0682 97.6191C26.9501 100.153 26.5531 103.102 26.5531 105.403H34.6764ZM34.6769 105.48C34.6766 105.455 34.6764 105.429 34.6764 105.403H26.5531C26.5531 105.463 26.5535 105.523 26.5543 105.583L34.6769 105.48ZM30.6156 101.47H25.3023V109.594H30.6156V101.47ZM29.3503 105.199C29.195 103.312 28.5527 101.195 27.4277 99.4399C26.3512 97.7607 24.2566 95.6035 21.0374 95.6035V103.727C20.6893 103.727 20.4504 103.598 20.3775 103.547C20.335 103.517 20.4282 103.573 20.589 103.824C20.7433 104.065 20.9015 104.395 21.0288 104.786C21.1557 105.175 21.2288 105.554 21.2544 105.865L29.3503 105.199ZM21.0374 95.6035C17.5996 95.6035 15.6423 98.0257 14.7486 99.8256C13.8481 101.639 13.4998 103.709 13.4205 105.334L21.5341 105.73C21.5555 105.292 21.6137 104.832 21.7082 104.405C21.8046 103.969 21.9218 103.645 22.0244 103.438C22.1334 103.219 22.1569 103.269 21.9931 103.399C21.7709 103.576 21.4142 103.727 21.0374 103.727V95.6035ZM17.4773 101.47H14.5723V109.594H17.4773V101.47ZM14.5723 101.47H12.3727V109.594H14.5723V101.47ZM12.3727 101.47C6.0577 101.47 0.938345 106.59 0.938345 112.905H9.06165C9.06165 111.076 10.5441 109.594 12.3727 109.594V101.47ZM0.938345 112.905V114.33H9.06165V112.905H0.938345ZM0.938345 114.33V117.262H9.06165V114.33H0.938345ZM0.938345 117.262V142.189H9.06165V117.262H0.938345ZM0.938345 142.189C0.938345 145.364 2.85268 148.083 5.57344 149.272L8.82562 141.828C8.95695 141.885 9.06165 142.021 9.06165 142.189H0.938345ZM3.13787 145.55V157.141H11.2612V145.55H3.13787ZM3.13787 157.141C3.13787 163.456 8.25723 168.576 14.5723 168.576V160.452C12.7436 160.452 11.2612 158.97 11.2612 157.141H3.13787ZM14.5723 168.576H55.9063V160.452H14.5723V168.576ZM55.9063 168.576C58.9459 168.576 61.7161 167.384 63.761 165.451L58.1801 159.548C57.5833 160.112 56.7889 160.452 55.9063 160.452V168.576ZM63.5565 165.631C66.0888 163.541 67.7139 160.364 67.7139 156.811H59.5906C59.5906 157.838 59.128 158.753 58.3846 159.367L63.5565 165.631ZM67.7139 156.811V138.89H59.5906V156.811H67.7139ZM66.0934 142.136C67.5145 141.067 68.4463 139.354 68.4463 137.424H60.323C60.323 136.692 60.6796 136.043 61.2112 135.643L66.0934 142.136ZM68.4463 137.424V119.933H60.323V137.424H68.4463ZM68.4459 119.994C68.4467 119.938 68.4471 119.883 68.4471 119.827H60.3238C60.3238 119.843 60.3237 119.858 60.3235 119.873L68.4459 119.994ZM68.4471 119.827C68.4471 119.772 68.4467 119.716 68.4459 119.661L60.3235 119.782C60.3237 119.797 60.3238 119.812 60.3238 119.827H68.4471ZM68.4463 119.721V119.512H60.323V119.721H68.4463ZM68.444 119.648C68.4461 119.586 68.4472 119.524 68.4472 119.462H60.3238C60.3238 119.433 60.3243 119.405 60.3253 119.376L68.444 119.648ZM68.4472 119.462V112.905H60.3238V119.462H68.4472ZM68.4472 112.905C68.4472 106.59 63.3278 101.47 57.0128 101.47V109.594C58.8414 109.594 60.3238 111.076 60.3238 112.905H68.4472ZM57.0128 101.47H55.3836V109.594H57.0128V101.47ZM59.4436 105.645C59.4462 105.552 59.4475 105.459 59.4475 105.366H51.3242C51.3242 105.386 51.3239 105.403 51.3235 105.419L59.4436 105.645ZM59.4475 105.366C59.4475 103.328 58.8409 101.016 57.7403 99.1218C56.7055 97.3406 54.5563 94.8707 51.0969 94.8707V102.994C50.7172 102.994 50.4742 102.842 50.4269 102.807C50.4121 102.795 50.536 102.892 50.7163 103.202C50.8888 103.499 51.05 103.885 51.165 104.311C51.2809 104.739 51.3242 105.112 51.3242 105.366H59.4475ZM51.0969 94.8707C47.3834 94.8707 45.428 97.6616 44.6069 99.5224C43.7494 101.466 43.4611 103.672 43.4611 105.366H51.5845C51.5845 104.938 51.6237 104.446 51.7098 103.963C51.7973 103.472 51.9179 103.076 52.0388 102.802C52.1684 102.508 52.225 102.518 52.089 102.636C51.8857 102.812 51.5136 102.994 51.0969 102.994V94.8707ZM43.4611 105.366C43.4611 105.454 43.4622 105.543 43.4644 105.632L51.5852 105.432C51.5847 105.413 51.5845 105.391 51.5845 105.366H43.4611ZM47.5248 101.47H43.8576V109.594H47.5248V101.47ZM43.8576 101.47H42.106V109.594H43.8576V101.47Z" fill="white" mask="url(#path-3-outside-1_298_529)"/>
<rect x="7.19922" y="106.266" width="56.0795" height="58.982" rx="7.37275" fill="#68422C"/>
<path d="M42.3906 113.638C42.3906 109.567 45.6915 106.266 49.7634 106.266H56.2792C60.3511 106.266 63.652 109.567 63.652 113.638V157.545C63.652 161.617 60.3511 164.918 56.2792 164.918H42.3906V113.638Z" fill="#4D301F"/>
<path d="M5 113.638C5 109.567 8.30089 106.266 12.3727 106.266H57.0125C61.0843 106.266 64.3852 109.567 64.3852 113.638V117.996C64.3852 118.806 63.7287 119.462 62.9189 119.462H6.4663C5.65648 119.462 5 118.806 5 117.996V113.638Z" fill="#422515"/>
<rect x="31.3936" y="113.598" width="32.9918" height="13.9299" rx="6.96493" fill="#422515"/>
<rect x="5" y="111.398" width="7.33151" height="35.1912" rx="3.66575" fill="#422515"/>
<rect x="5.7334" y="106.998" width="11.7304" height="24.9271" rx="5.86521" fill="#422515"/>
<rect x="25.5283" y="111.398" width="13.9299" height="20.5282" rx="6.96493" fill="#422515"/>
<rect x="43.8574" y="115.063" width="10.2641" height="24.9271" rx="5.13205" fill="#422515"/>
<path d="M43.8574 106.266H54.1215V134.859C54.1215 137.693 51.8238 139.991 48.9895 139.991V139.991C46.1551 139.991 43.8574 137.693 43.8574 134.859V106.266Z" fill="#351D10"/>
<path fill-rule="evenodd" clip-rule="evenodd" d="M54.1211 113.597V127.526H57.4202C61.2669 127.526 64.3852 124.408 64.3852 120.561C64.3852 116.715 61.2668 113.597 57.4202 113.597H54.1211Z" fill="#351D10"/>
<path fill-rule="evenodd" clip-rule="evenodd" d="M54.1221 106.268V121.664H62.9192C63.729 121.664 64.3855 121.008 64.3855 120.198V113.641C64.3855 109.569 61.0846 106.268 57.0128 106.268H54.1221Z" fill="#351D10"/>
<rect x="60.7188" y="113.598" width="3.66575" height="26.3934" rx="1.83288" fill="#351D10"/>
<path d="M25.3259 106.833C25.3259 109.465 23.6689 109.93 21.037 109.93C18.416 109.454 17.4629 108.977 17.4629 106.833C17.4629 104.201 18.4051 100.399 21.037 100.399C23.6689 100.399 25.3259 104.201 25.3259 106.833Z" fill="#CCCCCC"/>
<path d="M55.3855 106.099C55.3855 108.731 53.7285 109.197 51.0966 109.197C48.4756 108.72 47.5225 108.244 47.5225 106.099C47.5225 103.468 48.4647 99.666 51.0966 99.666C53.7285 99.666 55.3855 103.468 55.3855 106.099Z" fill="#CCCCCC"/>
<path d="M42.1074 106.136C42.1074 109.983 39.6856 110.663 35.8389 110.663C32.0082 109.967 30.6152 109.27 30.6152 106.136C30.6152 102.289 31.9923 96.7334 35.8389 96.7334C39.6856 96.7334 42.1074 102.289 42.1074 106.136Z" fill="#CCCCCC"/>
<mask id="path-20-outside-2_298_529" maskUnits="userSpaceOnUse" x="35.6049" y="123.124" width="56.1151" height="66.7462" fill="black">
<rect fill="white" x="35.6049" y="123.124" width="56.1151" height="66.7462"/>
<path fill-rule="evenodd" clip-rule="evenodd" d="M53.6231 132.195C54.8094 128.815 58.5108 127.037 61.8903 128.224L79.6368 134.453L79.637 134.453L82.0846 135.312C85.4641 136.498 87.2421 140.199 86.0558 143.579L72.9531 180.906C72.2811 182.821 70.802 184.221 69.0315 184.86C68.946 184.891 68.8599 184.92 68.7731 184.947C67.4842 185.353 66.0581 185.36 64.6852 184.878L44.4916 177.79C41.112 176.603 39.3341 172.902 40.5204 169.522L53.6231 132.195Z"/>
</mask>
<path fill-rule="evenodd" clip-rule="evenodd" d="M53.6231 132.195C54.8094 128.815 58.5108 127.037 61.8903 128.224L79.6368 134.453L79.637 134.453L82.0846 135.312C85.4641 136.498 87.2421 140.199 86.0558 143.579L72.9531 180.906C72.2811 182.821 70.802 184.221 69.0315 184.86C68.946 184.891 68.8599 184.92 68.7731 184.947C67.4842 185.353 66.0581 185.36 64.6852 184.878L44.4916 177.79C41.112 176.603 39.3341 172.902 40.5204 169.522L53.6231 132.195Z" fill="#351D10"/>
<path d="M61.8903 128.224L63.1394 124.665L61.8903 128.224ZM53.6231 132.195L50.0649 130.946L50.0649 130.946L53.6231 132.195ZM79.6368 134.453L78.3878 138.011L81.9349 139.256L83.1911 135.713L79.6368 134.453ZM79.637 134.453L80.886 130.894L77.3389 129.649L76.0827 133.192L79.637 134.453ZM82.0846 135.312L80.8356 138.87L80.8356 138.87L82.0846 135.312ZM86.0558 143.579L89.6141 144.828L89.6141 144.828L86.0558 143.579ZM72.9531 180.906L69.3949 179.657L69.3949 179.657L72.9531 180.906ZM69.0315 184.86L67.7515 181.313L67.7511 181.313L69.0315 184.86ZM68.7731 184.947L69.9039 188.545L69.9039 188.545L68.7731 184.947ZM64.6852 184.878L63.4361 188.436L63.4361 188.436L64.6852 184.878ZM44.4916 177.79L45.7406 174.231L45.7406 174.231L44.4916 177.79ZM40.5204 169.522L44.0786 170.771L40.5204 169.522ZM63.1394 124.665C57.7946 122.789 51.941 125.601 50.0649 130.946L57.1813 133.444C57.6778 132.029 59.2269 131.285 60.6413 131.782L63.1394 124.665ZM80.8858 130.895L63.1394 124.665L60.6413 131.782L78.3878 138.011L80.8858 130.895ZM76.0827 133.192L76.0825 133.193L83.1911 135.713L83.1912 135.713L76.0827 133.192ZM83.3336 131.754L80.886 130.894L78.3879 138.011L80.8356 138.87L83.3336 131.754ZM89.6141 144.828C91.4902 139.483 88.6783 133.63 83.3336 131.754L80.8356 138.87C82.25 139.366 82.9941 140.916 82.4976 142.33L89.6141 144.828ZM76.5113 182.155L89.6141 144.828L82.4976 142.33L69.3949 179.657L76.5113 182.155ZM70.3114 188.407C73.1023 187.4 75.448 185.185 76.5113 182.155L69.3949 179.657C69.1141 180.457 68.5016 181.042 67.7515 181.313L70.3114 188.407ZM69.9039 188.545C70.0409 188.502 70.1769 188.456 70.3119 188.407L67.7511 181.313C67.7151 181.326 67.6788 181.338 67.6423 181.35L69.9039 188.545ZM63.4361 188.436C65.6033 189.197 67.8649 189.186 69.9039 188.545L67.6424 181.35C67.1034 181.519 66.5129 181.523 65.9342 181.32L63.4361 188.436ZM43.2426 181.348L63.4361 188.436L65.9342 181.32L45.7406 174.231L43.2426 181.348ZM36.9621 168.273C35.086 173.618 37.8979 179.472 43.2426 181.348L45.7406 174.231C44.3262 173.735 43.5821 172.186 44.0786 170.771L36.9621 168.273ZM50.0649 130.946L36.9621 168.273L44.0786 170.771L57.1813 133.444L50.0649 130.946Z" fill="white" mask="url(#path-20-outside-2_298_529)"/>
<rect x="55.7705" y="126.076" width="34.3721" height="52.531" rx="6.4853" transform="rotate(19.3422 55.7705 126.076)" fill="#68422C"/>
<rect x="57.9385" y="131.647" width="11.6735" height="12.9706" rx="3.24265" transform="rotate(19.3422 57.9385 131.647)" fill="#422515"/>
<path fill-rule="evenodd" clip-rule="evenodd" d="M62.237 184.021L79.6357 134.455L82.0824 135.314C85.462 136.5 87.24 140.202 86.0537 143.581L72.9509 180.909C71.7646 184.288 68.0633 186.066 64.6837 184.88L62.237 184.021Z" fill="#4D301F"/>
<rect x="72.624" y="136.804" width="11.6735" height="12.9706" rx="3.24265" transform="rotate(19.3422 72.624 136.804)" fill="#422515"/>
<path d="M78.1318 138.738L80.5795 139.597C82.2693 140.191 83.1583 142.041 82.5652 143.731L80.4172 149.85C79.824 151.54 77.9733 152.429 76.2836 151.836L73.8359 150.977L78.1318 138.738Z" fill="#351D10"/>
<rect x="52.7842" y="146.336" width="11.6735" height="12.9706" rx="3.24265" transform="rotate(19.3422 52.7842 146.336)" fill="#422515"/>
<rect x="67.4688" y="151.489" width="11.6735" height="12.9706" rx="3.24265" transform="rotate(19.3422 67.4688 151.489)" fill="#422515"/>
<path d="M72.9775 153.423L75.4252 154.282C77.115 154.875 78.004 156.726 77.4109 158.416L75.2629 164.535C74.6697 166.225 72.819 167.114 71.1293 166.521L68.6816 165.661L72.9775 153.423Z" fill="#351D10"/>
<rect x="47.4141" y="161.634" width="11.6735" height="12.9706" rx="3.24265" transform="rotate(19.3422 47.4141 161.634)" fill="#422515"/>
<rect x="62.0996" y="166.788" width="11.6735" height="12.9706" rx="3.24265" transform="rotate(19.3422 62.0996 166.788)" fill="#422515"/>
<path d="M67.6064 168.723L70.0541 169.582C71.7439 170.175 72.6329 172.026 72.0398 173.715L69.8918 179.835C69.2986 181.525 67.448 182.414 65.7582 181.82L63.3105 180.961L67.6064 168.723Z" fill="#351D10"/>
<mask id="path-33-outside-3_298_529" maskUnits="userSpaceOnUse" x="94.5762" y="91" width="72" height="81" fill="black">
<rect fill="white" x="94.5762" y="91" width="72" height="81"/>
<path fill-rule="evenodd" clip-rule="evenodd" d="M138.513 106.003C138.514 105.958 138.514 105.913 138.514 105.867C138.514 101.83 135.973 96 131.936 96C127.9 96 126.454 101.83 126.454 105.867C126.454 105.913 126.455 105.958 126.455 106.003H120.881C120.659 103.299 118.975 99.8468 116.406 99.8468C113.837 99.8468 112.802 103.299 112.67 106.003H109.621H107.313C103.04 106.003 99.5762 109.467 99.5762 113.74V115.237V118.313V144.472C99.5762 146.05 100.526 147.405 101.884 147.999V160.161C101.884 164.434 105.348 167.898 109.621 167.898H152.996C155.055 167.898 156.926 167.094 158.312 165.782C160.03 164.363 161.124 162.217 161.124 159.815V141.009C161.591 140.658 161.894 140.1 161.894 139.47V118.34L161.894 118.313V113.74C161.894 110.642 160.072 107.969 157.442 106.733C156.444 106.265 155.331 106.003 154.156 106.003H152.447C152.449 105.946 152.45 105.888 152.45 105.829C152.45 103.067 150.711 99.0779 147.949 99.0779C145.187 99.0779 144.198 103.067 144.198 105.829C144.198 105.888 144.199 105.946 144.2 106.003H140.352H138.513Z"/>
</mask>
<path fill-rule="evenodd" clip-rule="evenodd" d="M138.513 106.003C138.514 105.958 138.514 105.913 138.514 105.867C138.514 101.83 135.973 96 131.936 96C127.9 96 126.454 101.83 126.454 105.867C126.454 105.913 126.455 105.958 126.455 106.003H120.881C120.659 103.299 118.975 99.8468 116.406 99.8468C113.837 99.8468 112.802 103.299 112.67 106.003H109.621H107.313C103.04 106.003 99.5762 109.467 99.5762 113.74V115.237V118.313V144.472C99.5762 146.05 100.526 147.405 101.884 147.999V160.161C101.884 164.434 105.348 167.898 109.621 167.898H152.996C155.055 167.898 156.926 167.094 158.312 165.782C160.03 164.363 161.124 162.217 161.124 159.815V141.009C161.591 140.658 161.894 140.1 161.894 139.47V118.34L161.894 118.313V113.74C161.894 110.642 160.072 107.969 157.442 106.733C156.444 106.265 155.331 106.003 154.156 106.003H152.447C152.449 105.946 152.45 105.888 152.45 105.829C152.45 103.067 150.711 99.0779 147.949 99.0779C145.187 99.0779 144.198 103.067 144.198 105.829C144.198 105.888 144.199 105.946 144.2 106.003H140.352H138.513Z" fill="#F1F1F1"/>
<path d="M138.513 106.003L134.449 105.944L134.389 110.068H138.513V106.003ZM126.455 106.003V110.068H130.572L130.519 105.952L126.455 106.003ZM120.881 106.003L116.831 106.337L117.138 110.068H120.881V106.003ZM112.67 106.003V110.068H116.541L116.729 106.201L112.67 106.003ZM101.884 147.999H105.948V145.34L103.511 144.275L101.884 147.999ZM158.312 165.782L155.723 162.649L155.618 162.736L155.519 162.83L158.312 165.782ZM161.124 141.009L158.684 137.76L157.06 138.979V141.009H161.124ZM161.894 118.34L157.83 118.305L157.829 118.322V118.34H161.894ZM161.894 118.313L165.958 118.348L165.958 118.33V118.313H161.894ZM157.442 106.733L155.713 110.412L155.714 110.412L157.442 106.733ZM152.447 106.003L148.385 105.89L148.269 110.067H152.447V106.003ZM144.2 106.003V110.068H148.366L148.263 105.903L144.2 106.003ZM134.45 105.867C134.45 105.894 134.45 105.919 134.449 105.944L142.577 106.063C142.578 105.997 142.578 105.932 142.578 105.867H134.45ZM131.936 100.064C131.942 100.064 131.95 100.064 131.977 100.074C132.011 100.086 132.091 100.122 132.215 100.215C132.48 100.416 132.846 100.81 133.225 101.461C134.007 102.808 134.45 104.571 134.45 105.867H142.578C142.578 103.126 141.75 99.9557 140.253 97.3782C138.821 94.9138 136.099 91.9358 131.936 91.9358V100.064ZM130.519 105.867C130.519 104.227 130.827 102.358 131.4 101.061C131.68 100.426 131.931 100.139 132.039 100.045C132.081 100.009 132.077 100.022 132.028 100.041C131.974 100.062 131.933 100.064 131.936 100.064V91.9358C127.519 91.9358 125.086 95.2351 123.963 97.779C122.804 100.406 122.39 103.471 122.39 105.867H130.519ZM130.519 105.952C130.519 105.924 130.519 105.896 130.519 105.867H122.39C122.39 105.93 122.391 105.993 122.391 106.055L130.519 105.952ZM126.455 101.939H120.881V110.068H126.455V101.939ZM124.932 105.67C124.771 103.719 124.106 101.529 122.945 99.7175C121.832 97.9813 119.687 95.7826 116.406 95.7826V103.911C116.087 103.911 115.875 103.792 115.827 103.758C115.808 103.745 115.923 103.825 116.102 104.104C116.48 104.695 116.769 105.583 116.831 106.337L124.932 105.67ZM116.406 95.7826C112.906 95.7826 110.906 98.2465 109.984 100.103C109.055 101.974 108.693 104.117 108.61 105.805L116.729 106.201C116.752 105.732 116.814 105.238 116.916 104.778C117.02 104.309 117.147 103.953 117.264 103.718C117.387 103.471 117.428 103.497 117.285 103.61C117.084 103.77 116.753 103.911 116.406 103.911V95.7826ZM112.67 101.939H109.621V110.068H112.67V101.939ZM109.621 101.939H107.313V110.068H109.621V101.939ZM107.313 101.939C100.795 101.939 95.512 107.223 95.512 113.74H103.64C103.64 111.712 105.285 110.068 107.313 110.068V101.939ZM95.512 113.74V115.237H103.64V113.74H95.512ZM95.512 115.237V118.313H103.64V115.237H95.512ZM95.512 118.313V144.472H103.64V118.313H95.512ZM95.512 144.472C95.512 147.723 97.4713 150.506 100.257 151.723L103.511 144.275C103.552 144.293 103.581 144.319 103.602 144.349C103.626 144.386 103.64 144.434 103.64 144.472H95.512ZM97.8198 147.999V160.161H105.948V147.999H97.8198ZM97.8198 160.161C97.8198 166.679 103.103 171.962 109.621 171.962V163.834C107.593 163.834 105.948 162.19 105.948 160.161H97.8198ZM109.621 171.962H152.996V163.834H109.621V171.962ZM152.996 171.962C156.135 171.962 158.995 170.732 161.105 168.735L155.519 162.83C154.857 163.456 153.975 163.834 152.996 163.834V171.962ZM160.901 168.915C163.513 166.757 165.188 163.48 165.188 159.815H157.06C157.06 160.954 156.547 161.969 155.723 162.649L160.901 168.915ZM165.188 159.815V141.009H157.06V159.815H165.188ZM163.565 144.259C165.01 143.174 165.958 141.432 165.958 139.47H157.829C157.829 138.767 158.173 138.143 158.684 137.76L163.565 144.259ZM165.958 139.47V118.34H157.829V139.47H165.958ZM165.958 118.374L165.958 118.348L157.83 118.279L157.83 118.305L165.958 118.374ZM165.958 118.313V113.74H157.83V118.313H165.958ZM165.958 113.74C165.958 109.008 163.172 104.934 159.169 103.054L155.714 110.412C156.972 111.003 157.83 112.276 157.83 113.74H165.958ZM159.17 103.055C157.643 102.337 155.94 101.939 154.156 101.939V110.067C154.721 110.067 155.245 110.192 155.713 110.412L159.17 103.055ZM154.156 101.939H152.447V110.067H154.156V101.939ZM156.51 106.115C156.513 106.02 156.514 105.924 156.514 105.829H148.385C148.385 105.851 148.385 105.872 148.385 105.89L156.51 106.115ZM156.514 105.829C156.514 103.725 155.887 101.334 154.749 99.3761C153.677 97.5314 151.475 95.0137 147.949 95.0137V103.142C147.601 103.142 147.387 103.002 147.365 102.986C147.363 102.984 147.403 103.014 147.473 103.097C147.542 103.18 147.628 103.299 147.721 103.459C147.911 103.788 148.087 104.209 148.212 104.67C148.337 105.134 148.385 105.543 148.385 105.829H156.514ZM147.949 95.0137C144.169 95.0137 142.169 97.8527 141.32 99.7769C140.434 101.784 140.134 104.07 140.134 105.829H148.262C148.262 105.369 148.305 104.841 148.397 104.322C148.491 103.795 148.621 103.364 148.756 103.058C148.9 102.733 148.974 102.716 148.86 102.815C148.679 102.972 148.334 103.142 147.949 103.142V95.0137ZM140.134 105.829C140.134 105.92 140.135 106.012 140.137 106.104L148.263 105.903C148.263 105.881 148.262 105.857 148.262 105.829H140.134ZM144.2 101.939H140.352V110.068H144.2V101.939ZM140.352 101.939H138.513V110.068H140.352V101.939Z" fill="white" mask="url(#path-33-outside-3_298_529)"/>
<rect x="101.884" y="106.004" width="58.8488" height="61.8946" rx="7.73682" fill="#E9C6C4"/>
<path d="M138.812 113.741C138.812 109.468 142.276 106.004 146.549 106.004H153.387C157.66 106.004 161.124 109.468 161.124 113.741V159.815C161.124 164.088 157.66 167.552 153.387 167.552H138.812V113.741Z" fill="#E4AAA6"/>
<path d="M99.5762 113.741C99.5762 109.468 103.04 106.004 107.313 106.004H154.157C158.43 106.004 161.894 109.468 161.894 113.741V118.314C161.894 119.163 161.205 119.852 160.355 119.852H101.115C100.265 119.852 99.5762 119.163 99.5762 118.314V113.741Z" fill="#FF8888"/>
<rect x="127.272" y="113.697" width="34.621" height="14.6177" rx="7.30887" fill="#FF8888"/>
<rect x="99.5762" y="111.391" width="7.69355" height="36.929" rx="3.84677" fill="#FF8888"/>
<rect x="100.346" y="106.773" width="12.3097" height="26.1581" rx="6.15484" fill="#FF8888"/>
<rect x="121.118" y="111.391" width="14.6177" height="21.5419" rx="7.30887" fill="#FF8888"/>
<rect x="140.352" y="115.236" width="10.771" height="26.1581" rx="5.38548" fill="#FF8888"/>
<path d="M140.352 106.004H151.123V136.009C151.123 138.983 148.711 141.394 145.737 141.394V141.394C142.763 141.394 140.352 138.983 140.352 136.009V106.004Z" fill="#FE6F6F"/>
<path fill-rule="evenodd" clip-rule="evenodd" d="M151.123 113.698V128.315H154.585C158.621 128.315 161.894 125.043 161.894 121.007C161.894 116.97 158.621 113.698 154.585 113.698H151.123Z" fill="#FE6F6F"/>
<path fill-rule="evenodd" clip-rule="evenodd" d="M151.122 106.003V122.159H160.353C161.203 122.159 161.892 121.47 161.892 120.62V113.74C161.892 109.467 158.428 106.003 154.155 106.003H151.122Z" fill="#FE6F6F"/>
<rect x="158.047" y="113.697" width="3.84677" height="27.6968" rx="1.92339" fill="#FE6F6F"/>
<path d="M120.907 106.598C120.907 109.36 119.168 109.848 116.406 109.848C113.655 109.348 112.655 108.848 112.655 106.598C112.655 103.836 113.644 99.8467 116.406 99.8467C119.168 99.8467 120.907 103.836 120.907 106.598Z" fill="#F1F1F1"/>
<path d="M152.45 105.829C152.45 108.591 150.711 109.08 147.949 109.08C145.198 108.58 144.198 108.08 144.198 105.829C144.198 103.067 145.187 99.0781 147.949 99.0781C150.711 99.0781 152.45 103.067 152.45 105.829Z" fill="#F1F1F1"/>
<path d="M138.515 105.867C138.515 109.904 135.973 110.618 131.937 110.618C127.917 109.887 126.455 109.156 126.455 105.867C126.455 101.83 127.9 96 131.937 96C135.973 96 138.515 101.83 138.515 105.867Z" fill="#F1F1F1"/>
<mask id="path-50-outside-4_298_529" maskUnits="userSpaceOnUse" x="135.74" y="129.409" width="49" height="53" fill="black">
<rect fill="white" x="135.74" y="129.409" width="49" height="53"/>
<path fill-rule="evenodd" clip-rule="evenodd" d="M179.007 162.797C180.431 160.234 181.098 158.049 181.015 156.001C180.875 152.532 178.584 149.457 174.179 145.609C174.8 145.351 175.425 145.04 176.042 144.676C180.224 142.214 182.473 138.28 181.066 135.89C179.659 133.5 175.128 133.56 170.945 136.022C170.612 136.219 170.29 136.425 169.981 136.639C169.268 134.031 167.779 132.239 166.298 132.422C164.591 132.632 163.511 135.39 163.791 138.684C154.129 134.064 147.011 133.521 142.132 142.298C136.419 152.574 137.572 168.17 148.281 178.599C164.045 181.058 173.294 173.073 179.007 162.797Z"/>
</mask>
<path fill-rule="evenodd" clip-rule="evenodd" d="M179.007 162.797C180.431 160.234 181.098 158.049 181.015 156.001C180.875 152.532 178.584 149.457 174.179 145.609C174.8 145.351 175.425 145.04 176.042 144.676C180.224 142.214 182.473 138.28 181.066 135.89C179.659 133.5 175.128 133.56 170.945 136.022C170.612 136.219 170.29 136.425 169.981 136.639C169.268 134.031 167.779 132.239 166.298 132.422C164.591 132.632 163.511 135.39 163.791 138.684C154.129 134.064 147.011 133.521 142.132 142.298C136.419 152.574 137.572 168.17 148.281 178.599C164.045 181.058 173.294 173.073 179.007 162.797Z" fill="white" fill-opacity="0.75"/>
<path d="M181.015 156.001L178.022 156.122L178.022 156.122L181.015 156.001ZM179.007 162.797L176.388 161.341L176.388 161.341L179.007 162.797ZM174.179 145.609L173.028 142.844L168.579 144.696L172.208 147.866L174.179 145.609ZM176.042 144.676L174.521 142.095L174.521 142.095L176.042 144.676ZM170.945 136.022L169.425 133.441L169.425 133.441L170.945 136.022ZM169.981 136.639L167.092 137.429L168.209 141.514L171.689 139.101L169.981 136.639ZM166.298 132.422L165.932 129.449L166.298 132.422ZM163.791 138.684L162.499 141.387L167.22 143.645L166.776 138.43L163.791 138.684ZM142.132 142.298L144.751 143.753L142.132 142.298ZM148.281 178.599L146.19 180.745L146.875 181.412L147.819 181.559L148.281 178.599ZM178.022 156.122C178.074 157.411 177.67 159.036 176.388 161.341L181.625 164.252C183.193 161.432 184.122 158.687 184.008 155.88L178.022 156.122ZM172.208 147.866C176.564 151.671 177.936 154.008 178.022 156.122L184.008 155.88C183.814 151.056 180.603 147.244 176.15 143.353L172.208 147.866ZM174.521 142.095C174.022 142.389 173.52 142.639 173.028 142.844L175.33 148.375C176.08 148.063 176.828 147.69 177.562 147.258L174.521 142.095ZM178.484 137.41C178.407 137.279 178.704 137.624 178.049 138.769C177.443 139.829 176.247 141.079 174.521 142.095L177.562 147.258C180.019 145.811 182.038 143.863 183.25 141.743C184.414 139.708 185.132 136.891 183.647 134.37L178.484 137.41ZM172.466 138.604C174.191 137.588 175.864 137.148 177.085 137.132C178.404 137.115 178.562 137.542 178.484 137.41L183.647 134.37C182.163 131.849 179.351 131.11 177.007 131.141C174.566 131.173 171.882 131.994 169.425 133.441L172.466 138.604ZM171.689 139.101C171.936 138.929 172.195 138.763 172.466 138.604L169.425 133.441C169.028 133.675 168.644 133.921 168.274 134.177L171.689 139.101ZM166.665 135.395C165.995 135.478 165.832 135.06 166.157 135.438C166.44 135.766 166.818 136.43 167.092 137.429L172.871 135.849C172.431 134.24 171.709 132.703 170.698 131.529C169.73 130.405 168.083 129.183 165.932 129.449L166.665 135.395ZM166.776 138.43C166.666 137.137 166.843 136.108 167.083 135.504C167.377 134.763 167.435 135.3 166.665 135.395L165.932 129.449C163.454 129.754 162.118 131.775 161.515 133.29C160.859 134.941 160.636 136.937 160.806 138.939L166.776 138.43ZM144.751 143.753C146.834 140.005 149.076 138.703 151.486 138.446C154.213 138.155 157.768 139.125 162.499 141.387L165.083 135.982C160.152 133.624 155.317 132.012 150.85 132.488C146.066 132.999 142.309 135.814 139.514 140.842L144.751 143.753ZM150.371 176.453C140.652 166.988 139.68 152.874 144.751 143.753L139.514 140.842C133.158 152.275 134.492 169.352 146.19 180.745L150.371 176.453ZM176.388 161.341C173.694 166.188 170.28 170.282 165.881 172.899C161.538 175.484 156.001 176.771 148.742 175.639L147.819 181.559C156.325 182.886 163.294 181.411 168.945 178.048C174.539 174.719 178.607 169.682 181.625 164.252L176.388 161.341Z" fill="white" mask="url(#path-50-outside-4_298_529)"/>
<ellipse cx="173.497" cy="140.351" rx="5.02158" ry="8.78776" transform="rotate(-120.493 173.497 140.351)" fill="#86DA53"/>
<ellipse cx="167.083" cy="138.762" rx="3.26361" ry="6.38582" transform="rotate(-7.02822 167.083 138.762)" fill="#86DA53"/>
<path d="M142.133 142.298C147.846 132.022 156.628 134.523 168.97 141.385C180.228 150.079 183.663 154.424 179.008 162.798C173.295 173.074 164.046 181.059 148.282 178.6C137.573 168.171 136.42 152.575 142.133 142.298Z" fill="#FF8888"/>
<ellipse cx="0.9664" cy="2.9039" rx="0.9664" ry="2.9039" transform="matrix(0.976324 0.216313 -0.215577 0.976487 151.454 142.743)" fill="white" fill-opacity="0.75"/>
<ellipse cx="0.9664" cy="2.9039" rx="0.9664" ry="2.9039" transform="matrix(0.934261 0.356589 -0.355885 0.93453 147.652 137.866)" fill="white" fill-opacity="0.75"/>
<ellipse cx="0.966355" cy="2.90403" rx="0.966355" ry="2.90403" transform="matrix(0.989677 0.143314 -0.142814 0.98975 142.931 149.014)" fill="white" fill-opacity="0.75"/>
<ellipse cx="0.96686" cy="2.90252" rx="0.96686" ry="2.90252" transform="matrix(0.8285 0.559988 -0.558616 0.829427 162.063 146.922)" fill="white" fill-opacity="0.75"/>
<ellipse cx="0.96686" cy="2.90252" rx="0.96686" ry="2.90252" transform="matrix(0.8285 0.559988 -0.558616 0.829427 160.67 137.866)" fill="white" fill-opacity="0.75"/>
<ellipse cx="0.96686" cy="2.90252" rx="0.96686" ry="2.90252" transform="matrix(0.924669 0.380773 -0.379241 0.925298 169.809 144.032)" fill="white" fill-opacity="0.75"/>
<ellipse cx="0.966436" cy="2.90379" rx="0.966436" ry="2.90379" transform="matrix(0.965552 0.26021 -0.259345 0.965785 153.361 153.89)" fill="white" fill-opacity="0.75"/>
<ellipse cx="0.966436" cy="2.90379" rx="0.966436" ry="2.90379" transform="matrix(0.998117 0.0613428 -0.0604484 0.998171 145.785 160.955)" fill="white" fill-opacity="0.75"/>
<ellipse cx="0.966436" cy="2.90379" rx="0.966436" ry="2.90379" transform="matrix(0.907091 0.420934 -0.420121 0.907468 155.688 164.34)" fill="white" fill-opacity="0.75"/>
<ellipse cx="0.967183" cy="2.90155" rx="0.967183" ry="2.90155" transform="matrix(0.706865 0.707349 -0.706085 0.708127 165.009 160.161)" fill="white" fill-opacity="0.75"/>
<ellipse cx="0.966436" cy="2.90379" rx="0.966436" ry="2.90379" transform="matrix(0.996653 -0.0817455 0.0826385 0.99658 148.371 171.463)" fill="white" fill-opacity="0.75"/>
<ellipse cx="0.967339" cy="2.90108" rx="0.967339" ry="2.90108" transform="matrix(0.781398 0.624033 -0.62266 0.782493 172.47 152.224)" fill="white" fill-opacity="0.75"/>
<path fill-rule="evenodd" clip-rule="evenodd" d="M144.272 173.849C145.419 175.518 146.753 177.112 148.282 178.601C164.046 181.059 173.295 173.075 179.008 162.798C182.94 155.725 181.099 151.525 173.647 145.151C176.798 149.179 176.98 152.796 174.131 157.921C168.523 168.008 159.51 175.886 144.272 173.849Z" fill="#FE6F6F"/>
<ellipse cx="0.96686" cy="2.90252" rx="0.96686" ry="2.90252" transform="matrix(0.635869 0.771797 -0.770743 0.637147 174.012 163.299)" fill="white" fill-opacity="0.25"/>
<ellipse cx="0.966436" cy="2.90379" rx="0.966436" ry="2.90379" transform="matrix(0.637296 0.77062 -0.770048 0.637986 163.989 171.305)" fill="white" fill-opacity="0.25"/>
<path fill-rule="evenodd" clip-rule="evenodd" d="M148.598 174.17C148.601 174.232 148.606 174.295 148.611 174.358C148.744 175.956 149.282 177.216 149.814 177.173C150.346 177.129 150.67 175.798 150.538 174.2C150.536 174.177 150.534 174.155 150.532 174.133C149.9 174.165 149.255 174.178 148.598 174.17Z" fill="white" fill-opacity="0.25"/>
<ellipse cx="0.96686" cy="2.90252" rx="0.96686" ry="2.90252" transform="matrix(0.956769 0.290849 -0.289264 0.957249 178.612 155.281)" fill="white" fill-opacity="0.25"/>
<mask id="path-72-outside-5_298_529" maskUnits="userSpaceOnUse" x="192.124" y="91" width="69" height="78" fill="black">
<rect fill="white" x="192.124" y="91" width="69" height="78"/>
<path fill-rule="evenodd" clip-rule="evenodd" d="M234.229 105.532C234.23 105.489 234.23 105.446 234.23 105.403C234.23 101.556 231.808 96 227.962 96C224.115 96 222.738 101.556 222.738 105.403C222.738 105.446 222.738 105.489 222.739 105.532H217.427C217.215 102.954 215.61 99.6652 213.162 99.6652C210.714 99.6652 209.727 102.954 209.602 105.532H206.696H204.497C200.425 105.532 197.124 108.833 197.124 112.905V114.33V117.262V142.189C197.124 143.692 198.029 144.984 199.324 145.55V157.141C199.324 161.213 202.624 164.514 206.696 164.514H248.03C249.991 164.514 251.774 163.748 253.095 162.499C254.732 161.147 255.776 159.101 255.776 156.811V138.89C256.222 138.556 256.51 138.024 256.51 137.424V119.903C256.51 119.878 256.51 119.852 256.51 119.827C256.51 119.802 256.51 119.777 256.51 119.752V119.504C256.51 119.49 256.51 119.476 256.51 119.463V112.906C256.51 110.869 255.685 109.026 254.35 107.691C254.296 107.637 254.241 107.585 254.186 107.532C252.867 106.292 251.09 105.532 249.136 105.532H248.404H248.03H247.507C247.508 105.477 247.509 105.422 247.509 105.366C247.509 102.734 245.852 98.9324 243.22 98.9324C240.588 98.9324 239.646 102.734 239.646 105.366C239.646 105.422 239.647 105.478 239.648 105.532H235.982H234.229Z"/>
</mask>
<path fill-rule="evenodd" clip-rule="evenodd" d="M234.229 105.532C234.23 105.489 234.23 105.446 234.23 105.403C234.23 101.556 231.808 96 227.962 96C224.115 96 222.738 101.556 222.738 105.403C222.738 105.446 222.738 105.489 222.739 105.532H217.427C217.215 102.954 215.61 99.6652 213.162 99.6652C210.714 99.6652 209.727 102.954 209.602 105.532H206.696H204.497C200.425 105.532 197.124 108.833 197.124 112.905V114.33V117.262V142.189C197.124 143.692 198.029 144.984 199.324 145.55V157.141C199.324 161.213 202.624 164.514 206.696 164.514H248.03C249.991 164.514 251.774 163.748 253.095 162.499C254.732 161.147 255.776 159.101 255.776 156.811V138.89C256.222 138.556 256.51 138.024 256.51 137.424V119.903C256.51 119.878 256.51 119.852 256.51 119.827C256.51 119.802 256.51 119.777 256.51 119.752V119.504C256.51 119.49 256.51 119.476 256.51 119.463V112.906C256.51 110.869 255.685 109.026 254.35 107.691C254.296 107.637 254.241 107.585 254.186 107.532C252.867 106.292 251.09 105.532 249.136 105.532H248.404H248.03H247.507C247.508 105.477 247.509 105.422 247.509 105.366C247.509 102.734 245.852 98.9324 243.22 98.9324C240.588 98.9324 239.646 102.734 239.646 105.366C239.646 105.422 239.647 105.478 239.648 105.532H235.982H234.229Z" fill="#86DA53"/>
<path d="M234.229 105.532L230.168 105.473L230.108 109.594H234.229V105.532ZM222.739 105.532V109.594H226.852L226.8 105.48L222.739 105.532ZM217.427 105.532L213.379 105.865L213.686 109.594H217.427V105.532ZM209.602 105.532V109.594H213.47L213.659 105.73L209.602 105.532ZM199.324 145.55H203.385V142.892L200.95 141.828L199.324 145.55ZM253.095 162.499L250.509 159.367L250.403 159.454L250.304 159.548L253.095 162.499ZM255.776 138.89L253.338 135.642L251.715 136.861V138.89H255.776ZM256.51 119.903L252.448 119.86L252.448 119.881V119.903H256.51ZM256.51 119.752H252.448V119.774L252.448 119.795L256.51 119.752ZM256.51 119.504L252.45 119.393L252.448 119.448V119.504H256.51ZM254.35 107.691L251.478 110.563L251.478 110.564L254.35 107.691ZM254.186 107.532L251.404 110.491L251.404 110.491L254.186 107.532ZM247.507 105.532L243.447 105.419L243.331 109.594H247.507V105.532ZM239.648 105.532V109.594H243.811L243.709 105.432L239.648 105.532ZM230.169 105.403C230.169 105.427 230.168 105.45 230.168 105.473L238.291 105.591C238.291 105.528 238.292 105.465 238.292 105.403H230.169ZM227.962 100.062C227.742 100.062 228.232 99.9312 229.027 101.299C229.756 102.554 230.169 104.201 230.169 105.403H238.292C238.292 102.757 237.494 99.7034 236.051 97.2185C234.673 94.8468 232.029 91.9383 227.962 91.9383V100.062ZM226.8 105.403C226.8 103.857 227.091 102.104 227.623 100.899C228.192 99.6101 228.436 100.062 227.962 100.062V91.9383C223.641 91.9383 221.273 95.1679 220.192 97.6191C219.073 100.153 218.676 103.102 218.676 105.403H226.8ZM226.8 105.48C226.8 105.455 226.8 105.429 226.8 105.403H218.676C218.676 105.463 218.677 105.523 218.678 105.583L226.8 105.48ZM217.427 109.594H222.739V101.47H217.427V109.594ZM213.162 103.727C212.814 103.727 212.575 103.598 212.502 103.547C212.459 103.517 212.553 103.573 212.713 103.824C212.868 104.065 213.026 104.395 213.153 104.786C213.28 105.175 213.353 105.554 213.379 105.865L221.475 105.199C221.319 103.312 220.677 101.195 219.552 99.4399C218.476 97.7607 216.381 95.6035 213.162 95.6035V103.727ZM213.659 105.73C213.68 105.292 213.738 104.832 213.833 104.405C213.929 103.969 214.046 103.645 214.149 103.438C214.258 103.219 214.281 103.269 214.117 103.399C213.895 103.576 213.539 103.727 213.162 103.727V95.6035C209.724 95.6035 207.767 98.0257 206.873 99.8256C205.972 101.639 205.624 103.709 205.545 105.334L213.659 105.73ZM206.696 109.594H209.602V101.47H206.696V109.594ZM204.497 109.594H206.696V101.47H204.497V109.594ZM201.186 112.905C201.186 111.076 202.668 109.594 204.497 109.594V101.47C198.182 101.47 193.062 106.59 193.062 112.905H201.186ZM201.186 114.33V112.905H193.062V114.33H201.186ZM201.186 117.262V114.33H193.062V117.262H201.186ZM201.186 142.189V117.262H193.062V142.189H201.186ZM200.95 141.828C201.081 141.885 201.186 142.021 201.186 142.189H193.062C193.062 145.364 194.977 148.083 197.697 149.272L200.95 141.828ZM203.385 157.141V145.55H195.262V157.141H203.385ZM206.696 160.452C204.868 160.452 203.385 158.97 203.385 157.141H195.262C195.262 163.456 200.381 168.576 206.696 168.576V160.452ZM248.03 160.452H206.696V168.576H248.03V160.452ZM250.304 159.548C249.707 160.112 248.913 160.452 248.03 160.452V168.576C251.07 168.576 253.84 167.384 255.885 165.451L250.304 159.548ZM251.715 156.811C251.715 157.838 251.252 158.753 250.509 159.367L255.681 165.631C258.213 163.541 259.838 160.364 259.838 156.811H251.715ZM251.715 138.89V156.811H259.838V138.89H251.715ZM252.448 137.424C252.448 136.692 252.805 136.042 253.338 135.642L258.215 142.139C259.638 141.07 260.571 139.355 260.571 137.424H252.448ZM252.448 119.903V137.424H260.571V119.903H252.448ZM252.448 119.827C252.448 119.838 252.448 119.849 252.448 119.86L260.571 119.945C260.572 119.906 260.572 119.867 260.572 119.827H252.448ZM252.448 119.795C252.448 119.806 252.448 119.817 252.448 119.827H260.572C260.572 119.788 260.572 119.749 260.571 119.71L252.448 119.795ZM252.448 119.504V119.752H260.571V119.504H252.448ZM252.449 119.463C252.449 119.439 252.449 119.416 252.45 119.393L260.57 119.614C260.571 119.564 260.572 119.514 260.572 119.463H252.449ZM252.449 112.906V119.463H260.572V112.906H252.449ZM251.478 110.564C252.082 111.168 252.449 111.99 252.449 112.906H260.572C260.572 109.748 259.287 106.884 257.221 104.819L251.478 110.564ZM251.404 110.491C251.429 110.515 251.453 110.539 251.478 110.563L257.222 104.819C257.139 104.736 257.054 104.654 256.968 104.573L251.404 110.491ZM249.136 109.594C250.016 109.594 250.808 109.931 251.404 110.491L256.968 104.573C254.926 102.653 252.165 101.47 249.136 101.47V109.594ZM248.404 109.594H249.136V101.47H248.404V109.594ZM248.03 109.594H248.404V101.47H248.03V109.594ZM247.507 109.594H248.03V101.47H247.507V109.594ZM243.448 105.366C243.448 105.386 243.447 105.403 243.447 105.419L251.567 105.645C251.57 105.552 251.571 105.459 251.571 105.366H243.448ZM243.22 102.994C242.841 102.994 242.598 102.842 242.55 102.807C242.535 102.795 242.659 102.892 242.84 103.202C243.012 103.499 243.173 103.885 243.288 104.311C243.404 104.739 243.448 105.112 243.448 105.366H251.571C251.571 103.328 250.964 101.016 249.864 99.1218C248.829 97.3406 246.68 94.8707 243.22 94.8707V102.994ZM243.708 105.366C243.708 104.938 243.747 104.446 243.833 103.963C243.921 103.472 244.041 103.076 244.162 102.802C244.292 102.508 244.348 102.518 244.212 102.636C244.009 102.812 243.637 102.994 243.22 102.994V94.8707C239.507 94.8707 237.551 97.6616 236.73 99.5224C235.873 101.466 235.584 103.672 235.584 105.366H243.708ZM243.709 105.432C243.708 105.413 243.708 105.391 243.708 105.366H235.584C235.584 105.454 235.585 105.543 235.588 105.632L243.709 105.432ZM235.982 109.594H239.648V101.47H235.982V109.594ZM234.229 109.594H235.982V101.47H234.229V109.594Z" fill="white" mask="url(#path-72-outside-5_298_529)"/>
<rect x="199.322" y="105.531" width="56.0795" height="58.982" rx="7.37275" fill="#E2A17C"/>
<path d="M234.514 112.904C234.514 108.832 237.815 105.531 241.886 105.531H248.402C252.474 105.531 255.775 108.832 255.775 112.904V156.811C255.775 160.882 252.474 164.183 248.402 164.183H234.514V112.904Z" fill="#AC7252"/>
<path d="M197.123 112.904C197.123 108.832 200.424 105.531 204.496 105.531H249.136C253.207 105.531 256.508 108.832 256.508 112.904V117.262C256.508 118.071 255.852 118.728 255.042 118.728H198.589C197.78 118.728 197.123 118.071 197.123 117.262V112.904Z" fill="#FFD1B0"/>
<rect x="223.517" y="112.863" width="32.9918" height="13.9299" rx="6.96493" fill="#FFD1B0"/>
<rect x="197.123" y="110.664" width="7.33151" height="35.1912" rx="3.66575" fill="#FFD1B0"/>
<rect x="197.855" y="106.264" width="11.7304" height="24.9271" rx="5.86521" fill="#FFD1B0"/>
<rect x="217.651" y="110.664" width="13.9299" height="20.5282" rx="6.96493" fill="#FFD1B0"/>
<rect x="235.98" y="114.329" width="10.2641" height="24.9271" rx="5.13205" fill="#FFD1B0"/>
<path d="M235.98 105.531H246.245V134.124C246.245 136.958 243.947 139.256 241.113 139.256V139.256C238.278 139.256 235.98 136.958 235.98 134.124V105.531Z" fill="#FFB47D"/>
<path fill-rule="evenodd" clip-rule="evenodd" d="M246.242 112.862V126.792H249.541C253.388 126.792 256.506 123.674 256.506 119.827C256.506 115.98 253.388 112.862 249.541 112.862H246.242Z" fill="#FFB47D"/>
<path fill-rule="evenodd" clip-rule="evenodd" d="M246.243 105.532V120.928H255.04C255.85 120.928 256.507 120.271 256.507 119.461V112.904C256.507 108.832 253.206 105.532 249.134 105.532H246.243Z" fill="#FFB47D"/>
<rect x="252.843" y="112.863" width="3.66575" height="26.3934" rx="1.83288" fill="#FFB47D"/>
<path d="M217.45 106.098C217.45 108.73 215.793 109.196 213.161 109.196C210.54 108.719 209.587 108.243 209.587 106.098C209.587 103.467 210.529 99.665 213.161 99.665C215.793 99.665 217.45 103.467 217.45 106.098Z" fill="#FB964D"/>
<path d="M247.51 105.366C247.51 107.998 245.852 108.464 243.221 108.464C240.6 107.987 239.646 107.51 239.646 105.366C239.646 102.734 240.589 98.9326 243.221 98.9326C245.852 98.9326 247.51 102.734 247.51 105.366Z" fill="#FB964D"/>
<path d="M234.23 105.403C234.23 109.249 231.809 109.93 227.962 109.93C224.131 109.233 222.738 108.537 222.738 105.403C222.738 101.556 224.115 96 227.962 96C231.809 96 234.23 101.556 234.23 105.403Z" fill="#FB964D"/>
<ellipse cx="227.916" cy="111.03" rx="1.4663" ry="2.56603" transform="rotate(30.6774 227.916 111.03)" fill="#86DA53"/>
<ellipse cx="229.782" cy="110.534" rx="0.952974" ry="1.86466" transform="rotate(144.142 229.782 110.534)" fill="#86DA53"/>
<ellipse cx="243.938" cy="108.672" rx="1.19455" ry="2.09047" transform="rotate(30.6774 243.938 108.672)" fill="#86DA53"/>
<ellipse cx="245.458" cy="108.268" rx="0.776361" ry="1.51909" transform="rotate(144.142 245.458 108.268)" fill="#86DA53"/>
<ellipse cx="213.147" cy="109.404" rx="1.19455" ry="2.09047" transform="rotate(30.6774 213.147 109.404)" fill="#86DA53"/>
<ellipse cx="214.667" cy="109" rx="0.776361" ry="1.51909" transform="rotate(144.142 214.667 109)" fill="#86DA53"/>
<mask id="path-95-outside-6_298_529" maskUnits="userSpaceOnUse" x="233.712" y="124.044" width="38" height="51" fill="black">
<rect fill="white" x="233.712" y="124.044" width="38" height="51"/>
<path fill-rule="evenodd" clip-rule="evenodd" d="M252.319 136.849C251.893 136.607 251.484 136.387 251.089 136.188C251.222 136.34 251.353 136.49 251.48 136.638C246.791 135.121 243.434 138.638 239.511 145.5C235.701 157.526 236.218 159.343 238.463 167.239L238.464 167.24L238.464 167.24L238.464 167.241C238.673 167.977 238.897 168.765 239.134 169.619C239.052 169.633 238.97 169.644 238.889 169.654C239.052 169.986 239.224 170.304 239.405 170.605C239.44 170.733 239.475 170.862 239.511 170.993C239.593 171.049 239.675 171.102 239.758 171.154C240.033 171.555 240.326 171.921 240.638 172.248C252.217 169.929 255.751 163.352 260.469 154.076C264.166 146.805 263.315 145.792 257.605 140.716C259.309 140.632 261.291 140.026 263.197 138.903C267.24 136.522 269.414 132.719 268.054 130.409C266.693 128.099 262.313 128.156 258.27 130.537C257.947 130.727 257.636 130.926 257.338 131.133C256.648 128.611 255.209 126.88 253.777 127.056C252.047 127.27 250.984 130.186 251.401 133.57C251.553 134.803 251.881 135.928 252.319 136.849ZM254.906 148.195C254.604 149.202 254.192 150.296 253.665 151.504C253.437 152.027 253.197 152.559 252.946 153.097C253.16 152.645 253.367 152.197 253.565 151.756C254.153 150.443 254.598 149.268 254.906 148.195Z"/>
</mask>
<path fill-rule="evenodd" clip-rule="evenodd" d="M252.319 136.849C251.893 136.607 251.484 136.387 251.089 136.188C251.222 136.34 251.353 136.49 251.48 136.638C246.791 135.121 243.434 138.638 239.511 145.5C235.701 157.526 236.218 159.343 238.463 167.239L238.464 167.24L238.464 167.24L238.464 167.241C238.673 167.977 238.897 168.765 239.134 169.619C239.052 169.633 238.97 169.644 238.889 169.654C239.052 169.986 239.224 170.304 239.405 170.605C239.44 170.733 239.475 170.862 239.511 170.993C239.593 171.049 239.675 171.102 239.758 171.154C240.033 171.555 240.326 171.921 240.638 172.248C252.217 169.929 255.751 163.352 260.469 154.076C264.166 146.805 263.315 145.792 257.605 140.716C259.309 140.632 261.291 140.026 263.197 138.903C267.24 136.522 269.414 132.719 268.054 130.409C266.693 128.099 262.313 128.156 258.27 130.537C257.947 130.727 257.636 130.926 257.338 131.133C256.648 128.611 255.209 126.88 253.777 127.056C252.047 127.27 250.984 130.186 251.401 133.57C251.553 134.803 251.881 135.928 252.319 136.849ZM254.906 148.195C254.604 149.202 254.192 150.296 253.665 151.504C253.437 152.027 253.197 152.559 252.946 153.097C253.16 152.645 253.367 152.197 253.565 151.756C254.153 150.443 254.598 149.268 254.906 148.195Z" fill="#86DA53"/>
<path d="M252.319 136.849L251.052 139.082L258.141 143.105L254.637 135.746L252.319 136.849ZM251.089 136.188L252.242 133.894L249.159 137.881L251.089 136.188ZM251.48 136.638L250.689 139.081L259.378 141.892L253.427 134.965L251.48 136.638ZM239.511 145.5L237.282 144.226L237.146 144.463L237.063 144.725L239.511 145.5ZM238.463 167.239L235.994 167.942L235.995 167.944L238.463 167.239ZM238.464 167.24L235.995 167.944L235.997 167.951L238.464 167.24ZM238.464 167.24L240.933 166.538L240.931 166.529L238.464 167.24ZM238.464 167.241L235.994 167.943L235.994 167.943L238.464 167.241ZM239.134 169.619L239.565 172.15L242.369 171.673L241.608 168.932L239.134 169.619ZM238.889 169.654L238.595 167.103L234.978 167.52L236.585 170.787L238.889 169.654ZM239.405 170.605L241.883 169.931L241.789 169.587L241.606 169.283L239.405 170.605ZM239.511 170.993L237.032 171.662L237.281 172.584L238.072 173.12L239.511 170.993ZM239.758 171.154L241.875 169.702L241.573 169.261L241.119 168.978L239.758 171.154ZM240.638 172.248L238.78 174.02L239.755 175.043L241.142 174.765L240.638 172.248ZM260.469 154.076L262.757 155.24L262.757 155.24L260.469 154.076ZM257.605 140.716L257.477 138.152L251.208 138.465L255.899 142.635L257.605 140.716ZM263.197 138.903L264.499 141.115L264.499 141.115L263.197 138.903ZM268.054 130.409L270.266 129.106L270.266 129.106L268.054 130.409ZM258.27 130.537L256.967 128.324L256.967 128.324L258.27 130.537ZM257.338 131.133L254.861 131.81L255.819 135.311L258.801 133.243L257.338 131.133ZM253.777 127.056L253.463 124.508L253.463 124.508L253.777 127.056ZM251.401 133.57L248.853 133.884L251.401 133.57ZM253.665 151.504L256.018 152.531L256.018 152.531L253.665 151.504ZM254.906 148.195L257.374 148.904L252.447 147.458L254.906 148.195ZM252.946 153.097L250.619 152.011L255.265 154.198L252.946 153.097ZM253.565 151.756L255.908 152.805L255.908 152.805L253.565 151.756ZM253.586 134.616C253.131 134.358 252.683 134.116 252.242 133.894L249.937 138.482C250.285 138.657 250.655 138.857 251.052 139.082L253.586 134.616ZM249.159 137.881C249.287 138.027 249.411 138.17 249.532 138.311L253.427 134.965C253.294 134.81 253.158 134.654 253.02 134.496L249.159 137.881ZM252.27 134.196C248.995 133.136 246.094 133.911 243.595 135.929C241.279 137.8 239.261 140.763 237.282 144.226L241.739 146.774C243.683 143.374 245.306 141.148 246.821 139.924C248.154 138.848 249.276 138.623 250.689 139.081L252.27 134.196ZM237.063 144.725C235.16 150.734 234.225 154.51 234.15 157.86C234.073 161.26 234.893 164.069 235.994 167.942L240.933 166.537C239.788 162.513 239.227 160.465 239.283 157.976C239.34 155.438 240.052 152.292 241.958 146.275L237.063 144.725ZM235.995 167.944L235.995 167.944L240.932 166.536L240.932 166.535L235.995 167.944ZM235.997 167.951L235.997 167.951L240.931 166.529L240.93 166.529L235.997 167.951ZM235.994 167.942L235.994 167.943L240.933 166.539L240.933 166.538L235.994 167.942ZM235.994 167.943C236.204 168.68 236.426 169.46 236.66 170.305L241.608 168.932C241.369 168.069 241.142 167.274 240.933 166.539L235.994 167.943ZM238.704 167.088C238.666 167.094 238.63 167.099 238.595 167.103L239.183 172.204C239.311 172.189 239.438 172.171 239.565 172.15L238.704 167.088ZM236.585 170.787C236.778 171.179 236.984 171.56 237.205 171.927L241.606 169.283C241.465 169.048 241.327 168.794 241.193 168.521L236.585 170.787ZM236.928 171.279C236.963 171.405 236.997 171.533 237.032 171.662L241.989 170.324C241.953 170.192 241.918 170.06 241.883 169.931L236.928 171.279ZM238.072 173.12C238.179 173.192 238.287 173.262 238.396 173.33L241.119 168.978C241.063 168.942 241.006 168.906 240.949 168.867L238.072 173.12ZM237.64 172.606C237.984 173.108 238.363 173.583 238.78 174.02L242.496 170.476C242.289 170.26 242.081 170.003 241.875 169.702L237.64 172.606ZM241.142 174.765C247.4 173.512 251.672 171.051 254.993 167.533C258.211 164.125 260.43 159.816 262.757 155.24L258.181 152.912C255.79 157.612 253.883 161.23 251.26 164.009C248.74 166.678 245.455 168.665 240.133 169.731L241.142 174.765ZM262.757 155.24C263.693 153.399 264.426 151.796 264.848 150.357C265.282 148.877 265.434 147.416 265.05 145.93C264.673 144.473 263.853 143.283 262.895 142.211C261.953 141.159 260.713 140.044 259.311 138.798L255.899 142.635C257.352 143.927 258.359 144.842 259.068 145.634C259.759 146.407 259.991 146.877 260.079 147.216C260.159 147.526 260.189 147.999 259.921 148.913C259.641 149.868 259.093 151.117 258.181 152.912L262.757 155.24ZM257.733 143.281C259.913 143.172 262.293 142.414 264.499 141.115L261.894 136.691C260.288 137.637 258.705 138.091 257.477 138.152L257.733 143.281ZM264.499 141.115C266.835 139.74 268.742 137.895 269.88 135.904C270.977 133.986 271.616 131.398 270.266 129.106L265.842 131.712C265.853 131.73 266.084 132.199 265.423 133.355C264.804 134.438 263.602 135.685 261.894 136.691L264.499 141.115ZM270.266 129.106C268.917 126.815 266.344 126.118 264.134 126.146C261.841 126.176 259.302 126.949 256.967 128.324L259.573 132.749C261.281 131.743 262.954 131.297 264.201 131.281C265.533 131.263 265.831 131.693 265.842 131.712L270.266 129.106ZM256.967 128.324C256.59 128.547 256.225 128.78 255.875 129.023L258.801 133.243C259.047 133.072 259.304 132.907 259.573 132.749L256.967 128.324ZM254.091 129.604C253.598 129.665 253.54 129.352 253.89 129.758C254.203 130.121 254.588 130.811 254.861 131.81L259.814 130.456C259.398 128.934 258.718 127.496 257.781 126.408C256.881 125.362 255.388 124.271 253.463 124.508L254.091 129.604ZM253.949 133.255C253.779 131.881 253.932 130.727 254.196 130.004C254.513 129.135 254.682 129.531 254.091 129.604L253.463 124.508C251.142 124.794 249.915 126.756 249.372 128.244C248.776 129.878 248.605 131.874 248.853 133.884L253.949 133.255ZM254.637 135.746C254.328 135.097 254.07 134.242 253.949 133.255L248.853 133.884C249.035 135.363 249.433 136.758 250.001 137.953L254.637 135.746ZM256.018 152.531C256.575 151.255 257.027 150.062 257.365 148.932L252.447 147.458C252.182 148.342 251.809 149.337 251.312 150.478L256.018 152.531ZM255.272 154.182C255.532 153.626 255.781 153.074 256.018 152.531L251.312 150.478C251.092 150.981 250.861 151.493 250.619 152.011L255.272 154.182ZM251.221 150.706C251.032 151.13 250.833 151.56 250.627 151.995L255.265 154.198C255.488 153.729 255.702 153.264 255.908 152.805L251.221 150.706ZM252.438 147.486C252.173 148.411 251.776 149.469 251.221 150.706L255.908 152.805C256.529 151.416 257.023 150.125 257.374 148.904L252.438 147.486Z" fill="white" mask="url(#path-95-outside-6_298_529)"/>
<path fill-rule="evenodd" clip-rule="evenodd" d="M239.232 169.973C239.323 170.303 239.416 170.643 239.511 170.994C239.657 171.093 239.804 171.186 239.951 171.272C239.702 170.861 239.462 170.427 239.232 169.973ZM252.399 136.994C255.955 141.513 256.641 144.683 253.665 151.505C250.27 159.286 244.264 169.006 239.198 169.848C238.937 168.905 238.691 168.041 238.463 167.24C236.218 159.344 235.701 157.527 239.511 145.501C243.686 138.198 247.219 134.684 252.399 136.994Z" fill="#FB964D"/>
<path fill-rule="evenodd" clip-rule="evenodd" d="M238.889 169.654C239.39 170.672 239.971 171.55 240.638 172.248C252.217 169.929 255.751 163.352 260.469 154.076C264.259 146.624 263.269 145.745 257.168 140.328C256.597 139.822 255.983 139.276 255.323 138.681C253.71 137.655 252.328 136.811 251.089 136.188C255.671 141.415 256.852 144.414 253.564 151.756C250.123 159.44 243.998 169.065 238.889 169.654Z" fill="#E3823C"/>
<ellipse cx="260.733" cy="134.72" rx="4.85464" ry="8.49562" transform="rotate(-120.493 260.733 134.72)" fill="#86DA53"/>
<ellipse cx="254.532" cy="133.183" rx="3.15511" ry="6.17353" transform="rotate(-7.02822 254.532 133.183)" fill="#86DA53"/>
</svg>
