<svg width="248" height="400" viewBox="0 0 248 400" fill="none" xmlns="http://www.w3.org/2000/svg">
<path d="M123.972 305.893C125.427 305.332 127.046 305.288 128.56 305.769L224.969 336.383C231.414 338.429 231.707 347.428 225.397 349.522L126.096 382.461C124.853 382.873 123.508 382.919 122.219 382.593L24.3557 357.863C17.7596 356.196 16.9738 347.122 23.2172 344.716L123.972 305.893Z" fill="#936247"/>
<path d="M124.533 385.662C124.533 383.866 125.596 382.241 127.24 381.521L224.121 339.104C227.107 337.797 230.453 339.985 230.453 343.245V347.247C230.453 349.028 229.408 350.642 227.783 351.371L130.902 394.821C127.912 396.162 124.533 393.975 124.533 390.697V385.662Z" fill="#AC7252"/>
<path d="M18.8804 349.989C18.8804 346.901 21.9246 344.813 24.8597 345.888L121.519 381.298C123.357 381.971 124.593 383.725 124.593 385.658L124.593 389.33C124.593 392.441 121.508 394.53 118.564 393.412L21.9039 356.736C20.0923 356.048 18.8803 354.308 18.8804 352.394L18.8804 349.989Z" fill="#E2A17C"/>
<path d="M120.326 264.112C121.708 263.604 123.23 263.557 124.668 263.979L191.349 283.555C198.088 285.533 198.259 295.006 191.59 296.841L124.138 315.407C123.033 315.711 121.861 315.732 120.729 315.469L57.6337 300.815C50.8883 299.249 50.0623 289.952 56.4595 287.599L120.326 264.112Z" fill="#B27857"/>
<path d="M122.188 320.54C122.188 315.999 124.907 311.898 129.091 310.131L190.105 284.365C197.554 281.219 205.8 286.688 205.8 294.774V327.573C205.8 332.114 203.081 336.213 198.898 337.981L137.884 363.76C130.435 366.907 122.188 361.438 122.188 353.351V320.54Z" fill="#A36A49"/>
<path d="M43.9415 299.635C43.9414 291.927 51.5282 286.708 58.8606 289.372L114.756 309.679C119.364 311.354 122.469 315.746 122.469 320.59L122.469 353.903C122.469 361.596 114.909 366.814 107.583 364.178L51.6884 344.062C47.0628 342.397 43.9415 337.996 43.9415 333.138L43.9415 299.635Z" fill="#C88B68"/>
<ellipse cx="1.83778" cy="4.88502" rx="1.83778" ry="4.88502" transform="matrix(0.96658 -0.256366 0.0987585 0.995111 55.9033 303.109)" fill="#FFC061"/>
<ellipse cx="2.40043" cy="6.11041" rx="2.40043" ry="6.11041" transform="matrix(-0.989922 0.141613 0.631696 0.775217 182.312 300.473)" fill="#ECAC4C"/>
<ellipse cx="1.95644" cy="4.60521" rx="1.95644" ry="4.60521" transform="matrix(0.255267 0.966871 -0.90507 0.425264 71.5938 321.071)" fill="#FFC061"/>
<ellipse cx="2.1938" cy="6.07348" rx="2.1938" ry="6.07348" transform="matrix(-0.934292 0.356509 -0.155218 0.98788 188.063 325.896)" fill="#ECAC4C"/>
<ellipse cx="1.77559" cy="5.01886" rx="1.77559" ry="5.01886" transform="matrix(0.999987 -0.00517606 -0.099534 0.995034 85.1396 312.739)" fill="#B58832"/>
<ellipse cx="2.02499" cy="6.28698" rx="2.02499" ry="6.28698" transform="matrix(-0.734223 -0.678908 -0.254261 0.967136 163.392 305.482)" fill="#A87C27"/>
<ellipse cx="1.76441" cy="5.04206" rx="1.76441" ry="5.04206" transform="matrix(0.799602 0.60053 -0.528626 0.848855 90.2354 334.208)" fill="#FFC061"/>
<ellipse cx="1.84616" cy="5.27327" rx="1.84616" ry="5.27327" transform="matrix(-0.959554 -0.281526 -0.285311 0.958435 162.536 327.79)" fill="#ECAC4C"/>
<ellipse cx="1.7663" cy="5.03815" rx="1.7663" ry="5.03815" transform="matrix(0.998834 0.0482848 -0.138367 0.990381 106.168 325.041)" fill="#FFC061"/>
<ellipse cx="1.96976" cy="6.38962" rx="1.96976" ry="6.38962" transform="matrix(-0.995537 -0.0943738 0.364012 0.931394 136.285 314.023)" fill="#ECAC4C"/>
<ellipse cx="1.81156" cy="4.94245" rx="1.81156" ry="4.94245" transform="matrix(0.644921 0.76425 -0.664709 0.747103 112.513 346.28)" fill="#B58832"/>
<ellipse cx="1.68424" cy="6.85424" rx="1.68424" ry="6.85424" transform="matrix(-0.527568 0.849513 0.706248 0.707964 135.695 337.847)" fill="#A87C27"/>
<ellipse cx="1.78596" cy="4.99709" rx="1.78596" ry="4.99709" transform="matrix(0.998365 -0.0571568 -0.0608813 0.998145 48.7939 320.261)" fill="#B58832"/>
<ellipse cx="2.08044" cy="6.17928" rx="2.08044" ry="6.17928" transform="matrix(-0.980565 -0.196195 0.304691 0.952451 199.717 305.244)" fill="#A87C27"/>
<path d="M132.284 196.993C133.657 196.805 135.065 197.042 136.324 197.673L200.008 229.603C206.342 232.779 204.719 242.246 197.754 242.744L125.5 247.91C124.085 248.011 122.661 247.667 121.425 246.924L72.7471 217.695C67.0971 214.302 68.6234 205.741 75.0354 204.86L132.284 196.993Z" fill="#E5E3E3"/>
<path d="M122.2 252.021C123.156 247.581 126.678 244.145 131.14 243.299L196.213 230.962C204.158 229.456 211.067 236.538 209.363 244.443L202.455 276.506C201.499 280.945 197.978 284.38 193.517 285.227L128.441 297.576C120.496 299.084 113.586 292.001 115.289 284.096L122.2 252.021Z" fill="#F1EFEF"/>
<path d="M50.1123 215.104C51.7358 207.569 60.2515 204.065 66.8583 208.214L117.223 239.838C121.375 242.445 123.486 247.393 122.465 252.129L115.449 284.694C113.829 292.215 105.339 295.724 98.7328 291.603L48.3283 260.166C44.1571 257.564 42.0328 252.605 43.0558 247.856L50.1123 215.104Z" fill="white"/>
<path d="M97.57 121.482C98.8176 120.7 100.298 120.341 101.791 120.457L171.076 125.859C178.078 126.404 180.2 135.638 174.052 138.809L111.88 170.888C110.861 171.413 109.719 171.676 108.557 171.652L43.7958 170.327C36.8724 170.185 34.1466 161.258 39.921 157.637L97.57 121.482Z" fill="#D1BD7C"/>
<path d="M111.029 176.313C110.093 171.869 111.908 167.296 115.637 164.704L170.026 126.908C176.666 122.293 185.862 125.944 187.53 133.856L194.295 165.949C195.231 170.393 193.417 174.965 189.688 177.557L135.302 215.366C128.662 219.982 119.465 216.332 117.797 208.419L111.029 176.313Z" fill="#EBD795"/>
<path d="M30.1536 171.996C28.5639 164.454 34.9111 157.782 42.6353 158.876L101.517 167.218C106.372 167.906 110.316 171.564 111.315 176.304L118.186 208.9C119.773 216.428 113.452 223.093 105.739 222.024L46.8971 213.869C42.0276 213.194 38.0657 209.532 37.0638 204.779L30.1536 171.996Z" fill="#FFEDB2"/>
<path d="M116.104 12.163C117.446 11.8023 118.878 11.8616 120.21 12.3332L187.666 36.2185C194.35 38.5851 193.909 48.1842 187.054 49.5363L115.592 63.6322C114.458 63.856 113.277 63.7878 112.16 63.4341L49.1022 43.4754C42.4612 41.3734 42.4177 31.9655 49.0409 30.1856L116.104 12.163Z" fill="#E5E3E3"/>
<path d="M113.26 68.0411C113.632 63.5146 116.678 59.6507 120.993 58.2323L183.912 37.5479C191.593 35.0226 199.364 41.148 198.702 49.2068L196.016 81.8954C195.645 86.4211 192.6 90.2846 188.286 91.7035L125.366 112.4C117.684 114.927 109.912 108.802 110.574 100.742L113.26 68.0411Z" fill="#D3D2D2"/>
<rect x="178.572" y="43.1113" width="14.4642" height="14.4642" rx="7.23211" transform="rotate(4.69613 178.572 43.1113)" fill="#C7C7C7"/>
<rect x="187.334" y="64.9395" width="6.57464" height="6.57464" rx="3.28732" transform="rotate(4.69613 187.334 64.9395)" fill="#C7C7C7"/>
<rect x="166.524" y="51.7578" width="6.57464" height="6.57464" rx="3.28732" transform="rotate(4.69613 166.524 51.7578)" fill="#C7C7C7"/>
<path d="M36.9889 40.7992C37.6199 33.1173 45.6085 28.5371 52.6981 31.7924L106.743 56.6074C111.199 58.6535 113.934 63.2852 113.538 68.1135L110.81 101.314C110.18 108.981 102.219 113.563 95.1331 110.336L41.0726 85.711C36.5988 83.6732 33.8483 79.0314 34.246 74.1903L36.9889 40.7992Z" fill="#F4F4F4"/>
<rect x="38.79" y="67.9072" width="12.3165" height="12.3165" rx="6.15823" transform="rotate(4.69613 38.79 67.9072)" fill="#E2E2E2"/>
<rect x="42.291" y="52.8896" width="5.5217" height="5.5217" rx="2.76085" transform="rotate(4.69613 42.291 52.8896)" fill="#E2E2E2"/>
<rect x="52.6895" y="78.1182" width="10.0413" height="10.0413" rx="5.02065" transform="rotate(4.69613 52.6895 78.1182)" fill="#E2E2E2"/>
<rect x="96.4443" y="63.0068" width="12.9938" height="12.9938" rx="6.49692" transform="rotate(4.69613 96.4443 63.0068)" fill="#E2E2E2"/>
<rect x="92.3564" y="57.5693" width="4.3918" height="4.3918" rx="2.1959" transform="rotate(4.69613 92.3564 57.5693)" fill="#E2E2E2"/>
<rect x="102.662" y="83.9238" width="4.3918" height="4.3918" rx="2.1959" transform="rotate(4.69613 102.662 83.9238)" fill="#E2E2E2"/>
<rect x="122.176" y="80.9922" width="6.6516" height="6.6516" rx="3.3258" transform="rotate(4.69613 122.176 80.9922)" fill="#C7C7C7"/>
<rect x="139.739" y="94.9053" width="6.6516" height="6.6516" rx="3.3258" transform="rotate(4.69613 139.739 94.9053)" fill="#C7C7C7"/>
<rect x="121.675" y="93.9883" width="11.8639" height="11.8639" rx="5.93197" transform="rotate(4.69613 121.675 93.9883)" fill="#C7C7C7"/>
<g clip-path="url(#clip0_297_8151)">
<path d="M102.824 153.268V138.564C102.824 136.267 103.737 134.064 105.361 132.439C106.986 130.815 109.189 129.902 111.486 129.902L102.824 153.268ZM102.824 153.268C102.653 153.17 102.48 153.077 102.306 152.988L102.305 152.988C98.8762 151.245 95.5535 151.557 92.2597 152.906L92.2583 152.906C88.99 154.249 88.003 157.972 89.3717 160.709L97.6456 177.257L97.651 177.268L97.6566 177.278L98.0379 178.009L98.0437 178.02L98.0497 178.031C100.172 181.924 103.304 185.173 107.116 187.437C110.928 189.701 115.28 190.895 119.714 190.896H121.676H121.687L121.698 190.895L122.426 190.884L122.436 190.884L122.447 190.883C128.854 190.683 134.932 187.997 139.393 183.394C143.855 178.791 146.35 172.632 146.35 166.221V165.304V165.287L146.349 165.27L146.335 164.679L146.334 164.661L146.334 164.643C146.176 161.555 144.926 158.623 142.806 156.373C140.685 154.122 137.834 152.698 134.761 152.357C134.761 152.357 134.761 152.357 134.761 152.357L120.148 150.732V138.564V138.543L120.147 138.522L120.133 138.044L120.132 138.02L120.131 137.996C119.986 135.801 119.013 133.744 117.407 132.241C115.802 130.738 113.685 129.902 111.486 129.902L102.824 153.268ZM130.411 138.636H130.41H127.498H127.457L127.416 138.639L127.075 138.659L127.035 138.661L126.994 138.666C125.907 138.795 124.911 139.335 124.208 140.174C123.506 141.014 123.15 142.09 123.214 143.183L124.595 143.102L123.214 143.183C123.278 144.275 123.757 145.303 124.553 146.054C125.349 146.805 126.402 147.225 127.497 147.226H127.498H130.41H130.451L130.492 147.223L130.833 147.203L130.874 147.201L130.914 147.196C132.001 147.066 132.997 146.527 133.7 145.688C134.403 144.848 134.758 143.772 134.694 142.679C134.63 141.586 134.151 140.559 133.355 139.808C132.559 139.056 131.506 138.637 130.411 138.636ZM98.5106 128.249L98.5021 128.241L98.4935 128.232C97.6835 127.45 96.5986 127.017 95.4724 127.027C94.3463 127.037 93.2691 127.488 92.4728 128.285C91.6765 129.081 91.2248 130.158 91.215 131.284C91.2052 132.41 91.6381 133.495 92.4205 134.305L92.4288 134.314L92.4373 134.322L95.3487 137.234L95.3572 137.242L95.3658 137.251C96.1758 138.033 97.2607 138.466 98.3869 138.456C99.513 138.446 100.59 137.994 101.386 137.198C102.183 136.402 102.634 135.325 102.644 134.199C102.654 133.072 102.221 131.988 101.439 131.178L101.43 131.169L101.422 131.16L98.5106 128.249ZM130.535 128.249L130.535 128.249C129.73 127.444 128.637 126.991 127.498 126.991C126.36 126.991 125.267 127.444 124.462 128.249L124.462 128.249L121.558 131.153C121.152 131.547 120.828 132.018 120.605 132.538C120.38 133.062 120.262 133.625 120.257 134.195C120.252 134.766 120.36 135.331 120.576 135.859C120.792 136.387 121.111 136.866 121.514 137.27L122.478 136.306L121.514 137.27C121.918 137.673 122.397 137.992 122.925 138.208C123.453 138.424 124.018 138.532 124.589 138.528C125.159 138.523 125.723 138.404 126.247 138.179C126.766 137.956 127.237 137.632 127.631 137.226L130.535 134.322L130.535 134.322C131.34 133.517 131.793 132.425 131.793 131.286C131.793 130.147 131.34 129.055 130.535 128.249ZM98.511 142.805C97.7055 142 96.6131 141.547 95.474 141.547H92.5627C91.4236 141.547 90.3312 142 89.5257 142.805C88.7203 143.611 88.2678 144.703 88.2678 145.842C88.2678 146.981 88.7203 148.074 89.5257 148.879C90.3312 149.685 91.4236 150.137 92.5627 150.137H95.474C96.6131 150.137 97.7055 149.685 98.511 148.879C99.3164 148.074 99.7689 146.981 99.7689 145.842C99.7689 144.703 99.3164 143.611 98.511 142.805Z" fill="#FF8888" stroke="white" stroke-width="2.76719"/>
</g>
<mask id="path-43-outside-1_297_8151" maskUnits="userSpaceOnUse" x="63.1641" y="202.409" width="119" height="23" fill="black">
<rect fill="white" x="63.1641" y="202.409" width="119" height="23"/>
<path d="M71.8242 215.174V218.409H70.1778C67.4014 218.409 66.0131 217.034 66.0131 214.283V210.7H64.6766V207.542H66.0131V204.908H69.8291V207.542H71.8049V210.7H69.8291V214.341C69.8291 214.638 69.8937 214.851 70.0228 214.981C70.1648 215.11 70.3973 215.174 70.7201 215.174H71.8242ZM72.9457 212.966C72.9457 211.843 73.1459 210.861 73.5462 210.022C73.9595 209.182 74.5147 208.537 75.2121 208.085C75.9223 207.633 76.71 207.407 77.5753 207.407C78.3242 207.407 78.9699 207.555 79.5123 207.852C80.0547 208.149 80.4743 208.55 80.7714 209.053V207.542H84.5679V218.409H80.7714V216.898C80.4743 217.402 80.0482 217.802 79.4929 218.099C78.9505 218.396 78.3113 218.545 77.5753 218.545C76.71 218.545 75.9223 218.319 75.2121 217.867C74.5147 217.415 73.9595 216.769 73.5462 215.93C73.1459 215.077 72.9457 214.09 72.9457 212.966ZM80.7714 212.966C80.7714 212.269 80.5777 211.72 80.1902 211.32C79.8158 210.919 79.3509 210.719 78.7956 210.719C78.2274 210.719 77.756 210.919 77.3816 211.32C77.0071 211.707 76.8198 212.256 76.8198 212.966C76.8198 213.663 77.0071 214.219 77.3816 214.632C77.756 215.032 78.2274 215.232 78.7956 215.232C79.3509 215.232 79.8158 215.032 80.1902 214.632C80.5777 214.232 80.7714 213.676 80.7714 212.966ZM90.5279 209.053C90.825 208.55 91.2446 208.149 91.787 207.852C92.3294 207.555 92.9686 207.407 93.7047 207.407C94.5699 207.407 95.3511 207.633 96.0485 208.085C96.7587 208.537 97.314 209.182 97.7143 210.022C98.1276 210.861 98.3342 211.843 98.3342 212.966C98.3342 214.09 98.1276 215.077 97.7143 215.93C97.314 216.769 96.7587 217.415 96.0485 217.867C95.3511 218.319 94.5699 218.545 93.7047 218.545C92.9686 218.545 92.3294 218.396 91.787 218.099C91.2576 217.802 90.8379 217.402 90.5279 216.898V223.6H86.7314V207.542H90.5279V209.053ZM94.4795 212.966C94.4795 212.256 94.2858 211.707 93.8984 211.32C93.5239 210.919 93.059 210.719 92.5037 210.719C91.9484 210.719 91.4771 210.919 91.0897 211.32C90.7152 211.72 90.5279 212.269 90.5279 212.966C90.5279 213.676 90.7152 214.232 91.0897 214.632C91.4771 215.032 91.9484 215.232 92.5037 215.232C93.059 215.232 93.5239 215.032 93.8984 214.632C94.2858 214.219 94.4795 213.663 94.4795 212.966ZM110.016 215.174V218.409H108.37C105.593 218.409 104.205 217.034 104.205 214.283V210.7H102.869V207.542H104.205V204.908H108.021V207.542H109.997V210.7H108.021V214.341C108.021 214.638 108.086 214.851 108.215 214.981C108.357 215.11 108.589 215.174 108.912 215.174H110.016ZM116.813 218.545C115.729 218.545 114.754 218.319 113.888 217.867C113.036 217.415 112.365 216.769 111.874 215.93C111.383 215.09 111.138 214.103 111.138 212.966C111.138 211.843 111.383 210.861 111.874 210.022C112.378 209.182 113.055 208.537 113.908 208.085C114.773 207.633 115.748 207.407 116.833 207.407C117.917 207.407 118.886 207.633 119.738 208.085C120.603 208.537 121.281 209.182 121.772 210.022C122.276 210.861 122.528 211.843 122.528 212.966C122.528 214.09 122.276 215.077 121.772 215.93C121.281 216.769 120.603 217.415 119.738 217.867C118.873 218.319 117.898 218.545 116.813 218.545ZM116.813 215.252C117.343 215.252 117.782 215.058 118.13 214.671C118.492 214.27 118.673 213.702 118.673 212.966C118.673 212.23 118.492 211.668 118.13 211.281C117.782 210.893 117.349 210.7 116.833 210.7C116.316 210.7 115.884 210.893 115.535 211.281C115.186 211.668 115.012 212.23 115.012 212.966C115.012 213.715 115.18 214.283 115.515 214.671C115.851 215.058 116.284 215.252 116.813 215.252ZM127.16 212.966C127.16 211.843 127.36 210.861 127.76 210.022C128.174 209.182 128.735 208.537 129.446 208.085C130.156 207.633 130.944 207.407 131.809 207.407C132.506 207.407 133.126 207.555 133.668 207.852C134.224 208.136 134.656 208.53 134.966 209.034V204.075H138.782V218.409H134.966V216.898C134.669 217.402 134.249 217.802 133.707 218.099C133.165 218.396 132.526 218.545 131.789 218.545C130.924 218.545 130.137 218.319 129.426 217.867C128.729 217.415 128.174 216.769 127.76 215.93C127.36 215.077 127.16 214.09 127.16 212.966ZM134.986 212.966C134.986 212.269 134.792 211.72 134.404 211.32C134.03 210.919 133.565 210.719 133.01 210.719C132.442 210.719 131.97 210.919 131.596 211.32C131.221 211.707 131.034 212.256 131.034 212.966C131.034 213.663 131.221 214.219 131.596 214.632C131.97 215.032 132.442 215.232 133.01 215.232C133.565 215.232 134.03 215.032 134.404 214.632C134.792 214.232 134.986 213.676 134.986 212.966ZM144.742 209.46C145.168 208.84 145.685 208.35 146.292 207.988C146.899 207.626 147.551 207.446 148.248 207.446V211.494H147.183C146.356 211.494 145.743 211.655 145.343 211.978C144.942 212.301 144.742 212.863 144.742 213.663V218.409H140.946V207.542H144.742V209.46ZM154.665 218.545C153.58 218.545 152.605 218.319 151.74 217.867C150.888 217.415 150.216 216.769 149.725 215.93C149.235 215.09 148.989 214.103 148.989 212.966C148.989 211.843 149.235 210.861 149.725 210.022C150.229 209.182 150.907 208.537 151.759 208.085C152.625 207.633 153.6 207.407 154.684 207.407C155.769 207.407 156.737 207.633 157.59 208.085C158.455 208.537 159.133 209.182 159.624 210.022C160.127 210.861 160.379 211.843 160.379 212.966C160.379 214.09 160.127 215.077 159.624 215.93C159.133 216.769 158.455 217.415 157.59 217.867C156.725 218.319 155.75 218.545 154.665 218.545ZM154.665 215.252C155.194 215.252 155.633 215.058 155.982 214.671C156.344 214.27 156.524 213.702 156.524 212.966C156.524 212.23 156.344 211.668 155.982 211.281C155.633 210.893 155.201 210.7 154.684 210.7C154.168 210.7 153.735 210.893 153.386 211.281C153.038 211.668 152.863 212.23 152.863 212.966C152.863 213.715 153.031 214.283 153.367 214.671C153.703 215.058 154.135 215.252 154.665 215.252ZM165.72 209.053C166.017 208.55 166.437 208.149 166.979 207.852C167.522 207.555 168.161 207.407 168.897 207.407C169.762 207.407 170.544 207.633 171.241 208.085C171.951 208.537 172.506 209.182 172.907 210.022C173.32 210.861 173.527 211.843 173.527 212.966C173.527 214.09 173.32 215.077 172.907 215.93C172.506 216.769 171.951 217.415 171.241 217.867C170.544 218.319 169.762 218.545 168.897 218.545C168.161 218.545 167.522 218.396 166.979 218.099C166.45 217.802 166.03 217.402 165.72 216.898V223.6H161.924V207.542H165.72V209.053ZM169.672 212.966C169.672 212.256 169.478 211.707 169.091 211.32C168.716 210.919 168.251 210.719 167.696 210.719C167.141 210.719 166.669 210.919 166.282 211.32C165.908 211.72 165.72 212.269 165.72 212.966C165.72 213.676 165.908 214.232 166.282 214.632C166.669 215.032 167.141 215.232 167.696 215.232C168.251 215.232 168.716 215.032 169.091 214.632C169.478 214.219 169.672 213.663 169.672 212.966ZM180.165 204.056L179.719 213.295H176.484L176.039 204.056H180.165ZM178.111 218.564C177.44 218.564 176.897 218.383 176.484 218.022C176.084 217.647 175.884 217.176 175.884 216.608C175.884 216.04 176.084 215.568 176.484 215.194C176.897 214.819 177.44 214.632 178.111 214.632C178.77 214.632 179.299 214.819 179.7 215.194C180.113 215.568 180.319 216.04 180.319 216.608C180.319 217.163 180.113 217.628 179.7 218.002C179.299 218.377 178.77 218.564 178.111 218.564Z"/>
</mask>
<path d="M71.8242 215.174V218.409H70.1778C67.4014 218.409 66.0131 217.034 66.0131 214.283V210.7H64.6766V207.542H66.0131V204.908H69.8291V207.542H71.8049V210.7H69.8291V214.341C69.8291 214.638 69.8937 214.851 70.0228 214.981C70.1648 215.11 70.3973 215.174 70.7201 215.174H71.8242ZM72.9457 212.966C72.9457 211.843 73.1459 210.861 73.5462 210.022C73.9595 209.182 74.5147 208.537 75.2121 208.085C75.9223 207.633 76.71 207.407 77.5753 207.407C78.3242 207.407 78.9699 207.555 79.5123 207.852C80.0547 208.149 80.4743 208.55 80.7714 209.053V207.542H84.5679V218.409H80.7714V216.898C80.4743 217.402 80.0482 217.802 79.4929 218.099C78.9505 218.396 78.3113 218.545 77.5753 218.545C76.71 218.545 75.9223 218.319 75.2121 217.867C74.5147 217.415 73.9595 216.769 73.5462 215.93C73.1459 215.077 72.9457 214.09 72.9457 212.966ZM80.7714 212.966C80.7714 212.269 80.5777 211.72 80.1902 211.32C79.8158 210.919 79.3509 210.719 78.7956 210.719C78.2274 210.719 77.756 210.919 77.3816 211.32C77.0071 211.707 76.8198 212.256 76.8198 212.966C76.8198 213.663 77.0071 214.219 77.3816 214.632C77.756 215.032 78.2274 215.232 78.7956 215.232C79.3509 215.232 79.8158 215.032 80.1902 214.632C80.5777 214.232 80.7714 213.676 80.7714 212.966ZM90.5279 209.053C90.825 208.55 91.2446 208.149 91.787 207.852C92.3294 207.555 92.9686 207.407 93.7047 207.407C94.5699 207.407 95.3511 207.633 96.0485 208.085C96.7587 208.537 97.314 209.182 97.7143 210.022C98.1276 210.861 98.3342 211.843 98.3342 212.966C98.3342 214.09 98.1276 215.077 97.7143 215.93C97.314 216.769 96.7587 217.415 96.0485 217.867C95.3511 218.319 94.5699 218.545 93.7047 218.545C92.9686 218.545 92.3294 218.396 91.787 218.099C91.2576 217.802 90.8379 217.402 90.5279 216.898V223.6H86.7314V207.542H90.5279V209.053ZM94.4795 212.966C94.4795 212.256 94.2858 211.707 93.8984 211.32C93.5239 210.919 93.059 210.719 92.5037 210.719C91.9484 210.719 91.4771 210.919 91.0897 211.32C90.7152 211.72 90.5279 212.269 90.5279 212.966C90.5279 213.676 90.7152 214.232 91.0897 214.632C91.4771 215.032 91.9484 215.232 92.5037 215.232C93.059 215.232 93.5239 215.032 93.8984 214.632C94.2858 214.219 94.4795 213.663 94.4795 212.966ZM110.016 215.174V218.409H108.37C105.593 218.409 104.205 217.034 104.205 214.283V210.7H102.869V207.542H104.205V204.908H108.021V207.542H109.997V210.7H108.021V214.341C108.021 214.638 108.086 214.851 108.215 214.981C108.357 215.11 108.589 215.174 108.912 215.174H110.016ZM116.813 218.545C115.729 218.545 114.754 218.319 113.888 217.867C113.036 217.415 112.365 216.769 111.874 215.93C111.383 215.09 111.138 214.103 111.138 212.966C111.138 211.843 111.383 210.861 111.874 210.022C112.378 209.182 113.055 208.537 113.908 208.085C114.773 207.633 115.748 207.407 116.833 207.407C117.917 207.407 118.886 207.633 119.738 208.085C120.603 208.537 121.281 209.182 121.772 210.022C122.276 210.861 122.528 211.843 122.528 212.966C122.528 214.09 122.276 215.077 121.772 215.93C121.281 216.769 120.603 217.415 119.738 217.867C118.873 218.319 117.898 218.545 116.813 218.545ZM116.813 215.252C117.343 215.252 117.782 215.058 118.13 214.671C118.492 214.27 118.673 213.702 118.673 212.966C118.673 212.23 118.492 211.668 118.13 211.281C117.782 210.893 117.349 210.7 116.833 210.7C116.316 210.7 115.884 210.893 115.535 211.281C115.186 211.668 115.012 212.23 115.012 212.966C115.012 213.715 115.18 214.283 115.515 214.671C115.851 215.058 116.284 215.252 116.813 215.252ZM127.16 212.966C127.16 211.843 127.36 210.861 127.76 210.022C128.174 209.182 128.735 208.537 129.446 208.085C130.156 207.633 130.944 207.407 131.809 207.407C132.506 207.407 133.126 207.555 133.668 207.852C134.224 208.136 134.656 208.53 134.966 209.034V204.075H138.782V218.409H134.966V216.898C134.669 217.402 134.249 217.802 133.707 218.099C133.165 218.396 132.526 218.545 131.789 218.545C130.924 218.545 130.137 218.319 129.426 217.867C128.729 217.415 128.174 216.769 127.76 215.93C127.36 215.077 127.16 214.09 127.16 212.966ZM134.986 212.966C134.986 212.269 134.792 211.72 134.404 211.32C134.03 210.919 133.565 210.719 133.01 210.719C132.442 210.719 131.97 210.919 131.596 211.32C131.221 211.707 131.034 212.256 131.034 212.966C131.034 213.663 131.221 214.219 131.596 214.632C131.97 215.032 132.442 215.232 133.01 215.232C133.565 215.232 134.03 215.032 134.404 214.632C134.792 214.232 134.986 213.676 134.986 212.966ZM144.742 209.46C145.168 208.84 145.685 208.35 146.292 207.988C146.899 207.626 147.551 207.446 148.248 207.446V211.494H147.183C146.356 211.494 145.743 211.655 145.343 211.978C144.942 212.301 144.742 212.863 144.742 213.663V218.409H140.946V207.542H144.742V209.46ZM154.665 218.545C153.58 218.545 152.605 218.319 151.74 217.867C150.888 217.415 150.216 216.769 149.725 215.93C149.235 215.09 148.989 214.103 148.989 212.966C148.989 211.843 149.235 210.861 149.725 210.022C150.229 209.182 150.907 208.537 151.759 208.085C152.625 207.633 153.6 207.407 154.684 207.407C155.769 207.407 156.737 207.633 157.59 208.085C158.455 208.537 159.133 209.182 159.624 210.022C160.127 210.861 160.379 211.843 160.379 212.966C160.379 214.09 160.127 215.077 159.624 215.93C159.133 216.769 158.455 217.415 157.59 217.867C156.725 218.319 155.75 218.545 154.665 218.545ZM154.665 215.252C155.194 215.252 155.633 215.058 155.982 214.671C156.344 214.27 156.524 213.702 156.524 212.966C156.524 212.23 156.344 211.668 155.982 211.281C155.633 210.893 155.201 210.7 154.684 210.7C154.168 210.7 153.735 210.893 153.386 211.281C153.038 211.668 152.863 212.23 152.863 212.966C152.863 213.715 153.031 214.283 153.367 214.671C153.703 215.058 154.135 215.252 154.665 215.252ZM165.72 209.053C166.017 208.55 166.437 208.149 166.979 207.852C167.522 207.555 168.161 207.407 168.897 207.407C169.762 207.407 170.544 207.633 171.241 208.085C171.951 208.537 172.506 209.182 172.907 210.022C173.32 210.861 173.527 211.843 173.527 212.966C173.527 214.09 173.32 215.077 172.907 215.93C172.506 216.769 171.951 217.415 171.241 217.867C170.544 218.319 169.762 218.545 168.897 218.545C168.161 218.545 167.522 218.396 166.979 218.099C166.45 217.802 166.03 217.402 165.72 216.898V223.6H161.924V207.542H165.72V209.053ZM169.672 212.966C169.672 212.256 169.478 211.707 169.091 211.32C168.716 210.919 168.251 210.719 167.696 210.719C167.141 210.719 166.669 210.919 166.282 211.32C165.908 211.72 165.72 212.269 165.72 212.966C165.72 213.676 165.908 214.232 166.282 214.632C166.669 215.032 167.141 215.232 167.696 215.232C168.251 215.232 168.716 215.032 169.091 214.632C169.478 214.219 169.672 213.663 169.672 212.966ZM180.165 204.056L179.719 213.295H176.484L176.039 204.056H180.165ZM178.111 218.564C177.44 218.564 176.897 218.383 176.484 218.022C176.084 217.647 175.884 217.176 175.884 216.608C175.884 216.04 176.084 215.568 176.484 215.194C176.897 214.819 177.44 214.632 178.111 214.632C178.77 214.632 179.299 214.819 179.7 215.194C180.113 215.568 180.319 216.04 180.319 216.608C180.319 217.163 180.113 217.628 179.7 218.002C179.299 218.377 178.77 218.564 178.111 218.564Z" fill="#FF8888"/>
<path d="M71.8242 215.174H73.2078V213.791H71.8242V215.174ZM71.8242 218.409V219.793H73.2078V218.409H71.8242ZM66.0131 210.7H67.3967V209.316H66.0131V210.7ZM64.6766 210.7H63.293V212.083H64.6766V210.7ZM64.6766 207.542V206.159H63.293V207.542H64.6766ZM66.0131 207.542V208.926H67.3967V207.542H66.0131ZM66.0131 204.908V203.524H64.6296V204.908H66.0131ZM69.8291 204.908H71.2127V203.524H69.8291V204.908ZM69.8291 207.542H68.4455V208.926H69.8291V207.542ZM71.8049 207.542H73.1885V206.159H71.8049V207.542ZM71.8049 210.7V212.083H73.1885V210.7H71.8049ZM69.8291 210.7V209.316H68.4455V210.7H69.8291ZM70.0228 214.981L69.0445 215.959L69.0677 215.982L69.0921 216.004L70.0228 214.981ZM70.4406 215.174V218.409H73.2078V215.174H70.4406ZM71.8242 217.026H70.1778V219.793H71.8242V217.026ZM70.1778 217.026C68.9996 217.026 68.3707 216.734 68.0281 216.395C67.6878 216.058 67.3967 215.442 67.3967 214.283H64.6296C64.6296 215.875 65.0326 217.322 66.0805 218.361C67.1261 219.396 68.5795 219.793 70.1778 219.793V217.026ZM67.3967 214.283V210.7H64.6296V214.283H67.3967ZM66.0131 209.316H64.6766V212.083H66.0131V209.316ZM66.0602 210.7V207.542H63.293V210.7H66.0602ZM64.6766 208.926H66.0131V206.159H64.6766V208.926ZM67.3967 207.542V204.908H64.6296V207.542H67.3967ZM66.0131 206.292H69.8291V203.524H66.0131V206.292ZM68.4455 204.908V207.542H71.2127V204.908H68.4455ZM69.8291 208.926H71.8049V206.159H69.8291V208.926ZM70.4213 207.542V210.7H73.1885V207.542H70.4213ZM71.8049 209.316H69.8291V212.083H71.8049V209.316ZM68.4455 210.7V214.341H71.2127V210.7H68.4455ZM68.4455 214.341C68.4455 214.786 68.5336 215.448 69.0445 215.959L71.0011 214.002C71.1292 214.13 71.1822 214.259 71.2017 214.323C71.2194 214.381 71.2127 214.396 71.2127 214.341H68.4455ZM69.0921 216.004C69.6138 216.479 70.2711 216.558 70.7201 216.558V213.791C70.6445 213.791 70.6368 213.782 70.674 213.793C70.714 213.804 70.8287 213.843 70.9535 213.957L69.0921 216.004ZM70.7201 216.558H71.8242V213.791H70.7201V216.558ZM73.5462 210.022L72.3049 209.411L72.3011 209.418L72.2974 209.426L73.5462 210.022ZM75.2121 208.085L74.4692 206.917L74.4595 206.924L75.2121 208.085ZM79.5123 207.852L78.8477 209.066H78.8477L79.5123 207.852ZM80.7714 209.053L79.5796 209.756L82.155 214.123V209.053H80.7714ZM80.7714 207.542V206.159H79.3878V207.542H80.7714ZM84.5679 207.542H85.9515V206.159H84.5679V207.542ZM84.5679 218.409V219.793H85.9515V218.409H84.5679ZM80.7714 218.409H79.3878V219.793H80.7714V218.409ZM80.7714 216.898H82.155V211.829L79.5796 216.195L80.7714 216.898ZM79.4929 218.099L78.8403 216.879L78.8284 216.886L79.4929 218.099ZM75.2121 217.867L74.4595 219.028L74.4693 219.034L75.2121 217.867ZM73.5462 215.93L72.2939 216.518L72.2993 216.529L72.3049 216.541L73.5462 215.93ZM80.1902 211.32L79.1798 212.265L79.1879 212.273L79.196 212.282L80.1902 211.32ZM77.3816 211.32L78.3763 212.281L78.3842 212.273L78.392 212.265L77.3816 211.32ZM77.3816 214.632L76.3563 215.561L76.3637 215.569L76.3712 215.577L77.3816 214.632ZM80.1902 214.632L79.196 213.67L79.1879 213.678L79.1798 213.687L80.1902 214.632ZM74.3293 212.966C74.3293 212.007 74.5 211.236 74.7951 210.617L72.2974 209.426C71.7918 210.486 71.5622 211.679 71.5622 212.966H74.3293ZM74.7875 210.633C75.1047 209.989 75.5023 209.545 75.9646 209.246L74.4595 206.924C73.5272 207.528 72.8142 208.376 72.3049 209.411L74.7875 210.633ZM75.9549 209.252C76.4367 208.945 76.9655 208.79 77.5753 208.79V206.023C76.4546 206.023 75.4079 206.32 74.4693 206.918L75.9549 209.252ZM77.5753 208.79C78.1407 208.79 78.548 208.902 78.8477 209.066L80.1768 206.639C79.3919 206.209 78.5078 206.023 77.5753 206.023V208.79ZM78.8477 209.066C79.1847 209.25 79.4165 209.48 79.5796 209.756L81.9631 208.35C81.5322 207.62 80.9246 207.048 80.1768 206.639L78.8477 209.066ZM82.155 209.053V207.542H79.3878V209.053H82.155ZM80.7714 208.926H84.5679V206.159H80.7714V208.926ZM83.1843 207.542V218.409H85.9515V207.542H83.1843ZM84.5679 217.026H80.7714V219.793H84.5679V217.026ZM82.155 218.409V216.898H79.3878V218.409H82.155ZM79.5796 216.195C79.4214 216.464 79.1898 216.692 78.8403 216.879L80.1455 219.319C80.9066 218.912 81.5273 218.34 81.9631 217.601L79.5796 216.195ZM78.8284 216.886C78.5252 217.052 78.1232 217.161 77.5753 217.161V219.928C78.4994 219.928 79.3759 219.741 80.1575 219.313L78.8284 216.886ZM77.5753 217.161C76.9655 217.161 76.4367 217.006 75.9549 216.7L74.4693 219.034C75.4079 219.631 76.4546 219.928 77.5753 219.928V217.161ZM75.9646 216.706C75.5023 216.406 75.1047 215.963 74.7875 215.319L72.3049 216.541C72.8142 217.575 73.5272 218.424 74.4595 219.028L75.9646 216.706ZM74.7986 215.342C74.4998 214.705 74.3293 213.925 74.3293 212.966H71.5622C71.5622 214.254 71.792 215.45 72.2939 216.518L74.7986 215.342ZM82.155 212.966C82.155 212.005 81.8807 211.077 81.1845 210.357L79.196 212.282C79.2746 212.363 79.3878 212.533 79.3878 212.966H82.155ZM81.2006 210.374C80.5607 209.69 79.7282 209.336 78.7956 209.336V212.103C78.9735 212.103 79.0708 212.148 79.1798 212.265L81.2006 210.374ZM78.7956 209.336C77.8602 209.336 77.0179 209.683 76.3712 210.374L78.392 212.265C78.4942 212.156 78.5946 212.103 78.7956 212.103V209.336ZM76.3868 210.358C75.6915 211.077 75.4362 212.015 75.4362 212.966H78.2034C78.2034 212.497 78.3226 212.337 78.3763 212.281L76.3868 210.358ZM75.4362 212.966C75.4362 213.917 75.6974 214.834 76.3563 215.561L78.4068 213.703C78.3167 213.603 78.2034 213.41 78.2034 212.966H75.4362ZM76.3712 215.577C77.0179 216.268 77.8602 216.616 78.7956 216.616V213.849C78.5946 213.849 78.4942 213.796 78.392 213.687L76.3712 215.577ZM78.7956 216.616C79.7282 216.616 80.5607 216.261 81.2006 215.577L79.1798 213.687C79.0708 213.803 78.9735 213.849 78.7956 213.849V216.616ZM81.1845 215.594C81.8852 214.87 82.155 213.932 82.155 212.966H79.3878C79.3878 213.42 79.2702 213.593 79.196 213.67L81.1845 215.594ZM90.5279 209.053H89.1443V214.123L91.7197 209.756L90.5279 209.053ZM91.787 207.852L91.1225 206.639L91.787 207.852ZM96.0485 208.085L95.2959 209.246L95.3057 209.252L96.0485 208.085ZM97.7143 210.022L96.4655 210.617L96.4692 210.625L96.473 210.633L97.7143 210.022ZM97.7143 215.93L96.4693 215.326L96.4655 215.334L97.7143 215.93ZM96.0485 217.867L95.3056 216.699L95.296 216.706L96.0485 217.867ZM91.787 218.099L91.1101 219.306L91.1225 219.313L91.787 218.099ZM90.5279 216.898L91.7063 216.173L89.1443 212.01V216.898H90.5279ZM90.5279 223.6V224.984H91.9115V223.6H90.5279ZM86.7314 223.6H85.3478V224.984H86.7314V223.6ZM86.7314 207.542V206.159H85.3478V207.542H86.7314ZM90.5279 207.542H91.9115V206.159H90.5279V207.542ZM93.8984 211.32L92.888 212.265L92.9037 212.282L92.92 212.298L93.8984 211.32ZM91.0897 211.32L90.0954 210.357L90.0873 210.366L90.0793 210.374L91.0897 211.32ZM91.0897 214.632L90.0793 215.577L90.0873 215.586L90.0954 215.594L91.0897 214.632ZM93.8984 214.632L92.889 213.686L92.888 213.687L93.8984 214.632ZM91.7197 209.756C91.8828 209.48 92.1146 209.25 92.4516 209.066L91.1225 206.639C90.3747 207.048 89.7671 207.62 89.3362 208.35L91.7197 209.756ZM92.4516 209.066C92.7547 208.9 93.1567 208.79 93.7047 208.79V206.023C92.7805 206.023 91.9041 206.211 91.1225 206.639L92.4516 209.066ZM93.7047 208.79C94.3144 208.79 94.8323 208.945 95.296 209.246L96.801 206.924C95.87 206.32 94.8254 206.023 93.7047 206.023V208.79ZM95.3057 209.252C95.7744 209.55 96.1648 209.987 96.4655 210.617L98.9632 209.426C98.4632 208.378 97.743 207.523 96.7913 206.918L95.3057 209.252ZM96.473 210.633C96.7757 211.248 96.9506 212.012 96.9506 212.966H99.7178C99.7178 211.673 99.4794 210.475 98.9557 209.411L96.473 210.633ZM96.9506 212.966C96.9506 213.919 96.7759 214.694 96.4694 215.326L98.9593 216.533C99.4792 215.461 99.7178 214.26 99.7178 212.966H96.9506ZM96.4655 215.334C96.1648 215.965 95.7744 216.401 95.3057 216.7L96.7913 219.034C97.743 218.428 98.4632 217.574 98.9632 216.525L96.4655 215.334ZM95.296 216.706C94.8323 217.006 94.3144 217.161 93.7047 217.161V219.928C94.8254 219.928 95.87 219.631 96.801 219.028L95.296 216.706ZM93.7047 217.161C93.1567 217.161 92.7547 217.052 92.4516 216.886L91.1225 219.313C91.9041 219.741 92.7805 219.928 93.7047 219.928V217.161ZM92.4639 216.893C92.1342 216.708 91.8894 216.471 91.7063 216.173L89.3496 217.623C89.7863 218.333 90.3809 218.897 91.1101 219.306L92.4639 216.893ZM89.1443 216.898V223.6H91.9115V216.898H89.1443ZM90.5279 222.217H86.7314V224.984H90.5279V222.217ZM88.115 223.6V207.542H85.3478V223.6H88.115ZM86.7314 208.926H90.5279V206.159H86.7314V208.926ZM89.1443 207.542V209.053H91.9115V207.542H89.1443ZM95.8631 212.966C95.8631 212.002 95.5941 211.059 94.8767 210.341L92.92 212.298C92.9774 212.355 93.0959 212.509 93.0959 212.966H95.8631ZM94.9088 210.374C94.2688 209.69 93.4363 209.336 92.5037 209.336V212.103C92.6817 212.103 92.7789 212.148 92.888 212.265L94.9088 210.374ZM92.5037 209.336C91.5722 209.336 90.7425 209.689 90.0954 210.357L92.0839 212.282C92.2116 212.15 92.3246 212.103 92.5037 212.103V209.336ZM90.0793 210.374C89.4048 211.095 89.1443 212.017 89.1443 212.966H91.9115C91.9115 212.521 92.0255 212.345 92.1001 212.265L90.0793 210.374ZM89.1443 212.966C89.1443 213.92 89.4006 214.852 90.0793 215.577L92.1001 213.687C92.0298 213.612 91.9115 213.433 91.9115 212.966H89.1443ZM90.0954 215.594C90.7425 216.263 91.5722 216.616 92.5037 216.616V213.849C92.3246 213.849 92.2116 213.802 92.0839 213.67L90.0954 215.594ZM92.5037 216.616C93.4363 216.616 94.2688 216.261 94.9088 215.577L92.888 213.687C92.7789 213.803 92.6817 213.849 92.5037 213.849V216.616ZM94.9078 215.578C95.5882 214.852 95.8631 213.93 95.8631 212.966H93.0959C93.0959 213.397 92.9833 213.585 92.889 213.686L94.9078 215.578ZM110.016 215.174H111.4V213.791H110.016V215.174ZM110.016 218.409V219.793H111.4V218.409H110.016ZM104.205 210.7H105.589V209.316H104.205V210.7ZM102.869 210.7H101.485V212.083H102.869V210.7ZM102.869 207.542V206.159H101.485V207.542H102.869ZM104.205 207.542V208.926H105.589V207.542H104.205ZM104.205 204.908V203.524H102.822V204.908H104.205ZM108.021 204.908H109.405V203.524H108.021V204.908ZM108.021 207.542H106.638V208.926H108.021V207.542ZM109.997 207.542H111.381V206.159H109.997V207.542ZM109.997 210.7V212.083H111.381V210.7H109.997ZM108.021 210.7V209.316H106.638V210.7H108.021ZM108.215 214.981L107.237 215.959L107.26 215.982L107.284 216.004L108.215 214.981ZM108.633 215.174V218.409H111.4V215.174H108.633ZM110.016 217.026H108.37V219.793H110.016V217.026ZM108.37 217.026C107.192 217.026 106.563 216.734 106.22 216.395C105.88 216.058 105.589 215.442 105.589 214.283H102.822C102.822 215.875 103.225 217.322 104.273 218.361C105.318 219.396 106.772 219.793 108.37 219.793V217.026ZM105.589 214.283V210.7H102.822V214.283H105.589ZM104.205 209.316H102.869V212.083H104.205V209.316ZM104.252 210.7V207.542H101.485V210.7H104.252ZM102.869 208.926H104.205V206.159H102.869V208.926ZM105.589 207.542V204.908H102.822V207.542H105.589ZM104.205 206.292H108.021V203.524H104.205V206.292ZM106.638 204.908V207.542H109.405V204.908H106.638ZM108.021 208.926H109.997V206.159H108.021V208.926ZM108.613 207.542V210.7H111.381V207.542H108.613ZM109.997 209.316H108.021V212.083H109.997V209.316ZM106.638 210.7V214.341H109.405V210.7H106.638ZM106.638 214.341C106.638 214.786 106.726 215.448 107.237 215.959L109.193 214.002C109.321 214.13 109.374 214.259 109.394 214.323C109.412 214.381 109.405 214.396 109.405 214.341H106.638ZM107.284 216.004C107.806 216.479 108.463 216.558 108.912 216.558V213.791C108.837 213.791 108.829 213.782 108.866 213.793C108.906 213.804 109.021 213.843 109.146 213.957L107.284 216.004ZM108.912 216.558H110.016V213.791H108.912V216.558ZM113.888 217.867L113.24 219.089L113.248 219.093L113.888 217.867ZM111.874 215.93L113.068 215.231L111.874 215.93ZM111.874 210.022L110.687 209.31L110.683 209.317L110.679 209.324L111.874 210.022ZM113.908 208.085L113.267 206.858L113.26 206.862L113.908 208.085ZM119.738 208.085L119.09 209.307L119.098 209.311L119.738 208.085ZM121.772 210.022L120.578 210.72L120.582 210.727L120.586 210.734L121.772 210.022ZM121.772 215.93L120.581 215.226L120.578 215.231L121.772 215.93ZM119.738 217.867L119.098 216.64L119.738 217.867ZM118.13 214.671L117.104 213.743L117.102 213.745L118.13 214.671ZM118.13 211.281L117.102 212.206L117.11 212.216L117.119 212.225L118.13 211.281ZM115.516 214.671L114.47 215.577V215.577L115.516 214.671ZM116.813 217.161C115.926 217.161 115.175 216.978 114.529 216.64L113.248 219.093C114.332 219.66 115.531 219.928 116.813 219.928V217.161ZM114.537 216.644C113.913 216.314 113.43 215.851 113.068 215.231L110.679 216.628C111.299 217.688 112.159 218.516 113.24 219.089L114.537 216.644ZM113.068 215.231C112.721 214.637 112.521 213.899 112.521 212.966H109.754C109.754 214.306 110.045 215.543 110.679 216.628L113.068 215.231ZM112.521 212.966C112.521 212.049 112.72 211.317 113.068 210.72L110.679 209.324C110.047 210.406 109.754 211.636 109.754 212.966H112.521ZM113.06 210.734C113.436 210.107 113.93 209.639 114.556 209.307L113.26 206.862C112.181 207.434 111.319 208.258 110.687 209.31L113.06 210.734ZM114.548 209.311C115.195 208.974 115.946 208.79 116.833 208.79V206.023C115.55 206.023 114.351 206.292 113.267 206.858L114.548 209.311ZM116.833 208.79C117.72 208.79 118.461 208.974 119.09 209.307L120.386 206.862C119.311 206.292 118.115 206.023 116.833 206.023V208.79ZM119.098 209.311C119.733 209.643 120.219 210.106 120.578 210.72L122.967 209.324C122.344 208.259 121.474 207.43 120.379 206.858L119.098 209.311ZM120.586 210.734C120.942 211.328 121.144 212.056 121.144 212.966H123.911C123.911 211.63 123.609 210.395 122.959 209.31L120.586 210.734ZM121.144 212.966C121.144 213.876 120.942 214.614 120.581 215.226L122.963 216.634C123.609 215.541 123.911 214.303 123.911 212.966H121.144ZM120.578 215.231C120.219 215.845 119.733 216.308 119.098 216.64L120.379 219.093C121.474 218.521 122.344 217.693 122.967 216.628L120.578 215.231ZM119.098 216.64C118.451 216.978 117.7 217.161 116.813 217.161V219.928C118.096 219.928 119.295 219.66 120.379 219.093L119.098 216.64ZM116.813 216.635C117.728 216.635 118.543 216.28 119.159 215.596L117.102 213.745C117.021 213.836 116.958 213.868 116.813 213.868V216.635ZM119.157 215.598C119.821 214.863 120.056 213.919 120.056 212.966H117.289C117.289 213.486 117.163 213.677 117.104 213.743L119.157 215.598ZM120.056 212.966C120.056 212.017 119.822 211.066 119.142 210.337L117.119 212.225C117.162 212.271 117.289 212.443 117.289 212.966H120.056ZM119.159 210.355C118.551 209.679 117.745 209.316 116.833 209.316V212.083C116.953 212.083 117.013 212.108 117.102 212.206L119.159 210.355ZM116.833 209.316C115.92 209.316 115.115 209.679 114.506 210.355L116.563 212.206C116.652 212.108 116.712 212.083 116.833 212.083V209.316ZM114.506 210.355C113.85 211.085 113.628 212.029 113.628 212.966H116.395C116.395 212.432 116.522 212.252 116.563 212.206L114.506 210.355ZM113.628 212.966C113.628 213.898 113.835 214.844 114.47 215.577L116.561 213.765C116.525 213.723 116.395 213.532 116.395 212.966H113.628ZM114.47 215.577C115.078 216.279 115.898 216.635 116.813 216.635V213.868C116.67 213.868 116.624 213.838 116.561 213.765L114.47 215.577ZM127.76 210.022L126.519 209.411L126.515 209.418L126.512 209.426L127.76 210.022ZM129.446 208.085L128.703 206.918V206.918L129.446 208.085ZM133.668 207.852L133.004 209.066L133.021 209.075L133.038 209.084L133.668 207.852ZM134.966 209.034L133.788 209.759L136.35 213.922V209.034H134.966ZM134.966 204.075V202.692H133.583V204.075H134.966ZM138.782 204.075H140.166V202.692H138.782V204.075ZM138.782 218.409V219.793H140.166V218.409H138.782ZM134.966 218.409H133.583V219.793H134.966V218.409ZM134.966 216.898H136.35V211.829L133.774 216.195L134.966 216.898ZM133.707 218.099L133.043 216.886L133.707 218.099ZM129.426 217.867L128.674 219.028L128.683 219.034L129.426 217.867ZM127.76 215.93L126.508 216.518L126.513 216.529L126.519 216.541L127.76 215.93ZM134.404 211.32L133.394 212.265L133.402 212.273L133.41 212.282L134.404 211.32ZM131.596 211.32L132.591 212.281L132.598 212.273L132.606 212.265L131.596 211.32ZM131.596 214.632L130.571 215.561L130.578 215.569L130.585 215.577L131.596 214.632ZM134.404 214.632L133.41 213.67L133.402 213.678L133.394 213.687L134.404 214.632ZM128.544 212.966C128.544 212.007 128.714 211.236 129.009 210.617L126.512 209.426C126.006 210.486 125.776 211.679 125.776 212.966H128.544ZM129.002 210.633C129.316 209.995 129.715 209.553 130.188 209.252L128.703 206.918C127.755 207.52 127.032 208.37 126.519 209.411L129.002 210.633ZM130.188 209.252C130.67 208.945 131.199 208.79 131.809 208.79V206.023C130.688 206.023 129.641 206.32 128.703 206.918L130.188 209.252ZM131.809 208.79C132.304 208.79 132.69 208.894 133.004 209.066L134.333 206.639C133.562 206.217 132.708 206.023 131.809 206.023V208.79ZM133.038 209.084C133.381 209.259 133.618 209.483 133.788 209.759L136.145 208.309C135.694 207.577 135.067 207.014 134.299 206.621L133.038 209.084ZM136.35 209.034V204.075H133.583V209.034H136.35ZM134.966 205.459H138.782V202.692H134.966V205.459ZM137.399 204.075V218.409H140.166V204.075H137.399ZM138.782 217.026H134.966V219.793H138.782V217.026ZM136.35 218.409V216.898H133.583V218.409H136.35ZM133.774 216.195C133.611 216.472 133.38 216.701 133.043 216.886L134.372 219.313C135.119 218.903 135.727 218.332 136.158 217.601L133.774 216.195ZM133.043 216.886C132.739 217.052 132.337 217.161 131.789 217.161V219.928C132.714 219.928 133.59 219.741 134.372 219.313L133.043 216.886ZM131.789 217.161C131.18 217.161 130.651 217.006 130.169 216.7L128.683 219.034C129.622 219.631 130.669 219.928 131.789 219.928V217.161ZM130.179 216.706C129.716 216.406 129.319 215.963 129.002 215.319L126.519 216.541C127.028 217.575 127.741 218.424 128.674 219.028L130.179 216.706ZM129.013 215.342C128.714 214.705 128.544 213.925 128.544 212.966H125.776C125.776 214.254 126.006 215.45 126.508 216.518L129.013 215.342ZM136.369 212.966C136.369 212.005 136.095 211.077 135.399 210.357L133.41 212.282C133.489 212.363 133.602 212.533 133.602 212.966H136.369ZM135.415 210.374C134.775 209.69 133.942 209.336 133.01 209.336V212.103C133.188 212.103 133.285 212.148 133.394 212.265L135.415 210.374ZM133.01 209.336C132.074 209.336 131.232 209.683 130.585 210.374L132.606 212.265C132.708 212.156 132.809 212.103 133.01 212.103V209.336ZM130.601 210.358C129.906 211.077 129.65 212.015 129.65 212.966H132.418C132.418 212.497 132.537 212.337 132.591 212.281L130.601 210.358ZM129.65 212.966C129.65 213.917 129.912 214.834 130.571 215.561L132.621 213.703C132.531 213.603 132.418 213.41 132.418 212.966H129.65ZM130.585 215.577C131.232 216.268 132.074 216.616 133.01 216.616V213.849C132.809 213.849 132.708 213.796 132.606 213.687L130.585 215.577ZM133.01 216.616C133.942 216.616 134.775 216.261 135.415 215.577L133.394 213.687C133.285 213.803 133.188 213.849 133.01 213.849V216.616ZM135.399 215.594C136.099 214.87 136.369 213.932 136.369 212.966H133.602C133.602 213.42 133.484 213.593 133.41 213.67L135.399 215.594ZM144.742 209.46H143.359V213.915L145.882 210.244L144.742 209.46ZM148.248 207.446H149.632V206.062H148.248V207.446ZM148.248 211.494V212.878H149.632V211.494H148.248ZM145.343 211.978L146.211 213.055V213.055L145.343 211.978ZM144.742 218.409V219.793H146.126V218.409H144.742ZM140.946 218.409H139.562V219.793H140.946V218.409ZM140.946 207.542V206.159H139.562V207.542H140.946ZM144.742 207.542H146.126V206.159H144.742V207.542ZM145.882 210.244C146.203 209.778 146.575 209.429 147 209.177L145.584 206.799C144.794 207.27 144.134 207.903 143.602 208.676L145.882 210.244ZM147 209.177C147.396 208.941 147.804 208.829 148.248 208.829V206.062C147.298 206.062 146.402 206.312 145.584 206.799L147 209.177ZM146.865 207.446V211.494H149.632V207.446H146.865ZM148.248 210.11H147.183V212.878H148.248V210.11ZM147.183 210.11C146.219 210.11 145.231 210.291 144.474 210.901L146.211 213.055C146.255 213.02 146.493 212.878 147.183 212.878V210.11ZM144.474 210.901C143.601 211.605 143.359 212.679 143.359 213.663H146.126C146.126 213.371 146.163 213.197 146.196 213.106C146.224 213.027 146.24 213.032 146.211 213.055L144.474 210.901ZM143.359 213.663V218.409H146.126V213.663H143.359ZM144.742 217.026H140.946V219.793H144.742V217.026ZM142.329 218.409V207.542H139.562V218.409H142.329ZM140.946 208.926H144.742V206.159H140.946V208.926ZM143.359 207.542V209.46H146.126V207.542H143.359ZM151.74 217.867L151.092 219.089L151.099 219.093L151.74 217.867ZM149.725 215.93L150.92 215.231L149.725 215.93ZM149.725 210.022L148.539 209.31L148.535 209.317L148.531 209.324L149.725 210.022ZM151.759 208.085L151.119 206.858L151.111 206.862L151.759 208.085ZM157.59 208.085L156.942 209.307L156.949 209.311L157.59 208.085ZM159.624 210.022L158.429 210.72L158.433 210.727L158.437 210.734L159.624 210.022ZM159.624 215.93L158.432 215.226L158.429 215.231L159.624 215.93ZM157.59 217.867L156.949 216.64L157.59 217.867ZM155.982 214.671L154.955 213.743L154.954 213.745L155.982 214.671ZM155.982 211.281L154.954 212.206L154.962 212.216L154.971 212.225L155.982 211.281ZM153.367 214.671L152.321 215.577V215.577L153.367 214.671ZM154.665 217.161C153.778 217.161 153.027 216.978 152.381 216.64L151.099 219.093C152.183 219.66 153.382 219.928 154.665 219.928V217.161ZM152.388 216.644C151.765 216.314 151.282 215.851 150.92 215.231L148.531 216.628C149.15 217.688 150.01 218.516 151.092 219.089L152.388 216.644ZM150.92 215.231C150.573 214.637 150.373 213.899 150.373 212.966H147.606C147.606 214.306 147.897 215.543 148.531 216.628L150.92 215.231ZM150.373 212.966C150.373 212.049 150.571 211.317 150.92 210.72L148.531 209.324C147.898 210.406 147.606 211.636 147.606 212.966H150.373ZM150.912 210.734C151.288 210.107 151.781 209.639 152.408 209.307L151.111 206.862C150.033 207.434 149.17 208.258 148.539 209.31L150.912 210.734ZM152.4 209.311C153.046 208.974 153.797 208.79 154.684 208.79V206.023C153.402 206.023 152.203 206.292 151.119 206.858L152.4 209.311ZM154.684 208.79C155.571 208.79 156.313 208.974 156.942 209.307L158.238 206.862C157.162 206.292 155.966 206.023 154.684 206.023V208.79ZM156.949 209.311C157.585 209.643 158.07 210.106 158.429 210.72L160.818 209.324C160.196 208.259 159.325 207.43 158.23 206.858L156.949 209.311ZM158.437 210.734C158.794 211.328 158.996 212.056 158.996 212.966H161.763C161.763 211.63 161.461 210.395 160.81 209.31L158.437 210.734ZM158.996 212.966C158.996 213.876 158.794 214.614 158.433 215.226L160.815 216.634C161.461 215.541 161.763 214.303 161.763 212.966H158.996ZM158.429 215.231C158.07 215.845 157.585 216.308 156.949 216.64L158.23 219.093C159.325 218.521 160.196 217.693 160.818 216.628L158.429 215.231ZM156.949 216.64C156.303 216.978 155.552 217.161 154.665 217.161V219.928C155.947 219.928 157.146 219.66 158.23 219.093L156.949 216.64ZM154.665 216.635C155.579 216.635 156.395 216.28 157.01 215.596L154.954 213.745C154.872 213.836 154.809 213.868 154.665 213.868V216.635ZM157.009 215.598C157.672 214.863 157.908 213.919 157.908 212.966H155.141C155.141 213.486 155.015 213.677 154.955 213.743L157.009 215.598ZM157.908 212.966C157.908 212.017 157.674 211.066 156.994 210.337L154.971 212.225C155.013 212.271 155.141 212.443 155.141 212.966H157.908ZM157.01 210.355C156.402 209.679 155.597 209.316 154.684 209.316V212.083C154.805 212.083 154.865 212.108 154.954 212.206L157.01 210.355ZM154.684 209.316C153.771 209.316 152.966 209.679 152.358 210.355L154.415 212.206C154.504 212.108 154.564 212.083 154.684 212.083V209.316ZM152.358 210.355C151.702 211.085 151.48 212.029 151.48 212.966H154.247C154.247 212.432 154.374 212.252 154.415 212.206L152.358 210.355ZM151.48 212.966C151.48 213.898 151.686 214.844 152.321 215.577L154.413 213.765C154.376 213.723 154.247 213.532 154.247 212.966H151.48ZM152.321 215.577C152.93 216.279 153.749 216.635 154.665 216.635V213.868C154.522 213.868 154.476 213.838 154.413 213.765L152.321 215.577ZM165.72 209.053H164.337V214.123L166.912 209.756L165.72 209.053ZM166.979 207.852L166.315 206.639L166.979 207.852ZM171.241 208.085L170.488 209.246L170.498 209.252L171.241 208.085ZM172.907 210.022L171.658 210.617L171.662 210.625L171.665 210.633L172.907 210.022ZM172.907 215.93L171.662 215.326L171.658 215.334L172.907 215.93ZM171.241 217.867L170.498 216.699L170.488 216.706L171.241 217.867ZM166.979 218.099L166.302 219.306L166.315 219.313L166.979 218.099ZM165.72 216.898L166.899 216.173L164.337 212.01V216.898H165.72ZM165.72 223.6V224.984H167.104V223.6H165.72ZM161.924 223.6H160.54V224.984H161.924V223.6ZM161.924 207.542V206.159H160.54V207.542H161.924ZM165.72 207.542H167.104V206.159H165.72V207.542ZM169.091 211.32L168.08 212.265L168.096 212.282L168.112 212.298L169.091 211.32ZM166.282 211.32L165.288 210.357L165.28 210.366L165.272 210.374L166.282 211.32ZM166.282 214.632L165.272 215.577L165.28 215.586L165.288 215.594L166.282 214.632ZM169.091 214.632L168.081 213.686L168.08 213.687L169.091 214.632ZM166.912 209.756C167.075 209.48 167.307 209.25 167.644 209.066L166.315 206.639C165.567 207.048 164.96 207.62 164.529 208.35L166.912 209.756ZM167.644 209.066C167.947 208.9 168.349 208.79 168.897 208.79V206.023C167.973 206.023 167.096 206.211 166.315 206.639L167.644 209.066ZM168.897 208.79C169.507 208.79 170.025 208.945 170.488 209.246L171.993 206.924C171.062 206.32 170.018 206.023 168.897 206.023V208.79ZM170.498 209.252C170.967 209.55 171.357 209.987 171.658 210.617L174.156 209.426C173.656 208.378 172.935 207.523 171.984 206.918L170.498 209.252ZM171.665 210.633C171.968 211.248 172.143 212.012 172.143 212.966H174.91C174.91 211.673 174.672 210.475 174.148 209.411L171.665 210.633ZM172.143 212.966C172.143 213.919 171.968 214.694 171.662 215.326L174.152 216.533C174.672 215.461 174.91 214.26 174.91 212.966H172.143ZM171.658 215.334C171.357 215.965 170.967 216.401 170.498 216.7L171.984 219.034C172.935 218.428 173.656 217.574 174.156 216.525L171.658 215.334ZM170.488 216.706C170.025 217.006 169.507 217.161 168.897 217.161V219.928C170.018 219.928 171.062 219.631 171.993 219.028L170.488 216.706ZM168.897 217.161C168.349 217.161 167.947 217.052 167.644 216.886L166.315 219.313C167.096 219.741 167.973 219.928 168.897 219.928V217.161ZM167.656 216.893C167.327 216.708 167.082 216.471 166.899 216.173L164.542 217.623C164.979 218.333 165.573 218.897 166.302 219.306L167.656 216.893ZM164.337 216.898V223.6H167.104V216.898H164.337ZM165.72 222.217H161.924V224.984H165.72V222.217ZM163.307 223.6V207.542H160.54V223.6H163.307ZM161.924 208.926H165.72V206.159H161.924V208.926ZM164.337 207.542V209.053H167.104V207.542H164.337ZM171.055 212.966C171.055 212.002 170.787 211.059 170.069 210.341L168.112 212.298C168.17 212.355 168.288 212.509 168.288 212.966H171.055ZM170.101 210.374C169.461 209.69 168.629 209.336 167.696 209.336V212.103C167.874 212.103 167.971 212.148 168.08 212.265L170.101 210.374ZM167.696 209.336C166.765 209.336 165.935 209.689 165.288 210.357L167.276 212.282C167.404 212.15 167.517 212.103 167.696 212.103V209.336ZM165.272 210.374C164.597 211.095 164.337 212.017 164.337 212.966H167.104C167.104 212.521 167.218 212.345 167.292 212.265L165.272 210.374ZM164.337 212.966C164.337 213.92 164.593 214.852 165.272 215.577L167.292 213.687C167.222 213.612 167.104 213.433 167.104 212.966H164.337ZM165.288 215.594C165.935 216.263 166.765 216.616 167.696 216.616V213.849C167.517 213.849 167.404 213.802 167.276 213.67L165.288 215.594ZM167.696 216.616C168.629 216.616 169.461 216.261 170.101 215.577L168.08 213.687C167.971 213.803 167.874 213.849 167.696 213.849V216.616ZM170.1 215.578C170.781 214.852 171.055 213.93 171.055 212.966H168.288C168.288 213.397 168.176 213.585 168.081 213.686L170.1 215.578ZM180.165 204.056L181.547 204.122L181.616 202.672H180.165V204.056ZM179.719 213.295V214.679H181.038L181.101 213.362L179.719 213.295ZM176.484 213.295L175.102 213.362L175.166 214.679H176.484V213.295ZM176.039 204.056V202.672H174.587L174.657 204.122L176.039 204.056ZM176.484 218.022L175.539 219.032L175.556 219.048L175.573 219.063L176.484 218.022ZM176.484 215.194L175.555 214.168L175.547 214.176L175.539 214.183L176.484 215.194ZM179.7 215.194L178.754 216.204L178.762 216.212L178.771 216.219L179.7 215.194ZM179.7 218.002L178.771 216.977L178.762 216.985L178.754 216.992L179.7 218.002ZM178.783 203.989L178.337 213.229L181.101 213.362L181.547 204.122L178.783 203.989ZM179.719 211.912H176.484V214.679H179.719V211.912ZM177.866 213.229L177.421 203.989L174.657 204.122L175.102 213.362L177.866 213.229ZM176.039 205.439H180.165V202.672H176.039V205.439ZM178.111 217.181C177.697 217.181 177.503 217.075 177.395 216.981L175.573 219.063C176.292 219.692 177.183 219.948 178.111 219.948V217.181ZM177.429 217.011C177.32 216.909 177.267 216.809 177.267 216.608H174.5C174.5 217.543 174.848 218.385 175.539 219.032L177.429 217.011ZM177.267 216.608C177.267 216.407 177.32 216.306 177.429 216.204L175.539 214.183C174.848 214.83 174.5 215.672 174.5 216.608H177.267ZM177.413 216.219C177.522 216.12 177.709 216.016 178.111 216.016V213.248C177.17 213.248 176.273 213.518 175.555 214.168L177.413 216.219ZM178.111 216.016C178.494 216.016 178.66 216.116 178.754 216.204L180.645 214.183C179.938 213.522 179.046 213.248 178.111 213.248V216.016ZM178.771 216.219C178.888 216.326 178.936 216.422 178.936 216.608H181.703C181.703 215.657 181.338 214.811 180.629 214.168L178.771 216.219ZM178.936 216.608C178.936 216.771 178.896 216.864 178.771 216.977L180.629 219.028C181.33 218.392 181.703 217.556 181.703 216.608H178.936ZM178.754 216.992C178.66 217.08 178.494 217.181 178.111 217.181V219.948C179.046 219.948 179.938 219.674 180.645 219.013L178.754 216.992Z" fill="white" mask="url(#path-43-outside-1_297_8151)"/>
<defs>
<clipPath id="clip0_297_8151">
<rect width="69.8715" height="69.8715" fill="white" transform="translate(83.8301 125.463)"/>
</clipPath>
</defs>
</svg>
