<svg width="354" height="306" viewBox="0 0 354 306" fill="none" xmlns="http://www.w3.org/2000/svg">
<path d="M1.41047 106.41H353.59V264C353.59 286.969 334.969 305.59 312 305.59H43C20.0307 305.59 1.41047 286.969 1.41047 264V106.41Z" fill="#413434" stroke="black" stroke-width="0.82093"/>
<path d="M168.979 167.547C168.979 160.596 173.357 154.397 179.909 152.073L268.57 120.623C279.256 116.832 290.477 124.758 290.477 136.097V202.918C290.477 209.516 286.527 215.474 280.449 218.042L191.788 255.501C180.964 260.074 168.979 252.128 168.979 240.377V167.547Z" fill="#AC7252"/>
<path d="M168.979 206.848L290.477 160.466V195.355L168.979 245.432V206.848Z" fill="#E6E6E6"/>
<path d="M55.2793 164.982L169.389 206.439L169.389 243.791L55.2792 202.744L55.2793 164.982Z" fill="white"/>
<path d="M163.643 95.8937L289.655 121.405L173.049 163.421L54.4589 126.693L163.643 95.8937Z" fill="#D9D9D9"/>
<path d="M169.265 72.8328L289.941 37.7363V124.902L169.265 172.369V72.8328Z" fill="#AC7252"/>
<path fill-rule="evenodd" clip-rule="evenodd" d="M169.389 65.0943L55.2793 33.9834L55.2794 130.116L59.1473 131.508C56.753 134.257 55.2793 137.873 55.2793 141.963L55.2793 211.005C55.2794 218.063 59.8149 224.459 66.5364 226.878L147.758 256.108C158.403 259.939 169.389 252.357 169.389 241.178L169.389 171.183V65.0943Z" fill="#E2A17C"/>
<path d="M162.041 2.84114C163.586 2.4058 165.224 2.3513 166.817 2.68225L282.655 26.7509C293.297 28.9621 293.855 43.9808 283.384 46.3662L166.353 73.0258C165.059 73.3207 163.711 73.3539 162.389 73.1236L51.8495 53.8757C41.2443 52.029 40.0767 37.2046 50.3093 34.3215L162.041 2.84114Z" fill="#E5E3E3"/>
<path d="M166.779 78.8793C166.779 74.6309 169.45 70.8411 173.45 69.4114L286.981 28.8394C293.529 26.4993 300.419 31.3536 300.419 38.3073V70.702C300.419 74.6781 298.075 78.2807 294.441 79.8929L288.873 82.3624C283.918 84.5601 278.341 80.9328 278.341 75.5124V75.5124C278.341 70.3781 273.295 66.7645 268.434 68.4182L256.705 72.4087C252.629 73.7953 249.889 77.6224 249.889 81.9273V89.1998C249.889 93.3541 247.334 97.0806 243.459 98.5781L231.926 103.035C228.048 104.534 223.645 103.264 221.162 99.9284V99.9284C216.683 93.9117 207.282 95.4409 204.94 102.567L202.468 110.09C201.447 113.2 198.976 115.617 195.845 116.57L179.762 121.466C173.302 123.433 166.779 118.6 166.779 111.848V78.8793Z" fill="#D3D2D2"/>
<path d="M42.0635 42.9055C42.0635 37.3555 47.3894 33.498 52.747 35.1673L161.517 69.0585C165.126 70.183 167.617 73.5388 167.617 77.2775L167.617 115.919C167.617 121.857 161.58 125.73 156.061 123.333L143.68 117.955C140.519 116.583 138.453 113.461 138.453 110.061L138.453 107.027C138.453 103.438 136.155 100.184 132.743 98.9395L110.263 90.7394C106.975 89.5398 103.568 91.8798 103.568 95.3384V95.3384C103.568 98.886 99.9972 101.228 96.6741 99.8603L90.6297 97.3722C87.3878 96.0378 85.2484 92.8733 85.2484 89.4124L85.2484 74.7774C85.2484 71.1849 82.9459 67.928 79.5284 66.6864L67.3867 62.2752C61.8952 60.2801 56.231 64.246 56.3247 70.0206L56.4566 78.1476C56.537 83.1002 51.6791 86.5016 46.9692 84.7905V84.7905C44.0382 83.7256 42.0634 80.9322 42.0634 77.8512L42.0635 42.9055Z" fill="white"/>
<path d="M168.978 146.099L290.475 99.7168V134.606L168.978 184.683V146.099Z" fill="#E6E6E6"/>
<path d="M55.2788 110.39L169.388 145.279L169.388 183.042L55.2788 141.995L55.2788 110.39Z" fill="white"/>
<path d="M55.6616 170.985L169.771 205.875L169.771 243.637L55.6616 202.591L55.6616 170.985Z" fill="white"/>
<path d="M98.0014 143.226C98.0014 153.2 93.0758 155.519 86.0979 153.077C77.8886 150.204 75.4258 149.506 75.4258 139.532C75.4258 129.557 79.2971 120.65 86.0979 120.65C92.8987 120.65 98.0014 133.251 98.0014 143.226Z" fill="#F79393"/>
<path d="M146.847 159.645C146.847 169.619 141.921 171.938 134.944 169.496C126.734 166.623 124.271 165.925 124.271 155.951C124.271 145.976 128.143 137.069 134.944 137.069C141.744 137.069 146.847 149.67 146.847 159.645Z" fill="#F79393"/>
<path d="M180.094 163.977C180.094 174.052 185.109 176.394 192.214 173.927C200.573 171.025 203.08 170.32 203.08 160.245C203.08 150.17 199.138 141.174 192.214 141.174C185.289 141.174 180.094 153.902 180.094 163.977Z" fill="#D06E6E"/>
<path d="M219.499 209.128C219.499 219.203 224.514 221.545 231.619 219.079C239.978 216.176 242.485 215.472 242.485 205.397C242.485 195.322 238.544 186.325 231.619 186.325C224.695 186.325 219.499 199.053 219.499 209.128Z" fill="#D06E6E"/>
<path d="M176.811 225.547C176.811 235.622 181.826 237.964 188.931 235.498C197.289 232.595 199.797 231.891 199.797 221.816C199.797 211.741 195.855 202.744 188.931 202.744C182.006 202.744 176.811 215.472 176.811 225.547Z" fill="#D06E6E"/>
<path d="M261.366 191.068C261.366 201.143 266.382 203.485 273.486 201.018C281.845 198.116 284.353 197.411 284.353 187.336C284.353 177.261 280.411 168.265 273.486 168.265C266.562 168.265 261.366 180.993 261.366 191.068Z" fill="#D06E6E"/>
<path d="M220.321 146.738C220.321 156.813 225.336 159.155 232.441 156.688C240.799 153.786 243.307 153.081 243.307 143.006C243.307 132.931 239.365 123.935 232.441 123.935C225.516 123.935 220.321 136.663 220.321 146.738Z" fill="#D06E6E"/>
<path d="M260.545 130.319C260.545 140.394 265.56 142.736 272.665 140.269C281.024 137.367 283.531 136.662 283.531 126.587C283.531 116.512 279.59 107.516 272.665 107.516C265.741 107.516 260.545 120.244 260.545 130.319Z" fill="#D06E6E"/>
<path d="M119.756 210.542C119.756 220.517 114.831 222.836 107.853 220.394C99.6435 217.52 97.1807 216.823 97.1807 206.848C97.1807 196.874 101.052 187.967 107.853 187.967C114.654 187.967 119.756 200.568 119.756 210.542Z" fill="#F79393"/>
<path d="M169.012 228.603C169.012 238.577 164.087 240.896 157.109 238.454C148.899 235.581 146.437 234.883 146.437 224.909C146.437 214.934 150.308 206.027 157.109 206.027C163.909 206.027 169.012 218.628 169.012 228.603Z" fill="#F79393"/>
<path fill-rule="evenodd" clip-rule="evenodd" d="M55.3125 199.956C56.9055 201.128 59.1719 201.92 62.3079 203.017C62.4374 203.062 62.5684 203.108 62.7009 203.154C69.6788 205.597 74.6044 203.278 74.6044 193.303C74.6044 183.329 69.5017 170.728 62.7009 170.728C59.5988 170.728 57.1062 172.581 55.3125 175.543V199.956Z" fill="#F79393"/>
<path d="M198.884 38.9966C198.884 42.5733 191.503 46.3559 182.399 46.3559C173.295 46.3559 165.914 42.5733 165.914 38.9966C165.914 35.4198 173.295 17.2129 182.399 17.2129C191.503 17.2129 198.884 35.4198 198.884 38.9966Z" fill="#D06E6E"/>
<path fill-rule="evenodd" clip-rule="evenodd" d="M176.736 45.8561C170.421 44.713 165.914 41.7922 165.914 38.997C165.914 35.984 171.152 22.5886 178.245 18.4414C184.414 22.5491 188.967 35.7244 188.967 38.691C188.967 41.8948 183.658 45.2661 176.736 45.8561Z" fill="#E37E7E"/>
<path d="M142.623 42.6084C142.623 44.8287 138.041 47.1769 132.39 47.1769C126.738 47.1769 122.156 44.8287 122.156 42.6084C122.156 40.3882 126.738 29.0859 132.39 29.0859C138.041 29.0859 142.623 40.3882 142.623 42.6084Z" fill="#D06E6E"/>
<path fill-rule="evenodd" clip-rule="evenodd" d="M128.876 46.8668C124.955 46.1573 122.156 44.344 122.156 42.6087C122.156 40.7383 125.407 32.4232 129.811 29.8486C133.641 32.3983 136.467 40.5774 136.467 42.4191C136.467 44.4077 133.171 46.5003 128.876 46.8668Z" fill="#E37E7E"/>
<path d="M168.13 14.7486C168.13 15.9613 165.628 17.2439 162.541 17.2439C159.454 17.2439 156.951 15.9613 156.951 14.7486C156.951 13.5358 159.454 7.3623 162.541 7.3623C165.628 7.3623 168.13 13.5358 168.13 14.7486Z" fill="#D06E6E"/>
<path fill-rule="evenodd" clip-rule="evenodd" d="M160.623 17.0741C158.48 16.6868 156.951 15.6961 156.951 14.748C156.951 13.7264 158.727 9.18473 161.132 7.77832C163.224 9.17072 164.768 13.6388 164.768 14.6448C164.768 15.7308 162.969 16.8736 160.623 17.0741Z" fill="#E37E7E"/>
<path d="M244.79 34.336C244.79 36.4734 240.38 38.7338 234.939 38.7338C229.498 38.7338 225.088 36.4734 225.088 34.336C225.088 32.1986 229.498 21.3184 234.939 21.3184C240.38 21.3184 244.79 32.1986 244.79 34.336Z" fill="#D06E6E"/>
<path fill-rule="evenodd" clip-rule="evenodd" d="M231.559 38.4356C227.783 37.753 225.088 36.0069 225.088 34.3359C225.088 32.5355 228.217 24.5317 232.456 22.0527C236.143 24.5068 238.864 32.3812 238.864 34.1542C238.864 36.068 235.693 38.082 231.559 38.4356Z" fill="#E37E7E"/>
<path d="M98.6231 34.3518C98.6231 35.6832 95.8758 37.0912 92.4868 37.0912C89.0979 37.0912 86.3506 35.6832 86.3506 34.3518C86.3506 33.0204 89.0979 26.2432 92.4868 26.2432C95.8758 26.2432 98.6231 33.0204 98.6231 34.3518Z" fill="#D06E6E"/>
<path fill-rule="evenodd" clip-rule="evenodd" d="M90.384 36.9052C88.0307 36.4804 86.3506 35.3923 86.3506 34.3511C86.3506 33.2297 88.2997 28.2446 90.9397 26.7002C93.2367 28.2284 94.9317 33.1341 94.9317 34.2385C94.9317 35.4304 92.958 36.6845 90.384 36.9052Z" fill="#E37E7E"/>
<path d="M54.9577 161.091L179.825 201.897L179.82 287.058L54.9528 248.684L54.9577 161.091Z" fill="#413434"/>
<path d="M177.354 202.308L298.852 151V234.559L177.354 285.892V202.308Z" fill="#413434"/>
</svg>
