<svg width="237" height="112" viewBox="0 0 237 112" fill="none" xmlns="http://www.w3.org/2000/svg">
<mask id="path-1-outside-1_324_1795" maskUnits="userSpaceOnUse" x="43.6543" y="0.09375" width="72" height="82" fill="black">
<rect fill="white" x="43.6543" y="0.09375" width="72" height="82"/>
<path fill-rule="evenodd" clip-rule="evenodd" d="M87.7941 15.1465C87.7947 15.1021 87.7951 15.0572 87.7951 15.012C87.7951 10.9544 85.2404 5.09375 81.1829 5.09375C77.1254 5.09375 75.6728 10.9544 75.6728 15.012C75.6728 15.0573 75.6731 15.1021 75.6736 15.1465H70.0698C69.8453 12.4279 68.1529 8.9602 65.5712 8.9602C62.9895 8.9602 61.9491 12.4279 61.816 15.1465H58.7522H56.4313C52.1362 15.1465 48.6543 18.6284 48.6543 22.9235V24.4263V27.5201V53.8136C48.6543 55.3995 49.6091 56.7625 50.9752 57.359V69.5855C50.9752 73.8806 54.4571 77.3625 58.7522 77.3625H102.353C104.424 77.3625 106.307 76.5523 107.701 75.2315C109.424 73.805 110.522 71.6495 110.522 69.2375V50.3339C110.992 49.9812 111.296 49.4194 111.296 48.7866V24.8128L111.296 24.794L111.296 24.7762V22.9231C111.296 18.628 107.814 15.1461 103.519 15.1461H101.8C101.802 15.0891 101.802 15.0311 101.802 14.972C101.802 12.1958 100.054 8.18586 97.2782 8.18586C94.502 8.18586 93.5081 12.1958 93.5081 14.972C93.5081 15.0314 93.5088 15.0895 93.5102 15.1465H89.6419H87.7941Z"/>
</mask>
<path fill-rule="evenodd" clip-rule="evenodd" d="M87.7941 15.1465C87.7947 15.1021 87.7951 15.0572 87.7951 15.012C87.7951 10.9544 85.2404 5.09375 81.1829 5.09375C77.1254 5.09375 75.6728 10.9544 75.6728 15.012C75.6728 15.0573 75.6731 15.1021 75.6736 15.1465H70.0698C69.8453 12.4279 68.1529 8.9602 65.5712 8.9602C62.9895 8.9602 61.9491 12.4279 61.816 15.1465H58.7522H56.4313C52.1362 15.1465 48.6543 18.6284 48.6543 22.9235V24.4263V27.5201V53.8136C48.6543 55.3995 49.6091 56.7625 50.9752 57.359V69.5855C50.9752 73.8806 54.4571 77.3625 58.7522 77.3625H102.353C104.424 77.3625 106.307 76.5523 107.701 75.2315C109.424 73.805 110.522 71.6495 110.522 69.2375V50.3339C110.992 49.9812 111.296 49.4194 111.296 48.7866V24.8128L111.296 24.794L111.296 24.7762V22.9231C111.296 18.628 107.814 15.1461 103.519 15.1461H101.8C101.802 15.0891 101.802 15.0311 101.802 14.972C101.802 12.1958 100.054 8.18586 97.2782 8.18586C94.502 8.18586 93.5081 12.1958 93.5081 14.972C93.5081 15.0314 93.5088 15.0895 93.5102 15.1465H89.6419H87.7941Z" fill="#CCCCCC"/>
<path d="M87.7941 15.1465L83.5102 15.0854L83.4482 19.4308H87.7941V15.1465ZM75.6736 15.1465V19.4308H80.0119L79.9576 15.0929L75.6736 15.1465ZM70.0698 15.1465L65.8 15.499L66.1246 19.4308H70.0698V15.1465ZM61.816 15.1465V19.4308H65.8957L66.0952 15.356L61.816 15.1465ZM50.9752 57.359H55.2596V54.5547L52.6896 53.4325L50.9752 57.359ZM107.701 75.2315L104.969 71.931L104.858 72.0227L104.754 72.1216L107.701 75.2315ZM110.522 50.3339L107.951 46.9073L106.238 48.1926V50.3339H110.522ZM111.296 24.8128H115.581V24.8028L115.581 24.7928L111.296 24.8128ZM111.296 24.794L115.581 24.774L115.581 24.7537L115.58 24.7334L111.296 24.794ZM111.296 24.7762H107.012V24.8064L107.012 24.8367L111.296 24.7762ZM101.8 15.1461L97.5172 15.0277L97.3955 19.4305H101.8V15.1461ZM93.5102 15.1465V19.4308H97.9011L97.7933 15.0412L93.5102 15.1465ZM83.5107 15.012C83.5107 15.037 83.5105 15.0615 83.5102 15.0854L92.078 15.2075C92.0789 15.1426 92.0794 15.0774 92.0794 15.012H83.5107ZM81.1829 9.37811C80.9507 9.37811 81.4677 9.24047 82.306 10.6835C83.075 12.0071 83.5107 13.7449 83.5107 15.012H92.0794C92.0794 12.2215 91.2378 9.00018 89.7151 6.37911C88.2617 3.87737 85.4727 0.809391 81.1829 0.809391V9.37811ZM79.9571 15.012C79.9571 13.3816 80.2647 11.5329 80.826 10.2609C81.4257 8.90178 81.6831 9.37811 81.1829 9.37811V0.809391C76.6252 0.809391 74.1275 4.21606 72.9866 6.80164C71.8072 9.47433 71.3884 12.5848 71.3884 15.012H79.9571ZM79.9576 15.0929C79.9573 15.0668 79.9571 15.0399 79.9571 15.012H71.3884C71.3884 15.0747 71.3888 15.1374 71.3896 15.2001L79.9576 15.0929ZM75.6736 10.8621H70.0698V19.4308H75.6736V10.8621ZM74.3396 14.7939C74.1753 12.8042 73.4976 10.5716 72.3109 8.72109C71.1753 6.9502 68.966 4.67584 65.5712 4.67584V13.2446C65.2041 13.2446 64.9521 13.1085 64.8751 13.0546C64.8302 13.0232 64.9284 13.0823 65.098 13.3467C65.2606 13.6003 65.4275 13.9486 65.5618 14.3607C65.6957 14.7714 65.7729 15.171 65.8 15.499L74.3396 14.7939ZM65.5712 4.67584C61.9459 4.67584 59.8813 7.22951 58.9383 9.12788C57.9883 11.0404 57.6207 13.2234 57.5368 14.937L66.0952 15.356C66.1178 14.8947 66.1792 14.4094 66.2789 13.959C66.3807 13.4992 66.5043 13.1576 66.6124 12.9399C66.7273 12.7085 66.752 12.7617 66.5791 12.8991C66.3447 13.0853 65.9685 13.2446 65.5712 13.2446V4.67584ZM61.816 10.8621H58.7522V19.4308H61.816V10.8621ZM58.7522 10.8621H56.4313V19.4308H58.7522V10.8621ZM56.4313 10.8621C49.77 10.8621 44.3699 16.2622 44.3699 22.9235H52.9387C52.9387 20.9946 54.5024 19.4308 56.4313 19.4308V10.8621ZM44.3699 22.9235V24.4263H52.9387V22.9235H44.3699ZM44.3699 24.4263V27.5201H52.9387V24.4263H44.3699ZM44.3699 27.5201V53.8136H52.9387V27.5201H44.3699ZM44.3699 53.8136C44.3699 57.1634 46.39 60.0319 49.2609 61.2854L52.6896 53.4325C52.8282 53.4931 52.9387 53.6356 52.9387 53.8136H44.3699ZM46.6909 57.359V69.5855H55.2596V57.359H46.6909ZM46.6909 69.5855C46.6909 76.2468 52.0909 81.6468 58.7522 81.6468V73.0781C56.8233 73.0781 55.2596 71.5144 55.2596 69.5855H46.6909ZM58.7522 81.6468H102.353V73.0781H58.7522V81.6468ZM102.353 81.6468C105.564 81.6468 108.49 80.3862 110.648 78.3413L104.754 72.1216C104.124 72.7184 103.285 73.0781 102.353 73.0781V81.6468ZM110.433 78.5319C113.097 76.3264 114.807 72.9797 114.807 69.2375H106.238C106.238 70.3192 105.751 71.2835 104.969 71.931L110.433 78.5319ZM114.807 69.2375V50.3339H106.238V69.2375H114.807ZM113.094 53.7606C114.596 52.6336 115.581 50.8245 115.581 48.7866H107.012C107.012 48.0143 107.389 47.3289 107.951 46.9073L113.094 53.7606ZM115.581 48.7866V24.8128H107.012V48.7866H115.581ZM115.581 24.7928L115.581 24.774L107.012 24.814L107.012 24.8328L115.581 24.7928ZM115.58 24.7334L115.58 24.7156L107.012 24.8367L107.012 24.8545L115.58 24.7334ZM115.58 24.7762V22.9231H107.012V24.7762H115.58ZM115.58 22.9231C115.58 16.2618 110.18 10.8617 103.519 10.8617V19.4305C105.448 19.4305 107.012 20.9942 107.012 22.9231H115.58ZM103.519 10.8617H101.8V19.4305H103.519V10.8617ZM106.083 15.2645C106.085 15.1667 106.087 15.0692 106.087 14.972H97.5179C97.5179 14.9929 97.5177 15.0114 97.5172 15.0277L106.083 15.2645ZM106.087 14.972C106.087 12.8222 105.447 10.3839 104.286 8.38568C103.194 6.50679 100.927 3.9015 97.2782 3.9015V12.4702C96.8777 12.4702 96.6214 12.3103 96.5715 12.2726C96.5558 12.2607 96.6865 12.3626 96.8768 12.69C97.0587 13.0032 97.2287 13.4104 97.35 13.8589C97.4723 14.3111 97.5179 14.7046 97.5179 14.972H106.087ZM97.2782 3.9015C93.3611 3.9015 91.2985 6.84548 90.4324 8.80821C89.5278 10.8581 89.2238 13.1855 89.2238 14.972H97.7925C97.7925 14.5211 97.8339 14.0017 97.9247 13.492C98.017 12.9739 98.1442 12.5565 98.2718 12.2675C98.4085 11.9577 98.4682 11.9683 98.3247 12.0927C98.1103 12.2786 97.7178 12.4702 97.2782 12.4702V3.9015ZM89.2238 14.972C89.2238 15.0645 89.2248 15.1578 89.2271 15.2517L97.7933 15.0412C97.7928 15.0212 97.7925 14.9982 97.7925 14.972H89.2238ZM93.5102 10.8621H89.6419V19.4308H93.5102V10.8621ZM89.6419 10.8621H87.7941V19.4308H89.6419V10.8621Z" fill="white" mask="url(#path-1-outside-1_324_1795)"/>
<rect x="50.9756" y="15.9209" width="59.1544" height="62.216" rx="7.777" fill="#68422C"/>
<path d="M88.0957 23.6979C88.0957 19.4028 91.5776 15.9209 95.8727 15.9209H102.746C107.041 15.9209 110.523 19.4028 110.523 23.6979V70.0119C110.523 74.307 107.041 77.7889 102.746 77.7889H88.0957V23.6979Z" fill="#4D301F"/>
<path d="M48.6543 23.6979C48.6543 19.4028 52.1362 15.9209 56.4313 15.9209H103.519C107.814 15.9209 111.296 19.4028 111.296 23.6979V28.2945C111.296 29.1487 110.603 29.8412 109.749 29.8412H50.201C49.3468 29.8412 48.6543 29.1487 48.6543 28.2945V23.6979Z" fill="#422515"/>
<rect x="76.4951" y="23.6533" width="34.8008" height="14.6937" rx="7.34683" fill="#422515"/>
<rect x="48.6543" y="21.334" width="7.7335" height="37.1208" rx="3.86675" fill="#422515"/>
<rect x="49.4277" y="16.6943" width="12.3736" height="26.2939" rx="6.1868" fill="#422515"/>
<rect x="70.3086" y="21.334" width="14.6937" height="21.6538" rx="7.34683" fill="#422515"/>
<rect x="89.6416" y="25.2012" width="10.8269" height="26.2939" rx="5.41345" fill="#422515"/>
<path d="M89.6416 15.9209H100.469V46.0816C100.469 49.0713 98.0448 51.495 95.0551 51.495V51.495C92.0653 51.495 89.6416 49.0713 89.6416 46.0816V15.9209Z" fill="#351D10"/>
<path fill-rule="evenodd" clip-rule="evenodd" d="M100.47 23.655V38.3486H103.948C108.006 38.3486 111.295 35.0593 111.295 31.0018C111.295 26.9443 108.006 23.655 103.948 23.655H100.47Z" fill="#351D10"/>
<path fill-rule="evenodd" clip-rule="evenodd" d="M100.47 15.9208V32.1611H109.75C110.604 32.1611 111.297 31.4687 111.297 30.6144V23.6978C111.297 19.4027 107.815 15.9208 103.52 15.9208H100.47Z" fill="#351D10"/>
<rect x="107.43" y="23.6533" width="3.86675" height="27.8406" rx="1.93338" fill="#351D10"/>
<path d="M70.095 16.5205C70.095 19.2967 68.3471 19.7879 65.5709 19.7879C62.8061 19.2852 61.8008 18.7826 61.8008 16.5205C61.8008 13.7443 62.7947 9.73438 65.5709 9.73438C68.3471 9.73438 70.095 13.7443 70.095 16.5205Z" fill="#CCCCCC"/>
<path d="M101.801 15.7471C101.801 18.5233 100.053 19.0145 97.2769 19.0145C94.5122 18.5118 93.5068 18.0091 93.5068 15.7471C93.5068 12.9709 94.5007 8.96094 97.2769 8.96094C100.053 8.96094 101.801 12.9709 101.801 15.7471Z" fill="#CCCCCC"/>
<path d="M87.7951 15.7864C87.7951 19.8439 85.2405 20.5618 81.183 20.5618C77.1422 19.8271 75.6729 19.0925 75.6729 15.7864C75.6729 11.7288 77.1254 5.86816 81.183 5.86816C85.2405 5.86816 87.7951 11.7288 87.7951 15.7864Z" fill="#CCCCCC"/>
<mask id="path-18-outside-2_324_1795" maskUnits="userSpaceOnUse" x="114.825" y="4.8655" width="84.3897" height="92.6282" fill="black">
<rect fill="white" x="114.825" y="4.8655" width="84.3897" height="92.6282"/>
<path fill-rule="evenodd" clip-rule="evenodd" d="M160.827 24.2542C160.82 24.2099 160.813 24.1653 160.806 24.1204C160.145 20.117 156.671 14.7504 152.667 15.411C148.664 16.0716 148.185 22.0906 148.845 26.094C148.853 26.139 148.86 26.1835 148.868 26.2275L143.339 27.1399C142.675 24.4942 140.44 21.3483 137.893 21.7686C135.346 22.189 134.884 25.7798 135.195 28.4837L129.883 29.3603C125.645 30.0596 122.776 34.0619 123.476 38.2997L123.711 39.723C123.714 39.7433 123.717 39.7636 123.72 39.7839L128.505 68.7791C128.763 70.3434 129.926 71.5324 131.37 71.8989L133.361 83.962C134.06 88.1998 138.063 91.0684 142.3 90.3691L185.319 83.2705C187.356 82.9343 189.077 81.8348 190.237 80.3128C191.715 78.6234 192.453 76.3109 192.059 73.9236L188.981 55.272C189.386 54.8476 189.594 54.2446 189.491 53.621L186.49 35.4336C186.484 35.391 186.477 35.3485 186.47 35.3059C186.467 35.2836 186.463 35.2613 186.459 35.2391L186.448 35.1785L186.413 34.9673L186.409 34.9408L186.407 34.9246L186.035 32.6741C186.034 32.6615 186.032 32.649 186.03 32.6364L185.281 28.1011C185.105 27.0313 184.718 26.0488 184.17 25.189C184.107 25.0905 184.042 24.9936 183.975 24.8984C182.311 22.531 179.387 21.1905 176.341 21.6931L174.646 21.9728C174.639 21.9168 174.63 21.86 174.62 21.8023C174.168 19.0631 171.791 15.3913 169.052 15.8433C166.313 16.2953 165.985 20.4135 166.437 23.1527C166.447 23.2109 166.457 23.2678 166.467 23.3235L160.827 24.2542Z"/>
</mask>
<path fill-rule="evenodd" clip-rule="evenodd" d="M160.827 24.2542C160.82 24.2099 160.813 24.1653 160.806 24.1204C160.145 20.117 156.671 14.7504 152.667 15.411C148.664 16.0716 148.185 22.0906 148.845 26.094C148.853 26.139 148.86 26.1835 148.868 26.2275L143.339 27.1399C142.675 24.4942 140.44 21.3483 137.893 21.7686C135.346 22.189 134.884 25.7798 135.195 28.4837L129.883 29.3603C125.645 30.0596 122.776 34.0619 123.476 38.2997L123.711 39.723C123.714 39.7433 123.717 39.7636 123.72 39.7839L128.505 68.7791C128.763 70.3434 129.926 71.5324 131.37 71.8989L133.361 83.962C134.06 88.1998 138.063 91.0684 142.3 90.3691L185.319 83.2705C187.356 82.9343 189.077 81.8348 190.237 80.3128C191.715 78.6234 192.453 76.3109 192.059 73.9236L188.981 55.272C189.386 54.8476 189.594 54.2446 189.491 53.621L186.49 35.4336C186.484 35.391 186.477 35.3485 186.47 35.3059C186.467 35.2836 186.463 35.2613 186.459 35.2391L186.448 35.1785L186.413 34.9673L186.409 34.9408L186.407 34.9246L186.035 32.6741C186.034 32.6615 186.032 32.649 186.03 32.6364L185.281 28.1011C185.105 27.0313 184.718 26.0488 184.17 25.189C184.107 25.0905 184.042 24.9936 183.975 24.8984C182.311 22.531 179.387 21.1905 176.341 21.6931L174.646 21.9728C174.639 21.9168 174.63 21.86 174.62 21.8023C174.168 19.0631 171.791 15.3913 169.052 15.8433C166.313 16.2953 165.985 20.4135 166.437 23.1527C166.447 23.2109 166.457 23.2678 166.467 23.3235L160.827 24.2542Z" fill="#CCCCCC"/>
<path d="M160.827 24.2542L156.59 24.8907L157.236 29.189L161.525 28.4814L160.827 24.2542ZM148.868 26.2275L149.566 30.4547L153.847 29.7483L153.086 25.4768L148.868 26.2275ZM143.339 27.1399L139.183 28.183L140.144 32.0094L144.036 31.3671L143.339 27.1399ZM135.195 28.4837L135.893 32.7109L139.918 32.0467L139.452 27.9937L135.195 28.4837ZM123.476 38.2997L127.703 37.6022L123.476 38.2997ZM123.711 39.723L127.948 39.0916L127.943 39.0585L127.938 39.0254L123.711 39.723ZM123.72 39.7839L127.947 39.0864L123.72 39.7839ZM128.505 68.7791L124.278 69.4766L128.505 68.7791ZM131.37 71.8989L135.598 71.2014L135.141 68.4357L132.424 67.7462L131.37 71.8989ZM142.3 90.3691L141.603 86.1419L142.3 90.3691ZM185.319 83.2705L186.017 87.4977L185.319 83.2705ZM190.237 80.3128L187.012 77.4924L186.917 77.601L186.83 77.7156L190.237 80.3128ZM192.059 73.9236L187.832 74.6211L192.059 73.9236ZM188.981 55.272L185.882 52.3135L184.406 53.86L184.754 55.9696L188.981 55.272ZM189.491 53.621L185.264 54.3186L189.491 53.621ZM186.49 35.4336L182.252 36.0582L182.257 36.0947L182.263 36.1311L186.49 35.4336ZM186.459 35.2391L190.68 34.5037L190.678 34.4949L190.677 34.486L186.459 35.2391ZM186.448 35.1785L182.221 35.8761L182.225 35.9039L182.23 35.9316L186.448 35.1785ZM186.413 34.9673L182.174 35.585L182.179 35.6249L182.186 35.6648L186.413 34.9673ZM186.409 34.9408L190.649 34.3231L190.645 34.2944L190.64 34.2658L186.409 34.9408ZM186.407 34.9246L190.638 34.2496L190.636 34.2383L190.634 34.227L186.407 34.9246ZM186.035 32.6741L181.792 33.2685L181.8 33.3202L181.808 33.3716L186.035 32.6741ZM186.03 32.6364L190.257 31.9388L186.03 32.6364ZM185.281 28.1011L181.054 28.7986L185.281 28.1011ZM184.17 25.189L180.557 27.4914L180.557 27.4919L184.17 25.189ZM183.975 24.8984L187.48 22.4351L187.48 22.435L183.975 24.8984ZM174.646 21.9728L170.402 22.5545L170.999 26.9169L175.344 26.2L174.646 21.9728ZM166.467 23.3235L167.165 27.5507L171.496 26.8359L170.676 22.5231L166.467 23.3235ZM156.579 24.8179C156.583 24.8431 156.587 24.8673 156.59 24.8907L165.064 23.6176C165.054 23.5525 165.044 23.4876 165.033 23.4228L156.579 24.8179ZM153.365 19.6382C153.136 19.676 153.623 19.456 154.685 20.7433C155.66 21.9241 156.372 23.5677 156.579 24.8179L165.033 23.4228C164.579 20.6696 163.224 17.6283 161.295 15.2901C159.454 13.0584 156.202 10.4854 151.97 11.1838L153.365 19.6382ZM153.073 25.3965C152.807 23.7878 152.81 21.9138 153.156 20.5673C153.527 19.1287 153.858 19.5568 153.365 19.6382L151.97 11.1838C147.473 11.9259 145.563 15.6937 144.858 18.4306C144.13 21.2596 144.223 24.3967 144.618 26.7915L153.073 25.3965ZM153.086 25.4768C153.082 25.4509 153.077 25.4242 153.073 25.3965L144.618 26.7915C144.628 26.8539 144.639 26.9161 144.65 26.9782L153.086 25.4768ZM148.171 22.0003L142.641 22.9127L144.036 31.3671L149.566 30.4547L148.171 22.0003ZM147.494 26.0968C147.008 24.1604 145.976 22.068 144.504 20.4354C143.095 18.873 140.545 16.9887 137.196 17.5415L138.591 25.9958C138.229 26.0556 137.958 25.9624 137.873 25.9218C137.824 25.8981 137.93 25.9404 138.14 26.1736C138.342 26.3974 138.563 26.7138 138.763 27.0986C138.962 27.482 139.103 27.8637 139.183 28.183L147.494 26.0968ZM137.196 17.5415C133.619 18.1317 131.997 20.9874 131.376 23.0139C130.75 25.0556 130.743 27.2693 130.939 28.9737L139.452 27.9937C139.399 27.5349 139.38 27.0461 139.405 26.5855C139.431 26.1153 139.497 25.7581 139.568 25.5257C139.644 25.2787 139.677 25.3272 139.529 25.4909C139.328 25.7128 138.983 25.9312 138.591 25.9958L137.196 17.5415ZM134.498 24.2565L129.185 25.1331L130.58 33.5875L135.893 32.7109L134.498 24.2565ZM129.185 25.1331C122.613 26.2176 118.164 32.4248 119.249 38.9973L127.703 37.6022C127.389 35.699 128.677 33.9016 130.58 33.5875L129.185 25.1331ZM119.249 38.9973L119.483 40.4205L127.938 39.0254L127.703 37.6022L119.249 38.9973ZM119.473 40.3543C119.479 40.3967 119.486 40.4391 119.493 40.4814L127.947 39.0864C127.948 39.0881 127.948 39.0898 127.948 39.0916L119.473 40.3543ZM119.493 40.4814L124.278 69.4766L132.732 68.0816L127.947 39.0864L119.493 40.4814ZM124.278 69.4766C124.823 72.7807 127.281 75.2814 130.317 76.0517L132.424 67.7462C132.571 67.7834 132.703 67.9061 132.732 68.0816L124.278 69.4766ZM127.143 72.5965L129.134 84.6595L137.588 83.2645L135.598 71.2014L127.143 72.5965ZM129.134 84.6595C130.218 91.232 136.425 95.6808 142.998 94.5963L141.603 86.1419C139.7 86.4559 137.902 85.1677 137.588 83.2645L129.134 84.6595ZM142.998 94.5963L186.017 87.4977L184.621 79.0433L141.603 86.1419L142.998 94.5963ZM186.017 87.4977C189.174 86.9767 191.848 85.2664 193.645 82.91L186.83 77.7156C186.306 78.4033 185.538 78.892 184.621 79.0433L186.017 87.4977ZM193.462 83.1332C195.747 80.5211 196.897 76.93 196.286 73.226L187.832 74.6211C188.008 75.6917 187.683 76.7256 187.012 77.4924L193.462 83.1332ZM196.286 73.226L193.208 54.5745L184.754 55.9696L187.832 74.6211L196.286 73.226ZM192.08 58.2305C193.375 56.8743 194.05 54.9315 193.719 52.9235L185.264 54.3186C185.139 53.5577 185.398 52.8209 185.882 52.3135L192.08 58.2305ZM193.719 52.9235L190.717 34.736L182.263 36.1311L185.264 54.3186L193.719 52.9235ZM190.729 34.8089C190.719 34.7422 190.708 34.6754 190.697 34.6084L182.243 36.0034C182.246 36.0216 182.249 36.0399 182.252 36.0582L190.729 34.8089ZM190.697 34.6084C190.692 34.5732 190.686 34.5383 190.68 34.5037L182.238 35.9745C182.24 35.9843 182.241 35.994 182.243 36.0034L190.697 34.6084ZM190.677 34.486L190.666 34.4255L182.23 35.9316L182.241 35.9921L190.677 34.486ZM190.675 34.481L190.64 34.2697L182.186 35.6648L182.221 35.8761L190.675 34.481ZM190.653 34.3495L190.649 34.3231L182.17 35.5586L182.174 35.585L190.653 34.3495ZM190.64 34.2658L190.638 34.2496L182.176 35.5996L182.179 35.6158L190.64 34.2658ZM190.634 34.227L190.263 31.9766L181.808 33.3716L182.18 35.6221L190.634 34.227ZM190.278 32.0797C190.272 32.0321 190.265 31.9851 190.257 31.9388L181.802 33.3339C181.799 33.3128 181.796 33.291 181.792 33.2685L190.278 32.0797ZM190.257 31.9388L189.508 27.4036L181.054 28.7986L181.802 33.3339L190.257 31.9388ZM189.508 27.4036C189.236 25.7522 188.636 24.225 187.782 22.886L180.557 27.4919C180.8 27.8727 180.974 28.3105 181.054 28.7986L189.508 27.4036ZM187.783 22.8865C187.685 22.7334 187.584 22.5829 187.48 22.4351L180.47 27.3617C180.5 27.4043 180.529 27.4475 180.557 27.4914L187.783 22.8865ZM187.48 22.435C184.907 18.7727 180.374 16.6854 175.644 17.4659L177.039 25.9203C178.4 25.6956 179.716 26.2894 180.47 27.3617L187.48 22.435ZM175.644 17.4659L173.949 17.7456L175.344 26.2L177.039 25.9203L175.644 17.4659ZM178.891 21.3911C178.878 21.2952 178.863 21.1998 178.848 21.1048L170.393 22.4998C170.397 22.5203 170.399 22.5385 170.402 22.5545L178.891 21.3911ZM178.848 21.1048C178.498 18.9836 177.469 16.6821 175.999 14.8995C174.616 13.2234 171.955 11.022 168.354 11.6161L169.749 20.0705C169.354 20.1357 169.075 20.0196 169.02 19.9905C169.003 19.9814 169.148 20.0606 169.389 20.3527C169.62 20.6321 169.854 21.0061 170.046 21.4289C170.241 21.8552 170.35 22.236 170.393 22.4998L178.848 21.1048ZM168.354 11.6161C164.49 12.2538 162.934 15.4943 162.399 17.5719C161.84 19.7416 161.919 22.0875 162.21 23.8502L170.664 22.4551C170.591 22.0102 170.547 21.491 170.554 20.9734C170.56 20.4472 170.618 20.0146 170.697 19.7087C170.781 19.3808 170.842 19.3815 170.72 19.5276C170.539 19.746 170.183 19.9989 169.749 20.0705L168.354 11.6161ZM162.21 23.8502C162.225 23.941 162.241 24.0322 162.258 24.1238L170.676 22.5231C170.672 22.5034 170.668 22.4808 170.664 22.4551L162.21 23.8502ZM165.77 19.0963L160.129 20.027L161.525 28.4814L167.165 27.5507L165.77 19.0963Z" fill="white" mask="url(#path-18-outside-2_324_1795)"/>
<rect x="124.497" y="30.249" width="59.1544" height="62.216" rx="7.777" transform="rotate(-9.37002 124.497 30.249)" fill="#E2A17C"/>
<path d="M162.39 31.8783C161.691 27.6405 164.559 23.6382 168.797 22.9389L175.579 21.8199C179.817 21.1206 183.819 23.9891 184.518 28.227L192.058 73.923C192.758 78.1608 189.889 82.1631 185.651 82.8624L171.197 85.2476L162.39 31.8783Z" fill="#AC7252"/>
<path d="M123.475 38.2992C122.776 34.0614 125.644 30.0591 129.882 29.3598L176.341 21.6935C180.579 20.9942 184.581 23.8628 185.281 28.1006L186.029 32.6359C186.168 33.4787 185.598 34.2747 184.755 34.4137L126.001 44.1087C125.159 44.2478 124.363 43.6773 124.224 42.8345L123.475 38.2992Z" fill="#F5F5F5"/>
<rect x="150.937" y="33.7236" width="34.8008" height="14.6937" rx="7.34683" transform="rotate(-9.37002 150.937 33.7236)" fill="#F5F5F5"/>
<rect x="123.09" y="35.9688" width="7.7335" height="37.1208" rx="3.86675" transform="rotate(-9.37002 123.09 35.9688)" fill="#F5F5F5"/>
<rect x="123.098" y="31.2656" width="12.3736" height="26.2939" rx="6.1868" transform="rotate(-9.37002 123.098 31.2656)" fill="#F5F5F5"/>
<rect x="144.455" y="32.4424" width="14.6937" height="21.6538" rx="7.34683" transform="rotate(-9.37002 144.455 32.4424)" fill="#F5F5F5"/>
<rect x="164.161" y="33.1104" width="10.8269" height="26.2939" rx="5.41345" transform="rotate(-9.37002 164.161 33.1104)" fill="#F5F5F5"/>
<path d="M162.649 23.9541L173.332 22.1914L178.242 51.9496C178.729 54.8995 176.732 57.6854 173.782 58.1722V58.1722C170.833 58.659 168.047 56.6622 167.56 53.7123L162.649 23.9541Z" fill="#E5E3E3"/>
<path fill-rule="evenodd" clip-rule="evenodd" d="M174.589 29.8198L176.981 44.3174L180.416 43.7507C184.419 43.09 187.129 39.3091 186.469 35.3057C185.808 31.3023 182.027 28.5924 178.024 29.2531L174.589 29.8198Z" fill="#E5E3E3"/>
<path fill-rule="evenodd" clip-rule="evenodd" d="M173.332 22.1892L175.976 38.2129L185.132 36.7019C185.975 36.5628 186.546 35.7669 186.407 34.924L185.28 28.0997C184.581 23.8619 180.579 20.9933 176.341 21.6926L173.332 22.1892Z" fill="#E5E3E3"/>
<rect x="181.458" y="28.6885" width="3.86675" height="27.8406" rx="1.93338" transform="rotate(-9.37002 181.458 28.6885)" fill="#E5E3E3"/>
<path d="M143.461 27.729C143.913 30.4682 142.269 31.2374 139.529 31.6894C136.72 31.6435 135.646 31.3113 135.278 29.0794C134.826 26.3402 135.153 22.222 137.893 21.77C140.632 21.318 143.009 24.9898 143.461 27.729Z" fill="#F79393"/>
<path d="M174.62 21.8032C175.072 24.5424 173.428 25.3116 170.689 25.7636C167.879 25.7178 166.805 25.3855 166.437 23.1536C165.985 20.4144 166.313 16.2962 169.052 15.8442C171.791 15.3922 174.168 19.0641 174.62 21.8032Z" fill="#F79393"/>
<path d="M160.806 24.1218C161.466 28.1252 159.063 29.2495 155.059 29.9101C150.953 29.8431 149.384 29.3574 148.845 26.0955C148.185 22.092 148.664 16.0731 152.667 15.4125C156.67 14.7519 160.145 20.1184 160.806 24.1218Z" fill="#F79393"/>
<mask id="path-35-outside-3_324_1795" maskUnits="userSpaceOnUse" x="169.839" y="36.508" width="70.212" height="76.8122" fill="black">
<rect fill="white" x="169.839" y="36.508" width="70.212" height="76.8122"/>
<path fill-rule="evenodd" clip-rule="evenodd" d="M215.001 54.6589C215.007 54.6224 215.013 54.5856 215.02 54.5484C215.567 51.2087 214.255 46.0401 210.916 45.4925C207.576 44.9449 205.59 49.5727 205.042 52.9124C205.036 52.9497 205.03 52.9866 205.024 53.0231L200.413 52.267C200.595 49.9991 199.67 46.9161 197.545 46.5676C195.42 46.2192 194.096 48.9334 193.619 51.1531L191.096 50.7394C191.05 50.7318 191.003 50.7247 190.957 50.718L189.186 50.4278C185.651 49.8481 182.315 52.2441 181.736 55.7794L181.543 56.9544C181.539 56.9748 181.536 56.9952 181.532 57.0158L177.566 81.204C177.352 82.5094 177.954 83.7601 178.998 84.4354L177.348 94.4978C176.769 98.033 179.165 101.369 182.7 101.948L218.587 107.833C220.291 108.112 221.949 107.7 223.274 106.802C224.887 105.86 226.083 104.234 226.408 102.248L228.959 86.6888C229.393 86.4617 229.719 86.0407 229.804 85.5203L232.277 70.4366C232.29 70.3729 232.301 70.3088 232.312 70.2443C232.322 70.1798 232.332 70.1154 232.34 70.051L232.668 68.0553C232.67 68.0425 232.672 68.0296 232.675 68.0166L233.295 64.2332C233.397 63.6131 233.407 62.999 233.335 62.405C233 59.6113 230.859 57.2581 227.943 56.78L226.53 56.5483C226.539 56.5019 226.547 56.4545 226.555 56.4063C226.93 54.1212 226.032 50.5848 223.747 50.2101C221.462 49.8355 220.103 53.0019 219.728 55.2869C219.72 55.3356 219.713 55.3835 219.706 55.4304L215.001 54.6589Z"/>
</mask>
<path fill-rule="evenodd" clip-rule="evenodd" d="M215.001 54.6589C215.007 54.6224 215.013 54.5856 215.02 54.5484C215.567 51.2087 214.255 46.0401 210.916 45.4925C207.576 44.9449 205.59 49.5727 205.042 52.9124C205.036 52.9497 205.03 52.9866 205.024 53.0231L200.413 52.267C200.595 49.9991 199.67 46.9161 197.545 46.5676C195.42 46.2192 194.096 48.9334 193.619 51.1531L191.096 50.7394C191.05 50.7318 191.003 50.7247 190.957 50.718L189.186 50.4278C185.651 49.8481 182.315 52.2441 181.736 55.7794L181.543 56.9544C181.539 56.9748 181.536 56.9952 181.532 57.0158L177.566 81.204C177.352 82.5094 177.954 83.7601 178.998 84.4354L177.348 94.4978C176.769 98.033 179.165 101.369 182.7 101.948L218.587 107.833C220.291 108.112 221.949 107.7 223.274 106.802C224.887 105.86 226.083 104.234 226.408 102.248L228.959 86.6888C229.393 86.4617 229.719 86.0407 229.804 85.5203L232.277 70.4366C232.29 70.3729 232.301 70.3088 232.312 70.2443C232.322 70.1798 232.332 70.1154 232.34 70.051L232.668 68.0553C232.67 68.0425 232.672 68.0296 232.675 68.0166L233.295 64.2332C233.397 63.6131 233.407 62.999 233.335 62.405C233 59.6113 230.859 57.2581 227.943 56.78L226.53 56.5483C226.539 56.5019 226.547 56.4545 226.555 56.4063C226.93 54.1212 226.032 50.5848 223.747 50.2101C221.462 49.8355 220.103 53.0019 219.728 55.2869C219.72 55.3356 219.713 55.3835 219.706 55.4304L215.001 54.6589Z" fill="#86DA53"/>
<path d="M215.001 54.6589L211.483 54.0306L210.846 57.5988L214.422 58.1853L215.001 54.6589ZM205.024 53.0231L204.446 56.5495L208.017 57.135L208.558 53.5572L205.024 53.0231ZM200.413 52.267L196.851 51.9807L196.587 55.2609L199.835 55.7934L200.413 52.267ZM193.619 51.1531L193.041 54.6795L196.399 55.2301L197.113 51.9029L193.619 51.1531ZM191.096 50.7394L191.675 47.213L191.096 50.7394ZM190.957 50.718L190.378 54.2444L190.416 54.2506L190.454 54.256L190.957 50.718ZM189.186 50.4278L189.765 46.9014L189.186 50.4278ZM181.543 56.9544L185.058 57.5993L185.064 57.566L185.069 57.5326L181.543 56.9544ZM178.998 84.4354L182.525 85.0136L182.903 82.7054L180.939 81.435L178.998 84.4354ZM182.7 101.948L183.278 98.4221L182.7 101.948ZM218.587 107.833L218.009 111.359L218.587 107.833ZM223.274 106.802L221.473 103.716L221.369 103.776L221.27 103.844L223.274 106.802ZM228.959 86.6888L227.302 83.5227L225.722 84.3499L225.433 86.1106L228.959 86.6888ZM232.277 70.4366L228.771 69.7483L228.76 69.8032L228.751 69.8584L232.277 70.4366ZM232.34 70.051L228.814 69.4728L228.805 69.5281L228.798 69.5836L232.34 70.051ZM232.668 68.0553L229.16 67.3723L229.15 67.4245L229.141 67.4771L232.668 68.0553ZM232.675 68.0166L229.148 67.4384L232.675 68.0166ZM233.295 64.2332L236.821 64.8114L233.295 64.2332ZM233.335 62.405L229.787 62.8308L229.787 62.8322L233.335 62.405ZM227.943 56.78L228.521 53.2536L227.943 56.78ZM226.53 56.5483L223.021 55.8735L222.327 59.4804L225.952 60.0746L226.53 56.5483ZM219.706 55.4304L219.128 58.9568L222.742 59.5494L223.246 55.9222L219.706 55.4304ZM211.493 53.9702C211.49 53.9908 211.486 54.0109 211.483 54.0306L218.518 55.2872C218.528 55.234 218.537 55.1805 218.546 55.1266L211.493 53.9702ZM210.338 49.0189C210.146 48.9876 210.591 48.9441 211.086 50.2449C211.54 51.4381 211.664 52.9273 211.493 53.9702L218.546 55.1266C218.923 52.8298 218.665 50.0648 217.765 47.702C216.906 45.4467 215.025 42.5451 211.494 41.9661L210.338 49.0189ZM208.568 53.4906C208.788 52.1487 209.291 50.6686 209.925 49.6974C210.602 48.6596 210.749 49.0864 210.338 49.0189L211.494 41.9661C207.743 41.351 205.227 43.8179 203.939 45.7921C202.608 47.8328 201.843 50.3365 201.516 52.3342L208.568 53.4906ZM208.558 53.5572C208.561 53.5357 208.565 53.5135 208.568 53.4906L201.516 52.3342C201.507 52.3859 201.499 52.4375 201.491 52.489L208.558 53.5572ZM199.835 55.7934L204.446 56.5495L205.603 49.4967L200.991 48.7406L199.835 55.7934ZM196.967 50.094C196.665 50.0445 196.476 49.8985 196.42 49.8438C196.387 49.8118 196.46 49.8738 196.564 50.1143C196.663 50.3451 196.754 50.6542 196.809 51.0116C196.863 51.3678 196.873 51.7071 196.851 51.9807L203.975 52.5533C204.108 50.8933 203.852 48.9641 203.125 47.2807C202.429 45.6698 200.918 43.4994 198.123 43.0413L196.967 50.094ZM197.113 51.9029C197.194 51.5262 197.31 51.1351 197.453 50.7778C197.599 50.413 197.747 50.1485 197.865 49.9838C197.991 49.8089 198.004 49.856 197.843 49.9457C197.625 50.0673 197.294 50.1477 196.967 50.094L198.123 43.0413C195.139 42.552 193.095 44.3755 192.063 45.8108C191.023 47.2568 190.426 49.0041 190.125 50.4033L197.113 51.9029ZM190.518 54.2658L193.041 54.6795L194.197 47.6267L191.675 47.213L190.518 54.2658ZM190.454 54.256C190.475 54.259 190.497 54.2623 190.518 54.2658L191.675 47.213C191.603 47.2013 191.531 47.1903 191.459 47.1801L190.454 54.256ZM188.608 53.9542L190.378 54.2444L191.535 47.1917L189.765 46.9014L188.608 53.9542ZM185.262 56.3576C185.522 54.7699 187.021 53.6939 188.608 53.9542L189.765 46.9014C184.282 46.0024 179.108 49.7184 178.209 55.2012L185.262 56.3576ZM185.069 57.5326L185.262 56.3576L178.209 55.2012L178.017 56.3762L185.069 57.5326ZM185.059 57.594C185.059 57.5957 185.058 57.5975 185.058 57.5993L178.028 56.3096C178.02 56.3521 178.013 56.3948 178.006 56.4376L185.059 57.594ZM181.093 81.7822L185.059 57.594L178.006 56.4376L174.04 80.6258L181.093 81.7822ZM180.939 81.435C181.045 81.5035 181.117 81.6357 181.093 81.7822L174.04 80.6258C173.588 83.383 174.864 86.0166 177.057 87.4358L180.939 81.435ZM180.875 95.076L182.525 85.0136L175.472 83.8572L173.822 93.9196L180.875 95.076ZM183.278 98.4221C181.69 98.1618 180.614 96.6637 180.875 95.076L173.822 93.9196C172.923 99.4024 176.639 104.576 182.122 105.475L183.278 98.4221ZM219.165 104.306L183.278 98.4221L182.122 105.475L218.009 111.359L219.165 104.306ZM221.27 103.844C220.671 104.249 219.932 104.432 219.165 104.306L218.009 111.359C220.65 111.792 223.228 111.15 225.279 109.76L221.27 103.844ZM222.882 101.669C222.736 102.56 222.205 103.288 221.473 103.716L225.076 109.888C227.569 108.432 229.429 105.908 229.935 102.826L222.882 101.669ZM225.433 86.1106L222.882 101.669L229.935 102.826L232.486 87.267L225.433 86.1106ZM226.278 84.9421C226.382 84.307 226.784 83.7941 227.302 83.5227L230.616 89.8549C232.002 89.1294 233.056 87.7743 233.33 86.0985L226.278 84.9421ZM228.751 69.8584L226.278 84.9421L233.33 86.0985L235.804 71.0148L228.751 69.8584ZM228.785 69.6661C228.781 69.6939 228.776 69.7212 228.771 69.7483L235.784 71.125C235.803 71.0246 235.822 70.9238 235.838 70.8225L228.785 69.6661ZM228.798 69.5836C228.794 69.6109 228.79 69.6384 228.785 69.6661L235.838 70.8225C235.855 70.7213 235.87 70.6199 235.883 70.5185L228.798 69.5836ZM229.141 67.4771L228.814 69.4728L235.867 70.6292L236.194 68.6335L229.141 67.4771ZM229.148 67.4384C229.152 67.4159 229.156 67.3938 229.16 67.3723L236.175 68.7383C236.184 68.6911 236.193 68.6432 236.201 68.5948L229.148 67.4384ZM229.768 63.655L229.148 67.4384L236.201 68.5948L236.821 64.8114L229.768 63.655ZM229.787 62.8322C229.819 63.0952 229.815 63.3707 229.768 63.655L236.821 64.8114C236.978 63.8554 236.994 62.9029 236.883 61.9778L229.787 62.8322ZM227.365 60.3064C228.669 60.5202 229.636 61.5739 229.787 62.8308L236.883 61.9792C236.363 57.6488 233.049 53.9959 228.521 53.2536L227.365 60.3064ZM225.952 60.0746L227.365 60.3064L228.521 53.2536L227.108 53.0219L225.952 60.0746ZM223.029 55.8281C223.026 55.8452 223.023 55.8603 223.021 55.8735L230.039 57.223C230.054 57.1434 230.068 57.0639 230.081 56.9845L223.029 55.8281ZM223.169 53.7365C222.839 53.6825 222.65 53.5163 222.614 53.4785C222.603 53.4666 222.696 53.5681 222.809 53.8633C222.916 54.1456 223.001 54.5037 223.041 54.8892C223.08 55.2779 223.065 55.608 223.029 55.8281L230.081 56.9845C230.372 55.215 230.174 53.1217 229.488 51.3203C228.843 49.6265 227.329 47.1762 224.325 46.6837L223.169 53.7365ZM223.255 55.8651C223.315 55.494 223.42 55.0721 223.563 54.6648C223.709 54.2508 223.87 53.9245 224.014 53.7038C224.168 53.4673 224.216 53.484 224.081 53.5671C223.88 53.6911 223.531 53.7959 223.169 53.7365L224.325 46.6837C221.101 46.1551 219.006 48.2999 218.028 49.7985C217.007 51.3636 216.443 53.2383 216.202 54.7087L223.255 55.8651ZM223.246 55.9222C223.248 55.9055 223.251 55.8865 223.255 55.8651L216.202 54.7087C216.189 54.7848 216.178 54.8615 216.167 54.9387L223.246 55.9222ZM214.422 58.1853L219.128 58.9568L220.285 51.9041L215.579 51.1325L214.422 58.1853Z" fill="white" mask="url(#path-35-outside-3_324_1795)"/>
<rect x="184.695" y="49.6904" width="49.3392" height="51.8928" rx="6.4866" transform="rotate(9.31158 184.695 49.6904)" fill="#E2A17C"/>
<path d="M214.199 61.1004C214.779 57.5651 218.115 55.1691 221.65 55.7488L227.307 56.6763C230.843 57.256 233.239 60.5918 232.659 64.127L226.409 102.247C225.829 105.783 222.493 108.179 218.958 107.599L206.9 105.622L214.199 61.1004Z" fill="#AC7252"/>
<path d="M181.736 55.78C182.315 52.2448 185.651 49.8488 189.186 50.4285L227.943 56.7832C231.478 57.3628 233.874 60.6986 233.295 64.2339L232.674 68.0173C232.559 68.7204 231.896 69.1969 231.193 69.0816L182.18 61.0452C181.477 60.9299 181 60.2665 181.115 59.5634L181.736 55.78Z" fill="#FFD1B0"/>
<rect x="204.657" y="59.5" width="29.0264" height="12.2556" rx="6.1278" transform="rotate(9.31158 204.657 59.5)" fill="#FFD1B0"/>
<rect x="182.055" y="53.833" width="6.45032" height="30.9615" rx="3.22516" transform="rotate(9.31158 182.055 53.833)" fill="#FFD1B0"/>
<rect x="183.317" y="50.1191" width="10.3205" height="21.9311" rx="5.16026" transform="rotate(9.31158 183.317 50.1191)" fill="#FFD1B0"/>
<rect x="199.878" y="56.7559" width="12.2556" height="18.0609" rx="6.1278" transform="rotate(9.31158 199.878 56.7559)" fill="#FFD1B0"/>
<rect x="215.27" y="62.5479" width="9.03045" height="21.9311" rx="4.51522" transform="rotate(9.31158 215.27 62.5479)" fill="#FFD1B0"/>
<path d="M216.521 54.9092L225.432 56.3703L221.362 81.1951C220.958 83.6559 218.636 85.3237 216.175 84.9203V84.9203C213.714 84.5168 212.047 82.1948 212.45 79.7339L216.521 54.9092Z" fill="#FFB47D"/>
<path fill-rule="evenodd" clip-rule="evenodd" d="M224.392 62.736L222.409 74.8301L225.273 75.2997C228.613 75.8473 231.764 73.5838 232.312 70.2441C232.86 66.9044 230.596 63.7532 227.256 63.2056L224.392 62.736Z" fill="#FFB47D"/>
<path fill-rule="evenodd" clip-rule="evenodd" d="M225.433 56.3682L223.241 69.7354L230.88 70.9878C231.583 71.1031 232.246 70.6265 232.361 69.9234L233.295 64.2305C233.874 60.6952 231.478 57.3594 227.943 56.7798L225.433 56.3682Z" fill="#FFB47D"/>
<rect x="230.118" y="63.6748" width="3.22516" height="23.2212" rx="1.61258" transform="rotate(9.31158 230.118 63.6748)" fill="#FFB47D"/>
<path d="M200.353 52.7635C199.979 55.0486 198.474 55.217 196.189 54.8423C193.981 54.0555 193.221 53.506 193.527 51.6442C193.901 49.3591 195.26 46.1927 197.545 46.5674C199.831 46.9421 200.728 50.4785 200.353 52.7635Z" fill="#FB964D"/>
<path d="M226.556 56.4061C226.181 58.6912 224.676 58.8596 222.391 58.4849C220.183 57.698 219.423 57.1486 219.729 55.2867C220.103 53.0017 221.463 49.8353 223.748 50.21C226.033 50.5846 226.93 54.121 226.556 56.4061Z" fill="#FB964D"/>
<path d="M215.02 54.5485C214.472 57.8882 212.273 58.1344 208.933 57.5868C205.706 56.4367 204.596 55.6337 205.042 52.9126C205.59 49.5729 207.576 44.9451 210.916 45.4926C214.256 46.0402 215.568 51.2088 215.02 54.5485Z" fill="#FB964D"/>
<ellipse cx="208.738" cy="58.5353" rx="1.29006" ry="2.25761" transform="rotate(39.989 208.738 58.5353)" fill="#86DA53"/>
<ellipse cx="210.427" cy="58.3681" rx="0.838435" ry="1.64054" transform="rotate(153.453 210.427 58.3681)" fill="#86DA53"/>
<ellipse cx="222.986" cy="58.7662" rx="1.05098" ry="1.83921" transform="rotate(39.989 222.986 58.7662)" fill="#86DA53"/>
<ellipse cx="224.362" cy="58.6312" rx="0.683049" ry="1.3365" transform="rotate(153.453 224.362 58.6312)" fill="#86DA53"/>
<ellipse cx="196.145" cy="55.0191" rx="1.05098" ry="1.83921" transform="rotate(39.989 196.145 55.0191)" fill="#86DA53"/>
<ellipse cx="197.521" cy="54.886" rx="0.683049" ry="1.3365" transform="rotate(153.453 197.521 54.886)" fill="#86DA53"/>
<mask id="path-58-outside-4_324_1795" maskUnits="userSpaceOnUse" x="-3.70621" y="29.5975" width="68.5655" height="74.8547" fill="black">
<rect fill="white" x="-3.70621" y="29.5975" width="68.5655" height="74.8547"/>
<path fill-rule="evenodd" clip-rule="evenodd" d="M32.7865 45.6064C32.7801 45.5715 32.7733 45.5363 32.7663 45.5009C32.1438 42.3652 29.2705 38.2279 26.1348 38.8504C22.9991 39.4729 22.7756 44.2249 23.3981 47.3606C23.4052 47.3961 23.4124 47.4312 23.4197 47.4659L19.0888 48.3256C18.498 46.2593 16.6583 43.8396 14.6633 44.2356C12.6684 44.6317 12.3962 47.4706 12.7103 49.5919L10.3417 50.0621C10.3022 50.0699 10.2629 50.0781 10.2238 50.0867L8.54897 50.4191C5.22967 51.0781 3.07301 54.3031 3.73194 57.6224L4.43713 61.1747L4.4426 61.2008L8.47082 81.4925C8.71406 82.7178 9.66052 83.6244 10.8073 83.8761L12.6833 93.3261C13.3422 96.6454 16.5672 98.802 19.8865 98.1431L53.5812 91.4542C55.1789 91.137 56.5072 90.2254 57.3818 88.9949C58.4996 87.6272 59.0204 85.7892 58.6496 83.9214L55.7491 69.3107C56.0578 68.9661 56.2063 68.4856 56.1093 67.9968L52.4314 49.4696C52.4292 49.4589 52.427 49.4482 52.4246 49.4375L52.1417 48.0123C51.4828 44.693 48.2578 42.5363 44.9385 43.1953L44.4656 43.2891C44.4241 43.2965 44.3826 43.3043 44.3411 43.3125L43.6109 43.4575C43.6033 43.4127 43.5949 43.3673 43.5858 43.3212C43.1598 41.1757 41.1939 38.3449 39.0484 38.7709C36.9029 39.1968 36.75 42.4481 37.1759 44.5936C37.1851 44.6397 37.1946 44.6848 37.2045 44.7288L34.2142 45.3224L34.2143 45.323L32.7865 45.6064Z"/>
</mask>
<path fill-rule="evenodd" clip-rule="evenodd" d="M32.7865 45.6064C32.7801 45.5715 32.7733 45.5363 32.7663 45.5009C32.1438 42.3652 29.2705 38.2279 26.1348 38.8504C22.9991 39.4729 22.7756 44.2249 23.3981 47.3606C23.4052 47.3961 23.4124 47.4312 23.4197 47.4659L19.0888 48.3256C18.498 46.2593 16.6583 43.8396 14.6633 44.2356C12.6684 44.6317 12.3962 47.4706 12.7103 49.5919L10.3417 50.0621C10.3022 50.0699 10.2629 50.0781 10.2238 50.0867L8.54897 50.4191C5.22967 51.0781 3.07301 54.3031 3.73194 57.6224L4.43713 61.1747L4.4426 61.2008L8.47082 81.4925C8.71406 82.7178 9.66052 83.6244 10.8073 83.8761L12.6833 93.3261C13.3422 96.6454 16.5672 98.802 19.8865 98.1431L53.5812 91.4542C55.1789 91.137 56.5072 90.2254 57.3818 88.9949C58.4996 87.6272 59.0204 85.7892 58.6496 83.9214L55.7491 69.3107C56.0578 68.9661 56.2063 68.4856 56.1093 67.9968L52.4314 49.4696C52.4292 49.4589 52.427 49.4482 52.4246 49.4375L52.1417 48.0123C51.4828 44.693 48.2578 42.5363 44.9385 43.1953L44.4656 43.2891C44.4241 43.2965 44.3826 43.3043 44.3411 43.3125L43.6109 43.4575C43.6033 43.4127 43.5949 43.3673 43.5858 43.3212C43.1598 41.1757 41.1939 38.3449 39.0484 38.7709C36.9029 39.1968 36.75 42.4481 37.1759 44.5936C37.1851 44.6397 37.1946 44.6848 37.2045 44.7288L34.2142 45.3224L34.2143 45.323L32.7865 45.6064Z" fill="#F1F1F1"/>
<path d="M32.7865 45.6064L29.6206 46.1875L30.2101 49.3995L33.4132 48.7636L32.7865 45.6064ZM23.4197 47.4659L24.0464 50.623L27.244 49.9883L26.5686 46.7991L23.4197 47.4659ZM19.0888 48.3256L15.994 49.2104L16.8086 52.0599L19.7155 51.4828L19.0888 48.3256ZM12.7103 49.5919L13.337 52.749L16.3432 52.1523L15.8943 49.1205L12.7103 49.5919ZM10.2238 50.0867L10.8506 53.2438L10.881 53.2378L10.9113 53.2311L10.2238 50.0867ZM3.73194 57.6224L6.8891 56.9956L3.73194 57.6224ZM4.43713 61.1747L1.27997 61.8014L1.28333 61.8184L1.28688 61.8353L4.43713 61.1747ZM4.4426 61.2008L7.59976 60.574L7.5964 60.5571L7.59285 60.5402L4.4426 61.2008ZM8.47082 81.4925L11.628 80.8658L8.47082 81.4925ZM10.8073 83.8761L13.9645 83.2494L13.5544 81.1837L11.4974 80.7322L10.8073 83.8761ZM19.8865 98.1431L19.2598 94.986L19.8865 98.1431ZM53.5812 91.4542L54.208 94.6114L53.5812 91.4542ZM57.3818 88.9949L54.8896 86.958L54.821 87.0418L54.7583 87.1301L57.3818 88.9949ZM58.6496 83.9214L61.8068 83.2947L58.6496 83.9214ZM55.7491 69.3107L53.3515 67.1632L52.279 68.3606L52.592 69.9374L55.7491 69.3107ZM56.1093 67.9968L52.9521 68.6236L56.1093 67.9968ZM52.4314 49.4696L55.5885 48.8429L52.4314 49.4696ZM52.4246 49.4375L49.2675 50.0642L49.2741 50.0979L49.2815 50.1313L52.4246 49.4375ZM52.1417 48.0123L55.2989 47.3855L52.1417 48.0123ZM44.9385 43.1953L45.5652 46.3524L44.9385 43.1953ZM44.4656 43.2891L45.0282 46.4584L45.0603 46.4527L45.0923 46.4463L44.4656 43.2891ZM44.3411 43.3125L44.9679 46.4697L44.3411 43.3125ZM43.6109 43.4575L40.4375 43.9959L40.9911 47.2591L44.2376 46.6147L43.6109 43.4575ZM37.2045 44.7288L37.8312 47.8859L41.0673 47.2435L40.3452 44.0242L37.2045 44.7288ZM34.2142 45.3224L33.5874 42.1652L30.4303 42.792L31.057 45.9491L34.2142 45.3224ZM34.2143 45.323L34.841 48.4802L37.9982 47.8534L37.3714 44.6963L34.2143 45.323ZM29.6091 46.1276C29.6132 46.1481 29.617 46.1681 29.6206 46.1875L35.9524 45.0254C35.9431 44.975 35.9335 44.9246 35.9235 44.8741L29.6091 46.1276ZM26.7615 42.0076C26.7658 42.0067 26.7719 42.005 26.795 42.0086C26.8229 42.013 26.8909 42.0283 27.0014 42.0819C27.2384 42.1969 27.5834 42.4464 27.9779 42.8942C28.7934 43.8198 29.4093 45.1211 29.6091 46.1276L35.9235 44.8741C35.5008 42.745 34.3688 40.4098 32.8081 38.6385C31.3159 36.9449 28.742 35.0513 25.508 35.6932L26.7615 42.0076ZM26.5553 46.7339C26.3023 45.4596 26.2539 43.9607 26.4986 42.8642C26.6183 42.3279 26.769 42.0661 26.8386 41.9765C26.8652 41.9422 26.8644 41.953 26.8292 41.9755C26.7904 42.0004 26.7591 42.008 26.7615 42.0076L25.508 35.6932C22.0766 36.3744 20.6954 39.3126 20.2157 41.4619C19.7204 43.6809 19.8714 46.1259 20.241 47.9874L26.5553 46.7339ZM26.5686 46.7991C26.5642 46.7782 26.5598 46.7564 26.5553 46.7339L20.241 47.9874C20.2506 48.0358 20.2605 48.0843 20.2708 48.1327L26.5686 46.7991ZM22.793 44.3087L18.462 45.1685L19.7155 51.4828L24.0464 50.623L22.793 44.3087ZM22.1836 47.4409C21.7576 45.9509 20.9034 44.3529 19.7218 43.1252C18.5895 41.9487 16.5843 40.5727 14.0366 41.0785L15.2901 47.3928C15.0428 47.4419 14.86 47.3821 14.8168 47.3631C14.8005 47.356 14.9017 47.4004 15.0835 47.5893C15.4682 47.989 15.8292 48.6341 15.994 49.2104L22.1836 47.4409ZM14.0366 41.0785C11.3191 41.618 10.1449 43.839 9.71465 45.4234C9.28135 47.0191 9.33017 48.739 9.52622 50.0633L15.8943 49.1205C15.8399 48.7526 15.8122 48.3593 15.8204 47.9864C15.8288 47.6062 15.8729 47.3102 15.9272 47.1102C15.9845 46.8992 16.0202 46.9136 15.9269 47.0236C15.7954 47.1786 15.5596 47.3393 15.2901 47.3928L14.0366 41.0785ZM12.0835 46.4347L9.71495 46.9049L10.9684 53.2192L13.337 52.749L12.0835 46.4347ZM9.71495 46.9049C9.65521 46.9168 9.59566 46.9292 9.53633 46.9422L10.9113 53.2311C10.9302 53.227 10.9493 53.223 10.9684 53.2192L9.71495 46.9049ZM9.59706 46.9295L7.92223 47.262L9.17571 53.5763L10.8506 53.2438L9.59706 46.9295ZM7.92223 47.262C2.85927 48.2671 -0.43029 53.1862 0.574784 58.2491L6.8891 56.9956C6.57631 55.42 7.60006 53.8891 9.17571 53.5763L7.92223 47.262ZM0.574784 58.2491L1.27997 61.8014L7.59428 60.5479L6.8891 56.9956L0.574784 58.2491ZM1.28688 61.8353L1.29235 61.8614L7.59285 60.5402L7.58738 60.5141L1.28688 61.8353ZM1.28545 61.8275L5.31366 82.1193L11.628 80.8658L7.59976 60.574L1.28545 61.8275ZM5.31366 82.1193C5.81485 84.6439 7.76604 86.504 10.1173 87.02L11.4974 80.7322C11.532 80.7398 11.5583 80.7554 11.5788 80.7759C11.6035 80.8007 11.622 80.8356 11.628 80.8658L5.31366 82.1193ZM7.65016 84.5029L9.52612 93.9528L15.8404 92.6993L13.9645 83.2494L7.65016 84.5029ZM9.52612 93.9528C10.5312 99.0158 15.4503 102.305 20.5133 101.3L19.2598 94.986C17.6841 95.2987 16.1532 94.275 15.8404 92.6993L9.52612 93.9528ZM20.5133 101.3L54.208 94.6114L52.9545 88.297L19.2598 94.986L20.5133 101.3ZM54.208 94.6114C56.6434 94.1279 58.6736 92.7334 60.0054 90.8596L54.7583 87.1301C54.3409 87.7174 53.7144 88.1462 52.9545 88.297L54.208 94.6114ZM59.8741 91.0318C61.574 88.9519 62.3725 86.1448 61.8068 83.2947L55.4924 84.5482C55.6682 85.4337 55.4253 86.3025 54.8896 86.958L59.8741 91.0318ZM61.8068 83.2947L58.9063 68.6839L52.592 69.9374L55.4924 84.5482L61.8068 83.2947ZM58.1468 71.4582C59.1016 70.3921 59.5689 68.8935 59.2664 67.3701L52.9521 68.6236C52.8437 68.0776 53.014 67.54 53.3515 67.1632L58.1468 71.4582ZM59.2664 67.3701L55.5885 48.8429L49.2742 50.0964L52.9521 68.6236L59.2664 67.3701ZM55.5885 48.8429C55.582 48.8102 55.5751 48.7771 55.5677 48.7436L49.2815 50.1313C49.2789 50.1192 49.2764 50.1076 49.2742 50.0964L55.5885 48.8429ZM55.5818 48.8107L55.2989 47.3855L48.9845 48.639L49.2675 50.0642L55.5818 48.8107ZM55.2989 47.3855C54.2938 42.3226 49.3747 39.033 44.3117 40.0381L45.5652 46.3524C47.1409 46.0396 48.6718 47.0634 48.9845 48.639L55.2989 47.3855ZM44.3117 40.0381L43.8388 40.132L45.0923 46.4463L45.5652 46.3524L44.3117 40.0381ZM43.9029 40.1199C43.8401 40.1311 43.7772 40.1429 43.7144 40.1554L44.9679 46.4697C44.988 46.4657 45.0081 46.4619 45.0282 46.4584L43.9029 40.1199ZM43.7144 40.1554L42.9841 40.3003L44.2376 46.6147L44.9679 46.4697L43.7144 40.1554ZM46.7843 42.9191C46.7715 42.844 46.7577 42.7691 46.7429 42.6944L40.4286 43.9479C40.4321 43.9656 40.435 43.9815 40.4375 43.9959L46.7843 42.9191ZM46.7429 42.6944C46.4185 41.0604 45.5625 39.2994 44.377 37.9539C43.26 36.6861 41.1605 35.07 38.4217 35.6137L39.6752 41.928C39.4049 41.9817 39.2171 41.9058 39.1977 41.8964C39.196 41.8956 39.2313 41.9129 39.2983 41.9667C39.3648 42.0201 39.4497 42.0994 39.5468 42.2096C39.7456 42.4352 39.9469 42.7356 40.1148 43.0744C40.2839 43.4157 40.3845 43.726 40.4286 43.9479L46.7429 42.6944ZM38.4217 35.6137C35.4853 36.1966 34.3693 38.7105 34.0064 40.3362C33.628 42.0318 33.7476 43.8541 34.0188 45.2204L40.3331 43.9669C40.2622 43.6097 40.2135 43.1927 40.2053 42.7754C40.197 42.3516 40.2318 41.9966 40.2894 41.7386C40.3507 41.464 40.4058 41.4392 40.3326 41.5334C40.2162 41.6832 39.9742 41.8687 39.6752 41.928L38.4217 35.6137ZM34.0188 45.2204C34.0328 45.291 34.0478 45.362 34.0638 45.4333L40.3452 44.0242C40.3414 44.0075 40.3374 43.9884 40.3331 43.9669L34.0188 45.2204ZM36.5777 41.5716L33.5874 42.1652L34.8409 48.4795L37.8312 47.8859L36.5777 41.5716ZM31.057 45.9491L31.0571 45.9497L37.3714 44.6963L37.3713 44.6956L31.057 45.9491ZM33.5875 42.1658L32.1597 42.4493L33.4132 48.7636L34.841 48.4802L33.5875 42.1658Z" fill="white" mask="url(#path-58-outside-4_324_1795)"/>
<rect x="4.33105" y="51.2549" width="46.6071" height="49.0193" rx="6.12741" transform="rotate(-11.2281 4.33105 51.2549)" fill="#E9C6C4"/>
<path d="M34.2117 51.5707C33.5527 48.2514 35.7094 45.0264 39.0287 44.3674L44.3403 43.313C47.6596 42.6541 50.8846 44.8107 51.5435 48.13L58.6488 83.9219C59.3077 87.2412 57.1511 90.4662 53.8317 91.1251L42.51 93.3727L34.2117 51.5707Z" fill="#E4AAA6"/>
<path d="M3.73119 57.6224C3.07226 54.3031 5.22891 51.0781 8.54822 50.4192L44.9377 43.1953C48.257 42.5364 51.482 44.6931 52.1409 48.0124L52.8461 51.5646C52.9772 52.2248 52.5483 52.8662 51.8881 52.9972L5.86896 62.1327C5.20882 62.2638 4.56742 61.8349 4.43637 61.1747L3.73119 57.6224Z" fill="#FF8888"/>
<rect x="25.2393" y="53.3154" width="27.4191" height="11.577" rx="5.78848" transform="rotate(-11.2281 25.2393 53.3154)" fill="#FF8888"/>
<rect x="3.36816" y="55.7939" width="6.09314" height="29.2471" rx="3.04657" transform="rotate(-11.2281 3.36816 55.7939)" fill="#FF8888"/>
<rect x="3.25293" y="52.0898" width="9.74902" height="20.7167" rx="4.87451" transform="rotate(-11.2281 3.25293 52.0898)" fill="#FF8888"/>
<rect x="20.1025" y="52.4727" width="11.577" height="17.0608" rx="5.78848" transform="rotate(-11.2281 20.1025 52.4727)" fill="#FF8888"/>
<rect x="35.6377" y="52.4941" width="8.53039" height="20.7167" rx="4.2652" transform="rotate(-11.2281 35.6377 52.4941)" fill="#FF8888"/>
<path d="M34.2139 45.3223L42.581 43.6613L47.2081 66.9697C47.6667 69.2802 46.1655 71.5251 43.855 71.9837V71.9837C41.5445 72.4424 39.2996 70.9412 38.8409 68.6307L34.2139 45.3223Z" fill="#FE6F6F"/>
<path fill-rule="evenodd" clip-rule="evenodd" d="M43.7663 49.6358L46.0205 60.9912L48.7089 60.4575C51.8446 59.835 53.882 56.7884 53.2595 53.6527C52.637 50.517 49.5904 48.4797 46.4547 49.1021L43.7663 49.6358Z" fill="#FE6F6F"/>
<path fill-rule="evenodd" clip-rule="evenodd" d="M42.5798 43.6642L45.0713 56.2148L52.2435 54.791C52.9037 54.66 53.3326 54.0186 53.2015 53.3585L52.1404 48.0132C51.4815 44.6939 48.2565 42.5373 44.9372 43.1962L42.5798 43.6642Z" fill="#FE6F6F"/>
<rect x="49.1455" y="48.5684" width="3.04657" height="21.9353" rx="1.52328" transform="rotate(-11.2281 49.1455 48.5684)" fill="#FE6F6F"/>
<path d="M19.1999 48.7835C19.6258 50.9289 18.3504 51.5767 16.2049 52.0026C13.9912 52.0383 13.1371 51.804 12.7901 50.0559C12.3642 47.9104 12.5171 44.659 14.6626 44.2331C16.8081 43.8072 18.774 46.638 19.1999 48.7835Z" fill="#F1F1F1"/>
<path d="M43.5857 43.3216C44.0116 45.467 42.7362 46.1148 40.5907 46.5407C38.377 46.5764 37.5229 46.3421 37.1759 44.594C36.7499 42.4485 36.9028 39.1971 39.0483 38.7712C41.1938 38.3453 43.1598 41.1761 43.5857 43.3216Z" fill="#F1F1F1"/>
<path d="M32.7658 45.5005C33.3882 48.6362 31.5242 49.5829 28.3885 50.2054C25.153 50.2575 23.9048 49.9152 23.3976 47.3602C22.7751 44.2245 22.9985 39.4725 26.1342 38.85C29.2699 38.2275 32.1433 42.3648 32.7658 45.5005Z" fill="#F1F1F1"/>
</svg>
