<svg width="87" height="91" viewBox="0 0 87 91" fill="none" xmlns="http://www.w3.org/2000/svg">
<g clip-path="url(#clip0_161_11863)">
<rect x="5" y="5" width="76.4911" height="80.45" rx="20" fill="#E2A17C"/>
<rect x="5" y="5" width="76.4911" height="80.45" rx="20" fill="#E2A17C"/>
<path fill-rule="evenodd" clip-rule="evenodd" d="M5.46657 19C5.21127 19 5 19.201 5 19.4562V19.4562V19.4562C5 25.8317 10.1683 31 16.5438 31H49C52.3137 31 55 28.3137 55 25C55 21.6863 52.3137 19 49 19H5.46657Z" fill="#C48A69"/>
<rect x="50" y="42" width="11" height="11" rx="5.5" fill="#C48A69"/>
<path fill-rule="evenodd" clip-rule="evenodd" d="M19.0677 83.6565C18.1717 84.9237 16.6083 85.45 15.0562 85.45V85.45C9.50233 85.45 5 80.9477 5 75.3938V70.4541C5 68.6599 6.19131 67 7.9855 67V67H10.4355C16.2701 67 21 71.7299 21 77.5644C21 79.8332 20.2848 81.9349 19.0677 83.6565Z" fill="#C48A69"/>
<rect x="65" y="34" width="16" height="9" rx="4.5" fill="#C48A69"/>
<path fill-rule="evenodd" clip-rule="evenodd" d="M17.3802 5C16.1583 5 15 5.77817 15 7V7C15 10.3137 17.6863 13 21 13H34C37.3137 13 40 10.3137 40 7V7C40 5.77817 38.8417 5 37.6199 5H17.3802Z" fill="#C48A69"/>
<rect x="15" y="58" width="5" height="5" rx="2.5" fill="#C48A69"/>
<path fill-rule="evenodd" clip-rule="evenodd" d="M71.4348 5C69.6236 5 67.7671 5.46224 66.5747 6.82559C64.9715 8.65871 64 11.0584 64 13.685V14.5758C64 20.3329 68.6671 25 74.4242 25C74.62 25 74.8145 24.9946 75.0077 24.9839C79.5793 24.7317 81.491 19.6348 81.491 15.0562V15.0562C81.491 9.50234 76.9887 5 71.4348 5V5Z" fill="#C48A69"/>
<path fill-rule="evenodd" clip-rule="evenodd" d="M63.0973 57C73.2559 57 81.4911 65.2352 81.4911 75.3937V75.3937C81.4911 80.9476 76.9887 85.45 71.4348 85.45H61.1397C58.8492 85.45 56.4414 85.2116 54.7006 83.723C52.6631 81.9805 51.3717 79.3911 51.3717 76.5V76.5C51.3717 75.2258 50.4488 74 49.1746 74H34.5C29.8056 74 26 70.1944 26 65.5C26 60.8056 29.8056 57 34.5 57H63.0973Z" fill="#C48A69"/>
<path fill-rule="evenodd" clip-rule="evenodd" d="M79.0866 69C80.6336 69 81.4911 70.5763 81.4911 72.1233V73.5511C81.4911 75.2246 81.0823 76.8027 80.3591 78.1909C80.1086 78.6716 79.6287 79 79.0866 79V79H66C63.2386 79 61 76.7614 61 74C61 71.2386 63.2386 69 66 69H79.0866V69Z" fill="#B87E5E"/>
<path fill-rule="evenodd" clip-rule="evenodd" d="M5.52935 47C5.23004 47 5 46.7481 5 46.4488V34.5512C5 34.2519 5.23004 34 5.52935 34V34H27.4999C31.0898 34 33.9999 36.9101 33.9999 40.5C33.9999 44.0899 31.0898 47 27.4999 47H5.52935V47Z" fill="#B87E5E"/>
</g>
<rect x="2.5" y="2.5" width="81.4911" height="85.45" rx="26.5" stroke="white" stroke-width="5"/>
<defs>
<clipPath id="clip0_161_11863">
<rect x="5" y="5" width="76.4911" height="80.45" rx="24" fill="white"/>
</clipPath>
</defs>
</svg>
