<svg width="265" height="258" viewBox="0 0 265 258" fill="none" xmlns="http://www.w3.org/2000/svg">
<rect y="-0.000976562" width="264.999" height="257.68" rx="32.21" fill="#E2A17C"/>
<rect y="-0.000976562" width="264.999" height="257.68" fill="#E2A17C"/>
<path fill-rule="evenodd" clip-rule="evenodd" d="M0.0325103 44.8379C0.0109135 45.3219 0 45.8088 0 46.2981V83.2737H154.004C164.618 83.2737 173.222 74.6696 173.222 64.0558C173.222 53.4421 164.618 44.8379 154.004 44.8379H0.0325103Z" fill="#C48A69"/>
<rect x="155.9" y="118.508" width="38.1089" height="35.2329" rx="17.6164" fill="#C48A69"/>
<path fill-rule="evenodd" clip-rule="evenodd" d="M44.117 257.678H32.21C14.4209 257.678 0 243.257 0 225.468V199.439C2.43728 198.882 4.97488 198.587 7.58132 198.587H21.5938C40.2818 198.587 55.4315 213.737 55.4315 232.425C55.4315 242.463 51.0601 251.481 44.117 257.678Z" fill="#C48A69"/>
<path d="M207.867 107.301C207.867 99.3408 214.32 92.8877 222.28 92.8877H263.298V121.715H222.28C214.32 121.715 207.867 115.261 207.867 107.301Z" fill="#C48A69"/>
<path fill-rule="evenodd" clip-rule="evenodd" d="M35.7379 -0.000976562C35.0298 2.00254 34.6445 4.15854 34.6445 6.40452C34.6445 17.0183 43.2487 25.6224 53.8625 25.6224H102.038C112.652 25.6224 121.256 17.0183 121.256 6.40452C121.256 4.15854 120.87 2.00254 120.162 -0.000976562H35.7379Z" fill="#C48A69"/>
<rect x="34.6443" y="169.757" width="17.3222" height="16.0149" rx="8.00747" fill="#C48A69"/>
<path fill-rule="evenodd" clip-rule="evenodd" d="M220.317 -0.000976562C210.739 6.20192 204.402 16.9818 204.402 29.2419C204.402 48.4697 219.99 64.0569 239.217 64.0569H241.815C250.719 64.0569 258.843 60.7142 264.999 55.2153V32.2091C264.999 14.4199 250.578 -0.000976562 232.789 -0.000976562H220.317Z" fill="#C48A69"/>
<path fill-rule="evenodd" clip-rule="evenodd" d="M265 166.552V225.47C265 243.259 250.579 257.68 232.79 257.68H180.859C169.081 253.481 160.652 242.231 160.652 229.011C160.652 226.24 161.022 223.554 161.717 221.003H99.9791C84.9429 221.003 72.7537 208.813 72.7537 193.777C72.7537 178.741 84.9429 166.552 99.9791 166.552H265Z" fill="#C48A69"/>
<path fill-rule="evenodd" clip-rule="evenodd" d="M265 206.608V219.566C265 225.947 263.144 231.895 259.943 236.9C259.298 236.978 258.642 237.019 257.976 237.019H210.023C201.179 237.019 194.009 229.849 194.009 221.004C194.009 212.159 201.179 204.989 210.023 204.989H257.976C260.496 204.989 262.879 205.571 265 206.608Z" fill="#B87E5E"/>
<path fill-rule="evenodd" clip-rule="evenodd" d="M0 134.525V92.8871C0.0446478 92.8869 0.0893289 92.8867 0.134043 92.8867H79.6489C91.1472 92.8867 100.468 102.208 100.468 113.706C100.468 125.204 91.1472 134.526 79.6489 134.526H0.13403C0.0893204 134.526 0.0446435 134.525 0 134.525Z" fill="#B87E5E"/>
</svg>
