<svg width="94" height="61" viewBox="0 0 94 61" fill="none" xmlns="http://www.w3.org/2000/svg">
<path d="M38.527 8.86486C35.0673 7.87636 33.3374 7.38211 32.9306 6.80278C32.3883 6.03034 32.4598 4.98389 33.1021 4.29237C33.5839 3.77373 35.3649 3.5193 38.9269 3.01044L59.4396 0.0800529C59.6257 0.0534656 59.7188 0.0401719 59.812 0.0356339C59.9363 0.0295833 60.0608 0.0351422 60.1841 0.0522384C60.2765 0.0650605 60.368 0.0865903 60.551 0.12965L80.7588 4.88442C84.1581 5.68426 85.8578 6.08418 86.2909 6.63906C86.8685 7.37891 86.8539 8.42087 86.2558 9.14422C85.8072 9.68674 84.097 10.0388 80.6766 10.743L60.7212 14.8515C60.4822 14.9007 60.3628 14.9253 60.2427 14.9353C60.0826 14.9485 59.9215 14.9425 59.7629 14.9172C59.6439 14.8982 59.5266 14.8647 59.292 14.7977L38.527 8.86486Z" fill="#FFD753"/>
<path d="M28.5 9.08857C28.5 5.77881 31.6579 3.38234 34.8455 4.27301L58.8455 10.9789C61.006 11.5826 62.5 13.5512 62.5 15.7945V41.8346C62.5 45.3119 59.0384 47.7274 55.7747 46.5275L31.7747 37.7039C29.8074 36.9806 28.5 35.1071 28.5 33.011V9.08857Z" fill="#FFE797"/>
<path d="M62.5 15.369C62.5 13.0909 64.04 11.1008 66.2452 10.529L83.2452 6.12162C86.4113 5.30077 89.5 7.69078 89.5 10.9616V35.0797C89.5 37.1417 88.2341 38.9923 86.3122 39.7397L69.3122 46.3508C66.0346 47.6255 62.5 45.2076 62.5 41.6908V15.369Z" fill="#D3AF37"/>
<path d="M1.5 38L28.5 30.5L61 40L36.5 50L1.5 38Z" fill="#FFD753"/>
<path d="M0 40.2628C0 38.9012 1.3311 37.9376 2.62464 38.3629L35.264 49.0937C36.0155 49.3407 36.5507 50.0075 36.6295 50.7946L37.1845 56.3453C37.3309 57.8087 35.9008 58.9243 34.517 58.4261L1.32256 46.4761C0.529045 46.1905 0 45.4377 0 44.5943V40.2628Z" fill="#FFE797"/>
<path d="M36.5 50.8492C36.5 50.0338 36.995 49.3001 37.7511 48.9948L59.7511 40.1101C61.0657 39.5792 62.5 40.5469 62.5 41.9646V46.7424C62.5 47.5111 62.0594 48.2118 61.3666 48.5449L39.3666 59.1218C38.0388 59.7602 36.5 58.7926 36.5 57.3193V50.8492Z" fill="#D3AF37"/>
</svg>
