<svg width="275" height="286" viewBox="0 0 275 286" fill="none" xmlns="http://www.w3.org/2000/svg">
<g clip-path="url(#clip0_226_13875)">
<rect x="-36.5461" y="-101.529" width="338.537" height="469.807" fill="#D9D9D9"/>
<rect x="-36.5461" y="-101.529" width="338.537" height="469.807" fill="#D9D9D9"/>
<path fill-rule="evenodd" clip-rule="evenodd" d="M121.267 -101.519H235.071C273.228 -101.519 304.161 -70.5863 304.161 -32.4293V162.201C289.279 208.007 266.143 253.274 235.542 292.981C210.615 325.325 183.365 350.565 155.775 368.292H31.8257C-6.33127 368.292 -37.2637 337.36 -37.2637 299.203L-37.2637 99.1449C-22.4001 58.2833 -0.986187 18.2747 26.4122 -17.2761C55.8763 -55.5074 88.585 -83.8131 121.267 -101.519Z" fill="#B3B3B3"/>
<ellipse cx="282.056" cy="155.49" rx="282.056" ry="155.49" transform="matrix(0.610432 -0.792068 0.558933 0.829213 -119.452 227.836)" fill="#EDEDED"/>
<ellipse cx="243.288" cy="161.629" rx="243.288" ry="161.629" transform="matrix(0.494849 -0.868979 0.445825 0.89512 -72.3447 308.184)" fill="#D9D9D9"/>
<ellipse cx="197.961" cy="131.516" rx="197.961" ry="131.516" transform="matrix(0.494849 -0.868979 0.445825 0.89512 -34.7874 284.282)" fill="#EDEDED"/>
<ellipse cx="158.115" cy="108.759" rx="158.115" ry="108.759" transform="matrix(0.494849 -0.868979 0.445825 0.89512 1.73657 259.2)" fill="#D9D9D9"/>
<ellipse cx="134.626" cy="65.0305" rx="134.626" ry="65.0305" transform="matrix(0.42718 -0.904167 0.51275 0.858538 37.0947 278.582)" fill="#EDEDED"/>
</g>
<defs>
<clipPath id="clip0_226_13875">
<rect width="273.354" height="282.638" fill="white" transform="translate(0.931396 0.849609)"/>
</clipPath>
</defs>
</svg>
