<svg width="93" height="105" viewBox="0 0 93 105" fill="none" xmlns="http://www.w3.org/2000/svg">
<mask id="path-1-outside-1_160_11758" maskUnits="userSpaceOnUse" x="0" y="0" width="93" height="105" fill="black">
<rect fill="white" width="93" height="105"/>
<path fill-rule="evenodd" clip-rule="evenodd" d="M56.6113 19C56.6121 18.9422 56.6125 18.8839 56.6125 18.825C56.6125 13.5783 53.3092 6 48.0625 6C42.8158 6 40.9375 13.5783 40.9375 18.825C40.9375 18.884 40.9379 18.9423 40.9386 19H33.6921C33.4021 15.4846 31.2136 11 27.875 11C24.5364 11 23.1912 15.4846 23.0192 19H16.0562C10.5023 19 6 23.5023 6 29.0562V31V35V69C6 71.0503 7.2341 72.8124 9 73.584V89.3939C9 94.9479 13.5024 99.4502 19.0563 99.4502H75.4348C78.1114 99.4502 80.5438 98.4045 82.3456 96.6993C84.5776 94.8548 86 92.0654 86 88.9437V64.5002C86.6072 64.0441 87 63.3179 87 62.5V38.5V38V35V31.5V29.0562C87 23.5023 82.4977 19 76.9437 19H75.9437H74.7219C74.724 18.9263 74.725 18.8513 74.725 18.775C74.725 15.1851 72.4649 10 68.875 10C65.2851 10 64 15.1851 64 18.775C64 18.8515 64.0009 18.9265 64.0027 19H59H56.6113Z"/>
</mask>
<path fill-rule="evenodd" clip-rule="evenodd" d="M56.6113 19C56.6121 18.9422 56.6125 18.8839 56.6125 18.825C56.6125 13.5783 53.3092 6 48.0625 6C42.8158 6 40.9375 13.5783 40.9375 18.825C40.9375 18.884 40.9379 18.9423 40.9386 19H33.6921C33.4021 15.4846 31.2136 11 27.875 11C24.5364 11 23.1912 15.4846 23.0192 19H16.0562C10.5023 19 6 23.5023 6 29.0562V31V35V69C6 71.0503 7.2341 72.8124 9 73.584V89.3939C9 94.9479 13.5024 99.4502 19.0563 99.4502H75.4348C78.1114 99.4502 80.5438 98.4045 82.3456 96.6993C84.5776 94.8548 86 92.0654 86 88.9437V64.5002C86.6072 64.0441 87 63.3179 87 62.5V38.5V38V35V31.5V29.0562C87 23.5023 82.4977 19 76.9437 19H75.9437H74.7219C74.724 18.9263 74.725 18.8513 74.725 18.775C74.725 15.1851 72.4649 10 68.875 10C65.2851 10 64 15.1851 64 18.775C64 18.8515 64.0009 18.9265 64.0027 19H59H56.6113Z" fill="#CCCCCC"/>
<path d="M56.6113 19L51.0718 18.9203L50.991 24.54H56.6113V19ZM40.9386 19V24.54H46.5486L46.4782 18.9304L40.9386 19ZM33.6921 19L28.1709 19.4555L28.5903 24.54H33.6921V19ZM23.0192 19V24.54H28.2948L28.5526 19.2707L23.0192 19ZM9 73.584H14.54V69.9588L11.2181 68.5074L9 73.584ZM82.3456 96.6993L78.8165 92.4289L78.673 92.5475L78.5378 92.6755L82.3456 96.6993ZM86 64.5002L82.6728 60.0706L80.46 61.7327V64.5002H86ZM74.7219 19L69.1841 18.8469L69.0267 24.54H74.7219V19ZM64.0027 19V24.54H69.6798L69.541 18.8646L64.0027 19ZM51.0725 18.825C51.0725 18.8578 51.0723 18.8896 51.0718 18.9203L62.1507 19.0797C62.1519 18.9949 62.1525 18.91 62.1525 18.825H51.0725ZM48.0625 11.54C47.7622 11.54 48.4307 11.362 49.5147 13.2279C50.5091 14.9395 51.0725 17.1866 51.0725 18.825H62.1525C62.1525 15.2167 61.0643 11.0513 59.0953 7.66206C57.216 4.42713 53.6095 0.46 48.0625 0.46V11.54ZM46.4775 18.825C46.4775 16.7168 46.8752 14.3264 47.601 12.6815C48.3765 10.9241 48.7093 11.54 48.0625 11.54V0.46C42.169 0.46 38.9393 4.86508 37.464 8.20844C35.939 11.6644 35.3975 15.6865 35.3975 18.825H46.4775ZM46.4782 18.9304C46.4777 18.8964 46.4775 18.8613 46.4775 18.825H35.3975C35.3975 18.9067 35.398 18.9882 35.399 19.0696L46.4782 18.9304ZM40.9386 13.46H33.6921V24.54H40.9386V13.46ZM39.2133 18.5445C39.001 15.9714 38.1248 13.0843 36.5903 10.6913C35.1219 8.40126 32.2651 5.46 27.875 5.46V16.54C27.4003 16.54 27.0745 16.3641 26.9749 16.2944C26.9169 16.2538 27.0439 16.3302 27.2632 16.6722C27.4735 17.0002 27.6893 17.4506 27.863 17.9836C28.0361 18.5147 28.1359 19.0314 28.1709 19.4555L39.2133 18.5445ZM27.875 5.46C23.1869 5.46 20.5173 8.76251 19.298 11.2173C18.0696 13.6905 17.5943 16.5134 17.4859 18.7293L28.5526 19.2707C28.5818 18.6742 28.6612 18.0466 28.7901 17.4641C28.9217 16.8696 29.0815 16.4277 29.2213 16.1461C29.37 15.8469 29.4019 15.9156 29.1784 16.0932C28.8752 16.334 28.3888 16.54 27.875 16.54V5.46ZM23.0192 13.46H16.0562V24.54H23.0192V13.46ZM16.0562 13.46C7.44268 13.46 0.46 20.4427 0.46 29.0562H11.54C11.54 26.562 13.562 24.54 16.0562 24.54V13.46ZM0.46 29.0562V31H11.54V29.0562H0.46ZM0.46 31V35H11.54V31H0.46ZM0.46 35V69H11.54V35H0.46ZM0.46 69C0.46 73.3307 3.07101 77.0392 6.78193 78.6605L11.2181 68.5074C11.3972 68.5856 11.54 68.7699 11.54 69H0.46ZM3.46 73.584V89.3939H14.54V73.584H3.46ZM3.46 89.3939C3.46 98.0075 10.4427 104.99 19.0563 104.99V93.9102C16.562 93.9102 14.54 91.8882 14.54 89.3939H3.46ZM19.0563 104.99H75.4348V93.9102H19.0563V104.99ZM75.4348 104.99C79.5834 104.99 83.3639 103.363 86.1535 100.723L78.5378 92.6755C77.7236 93.4459 76.6394 93.9102 75.4348 93.9102V104.99ZM85.8748 100.97C89.3257 98.118 91.54 93.7871 91.54 88.9437H80.46C80.46 90.3437 79.8296 91.5917 78.8165 92.4289L85.8748 100.97ZM91.54 88.9437V64.5002H80.46V88.9437H91.54ZM89.3272 68.9298C91.2675 67.4723 92.54 65.134 92.54 62.5H81.46C81.46 61.5018 81.9469 60.6158 82.6728 60.0706L89.3272 68.9298ZM92.54 62.5V38.5H81.46V62.5H92.54ZM92.54 38.5V38H81.46V38.5H92.54ZM92.54 38V35H81.46V38H92.54ZM92.54 35V31.5H81.46V35H92.54ZM92.54 31.5V29.0562H81.46V31.5H92.54ZM92.54 29.0562C92.54 20.4427 85.5573 13.46 76.9437 13.46V24.54C79.438 24.54 81.46 26.562 81.46 29.0562H92.54ZM76.9437 13.46H75.9437V24.54H76.9437V13.46ZM75.9437 13.46H74.7219V24.54H75.9437V13.46ZM80.2598 19.1531C80.2633 19.0268 80.265 18.9008 80.265 18.775H69.185C69.185 18.8019 69.1846 18.8258 69.1841 18.8469L80.2598 19.1531ZM80.265 18.775C80.265 15.9951 79.4376 12.8422 77.9365 10.2584C76.525 7.82884 73.5935 4.46 68.875 4.46V15.54C68.3571 15.54 68.0257 15.3332 67.9612 15.2844C67.9409 15.2691 68.11 15.4009 68.3559 15.8242C68.5912 16.2293 68.811 16.7557 68.9679 17.3357C69.126 17.9204 69.185 18.4293 69.185 18.775H80.265ZM68.875 4.46C63.8099 4.46 61.1428 8.26679 60.0228 10.8048C58.8532 13.4554 58.46 16.4649 58.46 18.775H69.54C69.54 18.1919 69.5936 17.5203 69.711 16.8613C69.8304 16.1913 69.9949 15.6516 70.1598 15.2779C70.3365 14.8773 70.4137 14.891 70.2282 15.0519C69.9509 15.2923 69.4434 15.54 68.875 15.54V4.46ZM58.46 18.775C58.46 18.8946 58.4614 19.0148 58.4643 19.1354L69.541 18.8646C69.5404 18.8383 69.54 18.8085 69.54 18.775H58.46ZM64.0027 13.46H59V24.54H64.0027V13.46ZM59 13.46H56.6113V24.54H59V13.46Z" fill="white" mask="url(#path-1-outside-1_160_11758)"/>
<rect x="9" y="19" width="76.4911" height="80.45" rx="10.0562" fill="#E2A17C"/>
<path d="M57 29.0563C57 23.5023 61.5023 19 67.0562 19H75.9437C81.4977 19 86 23.5023 86 29.0563V88.9437C86 94.4977 81.4977 99 75.9438 99H57V29.0563Z" fill="#AC7252"/>
<path d="M6 29.0562C6 23.5023 10.5023 19 16.0562 19H76.9438C82.4977 19 87 23.5023 87 29.0562V35C87 36.1046 86.1046 37 85 37H8C6.89543 37 6 36.1046 6 35V29.0562Z" fill="#F5F5F5"/>
<rect x="42" y="29" width="45" height="19" rx="9.5" fill="#F5F5F5"/>
<rect x="6" y="26" width="10" height="48" rx="5" fill="#F5F5F5"/>
<rect x="7" y="20" width="16" height="34" rx="8" fill="#F5F5F5"/>
<rect x="34" y="26" width="19" height="28" rx="9.5" fill="#F5F5F5"/>
<rect x="59" y="31" width="14" height="34" rx="7" fill="#F5F5F5"/>
<path d="M59 19H73V58C73 61.866 69.866 65 66 65V65C62.134 65 59 61.866 59 58V19Z" fill="#E5E3E3"/>
<path fill-rule="evenodd" clip-rule="evenodd" d="M73 29V48H77.5C82.7467 48 87 43.7467 87 38.5C87 33.2533 82.7467 29 77.5 29H73Z" fill="#E5E3E3"/>
<path fill-rule="evenodd" clip-rule="evenodd" d="M73 19V40H85C86.1046 40 87 39.1046 87 38V29.0562C87 23.5023 82.4977 19 76.9438 19H73Z" fill="#E5E3E3"/>
<rect x="82" y="29" width="5" height="36" rx="2.5" fill="#E5E3E3"/>
<path d="M33.725 19.775C33.725 23.3649 31.4649 24 27.875 24C24.3 23.35 23 22.7 23 19.775C23 16.1851 24.2851 11 27.875 11C31.4649 11 33.725 16.1851 33.725 19.775Z" fill="#F79393"/>
<path d="M74.725 18.775C74.725 22.3649 72.4649 23 68.875 23C65.3 22.35 64 21.7 64 18.775C64 15.1851 65.2851 10 68.875 10C72.4649 10 74.725 15.1851 74.725 18.775Z" fill="#F79393"/>
<path d="M56.6125 18.825C56.6125 24.0717 53.3092 25 48.0625 25C42.8375 24.05 40.9375 23.1 40.9375 18.825C40.9375 13.5783 42.8158 6 48.0625 6C53.3092 6 56.6125 13.5783 56.6125 18.825Z" fill="#F79393"/>
</svg>
