<svg width="79" height="86" viewBox="0 0 79 86" fill="none" xmlns="http://www.w3.org/2000/svg">
<mask id="path-1-outside-1_147_9993" maskUnits="userSpaceOnUse" x="9.4209" y="4.6626" width="68" height="73" fill="black">
<rect fill="white" x="9.4209" y="4.6626" width="68" height="73"/>
<path fill-rule="evenodd" clip-rule="evenodd" d="M62.7578 27.6674C72.3133 36.014 74.5768 41.6953 69.3435 51.1092C61.551 65.1265 48.9359 76.0173 27.4339 72.6636L27.4339 72.6635L27.4335 72.6634C25.349 70.6333 23.5299 68.4596 21.9656 66.1839L21.966 66.184C12.5696 52.5143 12.3672 35.1656 19.0475 23.1489C25.7028 11.177 35.4113 11.9192 48.5913 18.2213C48.2089 13.7281 49.6822 9.96715 52.0111 9.68004C54.0311 9.431 56.0616 11.8737 57.0347 15.4311C57.4555 15.1393 57.8943 14.8582 58.3499 14.5899C64.0542 11.2308 70.2344 11.1501 72.1539 14.4097C74.0734 17.6693 71.0052 23.0348 65.301 26.3939C64.4585 26.8899 63.6057 27.3145 62.7578 27.6674Z"/>
</mask>
<path fill-rule="evenodd" clip-rule="evenodd" d="M62.7578 27.6674C72.3133 36.014 74.5768 41.6953 69.3435 51.1092C61.551 65.1265 48.9359 76.0173 27.4339 72.6636L27.4339 72.6635L27.4335 72.6634C25.349 70.6333 23.5299 68.4596 21.9656 66.1839L21.966 66.184C12.5696 52.5143 12.3672 35.1656 19.0475 23.1489C25.7028 11.177 35.4113 11.9192 48.5913 18.2213C48.2089 13.7281 49.6822 9.96715 52.0111 9.68004C54.0311 9.431 56.0616 11.8737 57.0347 15.4311C57.4555 15.1393 57.8943 14.8582 58.3499 14.5899C64.0542 11.2308 70.2344 11.1501 72.1539 14.4097C74.0734 17.6693 71.0052 23.0348 65.301 26.3939C64.4585 26.8899 63.6057 27.3145 62.7578 27.6674Z" fill="white" fill-opacity="0.75"/>
<path d="M69.3435 51.1092L72.9149 53.0947L69.3435 51.1092ZM62.7578 27.6674L61.1878 23.8948L55.1189 26.4205L60.0697 30.7449L62.7578 27.6674ZM27.4339 72.6636L24.6067 75.6137L25.5345 76.5029L26.8042 76.7009L27.4339 72.6636ZM27.4339 72.6635L30.2611 69.7133L29.3377 68.8283L28.0744 68.6278L27.4339 72.6635ZM27.4335 72.6634L24.5825 75.5907L25.5118 76.4957L26.7929 76.6991L27.4335 72.6634ZM21.9656 66.1839L22.5219 62.1358L13.3589 60.8765L18.5982 68.4986L21.9656 66.1839ZM21.966 66.184L21.4097 70.2321L30.5727 71.4913L25.3334 63.8693L21.966 66.184ZM19.0475 23.1489L22.6189 25.1343L19.0475 23.1489ZM48.5913 18.2213L46.8285 21.9078L53.268 24.9868L52.6627 17.8748L48.5913 18.2213ZM52.0111 9.68004L51.5111 5.62454L52.0111 9.68004ZM57.0347 15.4311L53.0933 16.5092L54.6172 22.0802L59.3633 18.7889L57.0347 15.4311ZM58.3499 14.5899L60.4233 18.1109L60.4233 18.1109L58.3499 14.5899ZM72.1539 14.4097L75.675 12.3362V12.3362L72.1539 14.4097ZM65.301 26.3939L63.2275 22.8728L65.301 26.3939ZM72.9149 53.0947C75.8181 47.8723 77.059 42.9106 75.5061 37.8001C74.044 32.9883 70.3105 28.8391 65.4459 24.5899L60.0697 30.7449C64.7606 34.8423 66.9365 37.7071 67.6867 40.1761C68.3462 42.3464 68.1022 44.9323 65.772 49.1238L72.9149 53.0947ZM26.8042 76.7009C38.4057 78.5105 47.9116 76.4986 55.6193 71.912C63.25 67.3713 68.7979 60.5003 72.9149 53.0947L65.772 49.1238C62.0966 55.7354 57.4407 61.3184 51.4402 64.889C45.5168 68.4137 37.9641 70.1704 28.0637 68.6262L26.8042 76.7009ZM24.6066 75.6137L24.6067 75.6137L30.2612 69.7134L30.2611 69.7133L24.6066 75.6137ZM26.7929 76.6991L26.7933 76.6992L28.0744 68.6278L28.0741 68.6277L26.7929 76.6991ZM18.5982 68.4986C20.3126 70.9925 22.3042 73.3718 24.5825 75.5907L30.2844 69.7361C28.3937 67.8947 26.7472 65.9266 25.333 63.8692L18.5982 68.4986ZM22.5223 62.1358L22.5219 62.1358L21.4093 70.2321L21.4097 70.2321L22.5223 62.1358ZM15.476 21.1634C8.02887 34.5596 8.33881 53.5729 18.5986 68.4987L25.3334 63.8693C16.8004 51.4556 16.7055 35.7715 22.6189 25.1343L15.476 21.1634ZM50.354 14.5349C43.6268 11.3182 37.032 9.11952 30.9394 9.76918C24.4136 10.465 19.2891 14.3044 15.476 21.1634L22.6189 25.1343C25.4612 20.0215 28.5186 18.246 31.8059 17.8955C35.5263 17.4988 40.3757 18.8223 46.8285 21.9078L50.354 14.5349ZM51.5111 5.62454C48.1315 6.04119 46.3091 8.79775 45.4876 10.8632C44.592 13.1149 44.2875 15.8383 44.5198 18.5678L52.6627 17.8748C52.5126 16.1111 52.7537 14.7075 53.0813 13.8836C53.4831 12.8735 53.5618 13.606 52.5111 13.7355L51.5111 5.62454ZM60.9761 14.3529C60.3759 12.1587 59.3907 10.0634 58.0122 8.46219C56.6923 6.92898 54.4453 5.2628 51.5111 5.62454L52.5111 13.7355C51.5969 13.8482 51.3752 13.2789 51.8188 13.7941C52.2038 14.2414 52.7204 15.1461 53.0933 16.5092L60.9761 14.3529ZM56.2764 11.0688C55.734 11.3882 55.2101 11.7237 54.7061 12.0733L59.3633 18.7889C59.7008 18.5548 60.0545 18.3281 60.4233 18.1109L56.2764 11.0688ZM75.675 12.3362C73.6501 8.89756 69.8149 7.89017 66.6179 7.9319C63.2877 7.97537 59.6278 9.09527 56.2764 11.0688L60.4233 18.1109C62.7762 16.7253 65.0586 16.1254 66.7245 16.1036C68.5236 16.0801 68.7383 16.6622 68.6329 16.4831L75.675 12.3362ZM67.3744 29.9149C70.7258 27.9414 73.4803 25.284 75.1336 22.3929C76.7207 19.6173 77.6999 15.7749 75.675 12.3362L68.6329 16.4831C68.5274 16.3041 68.9323 16.7742 68.0392 18.336C67.2121 19.7823 65.5804 21.4872 63.2275 22.8728L67.3744 29.9149ZM64.3278 31.44C65.3511 31.0141 66.372 30.5052 67.3744 29.9149L63.2275 22.8728C62.545 23.2747 61.8603 23.615 61.1878 23.8948L64.3278 31.44Z" fill="white" mask="url(#path-1-outside-1_147_9993)"/>
<ellipse cx="61.8256" cy="20.4929" rx="6.84931" ry="11.9863" transform="rotate(-120.493 61.8256 20.4929)" fill="#86DA53"/>
<ellipse cx="53.0775" cy="18.3256" rx="4.45149" ry="8.71011" transform="rotate(-7.02822 53.0775 18.3256)" fill="#86DA53"/>
<path d="M19.0478 23.1496C26.8402 9.13235 38.8182 12.5446 55.6531 21.9034C71.0075 33.7616 75.6931 39.6888 69.3438 51.11C61.5514 65.1272 48.9362 76.018 27.4343 72.6643C12.8281 58.439 11.2554 37.1668 19.0478 23.1496Z" fill="#FF8888"/>
<ellipse cx="1.31815" cy="3.96085" rx="1.31815" ry="3.96085" transform="matrix(0.976324 0.216313 -0.215577 0.976487 31.762 23.7563)" fill="white" fill-opacity="0.75"/>
<ellipse cx="1.31815" cy="3.96085" rx="1.31815" ry="3.96085" transform="matrix(0.934261 0.356589 -0.355885 0.93453 26.575 17.105)" fill="white" fill-opacity="0.75"/>
<ellipse cx="1.31809" cy="3.96103" rx="1.31809" ry="3.96103" transform="matrix(0.989677 0.143314 -0.142814 0.98975 20.136 32.3086)" fill="white" fill-opacity="0.75"/>
<ellipse cx="1.31877" cy="3.95897" rx="1.31877" ry="3.95897" transform="matrix(0.8285 0.559988 -0.558616 0.829427 46.2324 29.457)" fill="white" fill-opacity="0.75"/>
<ellipse cx="1.31877" cy="3.95897" rx="1.31877" ry="3.95897" transform="matrix(0.8285 0.559988 -0.558616 0.829427 44.332 17.105)" fill="white" fill-opacity="0.75"/>
<ellipse cx="1.31877" cy="3.95897" rx="1.31877" ry="3.95897" transform="matrix(0.924669 0.380773 -0.379241 0.925298 56.7981 25.5122)" fill="white" fill-opacity="0.75"/>
<ellipse cx="1.3182" cy="3.9607" rx="1.3182" ry="3.9607" transform="matrix(0.965552 0.26021 -0.259345 0.965785 34.3621 38.9595)" fill="white" fill-opacity="0.75"/>
<ellipse cx="1.3182" cy="3.9607" rx="1.3182" ry="3.9607" transform="matrix(0.998117 0.0613428 -0.0604484 0.998171 24.0291 48.5952)" fill="white" fill-opacity="0.75"/>
<ellipse cx="1.3182" cy="3.9607" rx="1.3182" ry="3.9607" transform="matrix(0.907091 0.420934 -0.420121 0.907468 37.5359 53.2129)" fill="white" fill-opacity="0.75"/>
<ellipse cx="1.31921" cy="3.95765" rx="1.31921" ry="3.95765" transform="matrix(0.706865 0.707349 -0.706085 0.708127 50.249 47.5117)" fill="white" fill-opacity="0.75"/>
<ellipse cx="1.3182" cy="3.9607" rx="1.3182" ry="3.9607" transform="matrix(0.996653 -0.0817455 0.0826385 0.99658 27.5562 62.9302)" fill="white" fill-opacity="0.75"/>
<ellipse cx="1.31943" cy="3.95701" rx="1.31943" ry="3.95701" transform="matrix(0.781398 0.624033 -0.62266 0.782493 60.4268 36.689)" fill="white" fill-opacity="0.75"/>
<path fill-rule="evenodd" clip-rule="evenodd" d="M21.9656 66.1846C23.5299 68.4604 25.3491 70.6343 27.4338 72.6646C48.9357 76.0183 61.5509 65.1275 69.3433 51.1103C74.7067 41.4624 72.196 35.7349 62.0316 27.041C66.3302 32.5353 66.5783 37.4678 62.6918 44.4588C55.0435 58.2169 42.749 68.9632 21.9656 66.1846Z" fill="#FE6F6F"/>
<ellipse cx="1.31877" cy="3.95897" rx="1.31877" ry="3.95897" transform="matrix(0.635869 0.771797 -0.770743 0.637147 62.5298 51.7944)" fill="white" fill-opacity="0.25"/>
<ellipse cx="1.3182" cy="3.9607" rx="1.3182" ry="3.9607" transform="matrix(0.637296 0.77062 -0.770048 0.637986 48.8594 62.7144)" fill="white" fill-opacity="0.25"/>
<path fill-rule="evenodd" clip-rule="evenodd" d="M27.865 66.6221C27.8702 66.7066 27.8763 66.7917 27.8834 66.8774C28.0642 69.0574 28.7989 70.7763 29.5245 70.7168C30.2501 70.6573 30.6918 68.8419 30.511 66.6619C30.5085 66.6316 30.5059 66.6014 30.5032 66.5713C29.6413 66.6149 28.762 66.6322 27.865 66.6221Z" fill="white" fill-opacity="0.25"/>
<ellipse cx="1.31877" cy="3.95897" rx="1.31877" ry="3.95897" transform="matrix(0.956769 0.290849 -0.289264 0.957249 68.8054 40.8594)" fill="white" fill-opacity="0.25"/>
</svg>
