<svg width="97" height="110" viewBox="0 0 97 110" fill="none" xmlns="http://www.w3.org/2000/svg">
<mask id="path-1-outside-1_147_10285" maskUnits="userSpaceOnUse" x="0" y="0" width="97" height="110" fill="black">
<rect fill="white" width="97" height="110"/>
<path fill-rule="evenodd" clip-rule="evenodd" d="M59.1101 19.6423C59.1109 19.5815 59.1114 19.5202 59.1114 19.4583C59.1114 13.9525 55.645 6 50.1392 6C44.6334 6 42.6623 13.9525 42.6623 19.4583C42.6623 19.5203 42.6627 19.5816 42.6635 19.6423H35.0595C34.755 15.9533 32.4585 11.2475 28.9552 11.2475C25.4519 11.2475 24.0402 15.9533 23.8596 19.6423H19.7008H16.5528C10.7247 19.6423 6 24.3669 6 30.1951V32.2344V36.4324V72.1109C6 74.2624 7.29496 76.1115 9.14798 76.9212V93.5121C9.14798 99.3403 13.8726 104.065 19.7008 104.065H78.8634C81.6712 104.065 84.2228 102.968 86.1135 101.18C88.4569 99.2447 89.9504 96.3167 89.9504 93.0399V67.3887C90.5876 66.9101 90.9997 66.1481 90.9997 65.2898V40.2069C91 40.1731 91.0002 40.1394 91.0002 40.1056C91.0002 40.0719 91 40.0382 90.9997 40.0045V39.6124L90.9999 39.5807V30.1952C90.9999 29.8309 90.9814 29.4709 90.9454 29.1161C90.6986 26.6857 89.627 24.4991 88.015 22.8406C86.0976 20.8678 83.4154 19.6423 80.4471 19.6423H79.3975H78.8634H78.1159C78.118 19.5648 78.1191 19.4859 78.1191 19.4056C78.1191 15.6385 75.7473 10.1973 71.9802 10.1973C68.2131 10.1973 66.8645 15.6385 66.8645 19.4056C66.8645 19.4861 66.8654 19.565 66.8673 19.6423H61.6174H59.1101Z"/>
</mask>
<path fill-rule="evenodd" clip-rule="evenodd" d="M59.1101 19.6423C59.1109 19.5815 59.1114 19.5202 59.1114 19.4583C59.1114 13.9525 55.645 6 50.1392 6C44.6334 6 42.6623 13.9525 42.6623 19.4583C42.6623 19.5203 42.6627 19.5816 42.6635 19.6423H35.0595C34.755 15.9533 32.4585 11.2475 28.9552 11.2475C25.4519 11.2475 24.0402 15.9533 23.8596 19.6423H19.7008H16.5528C10.7247 19.6423 6 24.3669 6 30.1951V32.2344V36.4324V72.1109C6 74.2624 7.29496 76.1115 9.14798 76.9212V93.5121C9.14798 99.3403 13.8726 104.065 19.7008 104.065H78.8634C81.6712 104.065 84.2228 102.968 86.1135 101.18C88.4569 99.2447 89.9504 96.3167 89.9504 93.0399V67.3887C90.5876 66.9101 90.9997 66.1481 90.9997 65.2898V40.2069C91 40.1731 91.0002 40.1394 91.0002 40.1056C91.0002 40.0719 91 40.0382 90.9997 40.0045V39.6124L90.9999 39.5807V30.1952C90.9999 29.8309 90.9814 29.4709 90.9454 29.1161C90.6986 26.6857 89.627 24.4991 88.015 22.8406C86.0976 20.8678 83.4154 19.6423 80.4471 19.6423H79.3975H78.8634H78.1159C78.118 19.5648 78.1191 19.4859 78.1191 19.4056C78.1191 15.6385 75.7473 10.1973 71.9802 10.1973C68.2131 10.1973 66.8645 15.6385 66.8645 19.4056C66.8645 19.4861 66.8654 19.565 66.8673 19.6423H61.6174H59.1101Z" fill="#F1F1F1"/>
<path d="M59.1101 19.6423L53.5672 19.5625L53.4863 25.1857H59.1101V19.6423ZM42.6635 19.6423V25.1857H48.2775L48.2065 19.5722L42.6635 19.6423ZM35.0595 19.6423L29.5348 20.0982L29.9547 25.1857H35.0595V19.6423ZM23.8596 19.6423V25.1857H29.1385L29.3965 19.9132L23.8596 19.6423ZM9.14798 76.9212H14.6914V73.2939L11.3676 71.8415L9.14798 76.9212ZM86.1135 101.18L82.5832 96.9062L82.4396 97.0248L82.3043 97.1528L86.1135 101.18ZM89.9504 67.3887L86.621 62.9564L84.4069 64.6195V67.3887H89.9504ZM90.9997 40.2069L85.4565 40.1517L85.4562 40.1793V40.2069H90.9997ZM90.9997 40.0045H85.4562V40.0321L85.4565 40.0597L90.9997 40.0045ZM90.9997 39.6124L85.4564 39.5712L85.4562 39.5918V39.6124H90.9997ZM90.9999 39.5807L96.5433 39.6219L96.5434 39.6013V39.5807H90.9999ZM90.9454 29.1161L85.4303 29.6762L85.4303 29.6763L90.9454 29.1161ZM88.015 22.8406L84.0398 26.7043L84.0399 26.7043L88.015 22.8406ZM78.1159 19.6423L72.5745 19.4889L72.4169 25.1857H78.1159V19.6423ZM66.8673 19.6423V25.1857H72.5485L72.4091 19.5063L66.8673 19.6423ZM53.5679 19.4583C53.5679 19.494 53.5677 19.5287 53.5672 19.5625L64.653 19.722C64.6542 19.6343 64.6549 19.5464 64.6549 19.4583H53.5679ZM50.1392 11.5435C50.1466 11.5435 50.1575 11.5426 50.1953 11.5564C50.241 11.5732 50.3507 11.6219 50.5194 11.7495C50.8812 12.0233 51.3803 12.5604 51.8967 13.4492C52.9639 15.2861 53.5679 17.691 53.5679 19.4583H64.6549C64.6549 15.7199 63.5257 11.3955 61.4832 7.87982C59.5305 4.51851 55.8175 0.45653 50.1392 0.45653V11.5435ZM48.2058 19.4583C48.2058 17.2209 48.6266 14.6726 49.4077 12.9024C49.7898 12.0365 50.1321 11.6449 50.2798 11.5169C50.3362 11.4679 50.3312 11.4857 50.2643 11.512C50.1903 11.5411 50.1349 11.5435 50.1392 11.5435V0.45653C44.1141 0.45653 40.7955 4.95673 39.2644 8.42653C37.6836 12.009 37.1189 16.1899 37.1189 19.4583H48.2058ZM48.2065 19.5722C48.206 19.5357 48.2058 19.4978 48.2058 19.4583H37.1189C37.1189 19.5428 37.1194 19.6275 37.1205 19.7123L48.2065 19.5722ZM42.6635 14.0988H35.0595V25.1857H42.6635V14.0988ZM40.5842 19.1863C40.3646 16.526 39.4576 13.5396 37.8733 11.0691C36.3552 8.70166 33.4292 5.70406 28.9552 5.70406V16.791C28.5209 16.791 28.232 16.6287 28.1655 16.5821C28.1405 16.5646 28.2967 16.6738 28.5405 17.054C29.0564 17.8586 29.4499 19.0696 29.5348 20.0982L40.5842 19.1863ZM28.9552 5.70406C24.1829 5.70406 21.4545 9.0631 20.1966 11.5955C18.9296 14.1462 18.4355 17.0683 18.3228 19.3713L29.3965 19.9132C29.4278 19.2735 29.5129 18.5998 29.6518 17.9723C29.7933 17.3328 29.9673 16.8473 30.1261 16.5276C30.2937 16.1902 30.3493 16.2263 30.1548 16.3808C29.8807 16.5986 29.4285 16.791 28.9552 16.791V5.70406ZM23.8596 14.0988H19.7008V25.1857H23.8596V14.0988ZM19.7008 14.0988H16.5528V25.1857H19.7008V14.0988ZM16.5528 14.0988C7.66309 14.0988 0.45653 21.3054 0.45653 30.1951H11.5435C11.5435 27.4285 13.7862 25.1857 16.5528 25.1857V14.0988ZM0.45653 30.1951V32.2344H11.5435V30.1951H0.45653ZM0.45653 32.2344V36.4324H11.5435V32.2344H0.45653ZM0.45653 36.4324V72.1109H11.5435V36.4324H0.45653ZM0.45653 72.1109C0.45653 76.5441 3.12917 80.3408 6.92836 82.0009L11.3676 71.8415C11.4235 71.8659 11.4628 71.9012 11.4905 71.9426C11.524 71.9928 11.5435 72.058 11.5435 72.1109H0.45653ZM3.60451 76.9212V93.5121H14.6914V76.9212H3.60451ZM3.60451 93.5121C3.60451 102.402 10.8111 109.608 19.7008 109.608V98.5215C16.9342 98.5215 14.6914 96.2787 14.6914 93.5121H3.60451ZM19.7008 109.608H78.8634V98.5215H19.7008V109.608ZM78.8634 109.608C83.1435 109.608 87.0437 107.931 89.9226 105.208L82.3043 97.1528C81.4019 98.0063 80.1988 98.5215 78.8634 98.5215V109.608ZM89.6437 105.454C93.2074 102.511 95.4938 98.04 95.4938 93.0399H84.4069C84.4069 94.5934 83.7063 95.9785 82.5832 96.9062L89.6437 105.454ZM95.4938 93.0399V67.3887H84.4069V93.0399H95.4938ZM93.2797 71.821C95.2508 70.3404 96.5432 67.9652 96.5432 65.2898H85.4562C85.4562 64.3309 85.9243 63.4797 86.621 62.9564L93.2797 71.821ZM96.5432 65.2898V40.2069H85.4562V65.2898H96.5432ZM96.5429 40.2621C96.5434 40.2099 96.5437 40.1578 96.5437 40.1056H85.4567C85.4567 40.121 85.4567 40.1364 85.4565 40.1517L96.5429 40.2621ZM96.5437 40.1056C96.5437 40.0535 96.5434 40.0014 96.5429 39.9492L85.4565 40.0597C85.4567 40.075 85.4567 40.0902 85.4567 40.1056H96.5437ZM96.5432 40.0045V39.6124H85.4562V40.0045H96.5432ZM96.543 39.6537L96.5433 39.6219L85.4566 39.5394L85.4564 39.5712L96.543 39.6537ZM96.5434 39.5807V30.1952H85.4565V39.5807H96.5434ZM96.5434 30.1952C96.5434 29.643 96.5154 29.0961 96.4605 28.5559L85.4303 29.6763C85.4475 29.8458 85.4565 30.0188 85.4565 30.1952H96.5434ZM96.4605 28.556C96.0831 24.8394 94.4426 21.5001 91.9902 18.9769L84.0399 26.7043C84.8114 27.4981 85.3141 28.532 85.4303 29.6762L96.4605 28.556ZM91.9902 18.9769C89.0721 15.9746 84.9737 14.0988 80.4471 14.0988V25.1857C81.8571 25.1857 83.1231 25.7611 84.0398 26.7043L91.9902 18.9769ZM80.4471 14.0988H79.3975V25.1857H80.4471V14.0988ZM79.3975 14.0988H78.8634V25.1857H79.3975V14.0988ZM78.8634 14.0988H78.1159V25.1857H78.8634V14.0988ZM83.6572 19.7956C83.6608 19.6654 83.6626 19.5354 83.6626 19.4056H72.5756C72.5756 19.4364 72.5752 19.4641 72.5745 19.4889L83.6572 19.7956ZM83.6626 19.4056C83.6626 16.5365 82.8071 13.2747 81.2556 10.6041C79.7939 8.08799 76.7892 4.65383 71.9802 4.65383V15.7408C71.5058 15.7408 71.2138 15.5497 71.1842 15.5273C71.1817 15.5254 71.2355 15.5663 71.3306 15.6797C71.425 15.7923 71.5419 15.9547 71.669 16.1735C71.9292 16.6213 72.1684 17.196 72.3384 17.8247C72.5097 18.4581 72.5756 19.0159 72.5756 19.4056H83.6626ZM71.9802 4.65383C66.8244 4.65383 64.0962 8.5262 62.938 11.1508C61.7301 13.8882 61.321 17.0066 61.321 19.4056H72.408C72.408 18.7784 72.4655 18.0578 72.5916 17.35C72.7196 16.6313 72.8975 16.0433 73.0813 15.6267C73.277 15.1834 73.3785 15.16 73.2232 15.2946C72.9763 15.5087 72.5052 15.7408 71.9802 15.7408V4.65383ZM61.321 19.4056C61.321 19.5291 61.3225 19.6534 61.3255 19.7782L72.4091 19.5063C72.4084 19.4766 72.408 19.4431 72.408 19.4056H61.321ZM66.8673 14.0988H61.6174V25.1857H66.8673V14.0988ZM61.6174 14.0988H59.1101V25.1857H61.6174V14.0988Z" fill="white" mask="url(#path-1-outside-1_147_10285)"/>
<rect x="9.14795" y="19.6421" width="80.2683" height="84.4227" rx="10.5528" fill="#E9C6C4"/>
<path d="M59.5183 30.1949C59.5183 24.3668 64.243 19.6421 70.0712 19.6421H79.3975C85.2257 19.6421 89.9504 24.3668 89.9504 30.1949V93.0397C89.9504 98.8679 85.2257 103.593 79.3975 103.593H59.5183V30.1949Z" fill="#E4AAA6"/>
<path d="M6 30.1949C6 24.3668 10.7247 19.6421 16.5528 19.6421H80.4471C86.2752 19.6421 90.9999 24.3668 90.9999 30.1949V36.4322C90.9999 37.5913 90.0602 38.531 88.9011 38.531H8.09876C6.93965 38.531 6 37.5913 6 36.4322V30.1949Z" fill="#FF8888"/>
<rect x="43.7776" y="30.1353" width="47.2222" height="19.9382" rx="9.96912" fill="#FF8888"/>
<rect x="6" y="26.9873" width="10.4938" height="50.3703" rx="5.24691" fill="#FF8888"/>
<rect x="7.04932" y="20.6914" width="16.7901" height="35.679" rx="8.39505" fill="#FF8888"/>
<rect x="35.3826" y="26.9873" width="19.9382" height="29.3827" rx="9.96912" fill="#FF8888"/>
<rect x="61.6174" y="32.2349" width="14.6913" height="35.679" rx="7.34567" fill="#FF8888"/>
<path d="M61.6174 19.6421H76.3088V60.5679C76.3088 64.6248 73.02 67.9136 68.9631 67.9136C64.9062 67.9136 61.6174 64.6249 61.6174 60.568V19.6421Z" fill="#FE6F6F"/>
<path fill-rule="evenodd" clip-rule="evenodd" d="M76.3091 30.1365V50.0747H81.0312C86.537 50.0747 91.0003 45.6114 91.0003 40.1056C91.0003 34.5998 86.537 30.1365 81.0312 30.1365H76.3091Z" fill="#FE6F6F"/>
<path fill-rule="evenodd" clip-rule="evenodd" d="M76.3088 19.6422V41.6792H88.9013C90.0604 41.6792 91.0001 40.7395 91.0001 39.5804V30.195C91.0001 24.3669 86.2754 19.6422 80.4472 19.6422H76.3088Z" fill="#FE6F6F"/>
<rect x="85.7527" y="30.1353" width="5.24691" height="37.7777" rx="2.62345" fill="#FE6F6F"/>
<path d="M35.094 20.4549C35.094 24.222 32.7222 24.8885 28.9551 24.8885C25.2036 24.2064 23.8394 23.5243 23.8394 20.4549C23.8394 16.6878 25.188 11.2466 28.9551 11.2466C32.7222 11.2466 35.094 16.6878 35.094 20.4549Z" fill="#F1F1F1"/>
<path d="M78.1186 19.4056C78.1186 23.1727 75.7469 23.8392 71.9797 23.8392C68.2282 23.1571 66.864 22.475 66.864 19.4056C66.864 15.6385 68.2126 10.1973 71.9797 10.1973C75.7469 10.1973 78.1186 15.6385 78.1186 19.4056Z" fill="#F1F1F1"/>
<path d="M59.1119 19.4583C59.1119 24.9641 55.6455 25.9382 50.1397 25.9382C44.6567 24.9413 42.6628 23.9444 42.6628 19.4583C42.6628 13.9525 44.6339 6 50.1397 6C55.6455 6 59.1119 13.9525 59.1119 19.4583Z" fill="#F1F1F1"/>
</svg>
