<svg width="414" height="269" viewBox="0 0 414 269" fill="none" xmlns="http://www.w3.org/2000/svg">
<mask id="path-1-outside-1_208_13868" maskUnits="userSpaceOnUse" x="165.849" y="117.299" width="73.4964" height="72.103" fill="black">
<rect fill="white" x="165.849" y="117.299" width="73.4964" height="72.103"/>
<path fill-rule="evenodd" clip-rule="evenodd" d="M200.067 136.658C208.139 133.226 212.356 133.529 216.638 139.622C217.435 140.756 218.179 141.922 218.854 143.119C219.002 143.38 219.146 143.644 219.287 143.908C223.654 152.114 224.689 161.711 217.429 172.198C215.537 172.884 213.636 173.362 211.748 173.65L211.749 173.648C200.411 175.379 189.553 170.279 184.086 162.501C178.64 154.753 182.027 148.934 189.92 142.629C187.008 141.514 185.111 139.464 185.634 137.928C186.088 136.596 188.22 136.068 190.727 136.534C190.673 136.185 190.63 135.827 190.6 135.463C190.228 130.901 192.039 127.03 194.646 126.817C197.253 126.605 199.668 130.13 200.04 134.692C200.095 135.366 200.103 136.024 200.067 136.658Z"/>
</mask>
<path fill-rule="evenodd" clip-rule="evenodd" d="M200.067 136.658C208.139 133.226 212.356 133.529 216.638 139.622C217.435 140.756 218.179 141.922 218.854 143.119C219.002 143.38 219.146 143.644 219.287 143.908C223.654 152.114 224.689 161.711 217.429 172.198C215.537 172.884 213.636 173.362 211.748 173.65L211.749 173.648C200.411 175.379 189.553 170.279 184.086 162.501C178.64 154.753 182.027 148.934 189.92 142.629C187.008 141.514 185.111 139.464 185.634 137.928C186.088 136.596 188.22 136.068 190.727 136.534C190.673 136.185 190.63 135.827 190.6 135.463C190.228 130.901 192.039 127.03 194.646 126.817C197.253 126.605 199.668 130.13 200.04 134.692C200.095 135.366 200.103 136.024 200.067 136.658Z" fill="white" fill-opacity="0.75"/>
<path d="M216.638 139.622L221.152 136.449L221.152 136.449L216.638 139.622ZM200.067 136.658L194.558 136.347L194.058 145.208L202.226 141.736L200.067 136.658ZM218.854 143.119L214.048 145.829L214.048 145.829L218.854 143.119ZM219.287 143.908L214.416 146.501L214.416 146.501L219.287 143.908ZM217.429 172.198L219.309 177.385L220.964 176.786L221.965 175.339L217.429 172.198ZM211.748 173.65L207.141 170.614L200.316 180.975L212.581 179.104L211.748 173.65ZM211.749 173.648L216.357 176.683L223.183 166.322L210.917 168.194L211.749 173.648ZM184.086 162.501L179.572 165.674L179.572 165.674L184.086 162.501ZM189.92 142.629L193.363 146.94L200.894 140.926L191.894 137.477L189.92 142.629ZM185.634 137.928L190.857 139.706L190.857 139.706L185.634 137.928ZM190.727 136.534L189.719 141.959L197.386 143.384L196.178 135.68L190.727 136.534ZM190.6 135.463L185.101 135.911L185.101 135.911L190.6 135.463ZM194.646 126.817L195.095 132.316L195.095 132.316L194.646 126.817ZM200.04 134.692L205.539 134.243L205.539 134.243L200.04 134.692ZM221.152 136.449C218.553 132.752 215.278 129.848 210.63 129.118C206.398 128.453 202.087 129.804 197.908 131.581L202.226 141.736C206.118 140.081 207.952 139.867 208.917 140.019C209.466 140.105 210.441 140.4 212.124 142.794L221.152 136.449ZM223.66 140.408C222.886 139.037 222.043 137.717 221.152 136.449L212.124 142.794C212.827 143.795 213.472 144.807 214.048 145.829L223.66 140.408ZM224.157 141.316C223.995 141.011 223.829 140.708 223.66 140.408L214.048 145.829C214.174 146.052 214.297 146.276 214.416 146.501L224.157 141.316ZM221.965 175.339C226.14 169.309 228.105 163.253 228.234 157.318C228.362 151.425 226.673 146.043 224.157 141.316L214.416 146.501C216.268 149.98 217.28 153.499 217.202 157.078C217.125 160.614 215.978 164.601 212.892 169.058L221.965 175.339ZM212.581 179.104C214.822 178.762 217.074 178.196 219.309 177.385L215.548 167.011C214 167.573 212.45 167.961 210.916 168.195L212.581 179.104ZM207.142 170.613L207.141 170.614L216.356 176.685L216.357 176.683L207.142 170.613ZM179.572 165.674C186.264 175.195 199.209 181.144 212.582 179.102L210.917 168.194C201.613 169.614 192.841 165.362 188.6 159.328L179.572 165.674ZM186.476 138.318C182.369 141.599 178.504 145.433 176.808 150.16C174.912 155.441 176.073 160.696 179.572 165.674L188.6 159.328C186.653 156.558 186.784 155.029 187.194 153.888C187.802 152.192 189.577 149.965 193.363 146.94L186.476 138.318ZM180.411 136.15C179.179 139.771 181.129 142.753 182.42 144.163C183.894 145.772 185.879 146.99 187.946 147.782L191.894 137.477C191.049 137.154 190.63 136.789 190.558 136.71C190.526 136.676 190.718 136.866 190.878 137.322C191.054 137.822 191.201 138.698 190.857 139.706L180.411 136.15ZM191.736 131.11C189.91 130.77 187.889 130.72 185.992 131.225C184.213 131.698 181.482 133.006 180.411 136.15L190.857 139.706C190.563 140.57 190.036 141.151 189.602 141.48C189.2 141.785 188.888 141.873 188.829 141.889C188.739 141.913 189.037 141.832 189.719 141.959L191.736 131.11ZM185.101 135.911C185.142 136.411 185.201 136.904 185.277 137.389L196.178 135.68C196.145 135.465 196.118 135.243 196.099 135.014L185.101 135.911ZM194.197 121.318C190.069 121.655 187.641 124.751 186.509 127.17C185.3 129.752 184.851 132.851 185.101 135.911L196.099 135.014C195.977 133.513 196.247 132.394 196.503 131.848C196.627 131.583 196.669 131.616 196.494 131.769C196.288 131.95 195.809 132.258 195.095 132.316L194.197 121.318ZM205.539 134.243C205.29 131.183 204.344 128.198 202.733 125.846C201.223 123.642 198.326 120.981 194.197 121.318L195.095 132.316C194.381 132.375 193.858 132.148 193.625 132.003C193.428 131.881 193.464 131.841 193.629 132.082C193.97 132.58 194.419 133.64 194.541 135.141L205.539 134.243ZM205.575 136.969C205.626 136.079 205.615 135.167 205.539 134.243L194.541 135.141C194.576 135.565 194.579 135.969 194.558 136.347L205.575 136.969Z" fill="white" mask="url(#path-1-outside-1_208_13868)"/>
<mask id="path-3-outside-2_208_13868" maskUnits="userSpaceOnUse" x="-7.31215" y="-1.68688" width="361.689" height="182.507" fill="black">
<rect fill="white" x="-7.31215" y="-1.68688" width="361.689" height="182.507"/>
<path d="M54.184 159.732C48.8665 161.098 43.8796 161.46 39.2233 160.816C34.567 160.172 30.5264 158.487 27.1016 155.76C23.7458 153.015 21.3865 149.277 20.0238 144.548L38.8768 139.703C39.8452 142.325 41.3099 144.157 43.271 145.199C45.2143 146.172 47.4636 146.33 50.0187 145.673C52.6429 144.999 54.5638 143.879 55.7814 142.315C56.9812 140.681 57.306 138.794 56.7558 136.653C56.2944 134.858 55.2912 133.533 53.7465 132.678C52.2707 131.806 50.5375 131.221 48.5467 130.923C46.625 130.607 43.9171 130.383 40.4228 130.25C35.3541 130.007 31.1487 129.541 27.8064 128.854C24.4642 128.167 21.3588 126.683 18.4903 124.402C15.6218 122.121 13.6019 118.701 12.4305 114.143C10.6911 107.376 11.7849 101.463 15.7119 96.4042C19.6212 91.2768 25.5121 87.7014 33.3848 85.6781C41.3956 83.6193 48.3495 83.8934 54.2466 86.5005C60.1259 89.0386 64.1168 93.6817 66.2192 100.43L47.0554 105.355C46.3139 103.042 44.9803 101.434 43.0547 100.53C41.1114 99.5574 38.8967 99.3904 36.4106 100.029C34.2698 100.58 32.6942 101.61 31.6838 103.121C30.6556 104.564 30.4167 106.355 30.9669 108.496C31.5703 110.844 33.1456 112.39 35.6927 113.134C38.2398 113.878 42.0566 114.407 47.143 114.719C52.2472 115.1 56.4359 115.644 59.7091 116.348C63.0513 117.035 66.1478 118.485 68.9986 120.697C71.8493 122.909 73.8338 126.191 74.9519 130.541C76.0169 134.685 75.9137 138.724 74.6426 142.658C73.4405 146.574 71.0941 150.048 67.6034 153.08C64.1128 156.113 59.6396 158.33 54.184 159.732ZM159.535 70.2628L158.749 132.085L139.171 137.117L120.418 101.961L120.629 141.882L101.154 146.887L70.5535 93.1317L88.267 88.5792L107.073 127.808L106.188 83.9735L124.937 79.1548L145.347 117.75L142.858 74.549L159.535 70.2628ZM227.966 82.4918C228.392 84.1492 228.732 85.9023 228.986 87.7511L188.898 98.0541C190.097 101.574 191.946 104.044 194.446 105.463C196.997 106.795 199.757 107.079 202.727 106.316C207.146 105.18 209.74 102.526 210.508 98.3528L229.361 93.5074C229.371 97.5541 228.488 101.425 226.714 105.12C225.009 108.798 222.479 111.988 219.125 114.691C215.77 117.393 211.745 119.348 207.049 120.555C201.386 122.01 196.034 122.097 190.993 120.816C185.952 119.535 181.612 116.97 177.972 113.12C174.332 109.27 171.74 104.341 170.196 98.3328C168.652 92.3247 168.512 86.7657 169.775 81.6557C171.108 76.5279 173.673 72.1876 177.472 68.6346C181.27 65.0817 186.035 62.5686 191.767 61.0955C197.361 59.6579 202.635 59.554 207.589 60.7838C212.543 62.0137 216.788 64.4933 220.323 68.2228C223.927 71.9346 226.475 76.6909 227.966 82.4918ZM208.64 82.4893C207.859 79.4508 206.202 77.2999 203.669 76.0369C201.136 74.7738 198.315 74.5416 195.207 75.3403C192.238 76.1035 189.939 77.6145 188.311 79.8735C186.752 82.1146 186.139 84.8857 186.472 88.1866L208.64 82.4893ZM291.798 66.0866C292.224 67.744 292.564 69.4971 292.818 71.3458L252.73 81.6488C253.929 85.1689 255.778 87.6384 258.278 89.0573C260.829 90.3894 263.589 90.6739 266.559 89.9107C270.978 88.7748 273.572 86.1204 274.34 81.9476L293.193 77.1022C293.203 81.1489 292.32 85.0199 290.546 88.7152C288.841 92.3927 286.311 95.5828 282.956 98.2854C279.602 100.988 275.577 102.943 270.881 104.15C265.218 105.605 259.866 105.692 254.825 104.411C249.784 103.13 245.444 100.564 241.804 96.7145C238.164 92.8647 235.572 87.9357 234.028 81.9276C232.484 75.9195 232.344 70.3605 233.607 65.2505C234.94 60.1227 237.505 55.7823 241.304 52.2294C245.102 48.6764 249.867 46.1634 255.599 44.6903C261.193 43.2526 266.467 43.1487 271.421 44.3786C276.375 45.6084 280.62 48.0881 284.155 51.8176C287.759 55.5293 290.307 60.2856 291.798 66.0866ZM272.472 66.0841C271.691 63.0455 270.034 60.8947 267.501 59.6316C264.967 58.3686 262.147 58.1364 259.039 58.9351C256.07 59.6982 253.771 61.2093 252.143 63.4682C250.584 65.7094 249.971 68.4804 250.304 71.7814L272.472 66.0841ZM337.165 70.2183L341.026 85.2385L332.014 87.5547C325.591 89.2053 320.185 88.9383 315.795 86.7535C311.388 84.4998 308.27 79.8164 306.442 72.7033L300.532 49.7068L293.488 51.5172L289.707 36.8077L296.751 34.9974L293.131 20.9094L310.844 16.3569L314.465 30.4449L326.067 27.4631L329.847 42.1726L318.245 45.1543L324.209 68.358C324.652 70.0845 325.386 71.2211 326.41 71.7677C327.434 72.3144 328.913 72.3392 330.847 71.8423L337.165 70.2183Z"/>
</mask>
<path d="M54.184 159.732C48.8665 161.098 43.8796 161.46 39.2233 160.816C34.567 160.172 30.5264 158.487 27.1016 155.76C23.7458 153.015 21.3865 149.277 20.0238 144.548L38.8768 139.703C39.8452 142.325 41.3099 144.157 43.271 145.199C45.2143 146.172 47.4636 146.33 50.0187 145.673C52.6429 144.999 54.5638 143.879 55.7814 142.315C56.9812 140.681 57.306 138.794 56.7558 136.653C56.2944 134.858 55.2912 133.533 53.7465 132.678C52.2707 131.806 50.5375 131.221 48.5467 130.923C46.625 130.607 43.9171 130.383 40.4228 130.25C35.3541 130.007 31.1487 129.541 27.8064 128.854C24.4642 128.167 21.3588 126.683 18.4903 124.402C15.6218 122.121 13.6019 118.701 12.4305 114.143C10.6911 107.376 11.7849 101.463 15.7119 96.4042C19.6212 91.2768 25.5121 87.7014 33.3848 85.6781C41.3956 83.6193 48.3495 83.8934 54.2466 86.5005C60.1259 89.0386 64.1168 93.6817 66.2192 100.43L47.0554 105.355C46.3139 103.042 44.9803 101.434 43.0547 100.53C41.1114 99.5574 38.8967 99.3904 36.4106 100.029C34.2698 100.58 32.6942 101.61 31.6838 103.121C30.6556 104.564 30.4167 106.355 30.9669 108.496C31.5703 110.844 33.1456 112.39 35.6927 113.134C38.2398 113.878 42.0566 114.407 47.143 114.719C52.2472 115.1 56.4359 115.644 59.7091 116.348C63.0513 117.035 66.1478 118.485 68.9986 120.697C71.8493 122.909 73.8338 126.191 74.9519 130.541C76.0169 134.685 75.9137 138.724 74.6426 142.658C73.4405 146.574 71.0941 150.048 67.6034 153.08C64.1128 156.113 59.6396 158.33 54.184 159.732ZM159.535 70.2628L158.749 132.085L139.171 137.117L120.418 101.961L120.629 141.882L101.154 146.887L70.5535 93.1317L88.267 88.5792L107.073 127.808L106.188 83.9735L124.937 79.1548L145.347 117.75L142.858 74.549L159.535 70.2628ZM227.966 82.4918C228.392 84.1492 228.732 85.9023 228.986 87.7511L188.898 98.0541C190.097 101.574 191.946 104.044 194.446 105.463C196.997 106.795 199.757 107.079 202.727 106.316C207.146 105.18 209.74 102.526 210.508 98.3528L229.361 93.5074C229.371 97.5541 228.488 101.425 226.714 105.12C225.009 108.798 222.479 111.988 219.125 114.691C215.77 117.393 211.745 119.348 207.049 120.555C201.386 122.01 196.034 122.097 190.993 120.816C185.952 119.535 181.612 116.97 177.972 113.12C174.332 109.27 171.74 104.341 170.196 98.3328C168.652 92.3247 168.512 86.7657 169.775 81.6557C171.108 76.5279 173.673 72.1876 177.472 68.6346C181.27 65.0817 186.035 62.5686 191.767 61.0955C197.361 59.6579 202.635 59.554 207.589 60.7838C212.543 62.0137 216.788 64.4933 220.323 68.2228C223.927 71.9346 226.475 76.6909 227.966 82.4918ZM208.64 82.4893C207.859 79.4508 206.202 77.2999 203.669 76.0369C201.136 74.7738 198.315 74.5416 195.207 75.3403C192.238 76.1035 189.939 77.6145 188.311 79.8735C186.752 82.1146 186.139 84.8857 186.472 88.1866L208.64 82.4893ZM291.798 66.0866C292.224 67.744 292.564 69.4971 292.818 71.3458L252.73 81.6488C253.929 85.1689 255.778 87.6384 258.278 89.0573C260.829 90.3894 263.589 90.6739 266.559 89.9107C270.978 88.7748 273.572 86.1204 274.34 81.9476L293.193 77.1022C293.203 81.1489 292.32 85.0199 290.546 88.7152C288.841 92.3927 286.311 95.5828 282.956 98.2854C279.602 100.988 275.577 102.943 270.881 104.15C265.218 105.605 259.866 105.692 254.825 104.411C249.784 103.13 245.444 100.564 241.804 96.7145C238.164 92.8647 235.572 87.9357 234.028 81.9276C232.484 75.9195 232.344 70.3605 233.607 65.2505C234.94 60.1227 237.505 55.7823 241.304 52.2294C245.102 48.6764 249.867 46.1634 255.599 44.6903C261.193 43.2526 266.467 43.1487 271.421 44.3786C276.375 45.6084 280.62 48.0881 284.155 51.8176C287.759 55.5293 290.307 60.2856 291.798 66.0866ZM272.472 66.0841C271.691 63.0455 270.034 60.8947 267.501 59.6316C264.967 58.3686 262.147 58.1364 259.039 58.9351C256.07 59.6982 253.771 61.2093 252.143 63.4682C250.584 65.7094 249.971 68.4804 250.304 71.7814L272.472 66.0841ZM337.165 70.2183L341.026 85.2385L332.014 87.5547C325.591 89.2053 320.185 88.9383 315.795 86.7535C311.388 84.4998 308.27 79.8164 306.442 72.7033L300.532 49.7068L293.488 51.5172L289.707 36.8077L296.751 34.9974L293.131 20.9094L310.844 16.3569L314.465 30.4449L326.067 27.4631L329.847 42.1726L318.245 45.1543L324.209 68.358C324.652 70.0845 325.386 71.2211 326.41 71.7677C327.434 72.3144 328.913 72.3392 330.847 71.8423L337.165 70.2183Z" fill="#FF8888"/>
<path d="M39.2233 160.816L37.7584 171.411L37.7584 171.411L39.2233 160.816ZM27.1016 155.76L20.3299 164.038L20.3842 164.083L20.4391 164.126L27.1016 155.76ZM20.0238 144.548L17.3615 134.189L6.6981 136.93L9.74646 147.509L20.0238 144.548ZM38.8768 139.703L48.9098 135.997L45.5652 126.941L36.2145 129.344L38.8768 139.703ZM43.271 145.199L38.2524 154.644L38.3669 154.705L38.4827 154.763L43.271 145.199ZM55.7814 142.315L64.2219 148.884L64.3133 148.766L64.4015 148.646L55.7814 142.315ZM53.7465 132.678L48.3042 141.886L48.4357 141.963L48.5694 142.037L53.7465 132.678ZM48.5467 130.923L46.8117 141.476L46.887 141.489L46.9624 141.5L48.5467 130.923ZM40.4228 130.25L39.91 140.933L39.9636 140.936L40.0171 140.938L40.4228 130.25ZM27.8064 128.854L25.6529 139.331L27.8064 128.854ZM18.4903 124.402L25.1475 116.031L25.1475 116.031L18.4903 124.402ZM15.7119 96.4042L24.1603 102.963L24.189 102.926L24.2173 102.889L15.7119 96.4042ZM54.2466 86.5005L49.9219 96.2826L49.9646 96.3015L50.0076 96.3201L54.2466 86.5005ZM66.2192 100.43L68.8815 110.789L79.7766 107.988L76.4305 97.2484L66.2192 100.43ZM47.0554 105.355L36.8709 108.621L39.9504 118.224L49.7177 115.714L47.0554 105.355ZM43.0547 100.53L38.2665 110.094L38.3875 110.155L38.5099 110.212L43.0547 100.53ZM31.6838 103.121L40.3926 109.33L40.4858 109.199L40.575 109.066L31.6838 103.121ZM35.6927 113.134L38.6921 102.868L38.6921 102.868L35.6927 113.134ZM47.143 114.719L47.9401 104.053L47.8694 104.048L47.7987 104.044L47.143 114.719ZM59.7091 116.348L57.4577 126.804L57.5066 126.815L57.5555 126.825L59.7091 116.348ZM68.9986 120.697L62.4417 129.147L62.4417 129.147L68.9986 120.697ZM74.6426 142.658L64.4653 139.369L64.4411 139.444L64.418 139.519L74.6426 142.658ZM67.6034 153.08L60.5896 145.006L60.5896 145.006L67.6034 153.08ZM51.5217 149.373C47.3283 150.451 43.7553 150.645 40.6882 150.221L37.7584 171.411C44.0039 172.274 50.4046 171.746 56.8463 170.091L51.5217 149.373ZM40.6882 150.221C37.7877 149.82 35.5769 148.836 33.764 147.393L20.4391 164.126C25.4759 168.137 31.3463 170.524 37.7584 171.411L40.6882 150.221ZM33.8733 147.481C32.4201 146.292 31.1467 144.521 30.3011 141.587L9.74646 147.509C11.6264 154.033 15.0715 159.737 20.3299 164.038L33.8733 147.481ZM22.686 154.907L41.539 150.061L36.2145 129.344L17.3615 134.189L22.686 154.907ZM28.8437 143.408C30.4781 147.833 33.4172 152.075 38.2524 154.644L48.2895 135.754C48.4644 135.847 48.6266 135.957 48.7675 136.076C48.9073 136.193 49.0014 136.297 49.0555 136.365C49.1605 136.496 49.0711 136.434 48.9098 135.997L28.8437 143.408ZM38.4827 154.763C43.2004 157.125 48.1859 157.187 52.681 156.032L47.3564 135.315C47.0074 135.404 46.9673 135.364 47.1655 135.378C47.2648 135.385 47.4047 135.405 47.5717 135.45C47.7396 135.495 47.9054 135.558 48.0592 135.635L38.4827 154.763ZM52.681 156.032C56.767 154.982 61.0996 152.896 64.2219 148.884L47.3409 135.746C47.4971 135.545 47.6524 135.39 47.7851 135.276C47.916 135.165 48.0102 135.106 48.0423 135.087C48.0956 135.056 47.914 135.171 47.3564 135.315L52.681 156.032ZM64.4015 148.646C67.6879 144.172 68.3809 138.918 67.1146 133.991L46.397 139.316C46.3539 139.148 46.2541 138.618 46.3844 137.86C46.5197 137.074 46.8384 136.423 47.1613 135.984L64.4015 148.646ZM67.1146 133.991C65.9619 129.506 63.1847 125.677 58.9235 123.319L48.5694 142.037C48.1173 141.787 47.5856 141.371 47.13 140.769C46.682 140.177 46.4785 139.633 46.397 139.316L67.1146 133.991ZM59.1887 123.471C56.3396 121.787 53.2505 120.813 50.1311 120.345L46.9624 141.5C47.8245 141.629 48.2019 141.825 48.3042 141.886L59.1887 123.471ZM50.2818 120.369C47.7049 119.945 44.4778 119.701 40.8286 119.562L40.0171 140.938C43.3563 141.064 45.5452 141.268 46.8117 141.476L50.2818 120.369ZM40.9357 119.567C36.1802 119.338 32.5696 118.914 29.96 118.378L25.6529 139.331C29.7278 140.168 34.5281 140.675 39.91 140.933L40.9357 119.567ZM29.96 118.378C28.3839 118.054 26.8007 117.346 25.1475 116.031L11.8332 132.773C15.917 136.021 20.5445 138.281 25.6529 139.331L29.96 118.378ZM25.1475 116.031C24.5616 115.565 23.5468 114.429 22.7893 111.481L2.07169 116.806C3.65689 122.974 6.68204 128.677 11.8332 132.773L25.1475 116.031ZM22.7893 111.481C21.7869 107.581 22.4654 105.146 24.1603 102.963L7.26356 89.8455C1.10448 97.779 -0.404709 107.17 2.07169 116.806L22.7893 111.481ZM24.2173 102.889C26.3247 100.125 29.884 97.6208 36.0471 96.0369L30.7225 75.3193C21.1402 77.782 12.9176 82.4288 7.20655 89.9196L24.2173 102.889ZM36.0471 96.0369C42.3968 94.405 46.7789 94.8931 49.9219 96.2826L58.5713 76.7185C49.9201 72.8937 40.3944 72.8336 30.7225 75.3193L36.0471 96.0369ZM50.0076 96.3201C52.7053 97.4847 54.7249 99.4931 56.0079 103.611L76.4305 97.2484C73.5087 87.8703 67.5465 80.5926 58.4856 76.681L50.0076 96.3201ZM63.5569 90.071L44.3932 94.9962L49.7177 115.714L68.8815 110.789L63.5569 90.071ZM57.24 102.089C55.7325 97.388 52.6066 93.199 47.5995 90.8486L38.5099 110.212C38.075 110.008 37.6224 109.671 37.266 109.242C36.9313 108.838 36.8504 108.557 36.8709 108.621L57.24 102.089ZM47.843 90.9667C43.1882 88.6362 38.2558 88.5121 33.7483 89.6706L39.0729 110.388C39.3576 110.315 39.3546 110.357 39.132 110.341C39.0221 110.332 38.8802 110.311 38.7185 110.267C38.5562 110.222 38.4028 110.162 38.2665 110.094L47.843 90.9667ZM33.7483 89.6706C29.6357 90.7275 25.5658 93.029 22.7926 97.1769L40.575 109.066C40.2519 109.549 39.8505 109.922 39.4784 110.165C39.1325 110.392 38.944 110.421 39.0729 110.388L33.7483 89.6706ZM22.9749 96.9128C19.6731 101.544 19.4843 106.786 20.6081 111.158L41.3257 105.834C41.3185 105.806 41.4327 106.228 41.335 106.961C41.2288 107.757 40.9122 108.601 40.3926 109.33L22.9749 96.9128ZM20.6081 111.158C22.2537 117.561 26.937 121.719 32.6933 123.4L38.6921 102.868C38.7699 102.891 39.392 103.096 40.0927 103.783C40.8303 104.507 41.1916 105.312 41.3257 105.834L20.6081 111.158ZM32.6933 123.4C36.4131 124.487 41.1913 125.069 46.4874 125.394L47.7987 104.044C42.9218 103.744 40.0665 103.269 38.6921 102.868L32.6933 123.4ZM46.346 125.385C51.1878 125.747 54.844 126.241 57.4577 126.804L61.9605 105.893C58.0278 105.046 53.3067 104.454 47.9401 104.053L46.346 125.385ZM57.5555 126.825C59.2023 127.163 60.808 127.879 62.4417 129.147L75.5555 112.247C71.4877 109.091 66.9004 106.908 61.8626 105.872L57.5555 126.825ZM62.4417 129.147C62.9985 129.579 63.9179 130.576 64.5932 133.204L85.3107 127.879C83.7497 121.805 80.7002 116.24 75.5555 112.247L62.4417 129.147ZM64.5932 133.204C65.1726 135.458 65.0915 137.431 64.4653 139.369L84.82 145.946C86.736 140.016 86.8611 133.912 85.3107 127.879L64.5932 133.204ZM64.418 139.519C63.8763 141.284 62.7689 143.113 60.5896 145.006L74.6172 161.155C79.4194 156.984 83.0048 151.864 84.8672 145.796L64.418 139.519ZM60.5896 145.006C58.5967 146.737 55.7149 148.295 51.5217 149.373L56.8463 170.091C63.5643 168.364 69.6288 165.488 74.6173 161.155L60.5896 145.006ZM159.535 70.2628L170.23 70.3988L170.408 56.4255L156.873 59.904L159.535 70.2628ZM158.749 132.085L161.411 142.444L169.34 140.406L169.444 132.221L158.749 132.085ZM139.171 137.117L129.734 142.15L133.691 149.568L141.833 147.475L139.171 137.117ZM120.418 101.961L129.855 96.9267L109.723 102.017L120.418 101.961ZM120.629 141.882L123.291 152.241L131.368 150.165L131.324 141.825L120.629 141.882ZM101.154 146.887L91.8595 152.178L95.9022 159.28L103.817 157.246L101.154 146.887ZM70.5535 93.1317L67.8912 82.7729L54.3332 86.2574L61.2586 98.4229L70.5535 93.1317ZM88.267 88.5792L97.9115 83.9557L94.1136 76.0336L85.6047 78.2204L88.267 88.5792ZM107.073 127.808L97.4285 132.431L117.766 127.592L107.073 127.808ZM106.188 83.9735L103.525 73.6147L95.3235 75.7227L95.4945 84.1894L106.188 83.9735ZM124.937 79.1548L134.392 74.1548L130.447 66.6956L122.275 68.796L124.937 79.1548ZM145.347 117.75L135.892 122.75L156.025 117.135L145.347 117.75ZM142.858 74.549L140.196 64.1902L131.674 66.3803L132.18 75.1643L142.858 74.549ZM148.841 70.1267L148.055 131.949L169.444 132.221L170.23 70.3988L148.841 70.1267ZM156.087 121.726L136.509 126.758L141.833 147.475L161.411 142.444L156.087 121.726ZM148.608 132.083L129.855 96.9267L110.981 106.994L129.734 142.15L148.608 132.083ZM109.723 102.017L109.934 141.939L131.324 141.825L131.113 101.904L109.723 102.017ZM117.967 131.523L98.4921 136.528L103.817 157.246L123.291 152.241L117.967 131.523ZM110.449 141.596L79.8484 87.8405L61.2586 98.4229L91.8595 152.178L110.449 141.596ZM73.2158 103.49L90.9293 98.938L85.6047 78.2204L67.8912 82.7729L73.2158 103.49ZM78.6226 93.2027L97.4285 132.431L116.717 123.184L97.9115 83.9557L78.6226 93.2027ZM117.766 127.592L116.881 83.7575L95.4945 84.1894L96.3797 128.024L117.766 127.592ZM108.85 94.3323L127.599 89.5135L122.275 68.796L103.525 73.6147L108.85 94.3323ZM115.482 84.1547L135.892 122.75L154.802 112.75L134.392 74.1548L115.482 84.1547ZM156.025 117.135L153.536 73.9337L132.18 75.1643L134.669 118.365L156.025 117.135ZM145.52 84.9078L162.198 80.6215L156.873 59.904L140.196 64.1902L145.52 84.9078ZM228.986 87.7511L231.649 98.1098L240.881 95.7371L239.582 86.2937L228.986 87.7511ZM188.898 98.0541L186.235 87.6953L175.049 90.5702L178.774 101.503L188.898 98.0541ZM194.446 105.463L189.166 114.764L189.329 114.856L189.495 114.943L194.446 105.463ZM210.508 98.3528L207.846 87.994L201.227 89.6952L199.99 96.4168L210.508 98.3528ZM229.361 93.5074L240.057 93.4827L240.025 79.7238L226.699 83.1487L229.361 93.5074ZM226.714 105.12L217.072 100.491L217.041 100.556L217.011 100.621L226.714 105.12ZM219.125 114.691L225.835 123.019L225.835 123.019L219.125 114.691ZM190.993 120.816L188.359 131.182L188.359 131.182L190.993 120.816ZM177.972 113.12L185.744 105.772L185.744 105.772L177.972 113.12ZM169.775 81.6557L159.424 78.9658L159.408 79.0271L159.392 79.0887L169.775 81.6557ZM177.472 68.6346L184.778 76.4457L184.778 76.4457L177.472 68.6346ZM207.589 60.7838L205.012 71.1642L205.012 71.1642L207.589 60.7838ZM220.323 68.2228L212.561 75.5807L212.605 75.6275L212.65 75.6737L220.323 68.2228ZM208.64 82.4893L211.302 92.8481L221.661 90.1858L218.999 79.8271L208.64 82.4893ZM203.669 76.0369L208.441 66.4652L208.441 66.4652L203.669 76.0369ZM188.311 79.8735L179.634 73.62L179.582 73.6925L179.531 73.7659L188.311 79.8735ZM186.472 88.1866L175.831 89.2602L177.08 101.643L189.134 98.5454L186.472 88.1866ZM217.607 85.1541C217.922 86.381 218.187 87.7295 218.391 89.2084L239.582 86.2937C239.277 84.0751 238.861 81.9174 238.325 79.8295L217.607 85.1541ZM226.324 77.3923L186.235 87.6953L191.56 108.413L231.649 98.1098L226.324 77.3923ZM178.774 101.503C180.563 106.754 183.786 111.71 189.166 114.764L199.726 96.1612C199.849 96.2311 199.852 96.2784 199.745 96.135C199.616 95.9621 199.331 95.5129 199.022 94.6052L178.774 101.503ZM189.495 114.943C194.55 117.583 200.043 118.049 205.389 116.675L200.064 95.9572C199.865 96.0084 199.729 96.0269 199.648 96.0336C199.57 96.0402 199.532 96.0366 199.526 96.0359C199.52 96.0353 199.519 96.0351 199.513 96.0333C199.506 96.0311 199.468 96.0194 199.397 95.982L189.495 114.943ZM205.389 116.675C209.06 115.731 212.69 113.964 215.636 110.948C218.624 107.891 220.315 104.157 221.027 100.289L199.99 96.4168C199.956 96.602 199.934 96.5969 199.995 96.4728C200.025 96.4124 200.069 96.3344 200.131 96.2469C200.192 96.1592 200.262 96.0748 200.337 95.9981C200.412 95.9216 200.481 95.8638 200.535 95.8236C200.588 95.7838 200.618 95.7679 200.614 95.77C200.604 95.7753 200.445 95.8593 200.064 95.9572L205.389 116.675ZM213.171 108.712L232.024 103.866L226.699 83.1487L207.846 87.994L213.171 108.712ZM218.666 93.5322C218.672 95.9465 218.159 98.2285 217.072 100.491L236.356 109.75C238.818 104.622 240.07 99.1618 240.057 93.4827L218.666 93.5322ZM217.011 100.621C216.039 102.717 214.573 104.623 212.414 106.362L225.835 123.019C230.385 119.353 233.978 114.879 236.417 109.619L217.011 100.621ZM212.414 106.362C210.39 107.993 207.79 109.321 204.387 110.196L209.711 130.914C215.7 129.375 221.15 126.793 225.835 123.019L212.414 106.362ZM204.387 110.196C200.242 111.261 196.724 111.237 193.628 110.45L188.359 131.182C195.345 132.958 202.53 132.759 209.711 130.914L204.387 110.196ZM193.628 110.45C190.589 109.678 188.019 108.179 185.744 105.772L170.2 120.468C175.205 125.761 181.316 129.392 188.359 131.182L193.628 110.45ZM185.744 105.772C183.547 103.449 181.725 100.224 180.555 95.6706L159.837 100.995C161.755 108.458 165.117 115.091 170.2 120.468L185.744 105.772ZM180.555 95.6706C179.373 91.0705 179.389 87.3317 180.158 84.2227L159.392 79.0887C157.634 86.1997 157.931 93.579 159.837 100.995L180.555 95.6706ZM180.127 84.3456C180.96 81.1403 182.488 78.5876 184.778 76.4457L170.166 60.8235C164.858 65.7876 161.256 71.9156 159.424 78.9658L180.127 84.3456ZM184.778 76.4457C187.095 74.2783 190.192 72.5433 194.43 71.4543L189.105 50.7367C181.879 52.594 175.445 55.8851 170.166 60.8235L184.778 76.4457ZM194.43 71.4543C198.535 70.3993 201.995 70.4151 205.012 71.1642L210.166 50.4035C203.275 48.6929 196.188 48.9165 189.105 50.7367L194.43 71.4543ZM205.012 71.1642C207.971 71.8986 210.42 73.3224 212.561 75.5807L228.085 60.8649C223.156 55.6642 217.116 52.1287 210.166 50.4035L205.012 71.1642ZM212.65 75.6737C214.766 77.8523 216.506 80.8685 217.607 85.1541L238.325 79.8295C236.444 72.5133 233.089 66.0168 227.996 60.7719L212.65 75.6737ZM218.999 79.8271C217.54 74.1496 214.071 69.2723 208.441 66.4652L198.896 85.6085C198.857 85.5888 198.765 85.5372 198.649 85.4425C198.531 85.3467 198.425 85.2363 198.339 85.1248C198.157 84.8883 198.196 84.8189 198.281 85.1516L218.999 79.8271ZM208.441 66.4652C203.297 63.9004 197.79 63.6335 192.545 64.9815L197.87 85.6991C198.421 85.5574 198.702 85.5687 198.776 85.5748C198.83 85.5793 198.847 85.5838 198.896 85.6085L208.441 66.4652ZM192.545 64.9815C187.414 66.3001 182.876 69.122 179.634 73.62L196.988 86.1269C197.049 86.0423 197.085 86.0137 197.131 85.9834C197.189 85.9452 197.397 85.8205 197.87 85.6991L192.545 64.9815ZM179.531 73.7659C176.218 78.5284 175.299 83.9896 175.831 89.2602L197.114 87.113C197.042 86.4071 197.102 86.0486 197.125 85.9427C197.142 85.8644 197.14 85.9111 197.091 85.981L179.531 73.7659ZM189.134 98.5454L211.302 92.8481L205.978 72.1306L183.81 77.8278L189.134 98.5454ZM292.818 71.3458L295.48 81.7046L304.713 79.3318L303.414 69.8884L292.818 71.3458ZM252.73 81.6488L250.067 71.2901L238.881 74.165L242.606 85.0978L252.73 81.6488ZM258.278 89.0573L252.998 98.3586L253.161 98.4512L253.327 98.5379L258.278 89.0573ZM274.34 81.9476L271.678 71.5888L265.059 73.29L263.822 80.0115L274.34 81.9476ZM293.193 77.1022L303.889 77.0775L303.857 63.3186L290.531 66.7434L293.193 77.1022ZM290.546 88.7152L280.904 84.0859L280.873 84.1508L280.843 84.2161L290.546 88.7152ZM282.956 98.2854L289.667 106.614L289.667 106.614L282.956 98.2854ZM254.825 104.411L252.191 114.777L252.191 114.777L254.825 104.411ZM241.804 96.7145L249.576 89.3668L249.576 89.3668L241.804 96.7145ZM233.607 65.2505L223.256 62.5606L223.24 62.6219L223.224 62.6834L233.607 65.2505ZM241.304 52.2294L248.61 60.0405L248.61 60.0405L241.304 52.2294ZM271.421 44.3786L268.844 54.7589L268.844 54.7589L271.421 44.3786ZM284.155 51.8176L276.393 59.1755L276.437 59.2222L276.482 59.2685L284.155 51.8176ZM272.472 66.0841L275.134 76.4429L285.493 73.7806L282.831 63.4218L272.472 66.0841ZM267.501 59.6316L272.273 50.06L272.273 50.06L267.501 59.6316ZM252.143 63.4682L243.466 57.2147L243.414 57.2873L243.363 57.3607L252.143 63.4682ZM250.304 71.7814L239.663 72.8549L240.912 85.2382L252.966 82.1402L250.304 71.7814ZM281.439 68.7488C281.754 69.9758 282.019 71.3243 282.223 72.8032L303.414 69.8884C303.109 67.6698 302.693 65.5122 302.157 63.4243L281.439 68.7488ZM290.156 60.987L250.067 71.2901L255.392 92.0076L295.48 81.7046L290.156 60.987ZM242.606 85.0978C244.395 90.349 247.618 95.3049 252.998 98.3586L263.558 79.756C263.681 79.8259 263.684 79.8732 263.577 79.7298C263.447 79.5569 263.163 79.1076 262.854 78.1999L242.606 85.0978ZM253.327 98.5379C258.382 101.178 263.875 101.643 269.221 100.27L263.896 79.5519C263.697 79.6032 263.56 79.6217 263.48 79.6284C263.402 79.6349 263.364 79.6313 263.358 79.6307C263.352 79.6301 263.351 79.6299 263.345 79.628C263.338 79.6259 263.3 79.6142 263.229 79.5767L253.327 98.5379ZM269.221 100.27C272.892 99.3261 276.522 97.5587 279.468 94.5431C282.456 91.4857 284.147 87.7518 284.859 83.8836L263.822 80.0115C263.788 80.1968 263.766 80.1917 263.827 80.0676C263.857 80.0071 263.901 79.9291 263.962 79.8417C264.024 79.7539 264.094 79.6696 264.169 79.5929C264.244 79.5164 264.313 79.4586 264.367 79.4184C264.42 79.3786 264.45 79.3626 264.446 79.3648C264.436 79.37 264.277 79.4541 263.896 79.5519L269.221 100.27ZM277.003 92.3063L295.856 87.461L290.531 66.7434L271.678 71.5888L277.003 92.3063ZM282.498 77.1269C282.504 79.5412 281.991 81.8233 280.904 84.0859L300.188 93.3445C302.65 88.2165 303.902 82.7566 303.889 77.0775L282.498 77.1269ZM280.843 84.2161C279.871 86.3115 278.405 88.2179 276.246 89.9568L289.667 106.614C294.217 102.948 297.81 98.4738 300.249 93.2143L280.843 84.2161ZM276.246 89.9568C274.222 91.5879 271.622 92.9162 268.218 93.7909L273.543 114.508C279.532 112.969 284.982 110.388 289.667 106.614L276.246 89.9568ZM268.218 93.7909C264.074 94.8562 260.555 94.832 257.46 94.0452L252.191 114.777C259.177 116.552 266.362 116.354 273.543 114.508L268.218 93.7909ZM257.46 94.0452C254.421 93.2728 251.851 91.7733 249.576 89.3668L234.032 104.062C239.037 109.356 245.148 112.987 252.191 114.777L257.46 94.0452ZM249.576 89.3668C247.379 87.0434 245.557 83.8191 244.387 79.2653L223.669 84.5899C225.587 92.0523 228.949 98.686 234.032 104.062L249.576 89.3668ZM244.387 79.2653C243.205 74.6653 243.221 70.9265 243.99 67.8175L223.224 62.6834C221.466 69.7944 221.763 77.1737 223.669 84.5899L244.387 79.2653ZM243.959 67.9403C244.792 64.7351 246.32 62.1823 248.61 60.0405L233.998 44.4183C228.69 49.3824 225.088 55.5103 223.256 62.5606L243.959 67.9403ZM248.61 60.0405C250.927 57.873 254.024 56.1381 258.262 55.0491L252.937 34.3315C245.711 36.1887 239.277 39.4799 233.998 44.4183L248.61 60.0405ZM258.262 55.0491C262.366 53.9941 265.827 54.0099 268.844 54.7589L273.998 33.9982C267.107 32.2876 260.02 32.5112 252.937 34.3315L258.262 55.0491ZM268.844 54.7589C271.803 55.4934 274.252 56.9172 276.393 59.1755L291.917 44.4596C286.988 39.259 280.948 35.7234 273.998 33.9982L268.844 54.7589ZM276.482 59.2685C278.598 61.447 280.338 64.4633 281.439 68.7488L302.157 63.4243C300.276 56.108 296.921 49.6116 291.828 44.3667L276.482 59.2685ZM282.831 63.4218C281.372 57.7444 277.903 52.867 272.273 50.06L262.728 69.2033C262.689 69.1836 262.597 69.132 262.481 69.0373C262.363 68.9415 262.257 68.831 262.171 68.7196C261.989 68.483 262.028 68.4137 262.113 68.7464L282.831 63.4218ZM272.273 50.06C267.129 47.4952 261.622 47.2283 256.377 48.5763L261.702 69.2938C262.253 69.1521 262.534 69.1634 262.608 69.1695C262.662 69.174 262.679 69.1785 262.728 69.2033L272.273 50.06ZM256.377 48.5763C251.246 49.8949 246.708 52.7168 243.466 57.2147L260.82 69.7217C260.881 69.6371 260.917 69.6085 260.963 69.5782C261.021 69.5399 261.229 69.4153 261.702 69.2938L256.377 48.5763ZM243.363 57.3607C240.05 62.1232 239.131 67.5844 239.663 72.8549L260.946 70.7078C260.874 70.0019 260.934 69.6434 260.957 69.5375C260.974 69.4592 260.972 69.5058 260.923 69.5757L243.363 57.3607ZM252.966 82.1402L275.134 76.4429L269.81 55.7253L247.642 61.4226L252.966 82.1402ZM337.165 70.2183L347.524 67.556L344.862 57.1972L334.503 59.8595L337.165 70.2183ZM341.026 85.2385L343.688 95.5973L354.047 92.935L351.385 82.5762L341.026 85.2385ZM315.795 86.7535L310.926 96.2762L310.978 96.3027L311.03 96.3287L315.795 86.7535ZM300.532 49.7068L310.891 47.0446L308.228 36.6858L297.869 39.3481L300.532 49.7068ZM293.488 51.5172L283.129 54.1795L285.791 64.5383L296.15 61.876L293.488 51.5172ZM289.707 36.8077L287.045 26.4489L276.686 29.1112L279.349 39.47L289.707 36.8077ZM296.751 34.9974L299.414 45.3562L309.772 42.6939L307.11 32.3351L296.751 34.9974ZM293.131 20.9094L290.468 10.5506L280.11 13.2129L282.772 23.5717L293.131 20.9094ZM310.844 16.3569L321.203 13.6947L318.541 3.33587L308.182 5.99815L310.844 16.3569ZM314.465 30.4449L304.106 33.1071L306.768 43.4659L317.127 40.8037L314.465 30.4449ZM326.067 27.4631L336.425 24.8008L333.763 14.4421L323.404 17.1043L326.067 27.4631ZM329.847 42.1726L332.509 52.5314L342.868 49.8691L340.206 39.5103L329.847 42.1726ZM318.245 45.1543L315.583 34.7956L305.224 37.4578L307.886 47.8166L318.245 45.1543ZM326.41 71.7677L321.373 81.2027L321.373 81.2027L326.41 71.7677ZM326.807 72.8806L330.667 87.9008L351.385 82.5762L347.524 67.556L326.807 72.8806ZM338.363 74.8797L329.351 77.1959L334.676 97.9135L343.688 95.5973L338.363 74.8797ZM329.351 77.1959C324.536 78.4336 321.947 77.8682 320.561 77.1784L311.03 96.3287C318.423 100.008 326.647 99.977 334.676 97.9135L329.351 77.1959ZM320.665 77.2309C320.084 76.9339 318.239 75.639 316.801 70.0411L296.083 75.3656C298.301 83.9938 302.692 92.0657 310.926 96.2762L320.665 77.2309ZM316.801 70.0411L310.891 47.0446L290.173 52.3691L296.083 75.3656L316.801 70.0411ZM297.869 39.3481L290.825 41.1584L296.15 61.876L303.194 60.0656L297.869 39.3481ZM303.847 48.8549L300.066 34.1454L279.349 39.47L283.129 54.1795L303.847 48.8549ZM292.37 47.1665L299.414 45.3562L294.089 24.6386L287.045 26.4489L292.37 47.1665ZM307.11 32.3351L303.489 18.2471L282.772 23.5717L286.393 37.6596L307.11 32.3351ZM295.793 31.2682L313.506 26.7157L308.182 5.99815L290.468 10.5506L295.793 31.2682ZM300.485 19.0192L304.106 33.1071L324.824 27.7826L321.203 13.6947L300.485 19.0192ZM317.127 40.8037L328.729 37.8219L323.404 17.1043L311.803 20.0861L317.127 40.8037ZM315.708 30.1254L319.488 44.8349L340.206 39.5103L336.425 24.8008L315.708 30.1254ZM327.185 31.8138L315.583 34.7956L320.908 55.5131L332.509 52.5314L327.185 31.8138ZM307.886 47.8166L313.85 71.0203L334.568 65.6957L328.604 42.4921L307.886 47.8166ZM313.85 71.0203C314.643 74.1069 316.567 78.6366 321.373 81.2027L331.447 62.3327C334.206 63.8055 334.662 66.0621 334.568 65.6957L313.85 71.0203ZM321.373 81.2027C325.958 83.6503 330.702 82.9225 333.509 82.2011L328.184 61.4835C327.845 61.5708 327.981 61.4943 328.467 61.5024C328.971 61.5109 330.109 61.6183 331.447 62.3327L321.373 81.2027ZM333.509 82.2011L339.828 80.5771L334.503 59.8595L328.184 61.4835L333.509 82.2011Z" fill="white" mask="url(#path-3-outside-2_208_13868)"/>
<mask id="path-5-outside-3_208_13868" maskUnits="userSpaceOnUse" x="33.0132" y="150.208" width="381" height="114" fill="black">
<rect fill="white" x="33.0132" y="150.208" width="381" height="114"/>
<path d="M77.9908 252.041C71.875 252.041 66.3946 251.049 61.5497 249.063C56.7047 247.077 52.8129 244.139 49.8741 240.247C47.0148 236.355 45.5057 231.669 45.3468 226.188H67.03C67.3477 229.286 68.42 231.669 70.2468 233.337C72.0736 234.925 74.4563 235.72 77.3951 235.72C80.4133 235.72 82.796 235.044 84.5434 233.694C86.2908 232.265 87.1644 230.319 87.1644 227.856C87.1644 225.791 86.4496 224.084 85.0199 222.733C83.6697 221.383 81.9621 220.271 79.897 219.398C77.9114 218.524 75.052 217.531 71.319 216.419C65.9181 214.751 61.51 213.083 58.0947 211.415C54.6794 209.747 51.7406 207.285 49.2784 204.029C46.8162 200.772 45.5851 196.523 45.5851 191.281C45.5851 183.497 48.4047 177.421 54.044 173.053C59.6832 168.605 67.03 166.381 76.0846 166.381C85.2979 166.381 92.7242 168.605 98.3634 173.053C104.003 177.421 107.021 183.537 107.418 191.4H85.3774C85.2185 188.7 84.2257 186.595 82.3989 185.086C80.5721 183.497 78.2291 182.703 75.3697 182.703C72.9075 182.703 70.9219 183.378 69.4128 184.728C67.9037 185.999 67.1492 187.866 67.1492 190.328C67.1492 193.028 68.42 195.133 70.9616 196.642C73.5032 198.151 77.4745 199.779 82.8755 201.527C88.2764 203.354 92.6448 205.101 95.9807 206.769C99.396 208.437 102.335 210.859 104.797 214.036C107.259 217.213 108.49 221.304 108.49 226.308C108.49 231.073 107.259 235.402 104.797 239.294C102.414 243.186 98.9194 246.283 94.3127 248.586C89.7061 250.89 84.2654 252.041 77.9908 252.041ZM158.08 233.932V251.208H147.715C140.328 251.208 134.57 249.42 130.44 245.846C126.309 242.193 124.244 236.276 124.244 228.095V201.646H116.143V184.728H124.244V168.525H144.617V184.728H157.961V201.646H144.617V228.333C144.617 230.319 145.094 231.748 146.047 232.622C147 233.496 148.588 233.932 150.812 233.932H158.08ZM165.377 217.849C165.377 211.018 166.648 205.022 169.189 199.859C171.81 194.696 175.345 190.725 179.793 187.945C184.241 185.165 189.205 183.775 194.685 183.775C199.371 183.775 203.462 184.728 206.956 186.634C210.53 188.541 213.271 191.043 215.177 194.14V184.728H235.549V251.208H215.177V241.796C213.191 244.893 210.411 247.395 206.837 249.301C203.342 251.208 199.252 252.161 194.566 252.161C189.165 252.161 184.241 250.771 179.793 247.991C175.345 245.131 171.81 241.12 169.189 235.958C166.648 230.716 165.377 224.679 165.377 217.849ZM215.177 217.968C215.177 212.885 213.747 208.874 210.888 205.935C208.108 202.996 204.693 201.527 200.642 201.527C196.591 201.527 193.136 202.996 190.277 205.935C187.497 208.794 186.107 212.766 186.107 217.849C186.107 222.932 187.497 226.983 190.277 230.001C193.136 232.94 196.591 234.409 200.642 234.409C204.693 234.409 208.108 232.94 210.888 230.001C213.747 227.062 215.177 223.051 215.177 217.968ZM246.238 217.968C246.238 211.058 247.627 205.022 250.407 199.859C253.267 194.696 257.198 190.725 262.202 187.945C267.285 185.165 273.083 183.775 279.596 183.775C287.936 183.775 294.886 185.959 300.445 190.328C306.085 194.696 309.778 200.852 311.525 208.794H289.842C288.015 203.711 284.481 201.169 279.239 201.169C275.506 201.169 272.527 202.639 270.303 205.577C268.08 208.437 266.968 212.567 266.968 217.968C266.968 223.369 268.08 227.539 270.303 230.477C272.527 233.337 275.506 234.766 279.239 234.766C284.481 234.766 288.015 232.225 289.842 227.142H311.525C309.778 234.925 306.085 241.041 300.445 245.489C294.806 249.937 287.857 252.161 279.596 252.161C273.083 252.161 267.285 250.771 262.202 247.991C257.198 245.211 253.267 241.24 250.407 236.077C247.627 230.914 246.238 224.878 246.238 217.968ZM363.049 251.208L342.796 223.329V251.208H322.423V163.045H342.796V211.773L362.93 184.728H388.068L360.428 218.087L388.306 251.208H363.049Z"/>
</mask>
<path d="M77.9908 252.041C71.875 252.041 66.3946 251.049 61.5497 249.063C56.7047 247.077 52.8129 244.139 49.8741 240.247C47.0148 236.355 45.5057 231.669 45.3468 226.188H67.03C67.3477 229.286 68.42 231.669 70.2468 233.337C72.0736 234.925 74.4563 235.72 77.3951 235.72C80.4133 235.72 82.796 235.044 84.5434 233.694C86.2908 232.265 87.1644 230.319 87.1644 227.856C87.1644 225.791 86.4496 224.084 85.0199 222.733C83.6697 221.383 81.9621 220.271 79.897 219.398C77.9114 218.524 75.052 217.531 71.319 216.419C65.9181 214.751 61.51 213.083 58.0947 211.415C54.6794 209.747 51.7406 207.285 49.2784 204.029C46.8162 200.772 45.5851 196.523 45.5851 191.281C45.5851 183.497 48.4047 177.421 54.044 173.053C59.6832 168.605 67.03 166.381 76.0846 166.381C85.2979 166.381 92.7242 168.605 98.3634 173.053C104.003 177.421 107.021 183.537 107.418 191.4H85.3774C85.2185 188.7 84.2257 186.595 82.3989 185.086C80.5721 183.497 78.2291 182.703 75.3697 182.703C72.9075 182.703 70.9219 183.378 69.4128 184.728C67.9037 185.999 67.1492 187.866 67.1492 190.328C67.1492 193.028 68.42 195.133 70.9616 196.642C73.5032 198.151 77.4745 199.779 82.8755 201.527C88.2764 203.354 92.6448 205.101 95.9807 206.769C99.396 208.437 102.335 210.859 104.797 214.036C107.259 217.213 108.49 221.304 108.49 226.308C108.49 231.073 107.259 235.402 104.797 239.294C102.414 243.186 98.9194 246.283 94.3127 248.586C89.7061 250.89 84.2654 252.041 77.9908 252.041ZM158.08 233.932V251.208H147.715C140.328 251.208 134.57 249.42 130.44 245.846C126.309 242.193 124.244 236.276 124.244 228.095V201.646H116.143V184.728H124.244V168.525H144.617V184.728H157.961V201.646H144.617V228.333C144.617 230.319 145.094 231.748 146.047 232.622C147 233.496 148.588 233.932 150.812 233.932H158.08ZM165.377 217.849C165.377 211.018 166.648 205.022 169.189 199.859C171.81 194.696 175.345 190.725 179.793 187.945C184.241 185.165 189.205 183.775 194.685 183.775C199.371 183.775 203.462 184.728 206.956 186.634C210.53 188.541 213.271 191.043 215.177 194.14V184.728H235.549V251.208H215.177V241.796C213.191 244.893 210.411 247.395 206.837 249.301C203.342 251.208 199.252 252.161 194.566 252.161C189.165 252.161 184.241 250.771 179.793 247.991C175.345 245.131 171.81 241.12 169.189 235.958C166.648 230.716 165.377 224.679 165.377 217.849ZM215.177 217.968C215.177 212.885 213.747 208.874 210.888 205.935C208.108 202.996 204.693 201.527 200.642 201.527C196.591 201.527 193.136 202.996 190.277 205.935C187.497 208.794 186.107 212.766 186.107 217.849C186.107 222.932 187.497 226.983 190.277 230.001C193.136 232.94 196.591 234.409 200.642 234.409C204.693 234.409 208.108 232.94 210.888 230.001C213.747 227.062 215.177 223.051 215.177 217.968ZM246.238 217.968C246.238 211.058 247.627 205.022 250.407 199.859C253.267 194.696 257.198 190.725 262.202 187.945C267.285 185.165 273.083 183.775 279.596 183.775C287.936 183.775 294.886 185.959 300.445 190.328C306.085 194.696 309.778 200.852 311.525 208.794H289.842C288.015 203.711 284.481 201.169 279.239 201.169C275.506 201.169 272.527 202.639 270.303 205.577C268.08 208.437 266.968 212.567 266.968 217.968C266.968 223.369 268.08 227.539 270.303 230.477C272.527 233.337 275.506 234.766 279.239 234.766C284.481 234.766 288.015 232.225 289.842 227.142H311.525C309.778 234.925 306.085 241.041 300.445 245.489C294.806 249.937 287.857 252.161 279.596 252.161C273.083 252.161 267.285 250.771 262.202 247.991C257.198 245.211 253.267 241.24 250.407 236.077C247.627 230.914 246.238 224.878 246.238 217.968ZM363.049 251.208L342.796 223.329V251.208H322.423V163.045H342.796V211.773L362.93 184.728H388.068L360.428 218.087L388.306 251.208H363.049Z" fill="#FF8888"/>
<path d="M61.5497 249.063L57.0317 260.087L57.0317 260.087L61.5497 249.063ZM49.8741 240.247L40.273 247.301L40.3193 247.364L40.3664 247.426L49.8741 240.247ZM45.3468 226.188V214.275H33.0827L33.438 226.534L45.3468 226.188ZM67.03 226.188L78.8817 224.973L77.7844 214.275H67.03V226.188ZM70.2468 233.337L62.2136 242.135L62.3202 242.232L62.4292 242.327L70.2468 233.337ZM84.5434 233.694L91.8281 243.121L91.9593 243.02L92.0877 242.915L84.5434 233.694ZM85.0199 222.733L76.5956 231.158L76.7159 231.278L76.8396 231.395L85.0199 222.733ZM79.897 219.398L75.0988 230.302L75.1766 230.337L75.2549 230.37L79.897 219.398ZM71.319 216.419L67.8036 227.802L67.8607 227.82L67.9179 227.837L71.319 216.419ZM58.0947 211.415L52.8664 222.121L58.0947 211.415ZM49.2784 204.029L58.7816 196.843L58.7816 196.843L49.2784 204.029ZM54.044 173.053L61.34 182.471L61.3811 182.439L61.422 182.407L54.044 173.053ZM98.3634 173.053L90.9854 182.407L91.0263 182.439L91.0674 182.471L98.3634 173.053ZM107.418 191.4V203.314H119.949L119.317 190.799L107.418 191.4ZM85.3774 191.4L73.4841 192.1L74.1437 203.314H85.3774V191.4ZM82.3989 185.086L74.5813 194.076L74.695 194.175L74.8112 194.271L82.3989 185.086ZM69.4128 184.728L77.0869 193.841L77.2237 193.726L77.3569 193.607L69.4128 184.728ZM70.9616 196.642L77.0441 186.398L77.0441 186.398L70.9616 196.642ZM82.8755 201.527L86.6927 190.241L86.6179 190.216L86.5428 190.191L82.8755 201.527ZM95.9807 206.769L90.6526 217.425L90.7024 217.45L90.7525 217.474L95.9807 206.769ZM104.797 214.036L95.38 221.334L95.38 221.334L104.797 214.036ZM104.797 239.294L94.7288 232.924L94.6819 232.998L94.6362 233.073L104.797 239.294ZM94.3127 248.586L88.9847 237.93L88.9847 237.93L94.3127 248.586ZM77.9908 240.128C73.1679 240.128 69.2591 239.347 66.0677 238.039L57.0317 260.087C63.5302 262.75 70.5821 263.955 77.9908 263.955V240.128ZM66.0677 238.039C63.0497 236.802 60.9375 235.128 59.3818 233.067L40.3664 247.426C44.6883 253.15 50.3597 257.353 57.0317 260.087L66.0677 238.039ZM59.4753 233.193C58.2371 231.508 57.3543 229.244 57.2557 225.843L33.438 226.534C33.6571 234.094 35.7925 241.202 40.273 247.301L59.4753 233.193ZM45.3468 238.102H67.03V214.275H45.3468V238.102ZM55.1784 227.404C55.7146 232.632 57.7095 238.022 62.2136 242.135L78.2799 224.539C78.4428 224.687 78.5872 224.851 78.7064 225.018C78.8247 225.183 78.8974 225.322 78.937 225.41C79.0139 225.581 78.9346 225.489 78.8817 224.973L55.1784 227.404ZM62.4292 242.327C66.8639 246.183 72.2252 247.633 77.3951 247.633V223.806C76.9936 223.806 76.9615 223.751 77.1714 223.821C77.2767 223.856 77.4222 223.916 77.5899 224.011C77.7584 224.107 77.9198 224.221 78.0644 224.347L62.4292 242.327ZM77.3951 247.633C82.0945 247.633 87.3473 246.584 91.8281 243.121L77.2587 224.267C77.4828 224.094 77.6935 223.969 77.8681 223.883C78.0404 223.799 78.1583 223.762 78.198 223.751C78.2642 223.732 78.0364 223.806 77.3951 223.806V247.633ZM92.0877 242.915C96.8739 238.999 99.0783 233.523 99.0783 227.856H75.2506C75.2506 227.663 75.29 227.063 75.6405 226.283C76.0044 225.472 76.5288 224.858 76.9991 224.473L92.0877 242.915ZM99.0783 227.856C99.0783 222.698 97.1439 217.796 93.2003 214.072L76.8396 231.395C76.4212 231 75.9632 230.403 75.6385 229.627C75.3192 228.865 75.2506 228.221 75.2506 227.856H99.0783ZM93.4443 214.309C90.8375 211.702 87.775 209.794 84.5391 208.425L75.2549 230.37C76.1491 230.748 76.5019 231.064 76.5956 231.158L93.4443 214.309ZM84.6952 208.493C82.0325 207.321 78.6188 206.162 74.7202 205.001L67.9179 227.837C71.4852 228.9 73.7902 229.727 75.0988 230.302L84.6952 208.493ZM74.8345 205.036C69.7673 203.471 65.9895 202.012 63.3229 200.71L52.8664 222.121C57.0304 224.154 62.0689 226.031 67.8036 227.802L74.8345 205.036ZM63.3229 200.71C61.7123 199.923 60.2007 198.72 58.7816 196.843L39.7752 211.214C43.2806 215.85 47.6464 219.571 52.8664 222.121L63.3229 200.71ZM58.7816 196.843C58.2787 196.178 57.499 194.671 57.499 191.281H33.6713C33.6713 198.375 35.3537 205.366 39.7752 211.214L58.7816 196.843ZM57.499 191.281C57.499 186.795 58.9061 184.357 61.34 182.471L46.7479 163.634C37.9034 170.486 33.6713 180.199 33.6713 191.281H57.499ZM61.422 182.407C64.462 180.009 68.9963 178.295 76.0846 178.295V154.467C65.0638 154.467 54.9043 157.2 46.6659 163.698L61.422 182.407ZM76.0846 178.295C83.3875 178.295 87.9798 180.036 90.9854 182.407L105.742 163.698C97.4686 157.173 87.2084 154.467 76.0846 154.467V178.295ZM91.0674 182.471C93.655 184.476 95.2769 187.202 95.5193 192.001L119.317 190.799C118.765 179.871 114.35 170.367 105.659 163.634L91.0674 182.471ZM107.418 179.486H85.3774V203.314H107.418V179.486ZM97.2706 190.7C96.9477 185.211 94.7368 179.825 89.9866 175.901L74.8112 194.271C74.3986 193.93 74.0036 193.441 73.7384 192.879C73.4891 192.35 73.4797 192.025 73.4841 192.1L97.2706 190.7ZM90.2165 176.095C85.8409 172.291 80.5539 170.789 75.3697 170.789V194.617C75.6973 194.617 75.6822 194.662 75.4467 194.582C75.3305 194.542 75.1833 194.48 75.0211 194.387C74.8584 194.294 74.7094 194.187 74.5813 194.076L90.2165 176.095ZM75.3697 170.789C70.6397 170.789 65.6108 172.144 61.4687 175.85L77.3569 193.607C76.8744 194.039 76.338 194.329 75.869 194.489C75.4331 194.637 75.2215 194.617 75.3697 194.617V170.789ZM61.7387 175.615C56.8924 179.696 55.2353 185.299 55.2353 190.328H79.063C79.063 190.296 79.0692 190.783 78.7605 191.546C78.4253 192.376 77.8496 193.199 77.0869 193.841L61.7387 175.615ZM55.2353 190.328C55.2353 197.692 59.1352 203.476 64.8791 206.886L77.0441 186.398C77.1218 186.444 77.736 186.838 78.3013 187.774C78.8964 188.759 79.063 189.728 79.063 190.328H55.2353ZM64.8791 206.886C68.5909 209.09 73.5846 211.043 79.2081 212.862L86.5428 190.191C81.3644 188.516 78.4156 187.212 77.0441 186.398L64.8791 206.886ZM79.0582 212.813C84.1815 214.545 87.9889 216.093 90.6526 217.425L101.309 196.113C97.3007 194.109 92.3713 192.162 86.6927 190.241L79.0582 212.813ZM90.7525 217.474C92.4352 218.296 93.969 219.514 95.38 221.334L114.214 206.738C110.7 202.205 106.357 198.578 101.209 196.063L90.7525 217.474ZM95.38 221.334C95.861 221.955 96.5764 223.286 96.5764 226.308H120.404C120.404 219.322 118.657 212.472 114.214 206.738L95.38 221.334ZM96.5764 226.308C96.5764 228.901 95.9419 231.007 94.7288 232.924L114.865 245.663C118.576 239.797 120.404 233.246 120.404 226.308H96.5764ZM94.6362 233.073C93.5624 234.827 91.8607 236.492 88.9847 237.93L99.6408 259.243C105.978 256.074 111.266 251.544 114.958 245.515L94.6362 233.073ZM88.9847 237.93C86.3547 239.245 82.8135 240.128 77.9908 240.128V263.955C85.7173 263.955 93.0575 262.534 99.6408 259.243L88.9847 237.93ZM158.08 233.932H169.994V222.019H158.08V233.932ZM158.08 251.208V263.121H169.994V251.208H158.08ZM130.44 245.846L122.546 254.77L122.594 254.813L122.643 254.855L130.44 245.846ZM124.244 201.646H136.158V189.732H124.244V201.646ZM116.143 201.646H104.229V213.56H116.143V201.646ZM116.143 184.728V172.814H104.229V184.728H116.143ZM124.244 184.728V196.642H136.158V184.728H124.244ZM124.244 168.525V156.612H112.331V168.525H124.244ZM144.617 168.525H156.531V156.612H144.617V168.525ZM144.617 184.728H132.703V196.642H144.617V184.728ZM157.961 184.728H169.874V172.814H157.961V184.728ZM157.961 201.646V213.56H169.874V201.646H157.961ZM144.617 201.646V189.732H132.703V201.646H144.617ZM146.047 232.622L137.996 241.404L137.996 241.404L146.047 232.622ZM146.166 233.932V251.208H169.994V233.932H146.166ZM158.08 239.294H147.715V263.121H158.08V239.294ZM147.715 239.294C142.176 239.294 139.54 237.966 138.236 236.837L122.643 254.855C129.6 260.875 138.48 263.121 147.715 263.121V239.294ZM138.333 236.923C137.789 236.441 136.158 234.533 136.158 228.095H112.331C112.331 238.018 114.83 247.944 122.546 254.77L138.333 236.923ZM136.158 228.095V201.646H112.331V228.095H136.158ZM124.244 189.732H116.143V213.56H124.244V189.732ZM128.057 201.646V184.728H104.229V201.646H128.057ZM116.143 196.642H124.244V172.814H116.143V196.642ZM136.158 184.728V168.525H112.331V184.728H136.158ZM124.244 180.439H144.617V156.612H124.244V180.439ZM132.703 168.525V184.728H156.531V168.525H132.703ZM144.617 196.642H157.961V172.814H144.617V196.642ZM146.047 184.728V201.646H169.874V184.728H146.047ZM157.961 189.732H144.617V213.56H157.961V189.732ZM132.703 201.646V228.333H156.531V201.646H132.703ZM132.703 228.333C132.703 231.883 133.522 237.303 137.996 241.404L154.097 223.84C156.665 226.193 156.531 228.754 156.531 228.333H132.703ZM137.996 241.404C142.264 245.316 147.584 245.846 150.812 245.846V222.019C150.422 222.019 150.59 221.974 151.112 222.117C151.654 222.266 152.852 222.698 154.097 223.84L137.996 241.404ZM150.812 245.846H158.08V222.019H150.812V245.846ZM169.189 199.859L158.566 194.466L158.533 194.531L158.501 194.597L169.189 199.859ZM179.793 187.945L186.107 198.048L186.107 198.048L179.793 187.945ZM206.956 186.634L201.251 197.094L201.3 197.12L201.35 197.147L206.956 186.634ZM215.177 194.14L205.03 200.384L227.091 236.232V194.14H215.177ZM215.177 184.728V172.814H203.263V184.728H215.177ZM235.549 184.728H247.463V172.814H235.549V184.728ZM235.549 251.208V263.121H247.463V251.208H235.549ZM215.177 251.208H203.263V263.121H215.177V251.208ZM215.177 241.796H227.091V201.134L205.147 235.366L215.177 241.796ZM206.837 249.301L201.231 238.789L201.181 238.815L201.132 238.842L206.837 249.301ZM179.793 247.991L173.35 258.012L173.414 258.053L173.478 258.094L179.793 247.991ZM169.189 235.958L158.469 241.155L158.517 241.254L158.566 241.351L169.189 235.958ZM210.888 205.935L202.233 214.122L202.29 214.183L202.349 214.243L210.888 205.935ZM190.277 205.935L181.738 197.627L181.735 197.63L190.277 205.935ZM190.277 230.001L181.514 238.072L181.624 238.192L181.738 238.309L190.277 230.001ZM210.888 230.001L202.349 221.693L202.29 221.753L202.233 221.814L210.888 230.001ZM177.291 217.849C177.291 212.504 178.28 208.368 179.878 205.121L158.501 194.597C155.016 201.675 153.463 209.532 153.463 217.849H177.291ZM179.813 205.252C181.557 201.815 183.684 199.562 186.107 198.048L173.478 177.842C167.005 181.888 162.063 187.577 158.566 194.466L179.813 205.252ZM186.107 198.048C188.574 196.506 191.332 195.689 194.685 195.689V171.861C187.077 171.861 179.907 173.824 173.478 177.842L186.107 198.048ZM194.685 195.689C197.732 195.689 199.793 196.298 201.251 197.094L212.661 176.175C207.13 173.158 201.011 171.861 194.685 171.861V195.689ZM201.35 197.147C203.276 198.174 204.354 199.286 205.03 200.384L225.323 187.896C222.187 182.8 217.785 178.907 212.563 176.122L201.35 197.147ZM227.091 194.14V184.728H203.263V194.14H227.091ZM215.177 196.642H235.549V172.814H215.177V196.642ZM223.636 184.728V251.208H247.463V184.728H223.636ZM235.549 239.294H215.177V263.121H235.549V239.294ZM227.091 251.208V241.796H203.263V251.208H227.091ZM205.147 235.366C204.37 236.577 203.191 237.743 201.231 238.789L212.444 259.814C217.631 257.047 222.012 253.209 225.207 248.225L205.147 235.366ZM201.132 238.842C199.674 239.638 197.613 240.247 194.566 240.247V264.074C200.891 264.074 207.011 262.777 212.542 259.76L201.132 238.842ZM194.566 240.247C191.328 240.247 188.603 239.448 186.107 237.888L173.478 258.094C179.878 262.094 187.002 264.074 194.566 264.074V240.247ZM186.235 237.969C183.734 236.361 181.569 234.025 179.813 230.564L158.566 241.351C162.051 248.216 166.956 253.902 173.35 258.012L186.235 237.969ZM179.91 230.76C178.278 227.395 177.291 223.188 177.291 217.849H153.463C153.463 226.171 155.018 234.037 158.469 241.155L179.91 230.76ZM227.091 217.968C227.091 210.566 224.942 203.295 219.427 197.627L202.349 214.243C202.553 214.452 203.263 215.203 203.263 217.968H227.091ZM219.543 197.748C214.509 192.426 207.962 189.613 200.642 189.613V213.441C201.194 213.441 201.441 213.533 201.533 213.573C201.624 213.612 201.858 213.726 202.233 214.122L219.543 197.748ZM200.642 189.613C193.331 189.613 186.809 192.415 181.738 197.627L198.816 214.243C199.463 213.578 199.852 213.441 200.642 213.441V189.613ZM181.735 197.63C176.243 203.279 174.193 210.554 174.193 217.849H198.021C198.021 214.977 198.751 214.31 198.819 214.24L181.735 197.63ZM174.193 217.849C174.193 225.175 176.253 232.36 181.514 238.072L199.04 221.93C198.741 221.605 198.021 220.689 198.021 217.849H174.193ZM181.738 238.309C186.809 243.521 193.331 246.323 200.642 246.323V222.495C199.852 222.495 199.463 222.358 198.816 221.693L181.738 238.309ZM200.642 246.323C207.962 246.323 214.509 243.509 219.543 238.188L202.233 221.814C201.858 222.21 201.624 222.324 201.533 222.363C201.441 222.402 201.194 222.495 200.642 222.495V246.323ZM219.427 238.309C224.942 232.641 227.091 225.37 227.091 217.968H203.263C203.263 220.733 202.553 221.483 202.349 221.693L219.427 238.309ZM250.407 199.859L239.985 194.087L239.951 194.148L239.918 194.211L250.407 199.859ZM262.202 187.945L256.486 177.492L256.451 177.511L256.416 177.53L262.202 187.945ZM300.445 190.328L293.085 199.696L293.117 199.721L293.149 199.746L300.445 190.328ZM311.525 208.794V220.708H326.345L323.161 206.234L311.525 208.794ZM289.842 208.794L278.63 212.823L281.464 220.708H289.842V208.794ZM270.303 205.577L279.708 212.892L279.756 212.83L279.804 212.767L270.303 205.577ZM270.303 230.477L260.803 237.667L260.851 237.73L260.899 237.792L270.303 230.477ZM289.842 227.142V215.228H281.464L278.63 223.112L289.842 227.142ZM311.525 227.142L323.15 229.751L326.41 215.228H311.525V227.142ZM300.445 245.489L293.067 236.135L293.067 236.135L300.445 245.489ZM262.202 247.991L256.416 258.405L256.451 258.425L256.486 258.444L262.202 247.991ZM250.407 236.077L239.918 241.725L239.951 241.787L239.985 241.849L250.407 236.077ZM258.151 217.968C258.151 212.677 259.206 208.648 260.897 205.507L239.918 194.211C236.049 201.395 234.324 209.438 234.324 217.968H258.151ZM260.829 205.631C262.644 202.356 264.996 200.022 267.988 198.36L256.416 177.53C249.4 181.428 243.89 187.037 239.985 194.087L260.829 205.631ZM267.918 198.398C271.04 196.691 274.829 195.689 279.596 195.689V171.861C271.338 171.861 263.53 173.64 256.486 177.492L267.918 198.398ZM279.596 195.689C285.765 195.689 289.985 197.26 293.085 199.696L307.806 180.96C299.786 174.659 290.107 171.861 279.596 171.861V195.689ZM293.149 199.746C296.278 202.17 298.653 205.731 299.89 211.354L323.161 206.234C320.903 195.972 315.892 187.223 307.741 180.909L293.149 199.746ZM311.525 196.88H289.842V220.708H311.525V196.88ZM301.054 204.765C299.523 200.505 296.927 196.388 292.777 193.403C288.598 190.398 283.835 189.256 279.239 189.256V213.083C279.59 213.083 279.661 213.126 279.536 213.09C279.474 213.071 279.374 213.037 279.25 212.977C279.125 212.917 278.994 212.84 278.866 212.748C278.594 212.553 278.448 212.37 278.406 212.311C278.375 212.267 278.478 212.4 278.63 212.823L301.054 204.765ZM279.239 189.256C271.831 189.256 265.313 192.429 260.803 198.388L279.804 212.767C279.874 212.674 279.883 212.681 279.815 212.739C279.743 212.8 279.627 212.881 279.476 212.956C279.326 213.03 279.2 213.067 279.129 213.083C279.062 213.098 279.089 213.083 279.239 213.083V189.256ZM260.899 198.263C256.422 204.02 255.054 211.162 255.054 217.968H278.881C278.881 213.972 279.738 212.854 279.708 212.892L260.899 198.263ZM255.054 217.968C255.054 224.804 256.434 231.893 260.803 237.667L279.804 223.288C279.725 223.184 278.881 221.933 278.881 217.968H255.054ZM260.899 237.792C265.46 243.655 271.96 246.68 279.239 246.68V222.853C279.067 222.853 279.018 222.836 279.063 222.846C279.112 222.857 279.221 222.887 279.361 222.954C279.501 223.021 279.615 223.098 279.692 223.161C279.765 223.222 279.766 223.238 279.708 223.163L260.899 237.792ZM279.239 246.68C283.835 246.68 288.598 245.538 292.777 242.533C296.927 239.548 299.523 235.431 301.054 231.171L278.63 223.112C278.478 223.536 278.375 223.668 278.406 223.625C278.448 223.566 278.594 223.383 278.866 223.188C278.994 223.095 279.125 223.019 279.25 222.959C279.374 222.899 279.474 222.864 279.536 222.846C279.661 222.81 279.59 222.853 279.239 222.853V246.68ZM289.842 239.055H311.525V215.228H289.842V239.055ZM299.901 224.532C298.682 229.961 296.319 233.57 293.067 236.135L307.824 254.843C315.851 248.512 320.874 239.89 323.15 229.751L299.901 224.532ZM293.067 236.135C289.839 238.681 285.601 240.247 279.596 240.247V264.074C290.112 264.074 299.774 261.192 307.824 254.843L293.067 236.135ZM279.596 240.247C274.829 240.247 271.04 239.245 267.918 237.538L256.486 258.444C263.53 262.296 271.338 264.074 279.596 264.074V240.247ZM267.988 237.576C264.996 235.914 262.644 233.58 260.829 230.305L239.985 241.849C243.89 248.899 249.4 254.508 256.416 258.405L267.988 237.576ZM260.897 230.429C259.206 227.288 258.151 223.258 258.151 217.968H234.324C234.324 226.497 236.049 234.541 239.918 241.725L260.897 230.429ZM363.049 251.208L353.41 258.21L356.978 263.121H363.049V251.208ZM342.796 223.329L352.434 216.327L330.882 186.66V223.329H342.796ZM342.796 251.208V263.121H354.709V251.208H342.796ZM322.423 251.208H310.509V263.121H322.423V251.208ZM322.423 163.045V151.131H310.509V163.045H322.423ZM342.796 163.045H354.709V151.131H342.796V163.045ZM342.796 211.773H330.882V247.726L352.352 218.887L342.796 211.773ZM362.93 184.728V172.814H356.947L353.374 177.614L362.93 184.728ZM388.068 184.728L397.242 192.33L413.412 172.814H388.068V184.728ZM360.428 218.087L351.254 210.486L344.906 218.147L351.313 225.759L360.428 218.087ZM388.306 251.208V263.121H413.907L397.421 243.535L388.306 251.208ZM372.688 244.205L352.434 216.327L333.157 230.332L353.41 258.21L372.688 244.205ZM330.882 223.329V251.208H354.709V223.329H330.882ZM342.796 239.294H322.423V263.121H342.796V239.294ZM334.337 251.208V163.045H310.509V251.208H334.337ZM322.423 174.959H342.796V151.131H322.423V174.959ZM330.882 163.045V211.773H354.709V163.045H330.882ZM352.352 218.887L372.486 191.843L353.374 177.614L333.239 204.658L352.352 218.887ZM362.93 196.642H388.068V172.814H362.93V196.642ZM378.894 177.127L351.254 210.486L369.602 225.688L397.242 192.33L378.894 177.127ZM351.313 225.759L379.192 258.88L397.421 243.535L369.543 210.415L351.313 225.759ZM388.306 239.294H363.049V263.121H388.306V239.294Z" fill="white" mask="url(#path-5-outside-3_208_13868)"/>
<mask id="path-7-outside-4_208_13868" maskUnits="userSpaceOnUse" x="210.074" y="102.583" width="75" height="79" fill="black">
<rect fill="white" x="210.074" y="102.583" width="75" height="79"/>
<path fill-rule="evenodd" clip-rule="evenodd" d="M267.396 128.209C276.75 136.38 278.965 141.942 273.842 151.157C270.028 158.019 265.033 164.115 258.361 168.085C257.944 168.333 257.52 168.573 257.09 168.804C250.636 172.273 242.68 173.798 232.813 172.259C230.772 170.271 228.991 168.143 227.459 165.915L227.461 165.915C218.262 152.533 218.064 135.549 224.604 123.785C231.119 112.065 240.623 112.791 253.526 118.961C253.152 114.563 254.595 110.881 256.874 110.6C258.852 110.356 260.84 112.748 261.792 116.23C262.204 115.944 262.634 115.669 263.08 115.407C268.664 112.118 274.715 112.039 276.594 115.23C278.473 118.421 275.469 123.674 269.885 126.962C269.06 127.448 268.226 127.864 267.396 128.209Z"/>
</mask>
<path fill-rule="evenodd" clip-rule="evenodd" d="M267.396 128.209C276.75 136.38 278.965 141.942 273.842 151.157C270.028 158.019 265.033 164.115 258.361 168.085C257.944 168.333 257.52 168.573 257.09 168.804C250.636 172.273 242.68 173.798 232.813 172.259C230.772 170.271 228.991 168.143 227.459 165.915L227.461 165.915C218.262 152.533 218.064 135.549 224.604 123.785C231.119 112.065 240.623 112.791 253.526 118.961C253.152 114.563 254.595 110.881 256.874 110.6C258.852 110.356 260.84 112.748 261.792 116.23C262.204 115.944 262.634 115.669 263.08 115.407C268.664 112.118 274.715 112.039 276.594 115.23C278.473 118.421 275.469 123.674 269.885 126.962C269.06 127.448 268.226 127.864 267.396 128.209Z" fill="white" fill-opacity="0.75"/>
<path d="M273.842 151.157L267.014 147.362L273.842 151.157ZM267.396 128.209L264.394 120.997L252.792 125.825L262.256 134.092L267.396 128.209ZM258.361 168.085L254.366 161.372L254.366 161.372L258.361 168.085ZM257.09 168.804L253.392 161.923L253.392 161.923L257.09 168.804ZM232.813 172.259L227.362 177.856L229.147 179.594L231.609 179.978L232.813 172.259ZM227.459 165.915L228.503 158.173L211.041 155.82L221.022 170.34L227.459 165.915ZM227.461 165.915L226.417 173.657L243.88 176.011L233.898 161.49L227.461 165.915ZM224.604 123.785L231.431 127.581L231.431 127.581L224.604 123.785ZM253.526 118.961L250.156 126.009L262.467 131.895L261.31 118.299L253.526 118.961ZM256.874 110.6L257.83 118.353L257.83 118.353L256.874 110.6ZM261.792 116.23L254.257 118.291L257.171 128.942L266.244 122.65L261.792 116.23ZM263.08 115.407L267.044 122.138L267.044 122.138L263.08 115.407ZM276.594 115.23L283.325 111.266L276.594 115.23ZM269.885 126.962L265.921 120.231L265.921 120.231L269.885 126.962ZM280.67 154.953C283.779 149.36 285.459 143.395 283.523 137.02C281.759 131.217 277.378 126.556 272.535 122.325L262.256 134.092C266.767 138.033 268.171 140.238 268.573 141.562C268.802 142.316 269.028 143.739 267.014 147.362L280.67 154.953ZM262.356 174.799C270.586 169.901 276.434 162.574 280.67 154.953L267.014 147.362C263.622 153.464 259.48 158.329 254.366 161.372L262.356 174.799ZM260.788 175.686C261.319 175.4 261.842 175.104 262.356 174.799L254.366 161.372C254.046 161.562 253.721 161.746 253.392 161.923L260.788 175.686ZM231.609 179.978C242.981 181.752 252.685 180.041 260.788 175.686L253.392 161.923C248.588 164.505 242.38 165.845 234.017 164.54L231.609 179.978ZM221.022 170.34C222.84 172.986 224.951 175.507 227.362 177.856L238.263 166.663C236.593 165.036 235.142 163.301 233.897 161.49L221.022 170.34ZM228.504 158.173L228.503 158.173L226.416 173.657L226.417 173.657L228.504 158.173ZM217.776 119.989C209.77 134.39 210.173 154.557 221.023 170.34L233.898 161.49C226.35 150.509 226.358 136.707 231.431 127.581L217.776 119.989ZM256.896 111.913C250.183 108.703 242.912 106.142 235.841 106.896C227.942 107.738 221.961 112.46 217.776 119.989L231.431 127.581C233.761 123.39 235.79 122.614 237.498 122.432C240.034 122.162 243.967 123.049 250.156 126.009L256.896 111.913ZM255.918 102.847C250.544 103.509 247.946 107.835 246.946 110.349C245.805 113.219 245.477 116.501 245.742 119.623L261.31 118.299C261.202 117.023 261.408 116.264 261.464 116.124C261.489 116.062 261.364 116.423 260.882 116.91C260.353 117.442 259.327 118.169 257.83 118.353L255.918 102.847ZM269.328 114.169C268.634 111.633 267.451 109.027 265.638 106.921C263.937 104.945 260.586 102.271 255.918 102.847L257.83 118.353C256.548 118.512 255.482 118.197 254.796 117.847C254.159 117.523 253.854 117.18 253.797 117.115C253.711 117.014 253.998 117.345 254.257 118.291L269.328 114.169ZM259.116 108.675C258.504 109.035 257.912 109.415 257.34 109.811L266.244 122.65C266.497 122.474 266.764 122.303 267.044 122.138L259.116 108.675ZM283.325 111.266C280.349 106.212 274.906 105.028 271.124 105.077C267.088 105.13 262.862 106.469 259.116 108.675L267.044 122.138C268.882 121.056 270.474 120.711 271.328 120.7C271.742 120.695 271.725 120.769 271.423 120.64C271.066 120.489 270.377 120.068 269.862 119.194L283.325 111.266ZM273.849 133.694C277.596 131.488 280.816 128.442 282.82 124.938C284.697 121.654 286.301 116.32 283.325 111.266L269.862 119.194C269.348 118.32 269.314 117.514 269.355 117.128C269.389 116.801 269.462 116.823 269.257 117.182C268.832 117.924 267.759 119.149 265.921 120.231L273.849 133.694ZM270.397 135.421C271.563 134.936 272.719 134.36 273.849 133.694L265.921 120.231C265.402 120.536 264.889 120.791 264.394 120.997L270.397 135.421Z" fill="white" mask="url(#path-7-outside-4_208_13868)"/>
<ellipse cx="266.539" cy="121.269" rx="6.70532" ry="11.7343" transform="rotate(-120.493 266.539 121.269)" fill="#86DA53"/>
<ellipse cx="257.974" cy="119.148" rx="4.3579" ry="8.527" transform="rotate(-7.02822 257.974 119.148)" fill="#86DA53"/>
<path d="M224.661 123.87C232.289 110.148 244.015 113.488 260.496 122.65C275.528 134.259 280.115 140.062 273.899 151.243C266.271 164.965 253.921 175.627 232.871 172.344C218.572 158.418 217.032 137.593 224.661 123.87Z" fill="#FF8888"/>
<ellipse cx="1.29044" cy="3.87758" rx="1.29044" ry="3.87758" transform="matrix(0.976324 0.216313 -0.215577 0.976487 237.107 124.464)" fill="white" fill-opacity="0.75"/>
<ellipse cx="1.29044" cy="3.87758" rx="1.29044" ry="3.87758" transform="matrix(0.934261 0.356589 -0.355885 0.93453 232.029 117.952)" fill="white" fill-opacity="0.75"/>
<ellipse cx="1.29038" cy="3.87776" rx="1.29038" ry="3.87776" transform="matrix(0.989677 0.143314 -0.142814 0.98975 225.726 132.836)" fill="white" fill-opacity="0.75"/>
<ellipse cx="1.29105" cy="3.87574" rx="1.29105" ry="3.87574" transform="matrix(0.8285 0.559988 -0.558616 0.829427 251.273 130.045)" fill="white" fill-opacity="0.75"/>
<ellipse cx="1.29105" cy="3.87574" rx="1.29105" ry="3.87574" transform="matrix(0.8285 0.559988 -0.558616 0.829427 249.413 117.952)" fill="white" fill-opacity="0.75"/>
<ellipse cx="1.29105" cy="3.87574" rx="1.29105" ry="3.87574" transform="matrix(0.924669 0.380773 -0.379241 0.925298 261.616 126.184)" fill="white" fill-opacity="0.75"/>
<ellipse cx="1.29048" cy="3.87744" rx="1.29048" ry="3.87744" transform="matrix(0.965552 0.26021 -0.259345 0.965785 239.652 139.349)" fill="white" fill-opacity="0.75"/>
<ellipse cx="1.29048" cy="3.87744" rx="1.29048" ry="3.87744" transform="matrix(0.998117 0.0613428 -0.0604484 0.998171 229.537 148.781)" fill="white" fill-opacity="0.75"/>
<ellipse cx="1.29048" cy="3.87744" rx="1.29048" ry="3.87744" transform="matrix(0.907091 0.420934 -0.420121 0.907468 242.759 153.3)" fill="white" fill-opacity="0.75"/>
<ellipse cx="1.29148" cy="3.87445" rx="1.29148" ry="3.87445" transform="matrix(0.706865 0.707349 -0.706085 0.708127 255.205 147.719)" fill="white" fill-opacity="0.75"/>
<path fill-rule="evenodd" clip-rule="evenodd" d="M227.517 165.999C229.048 168.227 230.829 170.355 232.87 172.343C253.92 175.626 266.27 164.964 273.899 151.242C279.149 141.797 276.692 136.19 266.742 127.679C270.949 133.058 271.192 137.886 267.387 144.73C259.9 158.199 247.864 168.719 227.517 165.999Z" fill="#FE6F6F"/>
<ellipse cx="1.29169" cy="3.87382" rx="1.29169" ry="3.87382" transform="matrix(0.781398 0.624033 -0.62266 0.782493 265.169 137.125)" fill="white" fill-opacity="0.75"/>
<ellipse cx="1.29105" cy="3.87574" rx="1.29105" ry="3.87574" transform="matrix(0.635869 0.771797 -0.770743 0.637147 267.228 151.912)" fill="white" fill-opacity="0.75"/>
<ellipse cx="1.29048" cy="3.87744" rx="1.29048" ry="3.87744" transform="matrix(0.637296 0.77062 -0.770048 0.637986 253.844 162.604)" fill="white" fill-opacity="0.75"/>
<ellipse cx="1.29048" cy="3.87744" rx="1.29048" ry="3.87744" transform="matrix(0.996653 -0.0817455 0.0826385 0.99658 232.99 162.815)" fill="white" fill-opacity="0.75"/>
<ellipse cx="1.29105" cy="3.87574" rx="1.29105" ry="3.87574" transform="matrix(0.956769 0.290849 -0.289264 0.957249 273.372 141.208)" fill="white" fill-opacity="0.75"/>
<ellipse cx="195.39" cy="135.069" rx="4.73576" ry="8.28758" transform="rotate(175.335 195.39 135.069)" fill="#86DA53"/>
<ellipse cx="191.406" cy="139.861" rx="3.07785" ry="6.02235" transform="rotate(-71.2006 191.406 139.861)" fill="#86DA53"/>
<path d="M184.158 162.491C177.782 153.419 183.513 146.993 194.409 139.335C206.414 133.351 211.515 132.22 216.71 139.612C223.086 148.684 226.064 159.816 217.5 172.187C204.247 176.993 190.535 171.564 184.158 162.491Z" fill="#FF8888"/>
<ellipse cx="0.911395" cy="2.73862" rx="0.911395" ry="2.73862" transform="matrix(0.620055 -0.784558 0.785025 0.619464 188.366 154.762)" fill="white" fill-opacity="0.75"/>
<ellipse cx="0.911395" cy="2.73862" rx="0.911395" ry="2.73862" transform="matrix(0.727994 -0.685584 0.686132 0.727477 182.663 155.986)" fill="white" fill-opacity="0.75"/>
<ellipse cx="0.911352" cy="2.73874" rx="0.911352" ry="2.73874" transform="matrix(0.560167 -0.82838 0.828663 0.559748 190.186 164.573)" fill="white" fill-opacity="0.75"/>
<ellipse cx="0.911829" cy="2.73732" rx="0.911829" ry="2.73732" transform="matrix(0.864999 -0.501773 0.503205 0.864167 196.273 147.474)" fill="white" fill-opacity="0.75"/>
<ellipse cx="0.911829" cy="2.73732" rx="0.911829" ry="2.73732" transform="matrix(0.864999 -0.501773 0.503205 0.864167 188.012 144.936)" fill="white" fill-opacity="0.75"/>
<ellipse cx="0.911829" cy="2.73732" rx="0.911829" ry="2.73732" transform="matrix(0.745583 -0.666413 0.667646 0.744479 197 139.709)" fill="white" fill-opacity="0.75"/>
<ellipse cx="0.911429" cy="2.73851" rx="0.911429" ry="2.73851" transform="matrix(0.654875 -0.755737 0.756324 0.654198 198.611 157.725)" fill="white" fill-opacity="0.75"/>
<ellipse cx="0.911429" cy="2.73851" rx="0.911429" ry="2.73851" transform="matrix(0.49006 -0.871689 0.872127 0.489279 201.494 167.057)" fill="white" fill-opacity="0.75"/>
<ellipse cx="0.911429" cy="2.73851" rx="0.911429" ry="2.73851" transform="matrix(0.774074 -0.633095 0.633788 0.773507 208.436 160.042)" fill="white" fill-opacity="0.75"/>
<ellipse cx="0.912133" cy="2.7364" rx="0.912133" ry="2.7364" transform="matrix(0.944647 -0.328088 0.329774 0.94406 208.718 150.412)" fill="white" fill-opacity="0.75"/>
<path fill-rule="evenodd" clip-rule="evenodd" d="M211.819 173.639C213.707 173.351 215.608 172.874 217.499 172.188C226.064 159.816 223.086 148.684 216.709 139.612C212.321 133.369 208 133.206 199.529 136.912C204.242 135.892 207.386 137.224 210.566 141.748C216.825 150.652 219.809 161.541 211.819 173.639Z" fill="#FE6F6F"/>
<ellipse cx="0.912281" cy="2.73596" rx="0.912281" ry="2.73596" transform="matrix(0.902126 -0.431473 0.433057 0.901367 205.049 140.818)" fill="white" fill-opacity="0.75"/>
<ellipse cx="0.911829" cy="2.73732" rx="0.911829" ry="2.73732" transform="matrix(0.971727 -0.236107 0.237715 0.971335 215.083 144.059)" fill="white" fill-opacity="0.75"/>
<ellipse cx="0.911429" cy="2.73851" rx="0.911429" ry="2.73851" transform="matrix(0.971289 -0.237903 0.238773 0.971075 217.762 155.857)" fill="white" fill-opacity="0.75"/>
<ellipse cx="0.911429" cy="2.73851" rx="0.911429" ry="2.73851" transform="matrix(0.360627 -0.93271 0.933033 0.359792 211.479 169.18)" fill="white" fill-opacity="0.75"/>
<ellipse cx="0.911829" cy="2.73732" rx="0.911829" ry="2.73732" transform="matrix(0.678627 -0.734483 0.735606 0.67741 210.169 136.859)" fill="white" fill-opacity="0.75"/>
<ellipse cx="201.013" cy="218.208" rx="7" ry="8" fill="white"/>
<ellipse cx="280.013" cy="217.208" rx="7" ry="8" fill="white"/>
</svg>
