<svg width="430" height="932" viewBox="0 0 430 932" fill="none" xmlns="http://www.w3.org/2000/svg">
<g clip-path="url(#clip0_331_1986)">
<rect width="430" height="932" fill="#FFCFE0"/>
<rect x="0.5" y="650.5" width="429" height="281" fill="#413434" stroke="black"/>
<path d="M212.148 655.594C214.725 654.601 217.589 654.523 220.269 655.374L390.921 709.562C402.329 713.185 402.847 729.114 391.677 732.819L215.908 791.123C213.708 791.853 211.327 791.934 209.045 791.358L35.8208 747.584C24.1454 744.634 22.7544 728.571 33.8057 724.313L212.148 655.594Z" fill="#936247"/>
<path d="M213.143 796.79C213.143 793.613 215.024 790.736 217.935 789.462L389.42 714.381C394.706 712.067 400.629 715.939 400.629 721.709V728.794C400.629 731.946 398.778 734.804 395.903 736.093L224.417 813.004C219.124 815.377 213.143 811.505 213.143 805.704V796.79Z" fill="#AC7252"/>
<path d="M26.1287 733.648C26.1287 728.181 31.5171 724.486 36.7125 726.389L207.807 789.067C211.059 790.258 213.248 793.362 213.248 796.784L213.248 803.284C213.248 808.791 207.787 812.488 202.575 810.51L31.4805 745.59C28.2738 744.373 26.1286 741.293 26.1286 737.905L26.1287 733.648Z" fill="#E2A17C"/>
<path d="M206.367 587.454C208.649 586.624 211.148 586.502 213.541 587.105L309.781 611.343C321.199 614.219 322.894 629.784 312.293 634.417L214.184 677.295C211.408 678.508 208.247 678.628 205.323 677.631L111.028 645.484C99.9862 641.72 99.4357 626.338 110.202 622.423L206.367 587.454Z" fill="#E5E3E3"/>
<path d="M209.396 686.444C209.396 678.405 214.209 671.147 221.615 668.02L329.615 622.412C342.8 616.844 357.396 626.524 357.396 640.836V698.892C357.396 706.93 352.584 714.187 345.179 717.315L237.179 762.946C223.994 768.517 209.396 758.837 209.396 744.522V686.444Z" fill="#D3D2D2"/>
<rect x="321" y="633" width="25.6027" height="25.6027" rx="12.8013" fill="#C7C7C7"/>
<rect x="339.62" y="670.238" width="11.6376" height="11.6376" rx="5.81879" fill="#C7C7C7"/>
<rect x="301" y="650" width="11.6376" height="11.6376" rx="5.81879" fill="#C7C7C7"/>
<path d="M70.8954 649.441C70.8954 635.797 84.3244 626.56 97.3033 631.275L196.242 667.22C204.399 670.184 209.895 677.958 209.895 686.533L209.895 745.499C209.895 759.116 196.514 768.352 183.546 763.686L84.608 728.079C76.4204 725.132 70.8955 717.342 70.8954 708.744L70.8954 649.441Z" fill="#F4F4F4"/>
<rect x="78" y="697" width="21.801" height="21.801" rx="10.9005" fill="#E2E2E2"/>
<rect x="82" y="670" width="9.7738" height="9.7738" rx="4.8869" fill="#E2E2E2"/>
<rect x="104" y="713" width="17.7738" height="17.7738" rx="8.8869" fill="#E2E2E2"/>
<path d="M206.998 487.274C209.28 486.444 211.779 486.323 214.172 486.925L310.412 511.164C321.83 514.039 323.525 529.604 312.924 534.237L214.815 577.115C212.039 578.328 208.878 578.448 205.954 577.451L111.659 545.305C100.617 541.541 100.067 526.158 110.833 522.243L206.998 487.274Z" fill="#D1BD7C"/>
<path d="M210.026 586.265C210.026 578.226 214.84 570.968 222.246 567.84L330.246 522.232C343.431 516.664 358.026 526.344 358.026 540.657V598.713C358.026 606.75 353.214 614.007 345.81 617.136L237.81 662.766C224.625 668.337 210.026 658.657 210.026 644.343V586.265Z" fill="#EBD795"/>
<path d="M71.5263 549.261C71.5262 535.618 84.9553 526.38 97.9341 531.095L196.872 567.04C205.03 570.004 210.526 577.778 210.526 586.354L210.526 645.319C210.526 658.936 197.145 668.173 184.177 663.506L85.2389 627.899C77.0512 624.953 71.5263 617.163 71.5263 608.565L71.5263 549.261Z" fill="#FFEDB2"/>
<path d="M210.228 454.114C210.228 445.646 215.561 438.096 223.542 435.265L331.542 396.954C344.559 392.336 358.228 401.991 358.228 415.803V497.2C358.228 505.238 353.416 512.495 346.012 515.623L238.012 561.253C224.826 566.824 210.228 557.144 210.228 542.83V454.114Z" fill="#AC7252"/>
<path d="M210.228 501.988L358.228 445.488V487.988L210.228 548.988V501.988Z" fill="#E6E6E6"/>
<path d="M71.7282 450.988L210.728 501.488L210.728 546.988L71.7282 496.988L71.7282 450.988Z" fill="white"/>
<path d="M203.728 366.832L357.228 397.907L215.186 449.089L70.7281 404.35L203.728 366.832Z" fill="#D9D9D9"/>
<path d="M210.577 338.74L357.577 295.988V402.167L210.577 459.988V338.74Z" fill="#AC7252"/>
<path fill-rule="evenodd" clip-rule="evenodd" d="M210.728 329.314L71.728 291.417L71.7281 408.519L76.4401 410.214C73.5234 413.563 71.7281 417.967 71.7281 422.95L71.7281 507.053C71.7281 515.65 77.2531 523.441 85.4407 526.387L184.379 561.994C197.346 566.661 210.728 557.424 210.728 543.807V458.543L210.728 457.025L210.728 329.314Z" fill="#E2A17C"/>
<path d="M201.777 253.481C203.659 252.951 205.655 252.884 207.596 253.287L348.702 282.606C361.665 285.3 362.344 303.594 349.589 306.5L207.031 338.975C205.454 339.334 203.813 339.375 202.202 339.094L67.5501 315.648C54.6316 313.398 53.2093 295.34 65.674 291.828L201.777 253.481Z" fill="#E5E3E3"/>
<path d="M207.55 346.106C207.55 340.931 210.803 336.314 215.676 334.573L353.971 285.151C361.947 282.3 370.34 288.213 370.34 296.684V336.145C370.34 340.988 367.485 345.377 363.058 347.34L356.276 350.349C350.24 353.026 343.447 348.607 343.447 342.004V342.004C343.447 335.75 337.299 331.348 331.378 333.363L317.091 338.224C312.126 339.913 308.788 344.575 308.788 349.819V358.677C308.788 363.738 305.676 368.277 300.956 370.101L286.907 375.531C282.183 377.357 276.82 375.809 273.795 371.746V371.746C268.339 364.417 256.887 366.28 254.035 374.961L251.024 384.125C249.779 387.912 246.769 390.857 242.955 392.018L223.364 397.982C215.496 400.378 207.55 394.491 207.55 386.266V346.106Z" fill="#D3D2D2"/>
<path d="M55.6296 302.284C55.6296 295.523 62.1173 290.824 68.6436 292.858L201.14 334.142C205.536 335.512 208.57 339.599 208.57 344.154L208.57 391.224C208.57 398.458 201.216 403.176 194.494 400.255L179.412 393.705C175.562 392.032 173.044 388.23 173.044 384.088L173.044 380.392C173.044 376.021 170.246 372.057 166.089 370.541L138.706 360.552C134.7 359.091 130.55 361.941 130.55 366.154V366.154C130.55 370.476 126.201 373.329 122.153 371.662L114.79 368.632C110.841 367.006 108.235 363.151 108.235 358.936L108.235 341.108C108.235 336.732 105.43 332.765 101.267 331.252L86.4767 325.879C79.7873 323.448 72.8875 328.28 73.0017 335.314L73.1624 345.213C73.2603 351.246 67.3427 355.39 61.6055 353.305V353.305C58.0352 352.008 55.6296 348.606 55.6296 344.852L55.6296 302.284Z" fill="white"/>
<path d="M210.228 427.988L358.228 371.488V413.988L210.228 474.988V427.988Z" fill="#E6E6E6"/>
<path d="M71.7278 384.488L210.728 426.988L210.728 472.988L71.7278 422.988L71.7278 384.488Z" fill="white"/>
<path d="M72.1936 458.301L211.194 500.801L211.194 546.801L72.1936 496.801L72.1936 458.301Z" fill="white"/>
<path d="M123.77 424.488C123.77 436.639 117.77 439.463 109.27 436.488C99.27 432.988 96.27 432.139 96.27 419.988C96.27 407.838 100.986 396.988 109.27 396.988C117.554 396.988 123.77 412.338 123.77 424.488Z" fill="#F79393"/>
<path d="M183.27 444.488C183.27 456.639 177.27 459.463 168.77 456.488C158.77 452.988 155.77 452.139 155.77 439.988C155.77 427.838 160.485 416.988 168.77 416.988C177.054 416.988 183.27 432.338 183.27 444.488Z" fill="#F79393"/>
<path d="M223.77 449.765C223.77 462.038 229.879 464.891 238.533 461.886C248.715 458.351 251.77 457.493 251.77 445.22C251.77 432.947 246.968 421.988 238.533 421.988C230.098 421.988 223.77 437.493 223.77 449.765Z" fill="#D06E6E"/>
<path d="M271.77 504.765C271.77 517.038 277.879 519.891 286.533 516.886C296.715 513.351 299.77 512.493 299.77 500.22C299.77 487.947 294.968 476.988 286.533 476.988C278.098 476.988 271.77 492.493 271.77 504.765Z" fill="#D06E6E"/>
<path d="M219.77 524.765C219.77 537.038 225.879 539.891 234.533 536.886C244.715 533.351 247.77 532.493 247.77 520.22C247.77 507.947 242.968 496.988 234.533 496.988C226.098 496.988 219.77 512.493 219.77 524.765Z" fill="#D06E6E"/>
<path d="M322.77 482.765C322.77 495.038 328.879 497.891 337.533 494.886C347.715 491.351 350.77 490.493 350.77 478.22C350.77 465.947 345.968 454.988 337.533 454.988C329.098 454.988 322.77 470.493 322.77 482.765Z" fill="#D06E6E"/>
<path d="M272.77 428.765C272.77 441.038 278.879 443.891 287.533 440.886C297.715 437.351 300.77 436.493 300.77 424.22C300.77 411.947 295.968 400.988 287.533 400.988C279.098 400.988 272.77 416.493 272.77 428.765Z" fill="#D06E6E"/>
<path d="M321.77 408.765C321.77 421.038 327.879 423.891 336.533 420.886C346.715 417.351 349.77 416.493 349.77 404.22C349.77 391.947 344.968 380.988 336.533 380.988C328.098 380.988 321.77 396.493 321.77 408.765Z" fill="#D06E6E"/>
<path d="M150.27 506.488C150.27 518.639 144.27 521.463 135.77 518.488C125.77 514.988 122.77 514.139 122.77 501.988C122.77 489.838 127.485 478.988 135.77 478.988C144.054 478.988 150.27 494.338 150.27 506.488Z" fill="#F79393"/>
<path d="M210.27 528.488C210.27 540.639 204.27 543.463 195.77 540.488C185.77 536.988 182.77 536.139 182.77 523.988C182.77 511.838 187.485 500.988 195.77 500.988C204.054 500.988 210.27 516.338 210.27 528.488Z" fill="#F79393"/>
<path fill-rule="evenodd" clip-rule="evenodd" d="M71.7695 493.592C73.71 495.02 76.4708 495.985 80.2909 497.321C80.4486 497.376 80.6082 497.432 80.7695 497.488C89.2695 500.463 95.2695 497.639 95.2695 485.488C95.2695 473.338 89.0538 457.988 80.7695 457.988C76.9908 457.988 73.9545 460.246 71.7695 463.854V493.592Z" fill="#F79393"/>
<path d="M246.658 297.524C246.658 301.881 237.668 306.488 226.577 306.488C215.487 306.488 206.497 301.881 206.497 297.524C206.497 293.167 215.487 270.988 226.577 270.988C237.668 270.988 246.658 293.167 246.658 297.524Z" fill="#D06E6E"/>
<path fill-rule="evenodd" clip-rule="evenodd" d="M219.677 305.879C211.986 304.486 206.497 300.928 206.497 297.524C206.497 293.854 212.877 277.536 221.518 272.484C229.033 277.489 234.577 293.537 234.577 297.151C234.577 301.054 228.109 305.161 219.677 305.879Z" fill="#E37E7E"/>
<path d="M178.124 301.923C178.124 304.628 172.543 307.488 165.658 307.488C158.774 307.488 153.193 304.628 153.193 301.923C153.193 299.219 158.774 285.451 165.658 285.451C172.543 285.451 178.124 299.219 178.124 301.923Z" fill="#D06E6E"/>
<path fill-rule="evenodd" clip-rule="evenodd" d="M161.376 307.11C156.601 306.246 153.193 304.037 153.193 301.923C153.193 299.645 157.153 289.516 162.517 286.38C167.182 289.486 170.624 299.449 170.624 301.692C170.624 304.115 166.61 306.664 161.376 307.11Z" fill="#E37E7E"/>
<path d="M209.195 267.986C209.195 269.463 206.146 271.025 202.386 271.025C198.626 271.025 195.577 269.463 195.577 267.986C195.577 266.508 198.626 258.988 202.386 258.988C206.146 258.988 209.195 266.508 209.195 267.986Z" fill="#D06E6E"/>
<path fill-rule="evenodd" clip-rule="evenodd" d="M200.048 270.819C197.439 270.347 195.577 269.141 195.577 267.986C195.577 266.742 197.74 261.209 200.67 259.496C203.218 261.193 205.099 266.635 205.099 267.86C205.099 269.183 202.906 270.575 200.048 270.819Z" fill="#E37E7E"/>
<path d="M302.577 291.845C302.577 294.449 297.205 297.203 290.577 297.203C283.95 297.203 278.577 294.449 278.577 291.845C278.577 289.242 283.95 275.988 290.577 275.988C297.205 275.988 302.577 289.242 302.577 291.845Z" fill="#D06E6E"/>
<path fill-rule="evenodd" clip-rule="evenodd" d="M286.459 296.84C281.86 296.008 278.577 293.881 278.577 291.846C278.577 289.653 282.389 279.903 287.552 276.883C292.044 279.873 295.358 289.465 295.358 291.624C295.358 293.956 291.495 296.409 286.459 296.84Z" fill="#E37E7E"/>
<path d="M124.527 291.866C124.527 293.487 121.18 295.203 117.052 295.203C112.924 295.203 109.577 293.487 109.577 291.866C109.577 290.244 112.924 281.988 117.052 281.988C121.18 281.988 124.527 290.244 124.527 291.866Z" fill="#D06E6E"/>
<path fill-rule="evenodd" clip-rule="evenodd" d="M114.487 294.976C111.622 294.458 109.577 293.133 109.577 291.865C109.577 290.499 111.952 284.426 115.168 282.545C117.965 284.407 120.03 290.382 120.03 291.727C120.03 293.179 117.624 294.707 114.487 294.976Z" fill="#E37E7E"/>
<path d="M0 -8H431V924H0V-8Z" fill="#413434" fill-opacity="0.8"/>
<path d="M424 50H855V982H424V50Z" fill="#413434" fill-opacity="0.8"/>
</g>
<defs>
<clipPath id="clip0_331_1986">
<rect width="430" height="932" fill="white"/>
</clipPath>
</defs>
</svg>
