<svg width="82" height="127" viewBox="0 0 82 127" fill="none" xmlns="http://www.w3.org/2000/svg">
<path d="M66.0301 43.2444C66.7878 42.5147 67.9882 42.5375 68.7185 43.2954V43.2954C69.421 44.0246 69.4389 45.1784 68.7592 45.9288L11.7375 108.89C9.92051 110.896 6.81881 111 4.87199 109.121V109.121C2.89991 107.216 2.90145 104.041 4.87539 102.14L66.0301 43.2444Z" fill="#A97152"/>
<ellipse cx="6.26427" cy="15.4018" rx="6.26427" ry="15.4018" transform="matrix(0.972024 0.234884 -0.241849 0.970314 32.2769 50.8843)" fill="#B58832"/>
<ellipse cx="5.42528" cy="10.5272" rx="5.42528" ry="10.5272" transform="matrix(0.468332 0.883552 -0.877398 0.479762 59.948 59.2705)" fill="#B58832"/>
<ellipse cx="4.47067" cy="10.5695" rx="4.47067" ry="10.5695" transform="matrix(0.918326 0.395825 -0.398322 0.917246 53.084 40.938)" fill="#B58832"/>
<ellipse cx="3.88622" cy="7.7716" rx="3.88622" ry="7.7716" transform="matrix(0.387117 0.922031 -0.916592 0.399823 71.3752 45.897)" fill="#B58832"/>
<ellipse cx="2.79948" cy="5.81534" rx="2.79948" ry="5.81534" transform="matrix(0.937996 0.346646 -0.350549 0.936544 66.2786 33.6841)" fill="#B58832"/>
<path d="M39.2009 16.8369C39.4952 15.6976 40.6563 15.0117 41.7962 15.3037V15.3037C42.8881 15.5834 43.5741 16.6642 43.3624 17.7714L24.2457 117.75C23.6776 120.721 20.7756 122.642 17.8185 122.005V122.005C14.8254 121.36 12.9705 118.354 13.7365 115.39L39.2009 16.8369Z" fill="#C88B68"/>
<ellipse cx="23.3979" cy="57.5572" rx="7" ry="17" transform="rotate(-17.8419 23.3979 57.5572)" fill="#FFC061"/>
<ellipse cx="42.1924" cy="48.4843" rx="6.04283" ry="11.6567" transform="rotate(30.0675 42.1924 48.4843)" fill="#FFC061"/>
<ellipse cx="32.1393" cy="32.9572" rx="4.99999" ry="11.6567" transform="rotate(-8.23745 32.1393 32.9572)" fill="#FFC061"/>
<ellipse cx="44.4203" cy="25.7332" rx="4.32336" ry="8.61574" transform="rotate(35.1948 44.4203 25.7332)" fill="#FFC061"/>
<ellipse cx="38.1601" cy="13.3716" rx="3.13036" ry="6.41463" transform="rotate(-11.231 38.1601 13.3716)" fill="#FFC061"/>
<ellipse cx="55.7258" cy="5.36525" rx="2.94474" ry="4.62846" transform="rotate(44.5 55.7258 5.36525)" fill="#FFC061"/>
<ellipse cx="58.9841" cy="31.1712" rx="2.94474" ry="4.62846" transform="rotate(48.6499 58.9841 31.1712)" fill="#FFC061"/>
<ellipse cx="9.68892" cy="31.3744" rx="2.94474" ry="4.62846" transform="rotate(-36.6299 9.68892 31.3744)" fill="#FFC061"/>
</svg>
